%TF.GenerationSoftware,KiCad,Pcbnew,9.0.5*%
%TF.CreationDate,2026-01-17T16:52:57+01:00*%
%TF.ProjectId,power_bank,706f7765-725f-4626-916e-6b2e6b696361,1.0*%
%TF.SameCoordinates,Original*%
%TF.FileFunction,Drillmap*%
%TF.FilePolarity,Positive*%
%FSLAX45Y45*%
G04 Gerber Fmt 4.5, Leading zero omitted, Abs format (unit mm)*
G04 Created by KiCad (PCBNEW 9.0.5) date 2026-01-17 16:52:57*
%MOMM*%
%LPD*%
G01*
G04 APERTURE LIST*
%ADD10C,0.050000*%
%ADD11C,0.200000*%
%ADD12C,0.320000*%
G04 APERTURE END LIST*
D10*
X21100000Y-6750000D02*
X8900000Y-6750000D01*
X8900000Y-12750000D02*
X21100000Y-12750000D01*
X8500000Y-7150000D02*
G75*
G02*
X8900000Y-6750000I400000J0D01*
G01*
X8900000Y-12750000D02*
G75*
G02*
X8500000Y-12350000I0J400000D01*
G01*
X8500000Y-7150000D02*
X8500000Y-12350000D01*
X21100000Y-6750000D02*
G75*
G02*
X21500000Y-7150000I0J-400000D01*
G01*
X21500000Y-12350000D02*
G75*
G02*
X21100000Y-12750000I-400000J0D01*
G01*
X21500000Y-12350000D02*
X21500000Y-7150000D01*
D11*
D12*
X8740000Y-6940000D02*
X9060000Y-7260000D01*
X9060000Y-6940000D02*
X8740000Y-7260000D01*
X8740000Y-12240000D02*
X9060000Y-12560000D01*
X9060000Y-12240000D02*
X8740000Y-12560000D01*
X10761500Y-8374400D02*
X11081500Y-8694400D01*
X11081500Y-8374400D02*
X10761500Y-8694400D01*
X10801500Y-10812800D02*
X11121500Y-11132800D01*
X11121500Y-10812800D02*
X10801500Y-11132800D01*
X16322500Y-8374400D02*
X16642500Y-8694400D01*
X16642500Y-8374400D02*
X16322500Y-8694400D01*
X16362500Y-10812800D02*
X16682500Y-11132800D01*
X16682500Y-10812800D02*
X16362500Y-11132800D01*
X18740000Y-6940000D02*
X19060000Y-7260000D01*
X19060000Y-6940000D02*
X18740000Y-7260000D01*
X18740000Y-12240000D02*
X19060000Y-12560000D01*
X19060000Y-12240000D02*
X18740000Y-12560000D01*
D11*
X8758277Y-13063984D02*
X8758277Y-12863984D01*
X8758277Y-12863984D02*
X8805896Y-12863984D01*
X8805896Y-12863984D02*
X8834467Y-12873508D01*
X8834467Y-12873508D02*
X8853515Y-12892555D01*
X8853515Y-12892555D02*
X8863039Y-12911603D01*
X8863039Y-12911603D02*
X8872563Y-12949698D01*
X8872563Y-12949698D02*
X8872563Y-12978269D01*
X8872563Y-12978269D02*
X8863039Y-13016365D01*
X8863039Y-13016365D02*
X8853515Y-13035412D01*
X8853515Y-13035412D02*
X8834467Y-13054460D01*
X8834467Y-13054460D02*
X8805896Y-13063984D01*
X8805896Y-13063984D02*
X8758277Y-13063984D01*
X8958277Y-13063984D02*
X8958277Y-12930650D01*
X8958277Y-12968746D02*
X8967801Y-12949698D01*
X8967801Y-12949698D02*
X8977324Y-12940174D01*
X8977324Y-12940174D02*
X8996372Y-12930650D01*
X8996372Y-12930650D02*
X9015420Y-12930650D01*
X9082086Y-13063984D02*
X9082086Y-12930650D01*
X9082086Y-12863984D02*
X9072563Y-12873508D01*
X9072563Y-12873508D02*
X9082086Y-12883031D01*
X9082086Y-12883031D02*
X9091610Y-12873508D01*
X9091610Y-12873508D02*
X9082086Y-12863984D01*
X9082086Y-12863984D02*
X9082086Y-12883031D01*
X9205896Y-13063984D02*
X9186848Y-13054460D01*
X9186848Y-13054460D02*
X9177324Y-13035412D01*
X9177324Y-13035412D02*
X9177324Y-12863984D01*
X9310658Y-13063984D02*
X9291610Y-13054460D01*
X9291610Y-13054460D02*
X9282086Y-13035412D01*
X9282086Y-13035412D02*
X9282086Y-12863984D01*
X9539229Y-13063984D02*
X9539229Y-12863984D01*
X9539229Y-12863984D02*
X9605896Y-13006841D01*
X9605896Y-13006841D02*
X9672563Y-12863984D01*
X9672563Y-12863984D02*
X9672563Y-13063984D01*
X9853515Y-13063984D02*
X9853515Y-12959222D01*
X9853515Y-12959222D02*
X9843991Y-12940174D01*
X9843991Y-12940174D02*
X9824944Y-12930650D01*
X9824944Y-12930650D02*
X9786848Y-12930650D01*
X9786848Y-12930650D02*
X9767801Y-12940174D01*
X9853515Y-13054460D02*
X9834467Y-13063984D01*
X9834467Y-13063984D02*
X9786848Y-13063984D01*
X9786848Y-13063984D02*
X9767801Y-13054460D01*
X9767801Y-13054460D02*
X9758277Y-13035412D01*
X9758277Y-13035412D02*
X9758277Y-13016365D01*
X9758277Y-13016365D02*
X9767801Y-12997317D01*
X9767801Y-12997317D02*
X9786848Y-12987793D01*
X9786848Y-12987793D02*
X9834467Y-12987793D01*
X9834467Y-12987793D02*
X9853515Y-12978269D01*
X9948753Y-12930650D02*
X9948753Y-13130650D01*
X9948753Y-12940174D02*
X9967801Y-12930650D01*
X9967801Y-12930650D02*
X10005896Y-12930650D01*
X10005896Y-12930650D02*
X10024944Y-12940174D01*
X10024944Y-12940174D02*
X10034467Y-12949698D01*
X10034467Y-12949698D02*
X10043991Y-12968746D01*
X10043991Y-12968746D02*
X10043991Y-13025888D01*
X10043991Y-13025888D02*
X10034467Y-13044936D01*
X10034467Y-13044936D02*
X10024944Y-13054460D01*
X10024944Y-13054460D02*
X10005896Y-13063984D01*
X10005896Y-13063984D02*
X9967801Y-13063984D01*
X9967801Y-13063984D02*
X9948753Y-13054460D01*
X10129705Y-13044936D02*
X10139229Y-13054460D01*
X10139229Y-13054460D02*
X10129705Y-13063984D01*
X10129705Y-13063984D02*
X10120182Y-13054460D01*
X10120182Y-13054460D02*
X10129705Y-13044936D01*
X10129705Y-13044936D02*
X10129705Y-13063984D01*
X10129705Y-12940174D02*
X10139229Y-12949698D01*
X10139229Y-12949698D02*
X10129705Y-12959222D01*
X10129705Y-12959222D02*
X10120182Y-12949698D01*
X10120182Y-12949698D02*
X10129705Y-12940174D01*
X10129705Y-12940174D02*
X10129705Y-12959222D01*
X8297500Y-13292500D02*
X8497500Y-13492500D01*
X8497500Y-13292500D02*
X8297500Y-13492500D01*
X8739229Y-13283984D02*
X8863039Y-13283984D01*
X8863039Y-13283984D02*
X8796372Y-13360174D01*
X8796372Y-13360174D02*
X8824944Y-13360174D01*
X8824944Y-13360174D02*
X8843991Y-13369698D01*
X8843991Y-13369698D02*
X8853515Y-13379222D01*
X8853515Y-13379222D02*
X8863039Y-13398269D01*
X8863039Y-13398269D02*
X8863039Y-13445888D01*
X8863039Y-13445888D02*
X8853515Y-13464936D01*
X8853515Y-13464936D02*
X8843991Y-13474460D01*
X8843991Y-13474460D02*
X8824944Y-13483984D01*
X8824944Y-13483984D02*
X8767801Y-13483984D01*
X8767801Y-13483984D02*
X8748753Y-13474460D01*
X8748753Y-13474460D02*
X8739229Y-13464936D01*
X8948753Y-13464936D02*
X8958277Y-13474460D01*
X8958277Y-13474460D02*
X8948753Y-13483984D01*
X8948753Y-13483984D02*
X8939229Y-13474460D01*
X8939229Y-13474460D02*
X8948753Y-13464936D01*
X8948753Y-13464936D02*
X8948753Y-13483984D01*
X9034467Y-13303031D02*
X9043991Y-13293508D01*
X9043991Y-13293508D02*
X9063039Y-13283984D01*
X9063039Y-13283984D02*
X9110658Y-13283984D01*
X9110658Y-13283984D02*
X9129705Y-13293508D01*
X9129705Y-13293508D02*
X9139229Y-13303031D01*
X9139229Y-13303031D02*
X9148753Y-13322079D01*
X9148753Y-13322079D02*
X9148753Y-13341127D01*
X9148753Y-13341127D02*
X9139229Y-13369698D01*
X9139229Y-13369698D02*
X9024944Y-13483984D01*
X9024944Y-13483984D02*
X9148753Y-13483984D01*
X9272563Y-13283984D02*
X9291610Y-13283984D01*
X9291610Y-13283984D02*
X9310658Y-13293508D01*
X9310658Y-13293508D02*
X9320182Y-13303031D01*
X9320182Y-13303031D02*
X9329705Y-13322079D01*
X9329705Y-13322079D02*
X9339229Y-13360174D01*
X9339229Y-13360174D02*
X9339229Y-13407793D01*
X9339229Y-13407793D02*
X9329705Y-13445888D01*
X9329705Y-13445888D02*
X9320182Y-13464936D01*
X9320182Y-13464936D02*
X9310658Y-13474460D01*
X9310658Y-13474460D02*
X9291610Y-13483984D01*
X9291610Y-13483984D02*
X9272563Y-13483984D01*
X9272563Y-13483984D02*
X9253515Y-13474460D01*
X9253515Y-13474460D02*
X9243991Y-13464936D01*
X9243991Y-13464936D02*
X9234467Y-13445888D01*
X9234467Y-13445888D02*
X9224944Y-13407793D01*
X9224944Y-13407793D02*
X9224944Y-13360174D01*
X9224944Y-13360174D02*
X9234467Y-13322079D01*
X9234467Y-13322079D02*
X9243991Y-13303031D01*
X9243991Y-13303031D02*
X9253515Y-13293508D01*
X9253515Y-13293508D02*
X9272563Y-13283984D01*
X9463039Y-13283984D02*
X9482086Y-13283984D01*
X9482086Y-13283984D02*
X9501134Y-13293508D01*
X9501134Y-13293508D02*
X9510658Y-13303031D01*
X9510658Y-13303031D02*
X9520182Y-13322079D01*
X9520182Y-13322079D02*
X9529705Y-13360174D01*
X9529705Y-13360174D02*
X9529705Y-13407793D01*
X9529705Y-13407793D02*
X9520182Y-13445888D01*
X9520182Y-13445888D02*
X9510658Y-13464936D01*
X9510658Y-13464936D02*
X9501134Y-13474460D01*
X9501134Y-13474460D02*
X9482086Y-13483984D01*
X9482086Y-13483984D02*
X9463039Y-13483984D01*
X9463039Y-13483984D02*
X9443991Y-13474460D01*
X9443991Y-13474460D02*
X9434467Y-13464936D01*
X9434467Y-13464936D02*
X9424944Y-13445888D01*
X9424944Y-13445888D02*
X9415420Y-13407793D01*
X9415420Y-13407793D02*
X9415420Y-13360174D01*
X9415420Y-13360174D02*
X9424944Y-13322079D01*
X9424944Y-13322079D02*
X9434467Y-13303031D01*
X9434467Y-13303031D02*
X9443991Y-13293508D01*
X9443991Y-13293508D02*
X9463039Y-13283984D01*
X9615420Y-13483984D02*
X9615420Y-13350650D01*
X9615420Y-13369698D02*
X9624944Y-13360174D01*
X9624944Y-13360174D02*
X9643991Y-13350650D01*
X9643991Y-13350650D02*
X9672563Y-13350650D01*
X9672563Y-13350650D02*
X9691610Y-13360174D01*
X9691610Y-13360174D02*
X9701134Y-13379222D01*
X9701134Y-13379222D02*
X9701134Y-13483984D01*
X9701134Y-13379222D02*
X9710658Y-13360174D01*
X9710658Y-13360174D02*
X9729705Y-13350650D01*
X9729705Y-13350650D02*
X9758277Y-13350650D01*
X9758277Y-13350650D02*
X9777325Y-13360174D01*
X9777325Y-13360174D02*
X9786848Y-13379222D01*
X9786848Y-13379222D02*
X9786848Y-13483984D01*
X9882086Y-13483984D02*
X9882086Y-13350650D01*
X9882086Y-13369698D02*
X9891610Y-13360174D01*
X9891610Y-13360174D02*
X9910658Y-13350650D01*
X9910658Y-13350650D02*
X9939229Y-13350650D01*
X9939229Y-13350650D02*
X9958277Y-13360174D01*
X9958277Y-13360174D02*
X9967801Y-13379222D01*
X9967801Y-13379222D02*
X9967801Y-13483984D01*
X9967801Y-13379222D02*
X9977325Y-13360174D01*
X9977325Y-13360174D02*
X9996372Y-13350650D01*
X9996372Y-13350650D02*
X10024944Y-13350650D01*
X10024944Y-13350650D02*
X10043991Y-13360174D01*
X10043991Y-13360174D02*
X10053515Y-13379222D01*
X10053515Y-13379222D02*
X10053515Y-13483984D01*
X10443991Y-13274460D02*
X10272563Y-13531603D01*
X10701134Y-13283984D02*
X10720182Y-13283984D01*
X10720182Y-13283984D02*
X10739229Y-13293508D01*
X10739229Y-13293508D02*
X10748753Y-13303031D01*
X10748753Y-13303031D02*
X10758277Y-13322079D01*
X10758277Y-13322079D02*
X10767801Y-13360174D01*
X10767801Y-13360174D02*
X10767801Y-13407793D01*
X10767801Y-13407793D02*
X10758277Y-13445888D01*
X10758277Y-13445888D02*
X10748753Y-13464936D01*
X10748753Y-13464936D02*
X10739229Y-13474460D01*
X10739229Y-13474460D02*
X10720182Y-13483984D01*
X10720182Y-13483984D02*
X10701134Y-13483984D01*
X10701134Y-13483984D02*
X10682087Y-13474460D01*
X10682087Y-13474460D02*
X10672563Y-13464936D01*
X10672563Y-13464936D02*
X10663039Y-13445888D01*
X10663039Y-13445888D02*
X10653515Y-13407793D01*
X10653515Y-13407793D02*
X10653515Y-13360174D01*
X10653515Y-13360174D02*
X10663039Y-13322079D01*
X10663039Y-13322079D02*
X10672563Y-13303031D01*
X10672563Y-13303031D02*
X10682087Y-13293508D01*
X10682087Y-13293508D02*
X10701134Y-13283984D01*
X10853515Y-13464936D02*
X10863039Y-13474460D01*
X10863039Y-13474460D02*
X10853515Y-13483984D01*
X10853515Y-13483984D02*
X10843991Y-13474460D01*
X10843991Y-13474460D02*
X10853515Y-13464936D01*
X10853515Y-13464936D02*
X10853515Y-13483984D01*
X11053515Y-13483984D02*
X10939229Y-13483984D01*
X10996372Y-13483984D02*
X10996372Y-13283984D01*
X10996372Y-13283984D02*
X10977325Y-13312555D01*
X10977325Y-13312555D02*
X10958277Y-13331603D01*
X10958277Y-13331603D02*
X10939229Y-13341127D01*
X11129706Y-13303031D02*
X11139229Y-13293508D01*
X11139229Y-13293508D02*
X11158277Y-13283984D01*
X11158277Y-13283984D02*
X11205896Y-13283984D01*
X11205896Y-13283984D02*
X11224944Y-13293508D01*
X11224944Y-13293508D02*
X11234467Y-13303031D01*
X11234467Y-13303031D02*
X11243991Y-13322079D01*
X11243991Y-13322079D02*
X11243991Y-13341127D01*
X11243991Y-13341127D02*
X11234467Y-13369698D01*
X11234467Y-13369698D02*
X11120182Y-13483984D01*
X11120182Y-13483984D02*
X11243991Y-13483984D01*
X11415420Y-13283984D02*
X11377325Y-13283984D01*
X11377325Y-13283984D02*
X11358277Y-13293508D01*
X11358277Y-13293508D02*
X11348753Y-13303031D01*
X11348753Y-13303031D02*
X11329706Y-13331603D01*
X11329706Y-13331603D02*
X11320182Y-13369698D01*
X11320182Y-13369698D02*
X11320182Y-13445888D01*
X11320182Y-13445888D02*
X11329706Y-13464936D01*
X11329706Y-13464936D02*
X11339229Y-13474460D01*
X11339229Y-13474460D02*
X11358277Y-13483984D01*
X11358277Y-13483984D02*
X11396372Y-13483984D01*
X11396372Y-13483984D02*
X11415420Y-13474460D01*
X11415420Y-13474460D02*
X11424944Y-13464936D01*
X11424944Y-13464936D02*
X11434467Y-13445888D01*
X11434467Y-13445888D02*
X11434467Y-13398269D01*
X11434467Y-13398269D02*
X11424944Y-13379222D01*
X11424944Y-13379222D02*
X11415420Y-13369698D01*
X11415420Y-13369698D02*
X11396372Y-13360174D01*
X11396372Y-13360174D02*
X11358277Y-13360174D01*
X11358277Y-13360174D02*
X11339229Y-13369698D01*
X11339229Y-13369698D02*
X11329706Y-13379222D01*
X11329706Y-13379222D02*
X11320182Y-13398269D01*
X11558277Y-13283984D02*
X11577325Y-13283984D01*
X11577325Y-13283984D02*
X11596372Y-13293508D01*
X11596372Y-13293508D02*
X11605896Y-13303031D01*
X11605896Y-13303031D02*
X11615420Y-13322079D01*
X11615420Y-13322079D02*
X11624944Y-13360174D01*
X11624944Y-13360174D02*
X11624944Y-13407793D01*
X11624944Y-13407793D02*
X11615420Y-13445888D01*
X11615420Y-13445888D02*
X11605896Y-13464936D01*
X11605896Y-13464936D02*
X11596372Y-13474460D01*
X11596372Y-13474460D02*
X11577325Y-13483984D01*
X11577325Y-13483984D02*
X11558277Y-13483984D01*
X11558277Y-13483984D02*
X11539229Y-13474460D01*
X11539229Y-13474460D02*
X11529706Y-13464936D01*
X11529706Y-13464936D02*
X11520182Y-13445888D01*
X11520182Y-13445888D02*
X11510658Y-13407793D01*
X11510658Y-13407793D02*
X11510658Y-13360174D01*
X11510658Y-13360174D02*
X11520182Y-13322079D01*
X11520182Y-13322079D02*
X11529706Y-13303031D01*
X11529706Y-13303031D02*
X11539229Y-13293508D01*
X11539229Y-13293508D02*
X11558277Y-13283984D01*
X11701134Y-13283984D02*
X11701134Y-13322079D01*
X11777325Y-13283984D02*
X11777325Y-13322079D01*
X12072563Y-13560174D02*
X12063039Y-13550650D01*
X12063039Y-13550650D02*
X12043991Y-13522079D01*
X12043991Y-13522079D02*
X12034468Y-13503031D01*
X12034468Y-13503031D02*
X12024944Y-13474460D01*
X12024944Y-13474460D02*
X12015420Y-13426841D01*
X12015420Y-13426841D02*
X12015420Y-13388746D01*
X12015420Y-13388746D02*
X12024944Y-13341127D01*
X12024944Y-13341127D02*
X12034468Y-13312555D01*
X12034468Y-13312555D02*
X12043991Y-13293508D01*
X12043991Y-13293508D02*
X12063039Y-13264936D01*
X12063039Y-13264936D02*
X12072563Y-13255412D01*
X12177325Y-13369698D02*
X12158277Y-13360174D01*
X12158277Y-13360174D02*
X12148753Y-13350650D01*
X12148753Y-13350650D02*
X12139229Y-13331603D01*
X12139229Y-13331603D02*
X12139229Y-13322079D01*
X12139229Y-13322079D02*
X12148753Y-13303031D01*
X12148753Y-13303031D02*
X12158277Y-13293508D01*
X12158277Y-13293508D02*
X12177325Y-13283984D01*
X12177325Y-13283984D02*
X12215420Y-13283984D01*
X12215420Y-13283984D02*
X12234468Y-13293508D01*
X12234468Y-13293508D02*
X12243991Y-13303031D01*
X12243991Y-13303031D02*
X12253515Y-13322079D01*
X12253515Y-13322079D02*
X12253515Y-13331603D01*
X12253515Y-13331603D02*
X12243991Y-13350650D01*
X12243991Y-13350650D02*
X12234468Y-13360174D01*
X12234468Y-13360174D02*
X12215420Y-13369698D01*
X12215420Y-13369698D02*
X12177325Y-13369698D01*
X12177325Y-13369698D02*
X12158277Y-13379222D01*
X12158277Y-13379222D02*
X12148753Y-13388746D01*
X12148753Y-13388746D02*
X12139229Y-13407793D01*
X12139229Y-13407793D02*
X12139229Y-13445888D01*
X12139229Y-13445888D02*
X12148753Y-13464936D01*
X12148753Y-13464936D02*
X12158277Y-13474460D01*
X12158277Y-13474460D02*
X12177325Y-13483984D01*
X12177325Y-13483984D02*
X12215420Y-13483984D01*
X12215420Y-13483984D02*
X12234468Y-13474460D01*
X12234468Y-13474460D02*
X12243991Y-13464936D01*
X12243991Y-13464936D02*
X12253515Y-13445888D01*
X12253515Y-13445888D02*
X12253515Y-13407793D01*
X12253515Y-13407793D02*
X12243991Y-13388746D01*
X12243991Y-13388746D02*
X12234468Y-13379222D01*
X12234468Y-13379222D02*
X12215420Y-13369698D01*
X12491610Y-13483984D02*
X12491610Y-13283984D01*
X12577325Y-13483984D02*
X12577325Y-13379222D01*
X12577325Y-13379222D02*
X12567801Y-13360174D01*
X12567801Y-13360174D02*
X12548753Y-13350650D01*
X12548753Y-13350650D02*
X12520182Y-13350650D01*
X12520182Y-13350650D02*
X12501134Y-13360174D01*
X12501134Y-13360174D02*
X12491610Y-13369698D01*
X12701134Y-13483984D02*
X12682087Y-13474460D01*
X12682087Y-13474460D02*
X12672563Y-13464936D01*
X12672563Y-13464936D02*
X12663039Y-13445888D01*
X12663039Y-13445888D02*
X12663039Y-13388746D01*
X12663039Y-13388746D02*
X12672563Y-13369698D01*
X12672563Y-13369698D02*
X12682087Y-13360174D01*
X12682087Y-13360174D02*
X12701134Y-13350650D01*
X12701134Y-13350650D02*
X12729706Y-13350650D01*
X12729706Y-13350650D02*
X12748753Y-13360174D01*
X12748753Y-13360174D02*
X12758277Y-13369698D01*
X12758277Y-13369698D02*
X12767801Y-13388746D01*
X12767801Y-13388746D02*
X12767801Y-13445888D01*
X12767801Y-13445888D02*
X12758277Y-13464936D01*
X12758277Y-13464936D02*
X12748753Y-13474460D01*
X12748753Y-13474460D02*
X12729706Y-13483984D01*
X12729706Y-13483984D02*
X12701134Y-13483984D01*
X12882087Y-13483984D02*
X12863039Y-13474460D01*
X12863039Y-13474460D02*
X12853515Y-13455412D01*
X12853515Y-13455412D02*
X12853515Y-13283984D01*
X13034468Y-13474460D02*
X13015420Y-13483984D01*
X13015420Y-13483984D02*
X12977325Y-13483984D01*
X12977325Y-13483984D02*
X12958277Y-13474460D01*
X12958277Y-13474460D02*
X12948753Y-13455412D01*
X12948753Y-13455412D02*
X12948753Y-13379222D01*
X12948753Y-13379222D02*
X12958277Y-13360174D01*
X12958277Y-13360174D02*
X12977325Y-13350650D01*
X12977325Y-13350650D02*
X13015420Y-13350650D01*
X13015420Y-13350650D02*
X13034468Y-13360174D01*
X13034468Y-13360174D02*
X13043991Y-13379222D01*
X13043991Y-13379222D02*
X13043991Y-13398269D01*
X13043991Y-13398269D02*
X12948753Y-13417317D01*
X13120182Y-13474460D02*
X13139230Y-13483984D01*
X13139230Y-13483984D02*
X13177325Y-13483984D01*
X13177325Y-13483984D02*
X13196372Y-13474460D01*
X13196372Y-13474460D02*
X13205896Y-13455412D01*
X13205896Y-13455412D02*
X13205896Y-13445888D01*
X13205896Y-13445888D02*
X13196372Y-13426841D01*
X13196372Y-13426841D02*
X13177325Y-13417317D01*
X13177325Y-13417317D02*
X13148753Y-13417317D01*
X13148753Y-13417317D02*
X13129706Y-13407793D01*
X13129706Y-13407793D02*
X13120182Y-13388746D01*
X13120182Y-13388746D02*
X13120182Y-13379222D01*
X13120182Y-13379222D02*
X13129706Y-13360174D01*
X13129706Y-13360174D02*
X13148753Y-13350650D01*
X13148753Y-13350650D02*
X13177325Y-13350650D01*
X13177325Y-13350650D02*
X13196372Y-13360174D01*
X13272563Y-13560174D02*
X13282087Y-13550650D01*
X13282087Y-13550650D02*
X13301134Y-13522079D01*
X13301134Y-13522079D02*
X13310658Y-13503031D01*
X13310658Y-13503031D02*
X13320182Y-13474460D01*
X13320182Y-13474460D02*
X13329706Y-13426841D01*
X13329706Y-13426841D02*
X13329706Y-13388746D01*
X13329706Y-13388746D02*
X13320182Y-13341127D01*
X13320182Y-13341127D02*
X13310658Y-13312555D01*
X13310658Y-13312555D02*
X13301134Y-13293508D01*
X13301134Y-13293508D02*
X13282087Y-13264936D01*
X13282087Y-13264936D02*
X13272563Y-13255412D01*
X13634468Y-13560174D02*
X13624944Y-13550650D01*
X13624944Y-13550650D02*
X13605896Y-13522079D01*
X13605896Y-13522079D02*
X13596372Y-13503031D01*
X13596372Y-13503031D02*
X13586849Y-13474460D01*
X13586849Y-13474460D02*
X13577325Y-13426841D01*
X13577325Y-13426841D02*
X13577325Y-13388746D01*
X13577325Y-13388746D02*
X13586849Y-13341127D01*
X13586849Y-13341127D02*
X13596372Y-13312555D01*
X13596372Y-13312555D02*
X13605896Y-13293508D01*
X13605896Y-13293508D02*
X13624944Y-13264936D01*
X13624944Y-13264936D02*
X13634468Y-13255412D01*
X13710658Y-13350650D02*
X13710658Y-13483984D01*
X13710658Y-13369698D02*
X13720182Y-13360174D01*
X13720182Y-13360174D02*
X13739230Y-13350650D01*
X13739230Y-13350650D02*
X13767801Y-13350650D01*
X13767801Y-13350650D02*
X13786849Y-13360174D01*
X13786849Y-13360174D02*
X13796372Y-13379222D01*
X13796372Y-13379222D02*
X13796372Y-13483984D01*
X13920182Y-13483984D02*
X13901134Y-13474460D01*
X13901134Y-13474460D02*
X13891611Y-13464936D01*
X13891611Y-13464936D02*
X13882087Y-13445888D01*
X13882087Y-13445888D02*
X13882087Y-13388746D01*
X13882087Y-13388746D02*
X13891611Y-13369698D01*
X13891611Y-13369698D02*
X13901134Y-13360174D01*
X13901134Y-13360174D02*
X13920182Y-13350650D01*
X13920182Y-13350650D02*
X13948753Y-13350650D01*
X13948753Y-13350650D02*
X13967801Y-13360174D01*
X13967801Y-13360174D02*
X13977325Y-13369698D01*
X13977325Y-13369698D02*
X13986849Y-13388746D01*
X13986849Y-13388746D02*
X13986849Y-13445888D01*
X13986849Y-13445888D02*
X13977325Y-13464936D01*
X13977325Y-13464936D02*
X13967801Y-13474460D01*
X13967801Y-13474460D02*
X13948753Y-13483984D01*
X13948753Y-13483984D02*
X13920182Y-13483984D01*
X14043992Y-13350650D02*
X14120182Y-13350650D01*
X14072563Y-13283984D02*
X14072563Y-13455412D01*
X14072563Y-13455412D02*
X14082087Y-13474460D01*
X14082087Y-13474460D02*
X14101134Y-13483984D01*
X14101134Y-13483984D02*
X14120182Y-13483984D01*
X14339230Y-13350650D02*
X14339230Y-13550650D01*
X14339230Y-13360174D02*
X14358277Y-13350650D01*
X14358277Y-13350650D02*
X14396373Y-13350650D01*
X14396373Y-13350650D02*
X14415420Y-13360174D01*
X14415420Y-13360174D02*
X14424944Y-13369698D01*
X14424944Y-13369698D02*
X14434468Y-13388746D01*
X14434468Y-13388746D02*
X14434468Y-13445888D01*
X14434468Y-13445888D02*
X14424944Y-13464936D01*
X14424944Y-13464936D02*
X14415420Y-13474460D01*
X14415420Y-13474460D02*
X14396373Y-13483984D01*
X14396373Y-13483984D02*
X14358277Y-13483984D01*
X14358277Y-13483984D02*
X14339230Y-13474460D01*
X14548753Y-13483984D02*
X14529706Y-13474460D01*
X14529706Y-13474460D02*
X14520182Y-13455412D01*
X14520182Y-13455412D02*
X14520182Y-13283984D01*
X14710658Y-13483984D02*
X14710658Y-13379222D01*
X14710658Y-13379222D02*
X14701134Y-13360174D01*
X14701134Y-13360174D02*
X14682087Y-13350650D01*
X14682087Y-13350650D02*
X14643992Y-13350650D01*
X14643992Y-13350650D02*
X14624944Y-13360174D01*
X14710658Y-13474460D02*
X14691611Y-13483984D01*
X14691611Y-13483984D02*
X14643992Y-13483984D01*
X14643992Y-13483984D02*
X14624944Y-13474460D01*
X14624944Y-13474460D02*
X14615420Y-13455412D01*
X14615420Y-13455412D02*
X14615420Y-13436365D01*
X14615420Y-13436365D02*
X14624944Y-13417317D01*
X14624944Y-13417317D02*
X14643992Y-13407793D01*
X14643992Y-13407793D02*
X14691611Y-13407793D01*
X14691611Y-13407793D02*
X14710658Y-13398269D01*
X14777325Y-13350650D02*
X14853515Y-13350650D01*
X14805896Y-13283984D02*
X14805896Y-13455412D01*
X14805896Y-13455412D02*
X14815420Y-13474460D01*
X14815420Y-13474460D02*
X14834468Y-13483984D01*
X14834468Y-13483984D02*
X14853515Y-13483984D01*
X14996373Y-13474460D02*
X14977325Y-13483984D01*
X14977325Y-13483984D02*
X14939230Y-13483984D01*
X14939230Y-13483984D02*
X14920182Y-13474460D01*
X14920182Y-13474460D02*
X14910658Y-13455412D01*
X14910658Y-13455412D02*
X14910658Y-13379222D01*
X14910658Y-13379222D02*
X14920182Y-13360174D01*
X14920182Y-13360174D02*
X14939230Y-13350650D01*
X14939230Y-13350650D02*
X14977325Y-13350650D01*
X14977325Y-13350650D02*
X14996373Y-13360174D01*
X14996373Y-13360174D02*
X15005896Y-13379222D01*
X15005896Y-13379222D02*
X15005896Y-13398269D01*
X15005896Y-13398269D02*
X14910658Y-13417317D01*
X15177325Y-13483984D02*
X15177325Y-13283984D01*
X15177325Y-13474460D02*
X15158277Y-13483984D01*
X15158277Y-13483984D02*
X15120182Y-13483984D01*
X15120182Y-13483984D02*
X15101134Y-13474460D01*
X15101134Y-13474460D02*
X15091611Y-13464936D01*
X15091611Y-13464936D02*
X15082087Y-13445888D01*
X15082087Y-13445888D02*
X15082087Y-13388746D01*
X15082087Y-13388746D02*
X15091611Y-13369698D01*
X15091611Y-13369698D02*
X15101134Y-13360174D01*
X15101134Y-13360174D02*
X15120182Y-13350650D01*
X15120182Y-13350650D02*
X15158277Y-13350650D01*
X15158277Y-13350650D02*
X15177325Y-13360174D01*
X15253515Y-13560174D02*
X15263039Y-13550650D01*
X15263039Y-13550650D02*
X15282087Y-13522079D01*
X15282087Y-13522079D02*
X15291611Y-13503031D01*
X15291611Y-13503031D02*
X15301134Y-13474460D01*
X15301134Y-13474460D02*
X15310658Y-13426841D01*
X15310658Y-13426841D02*
X15310658Y-13388746D01*
X15310658Y-13388746D02*
X15301134Y-13341127D01*
X15301134Y-13341127D02*
X15291611Y-13312555D01*
X15291611Y-13312555D02*
X15282087Y-13293508D01*
X15282087Y-13293508D02*
X15263039Y-13264936D01*
X15263039Y-13264936D02*
X15253515Y-13255412D01*
M02*
