M48
; DRILL file {KiCad 9.0.5} date 2026-01-17T16:52:57+0100
; FORMAT={-:-/ absolute / metric / decimal}
; #@! TF.CreationDate,2026-01-17T16:52:57+01:00
; #@! TF.GenerationSoftware,Kicad,Pcbnew,9.0.5
; #@! TF.FileFunction,Plated,1,2,PTH
FMAT,2
METRIC
; #@! TA.AperFunction,Plated,PTH,ViaDrill
T1C0.305
; #@! TA.AperFunction,Plated,PTH,ViaDrill
T2C0.381
; #@! TA.AperFunction,Plated,PTH,ViaDrill
T3C0.508
; #@! TA.AperFunction,Plated,PTH,ComponentDrill
T4C0.900
; #@! TA.AperFunction,Plated,PTH,ComponentDrill
T5C1.000
; #@! TA.AperFunction,Plated,PTH,ComponentDrill
T6C1.100
; #@! TA.AperFunction,Plated,PTH,ComponentDrill
T7C1.200
; #@! TA.AperFunction,Plated,PTH,ComponentDrill
T8C1.300
; #@! TA.AperFunction,Plated,PTH,ComponentDrill
T9C1.400
; #@! TA.AperFunction,Plated,PTH,ComponentDrill
T10C1.570
; #@! TA.AperFunction,Plated,PTH,ComponentDrill
T11C2.600
%
G90
G05
T1
X115.504Y-98.044
X123.806Y-89.074
X123.83Y-95.758
X126.68Y-82.55
X128.712Y-82.55
T2
X122.362Y-77.978
X122.87Y-83.058
X123.707Y-81.205
X123.764Y-77.978
X124.775Y-85.09
X126.426Y-85.217
X126.878Y-81.148
X128.016Y-81.28
X131.125Y-85.598
X131.506Y-107.95
X132.588Y-111.633
X133.03Y-115.443
X134.681Y-111.633
X138.872Y-104.648
X138.872Y-117.348
X140.523Y-113.411
X141.158Y-111.633
X157.033Y-113.665
X157.922Y-110.49
X182.56Y-104.394
X195.768Y-101.727
X198.562Y-101.727
X201.61Y-87.122
T3
X113.726Y-107.43
X115.25Y-106.426
X115.25Y-108.458
X119.568Y-103.632
X119.568Y-105.156
X119.568Y-106.68
X121.6Y-103.632
X121.6Y-105.156
X121.6Y-106.68
X123.632Y-103.632
X123.632Y-105.156
X123.632Y-106.68
X129.728Y-90.17
X155.89Y-97.536
T4
X190.053Y-116.713
X190.18Y-77.47
X192.593Y-116.713
X192.72Y-77.47
T5
X182.555Y-116.713
X182.56Y-77.47
X185.095Y-116.713
X185.1Y-77.47
T6
X198.628Y-82.804
X198.628Y-85.344
X198.628Y-87.884
X198.628Y-107.188
X198.628Y-109.728
X198.628Y-112.268
T7
X182.56Y-82.804
X182.56Y-109.728
X195.26Y-82.804
X195.26Y-109.728
T8
X182.466Y-90.384
X182.466Y-101.894
X192.466Y-87.884
X192.466Y-92.884
X192.466Y-99.394
X192.466Y-104.394
T9
X91.948Y-80.264
X91.948Y-85.344
X91.948Y-109.728
X91.948Y-114.808
T10
X100.77Y-85.344
X100.77Y-109.728
X173.67Y-85.344
X173.67Y-109.728
T11
X205.42Y-85.344
X205.42Y-109.728
M30
