G04 #@! TF.GenerationSoftware,KiCad,Pcbnew,9.0.5*
G04 #@! TF.CreationDate,2026-01-17T16:52:57+01:00*
G04 #@! TF.ProjectId,power_bank,706f7765-725f-4626-916e-6b2e6b696361,1.0*
G04 #@! TF.SameCoordinates,Original*
G04 #@! TF.FileFunction,Copper,L1,Top*
G04 #@! TF.FilePolarity,Positive*
%FSLAX46Y46*%
G04 Gerber Fmt 4.6, Leading zero omitted, Abs format (unit mm)*
G04 Created by KiCad (PCBNEW 9.0.5) date 2026-01-17 16:52:57*
%MOMM*%
%LPD*%
G01*
G04 APERTURE LIST*
G04 Aperture macros list*
%AMRoundRect*
0 Rectangle with rounded corners*
0 $1 Rounding radius*
0 $2 $3 $4 $5 $6 $7 $8 $9 X,Y pos of 4 corners*
0 Add a 4 corners polygon primitive as box body*
4,1,4,$2,$3,$4,$5,$6,$7,$8,$9,$2,$3,0*
0 Add four circle primitives for the rounded corners*
1,1,$1+$1,$2,$3*
1,1,$1+$1,$4,$5*
1,1,$1+$1,$6,$7*
1,1,$1+$1,$8,$9*
0 Add four rect primitives between the rounded corners*
20,1,$1+$1,$2,$3,$4,$5,0*
20,1,$1+$1,$4,$5,$6,$7,0*
20,1,$1+$1,$6,$7,$8,$9,0*
20,1,$1+$1,$8,$9,$2,$3,0*%
%AMFreePoly0*
4,1,23,0.500000,-0.750000,0.000000,-0.750000,0.000000,-0.745722,-0.065263,-0.745722,-0.191342,-0.711940,-0.304381,-0.646677,-0.396677,-0.554381,-0.461940,-0.441342,-0.495722,-0.315263,-0.495722,-0.250000,-0.500000,-0.250000,-0.500000,0.250000,-0.495722,0.250000,-0.495722,0.315263,-0.461940,0.441342,-0.396677,0.554381,-0.304381,0.646677,-0.191342,0.711940,-0.065263,0.745722,0.000000,0.745722,
0.000000,0.750000,0.500000,0.750000,0.500000,-0.750000,0.500000,-0.750000,$1*%
%AMFreePoly1*
4,1,23,0.000000,0.745722,0.065263,0.745722,0.191342,0.711940,0.304381,0.646677,0.396677,0.554381,0.461940,0.441342,0.495722,0.315263,0.495722,0.250000,0.500000,0.250000,0.500000,-0.250000,0.495722,-0.250000,0.495722,-0.315263,0.461940,-0.441342,0.396677,-0.554381,0.304381,-0.646677,0.191342,-0.711940,0.065263,-0.745722,0.000000,-0.745722,0.000000,-0.750000,-0.500000,-0.750000,
-0.500000,0.750000,0.000000,0.750000,0.000000,0.745722,0.000000,0.745722,$1*%
G04 Aperture macros list end*
G04 #@! TA.AperFunction,SMDPad,CuDef*
%ADD10RoundRect,0.250000X-0.450000X0.262500X-0.450000X-0.262500X0.450000X-0.262500X0.450000X0.262500X0*%
G04 #@! TD*
G04 #@! TA.AperFunction,SMDPad,CuDef*
%ADD11RoundRect,0.250000X0.450000X-0.262500X0.450000X0.262500X-0.450000X0.262500X-0.450000X-0.262500X0*%
G04 #@! TD*
G04 #@! TA.AperFunction,SMDPad,CuDef*
%ADD12RoundRect,0.250000X0.262500X0.450000X-0.262500X0.450000X-0.262500X-0.450000X0.262500X-0.450000X0*%
G04 #@! TD*
G04 #@! TA.AperFunction,SMDPad,CuDef*
%ADD13RoundRect,0.250000X0.475000X-0.250000X0.475000X0.250000X-0.475000X0.250000X-0.475000X-0.250000X0*%
G04 #@! TD*
G04 #@! TA.AperFunction,SMDPad,CuDef*
%ADD14C,2.000000*%
G04 #@! TD*
G04 #@! TA.AperFunction,SMDPad,CuDef*
%ADD15RoundRect,0.250000X-2.600000X0.600000X-2.600000X-0.600000X2.600000X-0.600000X2.600000X0.600000X0*%
G04 #@! TD*
G04 #@! TA.AperFunction,SMDPad,CuDef*
%ADD16R,2.700000X3.600000*%
G04 #@! TD*
G04 #@! TA.AperFunction,SMDPad,CuDef*
%ADD17RoundRect,0.150000X-0.512500X-0.150000X0.512500X-0.150000X0.512500X0.150000X-0.512500X0.150000X0*%
G04 #@! TD*
G04 #@! TA.AperFunction,SMDPad,CuDef*
%ADD18RoundRect,0.100000X-0.100000X0.225000X-0.100000X-0.225000X0.100000X-0.225000X0.100000X0.225000X0*%
G04 #@! TD*
G04 #@! TA.AperFunction,SMDPad,CuDef*
%ADD19RoundRect,0.250000X-0.475000X0.250000X-0.475000X-0.250000X0.475000X-0.250000X0.475000X0.250000X0*%
G04 #@! TD*
G04 #@! TA.AperFunction,SMDPad,CuDef*
%ADD20RoundRect,0.250000X-1.400000X-1.000000X1.400000X-1.000000X1.400000X1.000000X-1.400000X1.000000X0*%
G04 #@! TD*
G04 #@! TA.AperFunction,SMDPad,CuDef*
%ADD21RoundRect,0.100000X0.100000X-0.225000X0.100000X0.225000X-0.100000X0.225000X-0.100000X-0.225000X0*%
G04 #@! TD*
G04 #@! TA.AperFunction,SMDPad,CuDef*
%ADD22FreePoly0,180.000000*%
G04 #@! TD*
G04 #@! TA.AperFunction,SMDPad,CuDef*
%ADD23FreePoly1,180.000000*%
G04 #@! TD*
G04 #@! TA.AperFunction,SMDPad,CuDef*
%ADD24RoundRect,0.250000X-0.850000X-0.350000X0.850000X-0.350000X0.850000X0.350000X-0.850000X0.350000X0*%
G04 #@! TD*
G04 #@! TA.AperFunction,SMDPad,CuDef*
%ADD25RoundRect,0.249997X-2.950003X-2.650003X2.950003X-2.650003X2.950003X2.650003X-2.950003X2.650003X0*%
G04 #@! TD*
G04 #@! TA.AperFunction,SMDPad,CuDef*
%ADD26RoundRect,0.250000X-0.250000X-0.475000X0.250000X-0.475000X0.250000X0.475000X-0.250000X0.475000X0*%
G04 #@! TD*
G04 #@! TA.AperFunction,SMDPad,CuDef*
%ADD27FreePoly0,0.000000*%
G04 #@! TD*
G04 #@! TA.AperFunction,SMDPad,CuDef*
%ADD28FreePoly1,0.000000*%
G04 #@! TD*
G04 #@! TA.AperFunction,SMDPad,CuDef*
%ADD29RoundRect,0.250000X0.850000X0.350000X-0.850000X0.350000X-0.850000X-0.350000X0.850000X-0.350000X0*%
G04 #@! TD*
G04 #@! TA.AperFunction,SMDPad,CuDef*
%ADD30RoundRect,0.249997X2.950003X2.650003X-2.950003X2.650003X-2.950003X-2.650003X2.950003X-2.650003X0*%
G04 #@! TD*
G04 #@! TA.AperFunction,SMDPad,CuDef*
%ADD31RoundRect,0.125000X0.125000X-0.125000X0.125000X0.125000X-0.125000X0.125000X-0.125000X-0.125000X0*%
G04 #@! TD*
G04 #@! TA.AperFunction,SMDPad,CuDef*
%ADD32RoundRect,0.250000X-0.262500X-0.450000X0.262500X-0.450000X0.262500X0.450000X-0.262500X0.450000X0*%
G04 #@! TD*
G04 #@! TA.AperFunction,SMDPad,CuDef*
%ADD33RoundRect,0.250000X0.250000X0.475000X-0.250000X0.475000X-0.250000X-0.475000X0.250000X-0.475000X0*%
G04 #@! TD*
G04 #@! TA.AperFunction,SMDPad,CuDef*
%ADD34RoundRect,0.087500X0.250000X0.087500X-0.250000X0.087500X-0.250000X-0.087500X0.250000X-0.087500X0*%
G04 #@! TD*
G04 #@! TA.AperFunction,ComponentPad*
%ADD35R,1.800000X1.800000*%
G04 #@! TD*
G04 #@! TA.AperFunction,ComponentPad*
%ADD36C,1.800000*%
G04 #@! TD*
G04 #@! TA.AperFunction,ComponentPad*
%ADD37C,4.000000*%
G04 #@! TD*
G04 #@! TA.AperFunction,ComponentPad*
%ADD38C,2.340000*%
G04 #@! TD*
G04 #@! TA.AperFunction,ComponentPad*
%ADD39RoundRect,0.249999X-1.250001X-1.250001X1.250001X-1.250001X1.250001X1.250001X-1.250001X1.250001X0*%
G04 #@! TD*
G04 #@! TA.AperFunction,ComponentPad*
%ADD40C,3.000000*%
G04 #@! TD*
G04 #@! TA.AperFunction,ComponentPad*
%ADD41R,2.000000X1.905000*%
G04 #@! TD*
G04 #@! TA.AperFunction,ComponentPad*
%ADD42O,2.000000X1.905000*%
G04 #@! TD*
G04 #@! TA.AperFunction,ComponentPad*
%ADD43C,2.400000*%
G04 #@! TD*
G04 #@! TA.AperFunction,ComponentPad*
%ADD44RoundRect,0.249999X-1.550001X0.790001X-1.550001X-0.790001X1.550001X-0.790001X1.550001X0.790001X0*%
G04 #@! TD*
G04 #@! TA.AperFunction,ComponentPad*
%ADD45O,3.600000X2.080000*%
G04 #@! TD*
G04 #@! TA.AperFunction,ComponentPad*
%ADD46RoundRect,0.249999X1.250001X1.250001X-1.250001X1.250001X-1.250001X-1.250001X1.250001X-1.250001X0*%
G04 #@! TD*
G04 #@! TA.AperFunction,ComponentPad*
%ADD47R,1.700000X1.700000*%
G04 #@! TD*
G04 #@! TA.AperFunction,ComponentPad*
%ADD48C,1.700000*%
G04 #@! TD*
G04 #@! TA.AperFunction,ViaPad*
%ADD49C,1.016000*%
G04 #@! TD*
G04 #@! TA.AperFunction,ViaPad*
%ADD50C,0.762000*%
G04 #@! TD*
G04 #@! TA.AperFunction,ViaPad*
%ADD51C,0.635000*%
G04 #@! TD*
G04 #@! TA.AperFunction,Conductor*
%ADD52C,0.762000*%
G04 #@! TD*
G04 #@! TA.AperFunction,Conductor*
%ADD53C,0.508000*%
G04 #@! TD*
G04 #@! TA.AperFunction,Conductor*
%ADD54C,0.254000*%
G04 #@! TD*
G04 APERTURE END LIST*
D10*
G04 #@! TO.P,R2,1*
G04 #@! TO.N,/VOUT_+5V*
X122174000Y-79248000D03*
G04 #@! TO.P,R2,2*
G04 #@! TO.N,/FB_OUT*
X122174000Y-81073000D03*
G04 #@! TD*
G04 #@! TO.P,R19,1*
G04 #@! TO.N,/Battery/CHA_POS*
X117790000Y-94591500D03*
G04 #@! TO.P,R19,2*
G04 #@! TO.N,Net-(Q1B-C2)*
X117790000Y-96416500D03*
G04 #@! TD*
D11*
G04 #@! TO.P,R13,1*
G04 #@! TO.N,Net-(U3-ADJ)*
X186116000Y-87169000D03*
G04 #@! TO.P,R13,2*
G04 #@! TO.N,Net-(BT1--)*
X186116000Y-85344000D03*
G04 #@! TD*
D12*
G04 #@! TO.P,R6,1*
G04 #@! TO.N,/EN_OUT*
X125560500Y-83058000D03*
G04 #@! TO.P,R6,2*
G04 #@! TO.N,GND*
X123735500Y-83058000D03*
G04 #@! TD*
D13*
G04 #@! TO.P,C21,1*
G04 #@! TO.N,/VIN_from_+20V_to_+50V*
X133604000Y-113538000D03*
G04 #@! TO.P,C21,2*
G04 #@! TO.N,/VIN_GND*
X133604000Y-111638000D03*
G04 #@! TD*
D14*
G04 #@! TO.P,TP4,1,1*
G04 #@! TO.N,/Battery/BAT_POS*
X100772000Y-90170000D03*
G04 #@! TD*
G04 #@! TO.P,TP6,1,1*
G04 #@! TO.N,Net-(BT2-+)*
X173670000Y-104902000D03*
G04 #@! TD*
G04 #@! TO.P,TP7,1,1*
G04 #@! TO.N,GND*
X100772000Y-104902000D03*
G04 #@! TD*
D13*
G04 #@! TO.P,C17,1*
G04 #@! TO.N,Net-(U4-ADJ)*
X195768000Y-104394000D03*
G04 #@! TO.P,C17,2*
G04 #@! TO.N,/VIN_GND*
X195768000Y-102494000D03*
G04 #@! TD*
D15*
G04 #@! TO.P,L1,1,1*
G04 #@! TO.N,/VOUT_+5V*
X132522000Y-78522000D03*
G04 #@! TO.P,L1,2,2*
G04 #@! TO.N,/SWN_OUT*
X132522000Y-83022000D03*
G04 #@! TD*
D13*
G04 #@! TO.P,C19,1*
G04 #@! TO.N,Net-(BT2-+)*
X182560000Y-107122000D03*
G04 #@! TO.P,C19,2*
G04 #@! TO.N,/VIN_GND*
X182560000Y-105222000D03*
G04 #@! TD*
D11*
G04 #@! TO.P,R10,1*
G04 #@! TO.N,Net-(D3-A)*
X160843000Y-109751500D03*
G04 #@! TO.P,R10,2*
G04 #@! TO.N,/Battery/CHA_POS*
X160843000Y-107926500D03*
G04 #@! TD*
D16*
G04 #@! TO.P,L2,1,1*
G04 #@! TO.N,/SWN_IN*
X144882000Y-110490000D03*
G04 #@! TO.P,L2,2,2*
G04 #@! TO.N,/Battery/CHA_POS*
X153182000Y-110490000D03*
G04 #@! TD*
D17*
G04 #@! TO.P,U1,1,FB*
G04 #@! TO.N,/FB_IN*
X137856000Y-109606000D03*
G04 #@! TO.P,U1,2,EN*
G04 #@! TO.N,/EN_IN*
X137856000Y-110556000D03*
G04 #@! TO.P,U1,3,VIN*
G04 #@! TO.N,/VIN_from_+20V_to_+50V*
X137856000Y-111506000D03*
G04 #@! TO.P,U1,4,GND*
G04 #@! TO.N,/VIN_GND*
X140131000Y-111506000D03*
G04 #@! TO.P,U1,5,SW*
G04 #@! TO.N,/SWN_IN*
X140131000Y-110556000D03*
G04 #@! TO.P,U1,6,CB*
G04 #@! TO.N,Net-(U1-CB)*
X140131000Y-109606000D03*
G04 #@! TD*
D18*
G04 #@! TO.P,Q2,1,E1*
G04 #@! TO.N,/Battery/CHA_POS*
X125115000Y-94737000D03*
G04 #@! TO.P,Q2,2,B1*
G04 #@! TO.N,Net-(Q2A-B1)*
X124465000Y-94737000D03*
G04 #@! TO.P,Q2,3,C2*
G04 #@! TO.N,Net-(Q2B-C2)*
X123815000Y-94737000D03*
G04 #@! TO.P,Q2,4,E2*
G04 #@! TO.N,/Battery/BAT_POS*
X123815000Y-96637000D03*
G04 #@! TO.P,Q2,5,B2*
G04 #@! TO.N,Net-(Q2A-B1)*
X124465000Y-96637000D03*
G04 #@! TO.P,Q2,6,C1*
G04 #@! TO.N,Net-(Q2A-C1)*
X125115000Y-96637000D03*
G04 #@! TD*
D19*
G04 #@! TO.P,C12,1*
G04 #@! TO.N,/Battery/CHA_POS*
X156017000Y-111826000D03*
G04 #@! TO.P,C12,2*
G04 #@! TO.N,/VIN_GND*
X156017000Y-113726000D03*
G04 #@! TD*
D10*
G04 #@! TO.P,R1,1*
G04 #@! TO.N,Net-(D1-A)*
X117348000Y-77423000D03*
G04 #@! TO.P,R1,2*
G04 #@! TO.N,/VOUT_+5V*
X117348000Y-79248000D03*
G04 #@! TD*
D14*
G04 #@! TO.P,TP5,1,1*
G04 #@! TO.N,Net-(BT1--)*
X173670000Y-90170000D03*
G04 #@! TD*
D10*
G04 #@! TO.P,R9,1*
G04 #@! TO.N,Net-(J4-Pin_1)*
X137602000Y-77470000D03*
G04 #@! TO.P,R9,2*
G04 #@! TO.N,/Battery/BAT_POS*
X137602000Y-79295000D03*
G04 #@! TD*
G04 #@! TO.P,R17,1*
G04 #@! TO.N,/Battery/CHA_POS*
X115758000Y-94591500D03*
G04 #@! TO.P,R17,2*
G04 #@! TO.N,Net-(Q1A-B1)*
X115758000Y-96416500D03*
G04 #@! TD*
D14*
G04 #@! TO.P,TP2,1,1*
G04 #@! TO.N,/Battery/CHA_POS*
X147254000Y-97536000D03*
G04 #@! TD*
D20*
G04 #@! TO.P,D4,1,K*
G04 #@! TO.N,Net-(BT1--)*
X173670000Y-94136000D03*
G04 #@! TO.P,D4,2,A*
G04 #@! TO.N,Net-(BT2-+)*
X173670000Y-100936000D03*
G04 #@! TD*
D10*
G04 #@! TO.P,R16,1*
G04 #@! TO.N,Net-(Q2A-C1)*
X125410000Y-98909500D03*
G04 #@! TO.P,R16,2*
G04 #@! TO.N,/VIN_GND*
X125410000Y-100734500D03*
G04 #@! TD*
D21*
G04 #@! TO.P,Q1,1,E1*
G04 #@! TO.N,/VIN_GND*
X113950000Y-100555500D03*
G04 #@! TO.P,Q1,2,B1*
G04 #@! TO.N,Net-(Q1A-B1)*
X114600000Y-100555500D03*
G04 #@! TO.P,Q1,3,C2*
G04 #@! TO.N,Net-(Q1B-C2)*
X115250000Y-100555500D03*
G04 #@! TO.P,Q1,4,E2*
G04 #@! TO.N,GND*
X115250000Y-98655500D03*
G04 #@! TO.P,Q1,5,B2*
G04 #@! TO.N,Net-(Q1A-B1)*
X114600000Y-98655500D03*
G04 #@! TO.P,Q1,6,C1*
G04 #@! TO.N,Net-(Q1A-C1)*
X113950000Y-98655500D03*
G04 #@! TD*
D10*
G04 #@! TO.P,R20,1*
G04 #@! TO.N,Net-(Q2B-C2)*
X121346000Y-98909500D03*
G04 #@! TO.P,R20,2*
G04 #@! TO.N,/VIN_GND*
X121346000Y-100734500D03*
G04 #@! TD*
D14*
G04 #@! TO.P,TP1,1,1*
G04 #@! TO.N,/VOUT_+5V*
X100838000Y-79248000D03*
G04 #@! TD*
D22*
G04 #@! TO.P,JP2,1,A*
G04 #@! TO.N,/EN_OUT*
X184480000Y-79756000D03*
D23*
G04 #@! TO.P,JP2,2,B*
G04 #@! TO.N,Net-(J4-Pin_1)*
X183180000Y-79756000D03*
G04 #@! TD*
D24*
G04 #@! TO.P,Q4,1,G*
G04 #@! TO.N,Net-(Q1B-C2)*
X115250000Y-102870000D03*
D25*
G04 #@! TO.P,Q4,2,D*
G04 #@! TO.N,/VIN_GND*
X121550000Y-105150000D03*
D24*
G04 #@! TO.P,Q4,3,S*
G04 #@! TO.N,GND*
X115250000Y-107430000D03*
G04 #@! TD*
D13*
G04 #@! TO.P,C16,1*
G04 #@! TO.N,/Battery/CHA_POS*
X195768000Y-89784000D03*
G04 #@! TO.P,C16,2*
G04 #@! TO.N,Net-(U3-ADJ)*
X195768000Y-87884000D03*
G04 #@! TD*
D19*
G04 #@! TO.P,C8,1*
G04 #@! TO.N,/VOUT_+5V*
X120142000Y-79248000D03*
G04 #@! TO.P,C8,2*
G04 #@! TO.N,/FB_OUT*
X120142000Y-81148000D03*
G04 #@! TD*
G04 #@! TO.P,C9,1*
G04 #@! TO.N,Net-(U1-CB)*
X142174000Y-108524000D03*
G04 #@! TO.P,C9,2*
G04 #@! TO.N,/SWN_IN*
X142174000Y-110424000D03*
G04 #@! TD*
D11*
G04 #@! TO.P,R4,1*
G04 #@! TO.N,Net-(J3-Pin_2)*
X131506000Y-118514500D03*
G04 #@! TO.P,R4,2*
G04 #@! TO.N,Net-(D2-K)*
X131506000Y-116689500D03*
G04 #@! TD*
D10*
G04 #@! TO.P,R18,1*
G04 #@! TO.N,Net-(Q2A-B1)*
X123378000Y-98909500D03*
G04 #@! TO.P,R18,2*
G04 #@! TO.N,/VIN_GND*
X123378000Y-100734500D03*
G04 #@! TD*
D14*
G04 #@! TO.P,TP3,1,1*
G04 #@! TO.N,/VIN_GND*
X157922000Y-97536000D03*
G04 #@! TD*
D26*
G04 #@! TO.P,C20,1*
G04 #@! TO.N,/Battery/CHA_POS*
X126812000Y-90170000D03*
G04 #@! TO.P,C20,2*
G04 #@! TO.N,/VIN_GND*
X128712000Y-90170000D03*
G04 #@! TD*
D27*
G04 #@! TO.P,JP1,1,A*
G04 #@! TO.N,/VIN_from_+20V_to_+50V*
X183175000Y-114554000D03*
D28*
G04 #@! TO.P,JP1,2,B*
G04 #@! TO.N,Net-(J3-Pin_2)*
X184475000Y-114554000D03*
G04 #@! TD*
D19*
G04 #@! TO.P,C4,1*
G04 #@! TO.N,/VOUT_+5V*
X125730000Y-79248000D03*
G04 #@! TO.P,C4,2*
G04 #@! TO.N,GND*
X125730000Y-81148000D03*
G04 #@! TD*
D13*
G04 #@! TO.P,C15,1*
G04 #@! TO.N,/Battery/CHA_POS*
X201610000Y-89784000D03*
G04 #@! TO.P,C15,2*
G04 #@! TO.N,/VIN_GND*
X201610000Y-87884000D03*
G04 #@! TD*
D29*
G04 #@! TO.P,Q3,1,G*
G04 #@! TO.N,Net-(Q2B-C2)*
X123806000Y-92444000D03*
D30*
G04 #@! TO.P,Q3,2,D*
G04 #@! TO.N,/Battery/CHA_POS*
X117506000Y-90164000D03*
D29*
G04 #@! TO.P,Q3,3,S*
G04 #@! TO.N,/Battery/BAT_POS*
X123806000Y-87884000D03*
G04 #@! TD*
D10*
G04 #@! TO.P,R15,1*
G04 #@! TO.N,/Battery/CHA_POS*
X113726000Y-94591500D03*
G04 #@! TO.P,R15,2*
G04 #@! TO.N,Net-(Q1A-C1)*
X113726000Y-96416500D03*
G04 #@! TD*
D26*
G04 #@! TO.P,C11,1*
G04 #@! TO.N,/Battery/BAT_POS*
X128458000Y-85598000D03*
G04 #@! TO.P,C11,2*
G04 #@! TO.N,GND*
X130358000Y-85598000D03*
G04 #@! TD*
D19*
G04 #@! TO.P,C1,1*
G04 #@! TO.N,/VIN_from_+20V_to_+50V*
X137856000Y-115443000D03*
G04 #@! TO.P,C1,2*
G04 #@! TO.N,/VIN_GND*
X137856000Y-117343000D03*
G04 #@! TD*
D11*
G04 #@! TO.P,R8,1*
G04 #@! TO.N,/FB_IN*
X137856000Y-106426000D03*
G04 #@! TO.P,R8,2*
G04 #@! TO.N,/VIN_GND*
X137856000Y-104601000D03*
G04 #@! TD*
D13*
G04 #@! TO.P,C14,1*
G04 #@! TO.N,/Battery/CHA_POS*
X198562000Y-104394000D03*
G04 #@! TO.P,C14,2*
G04 #@! TO.N,/VIN_GND*
X198562000Y-102494000D03*
G04 #@! TD*
G04 #@! TO.P,C7,1*
G04 #@! TO.N,/VIN_from_+20V_to_+50V*
X135697000Y-113538000D03*
G04 #@! TO.P,C7,2*
G04 #@! TO.N,/VIN_GND*
X135697000Y-111638000D03*
G04 #@! TD*
D31*
G04 #@! TO.P,D2,1,K*
G04 #@! TO.N,Net-(D2-K)*
X131506000Y-114638000D03*
G04 #@! TO.P,D2,2,A*
G04 #@! TO.N,/EN_IN*
X131506000Y-112438000D03*
G04 #@! TD*
D26*
G04 #@! TO.P,C3,1*
G04 #@! TO.N,/VIN_from_+20V_to_+50V*
X137856000Y-113411000D03*
G04 #@! TO.P,C3,2*
G04 #@! TO.N,/VIN_GND*
X139756000Y-113411000D03*
G04 #@! TD*
D32*
G04 #@! TO.P,R3,1*
G04 #@! TO.N,/FB_OUT*
X122108000Y-85090000D03*
G04 #@! TO.P,R3,2*
G04 #@! TO.N,GND*
X123933000Y-85090000D03*
G04 #@! TD*
D10*
G04 #@! TO.P,R7,1*
G04 #@! TO.N,/Battery/CHA_POS*
X140650000Y-104601000D03*
G04 #@! TO.P,R7,2*
G04 #@! TO.N,/FB_IN*
X140650000Y-106426000D03*
G04 #@! TD*
D11*
G04 #@! TO.P,R14,1*
G04 #@! TO.N,Net-(BT2-+)*
X186116000Y-107084500D03*
G04 #@! TO.P,R14,2*
G04 #@! TO.N,Net-(U4-ADJ)*
X186116000Y-105259500D03*
G04 #@! TD*
G04 #@! TO.P,R5,1*
G04 #@! TO.N,/EN_IN*
X131506000Y-110640500D03*
G04 #@! TO.P,R5,2*
G04 #@! TO.N,/VIN_GND*
X131506000Y-108815500D03*
G04 #@! TD*
D13*
G04 #@! TO.P,C18,1*
G04 #@! TO.N,/Battery/CHA_POS*
X182560000Y-87244000D03*
G04 #@! TO.P,C18,2*
G04 #@! TO.N,Net-(BT1--)*
X182560000Y-85344000D03*
G04 #@! TD*
D26*
G04 #@! TO.P,C10,1*
G04 #@! TO.N,/Battery/CHA_POS*
X156017000Y-109474000D03*
G04 #@! TO.P,C10,2*
G04 #@! TO.N,/VIN_GND*
X157917000Y-109474000D03*
G04 #@! TD*
D13*
G04 #@! TO.P,C13,1*
G04 #@! TO.N,/Battery/BAT_POS*
X126426000Y-87884000D03*
G04 #@! TO.P,C13,2*
G04 #@! TO.N,GND*
X126426000Y-85984000D03*
G04 #@! TD*
D19*
G04 #@! TO.P,C6,1*
G04 #@! TO.N,/VOUT_+5V*
X128016000Y-78536800D03*
G04 #@! TO.P,C6,2*
G04 #@! TO.N,GND*
X128016000Y-80436800D03*
G04 #@! TD*
D33*
G04 #@! TO.P,C5,1*
G04 #@! TO.N,/VIN_from_+20V_to_+50V*
X135697000Y-115443000D03*
G04 #@! TO.P,C5,2*
G04 #@! TO.N,/VIN_GND*
X133797000Y-115443000D03*
G04 #@! TD*
D34*
G04 #@! TO.P,U2,1,VIN*
G04 #@! TO.N,/Battery/BAT_POS*
X128408500Y-84074000D03*
G04 #@! TO.P,U2,2,SW*
G04 #@! TO.N,/SWN_OUT*
X128408500Y-83574000D03*
G04 #@! TO.P,U2,3,GND*
G04 #@! TO.N,GND*
X128408500Y-83074000D03*
G04 #@! TO.P,U2,4,AGND*
X126983500Y-83074000D03*
G04 #@! TO.P,U2,5,EN*
G04 #@! TO.N,/EN_OUT*
X126983500Y-83574000D03*
G04 #@! TO.P,U2,6,FB*
G04 #@! TO.N,/FB_OUT*
X126983500Y-84074000D03*
G04 #@! TD*
D33*
G04 #@! TO.P,C2,1*
G04 #@! TO.N,/VOUT_+5V*
X125730000Y-76962000D03*
G04 #@! TO.P,C2,2*
G04 #@! TO.N,GND*
X123830000Y-76962000D03*
G04 #@! TD*
D35*
G04 #@! TO.P,D3,1,K*
G04 #@! TO.N,/VIN_GND*
X192593000Y-116713000D03*
D36*
G04 #@! TO.P,D3,2,A*
G04 #@! TO.N,Net-(D3-A)*
X190053000Y-116713000D03*
G04 #@! TD*
D37*
G04 #@! TO.P,HS2,1*
G04 #@! TO.N,Net-(U4-VO)*
X205420000Y-109728000D03*
G04 #@! TD*
D38*
G04 #@! TO.P,RV1,1,1*
G04 #@! TO.N,/Battery/CHA_POS*
X192466000Y-92884000D03*
G04 #@! TO.P,RV1,2,2*
X182466000Y-90384000D03*
G04 #@! TO.P,RV1,3,3*
G04 #@! TO.N,Net-(U3-ADJ)*
X192466000Y-87884000D03*
G04 #@! TD*
D37*
G04 #@! TO.P,HS1,1*
G04 #@! TO.N,/VIN_GND*
X205420000Y-85344000D03*
G04 #@! TD*
D39*
G04 #@! TO.P,BT1,1,+*
G04 #@! TO.N,/Battery/BAT_POS*
X100770000Y-85344000D03*
D40*
G04 #@! TO.P,BT1,2,-*
G04 #@! TO.N,Net-(BT1--)*
X173670000Y-85344000D03*
G04 #@! TD*
D41*
G04 #@! TO.P,U3,1,ADJ*
G04 #@! TO.N,Net-(U3-ADJ)*
X198628000Y-87884000D03*
D42*
G04 #@! TO.P,U3,2,VI*
G04 #@! TO.N,/VIN_GND*
X198628000Y-85344000D03*
G04 #@! TO.P,U3,3,VO*
G04 #@! TO.N,Net-(U3-VO)*
X198628000Y-82804000D03*
G04 #@! TD*
D38*
G04 #@! TO.P,RV2,1,1*
G04 #@! TO.N,Net-(U4-ADJ)*
X192466000Y-104394000D03*
G04 #@! TO.P,RV2,2,2*
X182466000Y-101894000D03*
G04 #@! TO.P,RV2,3,3*
G04 #@! TO.N,/VIN_GND*
X192466000Y-99394000D03*
G04 #@! TD*
D43*
G04 #@! TO.P,R11,1*
G04 #@! TO.N,Net-(U3-VO)*
X195260000Y-82804000D03*
G04 #@! TO.P,R11,2*
G04 #@! TO.N,Net-(BT1--)*
X182560000Y-82804000D03*
G04 #@! TD*
G04 #@! TO.P,R12,1*
G04 #@! TO.N,Net-(U4-VO)*
X195260000Y-109728000D03*
G04 #@! TO.P,R12,2*
G04 #@! TO.N,Net-(BT2-+)*
X182560000Y-109728000D03*
G04 #@! TD*
D44*
G04 #@! TO.P,J2,1,Pin_1*
G04 #@! TO.N,/VOUT_+5V*
X91948000Y-80264000D03*
D45*
G04 #@! TO.P,J2,2,Pin_2*
G04 #@! TO.N,GND*
X91948000Y-85344000D03*
G04 #@! TD*
D35*
G04 #@! TO.P,D1,1,K*
G04 #@! TO.N,GND*
X192720000Y-77470000D03*
D36*
G04 #@! TO.P,D1,2,A*
G04 #@! TO.N,Net-(D1-A)*
X190180000Y-77470000D03*
G04 #@! TD*
D44*
G04 #@! TO.P,J1,1,Pin_1*
G04 #@! TO.N,/VIN_from_+20V_to_+50V*
X91948000Y-109728000D03*
D45*
G04 #@! TO.P,J1,2,Pin_2*
G04 #@! TO.N,/VIN_GND*
X91948000Y-114808000D03*
G04 #@! TD*
D46*
G04 #@! TO.P,BT2,1,+*
G04 #@! TO.N,Net-(BT2-+)*
X173670000Y-109728000D03*
D40*
G04 #@! TO.P,BT2,2,-*
G04 #@! TO.N,GND*
X100770000Y-109728000D03*
G04 #@! TD*
D47*
G04 #@! TO.P,J4,1,Pin_1*
G04 #@! TO.N,Net-(J4-Pin_1)*
X182560000Y-77470000D03*
D48*
G04 #@! TO.P,J4,2,Pin_2*
G04 #@! TO.N,/EN_OUT*
X185100000Y-77470000D03*
G04 #@! TD*
D47*
G04 #@! TO.P,J3,1,Pin_1*
G04 #@! TO.N,/VIN_from_+20V_to_+50V*
X182555000Y-116713000D03*
D48*
G04 #@! TO.P,J3,2,Pin_2*
G04 #@! TO.N,Net-(J3-Pin_2)*
X185095000Y-116713000D03*
G04 #@! TD*
D41*
G04 #@! TO.P,U4,1,ADJ*
G04 #@! TO.N,Net-(U4-ADJ)*
X198628000Y-112268000D03*
D42*
G04 #@! TO.P,U4,2,VO*
G04 #@! TO.N,Net-(U4-VO)*
X198628000Y-109728000D03*
G04 #@! TO.P,U4,3,VI*
G04 #@! TO.N,/Battery/CHA_POS*
X198628000Y-107188000D03*
G04 #@! TD*
D49*
G04 #@! TO.N,/VIN_GND*
X119568000Y-106680000D03*
D50*
X134681000Y-111633000D03*
X141158000Y-111633000D03*
D49*
X129728000Y-90170000D03*
D50*
X138872000Y-117348000D03*
X198562000Y-101727000D03*
X201610000Y-87122000D03*
X131506000Y-107950000D03*
D49*
X121600000Y-103632000D03*
D50*
X195768000Y-101727000D03*
X140523000Y-113411000D03*
D49*
X123632000Y-105156000D03*
X121600000Y-106680000D03*
D50*
X133030000Y-115443000D03*
X182560000Y-104394000D03*
D49*
X123632000Y-106680000D03*
X119568000Y-105156000D03*
X121600000Y-105156000D03*
D50*
X132588000Y-111633000D03*
X157922000Y-110490000D03*
D49*
X119568000Y-103632000D03*
D50*
X138872000Y-104648000D03*
X157033000Y-113665000D03*
D49*
X123632000Y-103632000D03*
X155890000Y-97536000D03*
D50*
G04 #@! TO.N,GND*
X131125000Y-85598000D03*
D51*
X126680000Y-82550000D03*
D50*
X124775000Y-85090000D03*
X122870000Y-83058000D03*
D51*
X115504000Y-98044000D03*
D49*
X115250000Y-106426000D03*
D50*
X128016000Y-81280000D03*
D49*
X115250000Y-108458000D03*
D50*
X126426000Y-85217000D03*
X126878000Y-81148000D03*
D51*
X128712000Y-82550000D03*
D49*
X113726000Y-107430000D03*
D50*
X123764000Y-77978000D03*
D51*
G04 #@! TO.N,/Battery/BAT_POS*
X123806000Y-89074000D03*
X123830000Y-95758000D03*
D50*
G04 #@! TO.N,/EN_OUT*
X122362000Y-77978000D03*
X123707250Y-81204750D03*
G04 #@! TD*
D52*
G04 #@! TO.N,/VIN_GND*
X121346000Y-104946000D02*
X121550000Y-105150000D01*
D53*
X182560000Y-105222000D02*
X182560000Y-104394000D01*
X135697000Y-111638000D02*
X134686000Y-111638000D01*
X156017000Y-113726000D02*
X156972000Y-113726000D01*
X195768000Y-102494000D02*
X195768000Y-101727000D01*
X133604000Y-111638000D02*
X134676000Y-111638000D01*
X134686000Y-111638000D02*
X134681000Y-111633000D01*
X132588000Y-111633000D02*
X133599000Y-111633000D01*
D54*
X113472000Y-101033500D02*
X113472000Y-103886000D01*
D53*
X157917000Y-109474000D02*
X157917000Y-110485000D01*
X134676000Y-111638000D02*
X134681000Y-111633000D01*
D52*
X125410000Y-100734500D02*
X125410000Y-101854000D01*
X125410000Y-101854000D02*
X122114000Y-105150000D01*
D53*
X157917000Y-110485000D02*
X157922000Y-110490000D01*
X198562000Y-102494000D02*
X198562000Y-101727000D01*
X133599000Y-111633000D02*
X133604000Y-111638000D01*
X201610000Y-87884000D02*
X201610000Y-87122000D01*
D52*
X123378000Y-100734500D02*
X123378000Y-103322000D01*
X123378000Y-103322000D02*
X121550000Y-105150000D01*
D53*
X139756000Y-113411000D02*
X140523000Y-113411000D01*
D52*
X157922000Y-97536000D02*
X155890000Y-97536000D01*
D54*
X114736000Y-105150000D02*
X121550000Y-105150000D01*
D53*
X138867000Y-117343000D02*
X138872000Y-117348000D01*
X131506000Y-107950000D02*
X131506000Y-108815500D01*
D52*
X128712000Y-90170000D02*
X129728000Y-90170000D01*
D54*
X113950000Y-100555500D02*
X113472000Y-101033500D01*
D53*
X137856000Y-117343000D02*
X138867000Y-117343000D01*
X138825000Y-104601000D02*
X138872000Y-104648000D01*
X137856000Y-104601000D02*
X138825000Y-104601000D01*
X141031000Y-111506000D02*
X141158000Y-111633000D01*
X140131000Y-111506000D02*
X141031000Y-111506000D01*
D54*
X113472000Y-103886000D02*
X114736000Y-105150000D01*
D52*
X121346000Y-100734500D02*
X121346000Y-104946000D01*
X122114000Y-105150000D02*
X121550000Y-105150000D01*
D53*
X133797000Y-115443000D02*
X133030000Y-115443000D01*
X156972000Y-113726000D02*
X157033000Y-113665000D01*
D52*
G04 #@! TO.N,/VOUT_+5V*
X125730000Y-79248000D02*
X122174000Y-79248000D01*
X120142000Y-79248000D02*
X117348000Y-79248000D01*
X99822000Y-80264000D02*
X100838000Y-79248000D01*
X132507200Y-78536800D02*
X132522000Y-78522000D01*
X125730000Y-76962000D02*
X125730000Y-79248000D01*
X91948000Y-80264000D02*
X99822000Y-80264000D01*
X128016000Y-77724000D02*
X128016000Y-78536800D01*
X128016000Y-78536800D02*
X132507200Y-78536800D01*
X125730000Y-76962000D02*
X127254000Y-76962000D01*
X117348000Y-79248000D02*
X100838000Y-79248000D01*
X122174000Y-79248000D02*
X120142000Y-79248000D01*
X127254000Y-76962000D02*
X128016000Y-77724000D01*
G04 #@! TO.N,/Battery/CHA_POS*
X117790000Y-94591500D02*
X117790000Y-90448000D01*
X179766000Y-93345000D02*
X179766000Y-88519000D01*
X115758000Y-91912000D02*
X117506000Y-90164000D01*
X198628000Y-107188000D02*
X198628000Y-104460000D01*
X116780000Y-90164000D02*
X117506000Y-90164000D01*
X156017000Y-106299000D02*
X156017000Y-107950000D01*
X195768000Y-89784000D02*
X195566000Y-89784000D01*
X195566000Y-89784000D02*
X192466000Y-92884000D01*
X171193500Y-97536000D02*
X175575000Y-97536000D01*
X140650000Y-104601000D02*
X140650000Y-97536000D01*
X156017000Y-109474000D02*
X156017000Y-107950000D01*
X182466000Y-90384000D02*
X189966000Y-90384000D01*
X160779500Y-107950000D02*
X171193500Y-97536000D01*
X115758000Y-94591500D02*
X115758000Y-91912000D01*
D54*
X125664000Y-94188000D02*
X125664000Y-90170000D01*
D52*
X126812000Y-90170000D02*
X125664000Y-90170000D01*
X130490000Y-97536000D02*
X140650000Y-97536000D01*
X156017000Y-107950000D02*
X160779500Y-107950000D01*
X189966000Y-90384000D02*
X192466000Y-92884000D01*
X199390000Y-104394000D02*
X198562000Y-104394000D01*
X156017000Y-111826000D02*
X153182000Y-111826000D01*
X179766000Y-88519000D02*
X181041000Y-87244000D01*
X126812000Y-90170000D02*
X126812000Y-93858000D01*
X181041000Y-87244000D02*
X182560000Y-87244000D01*
X113726000Y-93218000D02*
X116780000Y-90164000D01*
X198628000Y-104460000D02*
X198562000Y-104394000D01*
X140650000Y-97536000D02*
X147254000Y-97536000D01*
X156017000Y-111826000D02*
X156017000Y-107950000D01*
X113726000Y-94591500D02*
X113726000Y-93218000D01*
X201610000Y-89784000D02*
X201610000Y-102174000D01*
X117512000Y-90170000D02*
X117506000Y-90164000D01*
X126812000Y-93858000D02*
X130490000Y-97536000D01*
X201610000Y-102174000D02*
X199390000Y-104394000D01*
X182560000Y-87244000D02*
X182560000Y-90290000D01*
X147254000Y-97536000D02*
X156017000Y-106299000D01*
D54*
X125115000Y-94737000D02*
X125664000Y-94188000D01*
D52*
X195768000Y-89784000D02*
X201610000Y-89784000D01*
X117790000Y-90448000D02*
X117506000Y-90164000D01*
X182560000Y-90290000D02*
X182466000Y-90384000D01*
X125664000Y-90170000D02*
X117512000Y-90170000D01*
X153182000Y-111826000D02*
X153182000Y-110490000D01*
X175575000Y-97536000D02*
X179766000Y-93345000D01*
D54*
G04 #@! TO.N,GND*
X126724000Y-83074000D02*
X126983500Y-83074000D01*
X128696000Y-83074000D02*
X128408500Y-83074000D01*
X126680000Y-83030000D02*
X126724000Y-83074000D01*
D53*
X128016000Y-81280000D02*
X128016000Y-80436800D01*
D54*
X128712000Y-83058000D02*
X128696000Y-83074000D01*
D53*
X115250000Y-107430000D02*
X115250000Y-106426000D01*
D54*
X128712000Y-82550000D02*
X128712000Y-83058000D01*
D53*
X113726000Y-107430000D02*
X115250000Y-107430000D01*
X123764000Y-77978000D02*
X123764000Y-77470000D01*
D52*
X100772000Y-104902000D02*
X100772000Y-109726000D01*
D53*
X126878000Y-81148000D02*
X125730000Y-81148000D01*
D54*
X115250000Y-98655500D02*
X115250000Y-98298000D01*
D52*
X100772000Y-109726000D02*
X100770000Y-109728000D01*
D53*
X130358000Y-85598000D02*
X131125000Y-85598000D01*
D54*
X126680000Y-82550000D02*
X126680000Y-83030000D01*
D53*
X115250000Y-107430000D02*
X115250000Y-108458000D01*
D54*
X115250000Y-98298000D02*
X115504000Y-98044000D01*
D53*
X123735500Y-83058000D02*
X122870000Y-83058000D01*
X123933000Y-85090000D02*
X124775000Y-85090000D01*
X126426000Y-85984000D02*
X126426000Y-85217000D01*
D52*
G04 #@! TO.N,Net-(BT2-+)*
X173670000Y-100936000D02*
X173670000Y-104902000D01*
X182560000Y-109728000D02*
X173670000Y-109728000D01*
X173670000Y-104902000D02*
X173670000Y-109728000D01*
X186116000Y-107084500D02*
X182597500Y-107084500D01*
X182597500Y-107084500D02*
X182560000Y-107122000D01*
X182560000Y-107122000D02*
X182560000Y-109728000D01*
G04 #@! TO.N,Net-(BT1--)*
X182560000Y-85344000D02*
X173670000Y-85344000D01*
X173670000Y-90170000D02*
X173670000Y-85344000D01*
X182560000Y-85344000D02*
X186116000Y-85344000D01*
X182560000Y-82804000D02*
X182560000Y-85344000D01*
X173670000Y-94136000D02*
X173670000Y-90170000D01*
G04 #@! TO.N,/Battery/BAT_POS*
X137602000Y-84836000D02*
X137602000Y-79295000D01*
D54*
X128408500Y-84074000D02*
X128458000Y-84123500D01*
D52*
X100770000Y-85344000D02*
X100770000Y-90168000D01*
D54*
X128458000Y-84123500D02*
X128458000Y-85598000D01*
X123806000Y-89074000D02*
X123806000Y-87884000D01*
D52*
X128458000Y-87884000D02*
X126426000Y-87884000D01*
X128458000Y-87884000D02*
X134554000Y-87884000D01*
X128458000Y-85598000D02*
X128458000Y-87884000D01*
X117231200Y-82804000D02*
X122311200Y-87884000D01*
X100770000Y-85344000D02*
X103310000Y-82804000D01*
X100770000Y-90168000D02*
X100772000Y-90170000D01*
D54*
X123815000Y-95773000D02*
X123830000Y-95758000D01*
D52*
X123806000Y-87884000D02*
X126426000Y-87884000D01*
X134554000Y-87884000D02*
X137602000Y-84836000D01*
D54*
X123815000Y-96637000D02*
X123815000Y-95773000D01*
D52*
X103310000Y-82804000D02*
X117231200Y-82804000D01*
X122311200Y-87884000D02*
X123806000Y-87884000D01*
G04 #@! TO.N,Net-(U3-VO)*
X198628000Y-82804000D02*
X195260000Y-82804000D01*
G04 #@! TO.N,Net-(U4-VO)*
X198628000Y-109728000D02*
X205420000Y-109728000D01*
X195260000Y-109728000D02*
X198628000Y-109728000D01*
G04 #@! TO.N,Net-(U4-ADJ)*
X192466000Y-104394000D02*
X192466000Y-110744000D01*
X186116000Y-105259500D02*
X186116000Y-101894000D01*
X192466000Y-110744000D02*
X193990000Y-112268000D01*
X182466000Y-101894000D02*
X186116000Y-101894000D01*
X193990000Y-112268000D02*
X198628000Y-112268000D01*
X195768000Y-104394000D02*
X192466000Y-104394000D01*
X189966000Y-101894000D02*
X192466000Y-104394000D01*
X186116000Y-101894000D02*
X189966000Y-101894000D01*
G04 #@! TO.N,Net-(U3-ADJ)*
X186831000Y-87884000D02*
X186116000Y-87169000D01*
X192466000Y-87884000D02*
X186831000Y-87884000D01*
X195768000Y-87884000D02*
X192466000Y-87884000D01*
X198628000Y-87884000D02*
X195768000Y-87884000D01*
G04 #@! TO.N,/FB_OUT*
X120217000Y-81073000D02*
X120142000Y-81148000D01*
D54*
X122108000Y-85090000D02*
X122108000Y-81139000D01*
X123124000Y-84074000D02*
X122108000Y-85090000D01*
X126983500Y-84074000D02*
X123124000Y-84074000D01*
D52*
X122174000Y-81073000D02*
X120217000Y-81073000D01*
D54*
X122108000Y-81139000D02*
X122174000Y-81073000D01*
D53*
G04 #@! TO.N,/EN_IN*
X131590500Y-110556000D02*
X131506000Y-110640500D01*
X137856000Y-110556000D02*
X131590500Y-110556000D01*
X131506000Y-110640500D02*
X131506000Y-112438000D01*
D52*
G04 #@! TO.N,/EN_OUT*
X184480000Y-78090000D02*
X185100000Y-77470000D01*
D54*
X126983500Y-83574000D02*
X126076500Y-83574000D01*
D52*
X184480000Y-79756000D02*
X184480000Y-78090000D01*
D54*
X123707250Y-81204750D02*
X125560500Y-83058000D01*
D52*
X122362000Y-75946000D02*
X122870000Y-75438000D01*
X122870000Y-75438000D02*
X183500000Y-75438000D01*
D54*
X126076500Y-83574000D02*
X125560500Y-83058000D01*
D52*
X122362000Y-77978000D02*
X122362000Y-75946000D01*
X185100000Y-77038000D02*
X185100000Y-77470000D01*
X183500000Y-75438000D02*
X185100000Y-77038000D01*
G04 #@! TO.N,/FB_IN*
X140650000Y-106426000D02*
X137856000Y-106426000D01*
D53*
X137856000Y-106426000D02*
X137856000Y-109606000D01*
D52*
G04 #@! TO.N,Net-(J4-Pin_1)*
X183180000Y-78090000D02*
X182560000Y-77470000D01*
X183180000Y-79756000D02*
X183180000Y-78090000D01*
X182560000Y-77470000D02*
X137602000Y-77470000D01*
D53*
G04 #@! TO.N,Net-(D2-K)*
X131506000Y-114638000D02*
X131506000Y-116689500D01*
D54*
G04 #@! TO.N,Net-(Q2B-C2)*
X123815000Y-92453000D02*
X123806000Y-92444000D01*
X123815000Y-94737000D02*
X123815000Y-94813000D01*
X123815000Y-94813000D02*
X121346000Y-97282000D01*
X121346000Y-97282000D02*
X121346000Y-98909500D01*
X123815000Y-94737000D02*
X123815000Y-92453000D01*
G04 #@! TO.N,Net-(Q1A-C1)*
X113950000Y-98655500D02*
X113950000Y-96640500D01*
X113950000Y-96640500D02*
X113726000Y-96416500D01*
G04 #@! TO.N,Net-(Q2A-C1)*
X125115000Y-96637000D02*
X125115000Y-98614500D01*
X125115000Y-98614500D02*
X125410000Y-98909500D01*
G04 #@! TO.N,Net-(Q1A-B1)*
X114600000Y-97574500D02*
X115758000Y-96416500D01*
X114600000Y-100555500D02*
X114600000Y-98655500D01*
X114600000Y-98655500D02*
X114600000Y-97574500D01*
G04 #@! TO.N,Net-(Q2A-B1)*
X124465000Y-94737000D02*
X124465000Y-96637000D01*
X124465000Y-97822500D02*
X123378000Y-98909500D01*
X124465000Y-96637000D02*
X124465000Y-97822500D01*
G04 #@! TO.N,Net-(Q1B-C2)*
X117790000Y-96416500D02*
X117790000Y-98015500D01*
X117790000Y-98015500D02*
X115250000Y-100555500D01*
X115250000Y-100555500D02*
X115250000Y-102870000D01*
G04 #@! TO.N,/SWN_OUT*
X128408500Y-83574000D02*
X132224000Y-83574000D01*
X132522000Y-83276000D02*
X132522000Y-83022000D01*
X132224000Y-83574000D02*
X132522000Y-83276000D01*
D53*
G04 #@! TO.N,Net-(U1-CB)*
X140131000Y-109606000D02*
X141092000Y-109606000D01*
X141092000Y-109606000D02*
X142174000Y-108524000D01*
D52*
G04 #@! TO.N,/SWN_IN*
X142174000Y-110424000D02*
X144816000Y-110424000D01*
X144816000Y-110424000D02*
X144882000Y-110490000D01*
D53*
X142042000Y-110556000D02*
X142174000Y-110424000D01*
X140131000Y-110556000D02*
X142042000Y-110556000D01*
D52*
G04 #@! TO.N,/VIN_from_+20V_to_+50V*
X133604000Y-113538000D02*
X95758000Y-113538000D01*
X135697000Y-113538000D02*
X135697000Y-115443000D01*
X133604000Y-113538000D02*
X135697000Y-113538000D01*
X183175000Y-114554000D02*
X183175000Y-116093000D01*
X139827000Y-115443000D02*
X137856000Y-115443000D01*
X183175000Y-116093000D02*
X182555000Y-116713000D01*
X182555000Y-116713000D02*
X141097000Y-116713000D01*
D53*
X137856000Y-113411000D02*
X137856000Y-111506000D01*
D52*
X141097000Y-116713000D02*
X139827000Y-115443000D01*
X137856000Y-115443000D02*
X137856000Y-113411000D01*
X95758000Y-113538000D02*
X91948000Y-109728000D01*
X135697000Y-115443000D02*
X137856000Y-115443000D01*
G04 #@! TO.N,Net-(J3-Pin_2)*
X131506000Y-118514500D02*
X183725500Y-118514500D01*
X184475000Y-116093000D02*
X185095000Y-116713000D01*
X183725500Y-118514500D02*
X185095000Y-117145000D01*
X184475000Y-114554000D02*
X184475000Y-116093000D01*
X185095000Y-117145000D02*
X185095000Y-116713000D01*
G04 #@! TO.N,Net-(D1-A)*
X189926000Y-77216000D02*
X190180000Y-77470000D01*
X117348000Y-77423000D02*
X120857000Y-73914000D01*
X120857000Y-73914000D02*
X184658000Y-73914000D01*
X184658000Y-73914000D02*
X187960000Y-77216000D01*
X187960000Y-77216000D02*
X189926000Y-77216000D01*
G04 #@! TO.N,Net-(D3-A)*
X163867500Y-112776000D02*
X186116000Y-112776000D01*
X160843000Y-109751500D02*
X163867500Y-112776000D01*
X186116000Y-112776000D02*
X190053000Y-116713000D01*
G04 #@! TD*
M02*
