G04 #@! TF.GenerationSoftware,KiCad,Pcbnew,9.0.5*
G04 #@! TF.CreationDate,2026-01-17T16:52:57+01:00*
G04 #@! TF.ProjectId,power_bank,706f7765-725f-4626-916e-6b2e6b696361,1.0*
G04 #@! TF.SameCoordinates,Original*
G04 #@! TF.FileFunction,Legend,Bot*
G04 #@! TF.FilePolarity,Positive*
%FSLAX46Y46*%
G04 Gerber Fmt 4.6, Leading zero omitted, Abs format (unit mm)*
G04 Created by KiCad (PCBNEW 9.0.5) date 2026-01-17 16:52:57*
%MOMM*%
%LPD*%
G01*
G04 APERTURE LIST*
G04 Aperture macros list*
%AMRoundRect*
0 Rectangle with rounded corners*
0 $1 Rounding radius*
0 $2 $3 $4 $5 $6 $7 $8 $9 X,Y pos of 4 corners*
0 Add a 4 corners polygon primitive as box body*
4,1,4,$2,$3,$4,$5,$6,$7,$8,$9,$2,$3,0*
0 Add four circle primitives for the rounded corners*
1,1,$1+$1,$2,$3*
1,1,$1+$1,$4,$5*
1,1,$1+$1,$6,$7*
1,1,$1+$1,$8,$9*
0 Add four rect primitives between the rounded corners*
20,1,$1+$1,$2,$3,$4,$5,0*
20,1,$1+$1,$4,$5,$6,$7,0*
20,1,$1+$1,$6,$7,$8,$9,0*
20,1,$1+$1,$8,$9,$2,$3,0*%
G04 Aperture macros list end*
%ADD10C,0.100000*%
%ADD11C,0.150000*%
%ADD12C,0.120000*%
%ADD13C,0.000000*%
%ADD14C,3.200000*%
%ADD15R,1.800000X1.800000*%
%ADD16C,1.800000*%
%ADD17C,4.000000*%
%ADD18C,2.340000*%
%ADD19RoundRect,0.249999X-1.250001X-1.250001X1.250001X-1.250001X1.250001X1.250001X-1.250001X1.250001X0*%
%ADD20C,3.000000*%
%ADD21R,2.000000X1.905000*%
%ADD22O,2.000000X1.905000*%
%ADD23C,2.400000*%
%ADD24RoundRect,0.249999X-1.550001X0.790001X-1.550001X-0.790001X1.550001X-0.790001X1.550001X0.790001X0*%
%ADD25O,3.600000X2.080000*%
%ADD26RoundRect,0.249999X1.250001X1.250001X-1.250001X1.250001X-1.250001X-1.250001X1.250001X-1.250001X0*%
%ADD27R,1.700000X1.700000*%
%ADD28C,1.700000*%
G04 APERTURE END LIST*
D10*
X90678000Y-105664000D02*
X88646000Y-105664000D01*
X90678000Y-100076000D02*
X90678000Y-105664000D01*
X88646000Y-96774000D02*
X88646000Y-89408000D01*
X88646000Y-100076000D02*
X90678000Y-100076000D01*
X88646000Y-89408000D02*
X90678000Y-89408000D01*
X88646000Y-105664000D02*
X88646000Y-100076000D01*
X88646000Y-96774000D02*
X90678000Y-96774000D01*
X90678000Y-96774000D02*
X90678000Y-89408000D01*
X91905580Y-95622761D02*
X91905580Y-95432285D01*
X91905580Y-95432285D02*
X91857961Y-95337047D01*
X91857961Y-95337047D02*
X91762723Y-95241809D01*
X91762723Y-95241809D02*
X91572247Y-95194190D01*
X91572247Y-95194190D02*
X91238914Y-95194190D01*
X91238914Y-95194190D02*
X91048438Y-95241809D01*
X91048438Y-95241809D02*
X90953200Y-95337047D01*
X90953200Y-95337047D02*
X90905580Y-95432285D01*
X90905580Y-95432285D02*
X90905580Y-95622761D01*
X90905580Y-95622761D02*
X90953200Y-95717999D01*
X90953200Y-95717999D02*
X91048438Y-95813237D01*
X91048438Y-95813237D02*
X91238914Y-95860856D01*
X91238914Y-95860856D02*
X91572247Y-95860856D01*
X91572247Y-95860856D02*
X91762723Y-95813237D01*
X91762723Y-95813237D02*
X91857961Y-95717999D01*
X91857961Y-95717999D02*
X91905580Y-95622761D01*
X91905580Y-94765618D02*
X91096057Y-94765618D01*
X91096057Y-94765618D02*
X91000819Y-94717999D01*
X91000819Y-94717999D02*
X90953200Y-94670380D01*
X90953200Y-94670380D02*
X90905580Y-94575142D01*
X90905580Y-94575142D02*
X90905580Y-94384666D01*
X90905580Y-94384666D02*
X90953200Y-94289428D01*
X90953200Y-94289428D02*
X91000819Y-94241809D01*
X91000819Y-94241809D02*
X91096057Y-94194190D01*
X91096057Y-94194190D02*
X91905580Y-94194190D01*
X91905580Y-93860856D02*
X91905580Y-93289428D01*
X90905580Y-93575142D02*
X91905580Y-93575142D01*
X90905580Y-92956094D02*
X91905580Y-92956094D01*
X91905580Y-92956094D02*
X91905580Y-92575142D01*
X91905580Y-92575142D02*
X91857961Y-92479904D01*
X91857961Y-92479904D02*
X91810342Y-92432285D01*
X91810342Y-92432285D02*
X91715104Y-92384666D01*
X91715104Y-92384666D02*
X91572247Y-92384666D01*
X91572247Y-92384666D02*
X91477009Y-92432285D01*
X91477009Y-92432285D02*
X91429390Y-92479904D01*
X91429390Y-92479904D02*
X91381771Y-92575142D01*
X91381771Y-92575142D02*
X91381771Y-92956094D01*
X91905580Y-91956094D02*
X91096057Y-91956094D01*
X91096057Y-91956094D02*
X91000819Y-91908475D01*
X91000819Y-91908475D02*
X90953200Y-91860856D01*
X90953200Y-91860856D02*
X90905580Y-91765618D01*
X90905580Y-91765618D02*
X90905580Y-91575142D01*
X90905580Y-91575142D02*
X90953200Y-91479904D01*
X90953200Y-91479904D02*
X91000819Y-91432285D01*
X91000819Y-91432285D02*
X91096057Y-91384666D01*
X91096057Y-91384666D02*
X91905580Y-91384666D01*
X91905580Y-91051332D02*
X91905580Y-90479904D01*
X90905580Y-90765618D02*
X91905580Y-90765618D01*
X90248017Y-95979904D02*
X90295636Y-96075142D01*
X90295636Y-96075142D02*
X90295636Y-96217999D01*
X90295636Y-96217999D02*
X90248017Y-96360856D01*
X90248017Y-96360856D02*
X90152779Y-96456094D01*
X90152779Y-96456094D02*
X90057541Y-96503713D01*
X90057541Y-96503713D02*
X89867065Y-96551332D01*
X89867065Y-96551332D02*
X89724208Y-96551332D01*
X89724208Y-96551332D02*
X89533732Y-96503713D01*
X89533732Y-96503713D02*
X89438494Y-96456094D01*
X89438494Y-96456094D02*
X89343256Y-96360856D01*
X89343256Y-96360856D02*
X89295636Y-96217999D01*
X89295636Y-96217999D02*
X89295636Y-96122761D01*
X89295636Y-96122761D02*
X89343256Y-95979904D01*
X89343256Y-95979904D02*
X89390875Y-95932285D01*
X89390875Y-95932285D02*
X89724208Y-95932285D01*
X89724208Y-95932285D02*
X89724208Y-96122761D01*
X89295636Y-95503713D02*
X90295636Y-95503713D01*
X90295636Y-95503713D02*
X89295636Y-94932285D01*
X89295636Y-94932285D02*
X90295636Y-94932285D01*
X89295636Y-94456094D02*
X90295636Y-94456094D01*
X90295636Y-94456094D02*
X90295636Y-94217999D01*
X90295636Y-94217999D02*
X90248017Y-94075142D01*
X90248017Y-94075142D02*
X90152779Y-93979904D01*
X90152779Y-93979904D02*
X90057541Y-93932285D01*
X90057541Y-93932285D02*
X89867065Y-93884666D01*
X89867065Y-93884666D02*
X89724208Y-93884666D01*
X89724208Y-93884666D02*
X89533732Y-93932285D01*
X89533732Y-93932285D02*
X89438494Y-93979904D01*
X89438494Y-93979904D02*
X89343256Y-94075142D01*
X89343256Y-94075142D02*
X89295636Y-94217999D01*
X89295636Y-94217999D02*
X89295636Y-94456094D01*
X88962303Y-93217999D02*
X90390875Y-93217999D01*
X89676589Y-92503713D02*
X89676589Y-91741809D01*
X89295636Y-92122761D02*
X90057541Y-92122761D01*
X90295636Y-90789428D02*
X90295636Y-91265618D01*
X90295636Y-91265618D02*
X89819446Y-91313237D01*
X89819446Y-91313237D02*
X89867065Y-91265618D01*
X89867065Y-91265618D02*
X89914684Y-91170380D01*
X89914684Y-91170380D02*
X89914684Y-90932285D01*
X89914684Y-90932285D02*
X89867065Y-90837047D01*
X89867065Y-90837047D02*
X89819446Y-90789428D01*
X89819446Y-90789428D02*
X89724208Y-90741809D01*
X89724208Y-90741809D02*
X89486113Y-90741809D01*
X89486113Y-90741809D02*
X89390875Y-90789428D01*
X89390875Y-90789428D02*
X89343256Y-90837047D01*
X89343256Y-90837047D02*
X89295636Y-90932285D01*
X89295636Y-90932285D02*
X89295636Y-91170380D01*
X89295636Y-91170380D02*
X89343256Y-91265618D01*
X89343256Y-91265618D02*
X89390875Y-91313237D01*
X90295636Y-90456094D02*
X89295636Y-90122761D01*
X89295636Y-90122761D02*
X90295636Y-89789428D01*
X128697239Y-122808419D02*
X128697239Y-121808419D01*
X128697239Y-121808419D02*
X128316287Y-121808419D01*
X128316287Y-121808419D02*
X128221049Y-121856038D01*
X128221049Y-121856038D02*
X128173430Y-121903657D01*
X128173430Y-121903657D02*
X128125811Y-121998895D01*
X128125811Y-121998895D02*
X128125811Y-122141752D01*
X128125811Y-122141752D02*
X128173430Y-122236990D01*
X128173430Y-122236990D02*
X128221049Y-122284609D01*
X128221049Y-122284609D02*
X128316287Y-122332228D01*
X128316287Y-122332228D02*
X128697239Y-122332228D01*
X127554382Y-122808419D02*
X127649620Y-122760800D01*
X127649620Y-122760800D02*
X127697239Y-122713180D01*
X127697239Y-122713180D02*
X127744858Y-122617942D01*
X127744858Y-122617942D02*
X127744858Y-122332228D01*
X127744858Y-122332228D02*
X127697239Y-122236990D01*
X127697239Y-122236990D02*
X127649620Y-122189371D01*
X127649620Y-122189371D02*
X127554382Y-122141752D01*
X127554382Y-122141752D02*
X127411525Y-122141752D01*
X127411525Y-122141752D02*
X127316287Y-122189371D01*
X127316287Y-122189371D02*
X127268668Y-122236990D01*
X127268668Y-122236990D02*
X127221049Y-122332228D01*
X127221049Y-122332228D02*
X127221049Y-122617942D01*
X127221049Y-122617942D02*
X127268668Y-122713180D01*
X127268668Y-122713180D02*
X127316287Y-122760800D01*
X127316287Y-122760800D02*
X127411525Y-122808419D01*
X127411525Y-122808419D02*
X127554382Y-122808419D01*
X126887715Y-122141752D02*
X126697239Y-122808419D01*
X126697239Y-122808419D02*
X126506763Y-122332228D01*
X126506763Y-122332228D02*
X126316287Y-122808419D01*
X126316287Y-122808419D02*
X126125811Y-122141752D01*
X125363906Y-122760800D02*
X125459144Y-122808419D01*
X125459144Y-122808419D02*
X125649620Y-122808419D01*
X125649620Y-122808419D02*
X125744858Y-122760800D01*
X125744858Y-122760800D02*
X125792477Y-122665561D01*
X125792477Y-122665561D02*
X125792477Y-122284609D01*
X125792477Y-122284609D02*
X125744858Y-122189371D01*
X125744858Y-122189371D02*
X125649620Y-122141752D01*
X125649620Y-122141752D02*
X125459144Y-122141752D01*
X125459144Y-122141752D02*
X125363906Y-122189371D01*
X125363906Y-122189371D02*
X125316287Y-122284609D01*
X125316287Y-122284609D02*
X125316287Y-122379847D01*
X125316287Y-122379847D02*
X125792477Y-122475085D01*
X124887715Y-122808419D02*
X124887715Y-122141752D01*
X124887715Y-122332228D02*
X124840096Y-122236990D01*
X124840096Y-122236990D02*
X124792477Y-122189371D01*
X124792477Y-122189371D02*
X124697239Y-122141752D01*
X124697239Y-122141752D02*
X124602001Y-122141752D01*
X123506762Y-122808419D02*
X123506762Y-121808419D01*
X123506762Y-122189371D02*
X123411524Y-122141752D01*
X123411524Y-122141752D02*
X123221048Y-122141752D01*
X123221048Y-122141752D02*
X123125810Y-122189371D01*
X123125810Y-122189371D02*
X123078191Y-122236990D01*
X123078191Y-122236990D02*
X123030572Y-122332228D01*
X123030572Y-122332228D02*
X123030572Y-122617942D01*
X123030572Y-122617942D02*
X123078191Y-122713180D01*
X123078191Y-122713180D02*
X123125810Y-122760800D01*
X123125810Y-122760800D02*
X123221048Y-122808419D01*
X123221048Y-122808419D02*
X123411524Y-122808419D01*
X123411524Y-122808419D02*
X123506762Y-122760800D01*
X122173429Y-122808419D02*
X122173429Y-122284609D01*
X122173429Y-122284609D02*
X122221048Y-122189371D01*
X122221048Y-122189371D02*
X122316286Y-122141752D01*
X122316286Y-122141752D02*
X122506762Y-122141752D01*
X122506762Y-122141752D02*
X122602000Y-122189371D01*
X122173429Y-122760800D02*
X122268667Y-122808419D01*
X122268667Y-122808419D02*
X122506762Y-122808419D01*
X122506762Y-122808419D02*
X122602000Y-122760800D01*
X122602000Y-122760800D02*
X122649619Y-122665561D01*
X122649619Y-122665561D02*
X122649619Y-122570323D01*
X122649619Y-122570323D02*
X122602000Y-122475085D01*
X122602000Y-122475085D02*
X122506762Y-122427466D01*
X122506762Y-122427466D02*
X122268667Y-122427466D01*
X122268667Y-122427466D02*
X122173429Y-122379847D01*
X121697238Y-122141752D02*
X121697238Y-122808419D01*
X121697238Y-122236990D02*
X121649619Y-122189371D01*
X121649619Y-122189371D02*
X121554381Y-122141752D01*
X121554381Y-122141752D02*
X121411524Y-122141752D01*
X121411524Y-122141752D02*
X121316286Y-122189371D01*
X121316286Y-122189371D02*
X121268667Y-122284609D01*
X121268667Y-122284609D02*
X121268667Y-122808419D01*
X120792476Y-122808419D02*
X120792476Y-121808419D01*
X120697238Y-122427466D02*
X120411524Y-122808419D01*
X120411524Y-122141752D02*
X120792476Y-122522704D01*
X119221047Y-122141752D02*
X119221047Y-123141752D01*
X119221047Y-122189371D02*
X119125809Y-122141752D01*
X119125809Y-122141752D02*
X118935333Y-122141752D01*
X118935333Y-122141752D02*
X118840095Y-122189371D01*
X118840095Y-122189371D02*
X118792476Y-122236990D01*
X118792476Y-122236990D02*
X118744857Y-122332228D01*
X118744857Y-122332228D02*
X118744857Y-122617942D01*
X118744857Y-122617942D02*
X118792476Y-122713180D01*
X118792476Y-122713180D02*
X118840095Y-122760800D01*
X118840095Y-122760800D02*
X118935333Y-122808419D01*
X118935333Y-122808419D02*
X119125809Y-122808419D01*
X119125809Y-122808419D02*
X119221047Y-122760800D01*
X118316285Y-122808419D02*
X118316285Y-122141752D01*
X118316285Y-122332228D02*
X118268666Y-122236990D01*
X118268666Y-122236990D02*
X118221047Y-122189371D01*
X118221047Y-122189371D02*
X118125809Y-122141752D01*
X118125809Y-122141752D02*
X118030571Y-122141752D01*
X117554380Y-122808419D02*
X117649618Y-122760800D01*
X117649618Y-122760800D02*
X117697237Y-122713180D01*
X117697237Y-122713180D02*
X117744856Y-122617942D01*
X117744856Y-122617942D02*
X117744856Y-122332228D01*
X117744856Y-122332228D02*
X117697237Y-122236990D01*
X117697237Y-122236990D02*
X117649618Y-122189371D01*
X117649618Y-122189371D02*
X117554380Y-122141752D01*
X117554380Y-122141752D02*
X117411523Y-122141752D01*
X117411523Y-122141752D02*
X117316285Y-122189371D01*
X117316285Y-122189371D02*
X117268666Y-122236990D01*
X117268666Y-122236990D02*
X117221047Y-122332228D01*
X117221047Y-122332228D02*
X117221047Y-122617942D01*
X117221047Y-122617942D02*
X117268666Y-122713180D01*
X117268666Y-122713180D02*
X117316285Y-122760800D01*
X117316285Y-122760800D02*
X117411523Y-122808419D01*
X117411523Y-122808419D02*
X117554380Y-122808419D01*
X116078189Y-122760800D02*
X115982951Y-122808419D01*
X115982951Y-122808419D02*
X115792475Y-122808419D01*
X115792475Y-122808419D02*
X115697237Y-122760800D01*
X115697237Y-122760800D02*
X115649618Y-122665561D01*
X115649618Y-122665561D02*
X115649618Y-122617942D01*
X115649618Y-122617942D02*
X115697237Y-122522704D01*
X115697237Y-122522704D02*
X115792475Y-122475085D01*
X115792475Y-122475085D02*
X115935332Y-122475085D01*
X115935332Y-122475085D02*
X116030570Y-122427466D01*
X116030570Y-122427466D02*
X116078189Y-122332228D01*
X116078189Y-122332228D02*
X116078189Y-122284609D01*
X116078189Y-122284609D02*
X116030570Y-122189371D01*
X116030570Y-122189371D02*
X115935332Y-122141752D01*
X115935332Y-122141752D02*
X115792475Y-122141752D01*
X115792475Y-122141752D02*
X115697237Y-122189371D01*
X115078189Y-122808419D02*
X115173427Y-122760800D01*
X115173427Y-122760800D02*
X115221046Y-122713180D01*
X115221046Y-122713180D02*
X115268665Y-122617942D01*
X115268665Y-122617942D02*
X115268665Y-122332228D01*
X115268665Y-122332228D02*
X115221046Y-122236990D01*
X115221046Y-122236990D02*
X115173427Y-122189371D01*
X115173427Y-122189371D02*
X115078189Y-122141752D01*
X115078189Y-122141752D02*
X114935332Y-122141752D01*
X114935332Y-122141752D02*
X114840094Y-122189371D01*
X114840094Y-122189371D02*
X114792475Y-122236990D01*
X114792475Y-122236990D02*
X114744856Y-122332228D01*
X114744856Y-122332228D02*
X114744856Y-122617942D01*
X114744856Y-122617942D02*
X114792475Y-122713180D01*
X114792475Y-122713180D02*
X114840094Y-122760800D01*
X114840094Y-122760800D02*
X114935332Y-122808419D01*
X114935332Y-122808419D02*
X115078189Y-122808419D01*
X114173427Y-122808419D02*
X114268665Y-122760800D01*
X114268665Y-122760800D02*
X114316284Y-122665561D01*
X114316284Y-122665561D02*
X114316284Y-121808419D01*
X113363903Y-122808419D02*
X113363903Y-122284609D01*
X113363903Y-122284609D02*
X113411522Y-122189371D01*
X113411522Y-122189371D02*
X113506760Y-122141752D01*
X113506760Y-122141752D02*
X113697236Y-122141752D01*
X113697236Y-122141752D02*
X113792474Y-122189371D01*
X113363903Y-122760800D02*
X113459141Y-122808419D01*
X113459141Y-122808419D02*
X113697236Y-122808419D01*
X113697236Y-122808419D02*
X113792474Y-122760800D01*
X113792474Y-122760800D02*
X113840093Y-122665561D01*
X113840093Y-122665561D02*
X113840093Y-122570323D01*
X113840093Y-122570323D02*
X113792474Y-122475085D01*
X113792474Y-122475085D02*
X113697236Y-122427466D01*
X113697236Y-122427466D02*
X113459141Y-122427466D01*
X113459141Y-122427466D02*
X113363903Y-122379847D01*
X113506760Y-121760800D02*
X113649617Y-121903657D01*
X112887712Y-122808419D02*
X112887712Y-122141752D01*
X112887712Y-122332228D02*
X112840093Y-122236990D01*
X112840093Y-122236990D02*
X112792474Y-122189371D01*
X112792474Y-122189371D02*
X112697236Y-122141752D01*
X112697236Y-122141752D02*
X112601998Y-122141752D01*
X112268664Y-122141752D02*
X112268664Y-122808419D01*
X112268664Y-122236990D02*
X112221045Y-122189371D01*
X112221045Y-122189371D02*
X112125807Y-122141752D01*
X112125807Y-122141752D02*
X111982950Y-122141752D01*
X111982950Y-122141752D02*
X111887712Y-122189371D01*
X111887712Y-122189371D02*
X111840093Y-122284609D01*
X111840093Y-122284609D02*
X111840093Y-122808419D01*
X111363902Y-122808419D02*
X111363902Y-122141752D01*
X111268664Y-121760800D02*
X111411521Y-121903657D01*
X110125807Y-122141752D02*
X110125807Y-123141752D01*
X110125807Y-122189371D02*
X110030569Y-122141752D01*
X110030569Y-122141752D02*
X109840093Y-122141752D01*
X109840093Y-122141752D02*
X109744855Y-122189371D01*
X109744855Y-122189371D02*
X109697236Y-122236990D01*
X109697236Y-122236990D02*
X109649617Y-122332228D01*
X109649617Y-122332228D02*
X109649617Y-122617942D01*
X109649617Y-122617942D02*
X109697236Y-122713180D01*
X109697236Y-122713180D02*
X109744855Y-122760800D01*
X109744855Y-122760800D02*
X109840093Y-122808419D01*
X109840093Y-122808419D02*
X110030569Y-122808419D01*
X110030569Y-122808419D02*
X110125807Y-122760800D01*
X108792474Y-122808419D02*
X108792474Y-122284609D01*
X108792474Y-122284609D02*
X108840093Y-122189371D01*
X108840093Y-122189371D02*
X108935331Y-122141752D01*
X108935331Y-122141752D02*
X109125807Y-122141752D01*
X109125807Y-122141752D02*
X109221045Y-122189371D01*
X108792474Y-122760800D02*
X108887712Y-122808419D01*
X108887712Y-122808419D02*
X109125807Y-122808419D01*
X109125807Y-122808419D02*
X109221045Y-122760800D01*
X109221045Y-122760800D02*
X109268664Y-122665561D01*
X109268664Y-122665561D02*
X109268664Y-122570323D01*
X109268664Y-122570323D02*
X109221045Y-122475085D01*
X109221045Y-122475085D02*
X109125807Y-122427466D01*
X109125807Y-122427466D02*
X108887712Y-122427466D01*
X108887712Y-122427466D02*
X108792474Y-122379847D01*
X108316283Y-122141752D02*
X108316283Y-122808419D01*
X108316283Y-122236990D02*
X108268664Y-122189371D01*
X108268664Y-122189371D02*
X108173426Y-122141752D01*
X108173426Y-122141752D02*
X108030569Y-122141752D01*
X108030569Y-122141752D02*
X107935331Y-122189371D01*
X107935331Y-122189371D02*
X107887712Y-122284609D01*
X107887712Y-122284609D02*
X107887712Y-122808419D01*
X107030569Y-122760800D02*
X107125807Y-122808419D01*
X107125807Y-122808419D02*
X107316283Y-122808419D01*
X107316283Y-122808419D02*
X107411521Y-122760800D01*
X107411521Y-122760800D02*
X107459140Y-122665561D01*
X107459140Y-122665561D02*
X107459140Y-122284609D01*
X107459140Y-122284609D02*
X107411521Y-122189371D01*
X107411521Y-122189371D02*
X107316283Y-122141752D01*
X107316283Y-122141752D02*
X107125807Y-122141752D01*
X107125807Y-122141752D02*
X107030569Y-122189371D01*
X107030569Y-122189371D02*
X106982950Y-122284609D01*
X106982950Y-122284609D02*
X106982950Y-122379847D01*
X106982950Y-122379847D02*
X107459140Y-122475085D01*
X106411521Y-122808419D02*
X106506759Y-122760800D01*
X106506759Y-122760800D02*
X106554378Y-122665561D01*
X106554378Y-122665561D02*
X106554378Y-121808419D01*
X198524570Y-116866419D02*
X198524570Y-115866419D01*
X198048380Y-116866419D02*
X198048380Y-115866419D01*
X198048380Y-115866419D02*
X197476952Y-116866419D01*
X197476952Y-116866419D02*
X197476952Y-115866419D01*
X197000761Y-116866419D02*
X197000761Y-115866419D01*
X197000761Y-115866419D02*
X196619809Y-115866419D01*
X196619809Y-115866419D02*
X196524571Y-115914038D01*
X196524571Y-115914038D02*
X196476952Y-115961657D01*
X196476952Y-115961657D02*
X196429333Y-116056895D01*
X196429333Y-116056895D02*
X196429333Y-116199752D01*
X196429333Y-116199752D02*
X196476952Y-116294990D01*
X196476952Y-116294990D02*
X196524571Y-116342609D01*
X196524571Y-116342609D02*
X196619809Y-116390228D01*
X196619809Y-116390228D02*
X197000761Y-116390228D01*
X196000761Y-115866419D02*
X196000761Y-116675942D01*
X196000761Y-116675942D02*
X195953142Y-116771180D01*
X195953142Y-116771180D02*
X195905523Y-116818800D01*
X195905523Y-116818800D02*
X195810285Y-116866419D01*
X195810285Y-116866419D02*
X195619809Y-116866419D01*
X195619809Y-116866419D02*
X195524571Y-116818800D01*
X195524571Y-116818800D02*
X195476952Y-116771180D01*
X195476952Y-116771180D02*
X195429333Y-116675942D01*
X195429333Y-116675942D02*
X195429333Y-115866419D01*
X195095999Y-115866419D02*
X194524571Y-115866419D01*
X194810285Y-116866419D02*
X194810285Y-115866419D01*
X198595999Y-118190648D02*
X198119809Y-118190648D01*
X198691237Y-118476363D02*
X198357904Y-117476363D01*
X198357904Y-117476363D02*
X198024571Y-118476363D01*
X197262666Y-118428744D02*
X197357904Y-118476363D01*
X197357904Y-118476363D02*
X197548380Y-118476363D01*
X197548380Y-118476363D02*
X197643618Y-118428744D01*
X197643618Y-118428744D02*
X197691237Y-118381124D01*
X197691237Y-118381124D02*
X197738856Y-118285886D01*
X197738856Y-118285886D02*
X197738856Y-118000172D01*
X197738856Y-118000172D02*
X197691237Y-117904934D01*
X197691237Y-117904934D02*
X197643618Y-117857315D01*
X197643618Y-117857315D02*
X197548380Y-117809696D01*
X197548380Y-117809696D02*
X197357904Y-117809696D01*
X197357904Y-117809696D02*
X197262666Y-117857315D01*
X196976951Y-117809696D02*
X196595999Y-117809696D01*
X196834094Y-117476363D02*
X196834094Y-118333505D01*
X196834094Y-118333505D02*
X196786475Y-118428744D01*
X196786475Y-118428744D02*
X196691237Y-118476363D01*
X196691237Y-118476363D02*
X196595999Y-118476363D01*
X196262665Y-118476363D02*
X196262665Y-117809696D01*
X196262665Y-117476363D02*
X196310284Y-117523982D01*
X196310284Y-117523982D02*
X196262665Y-117571601D01*
X196262665Y-117571601D02*
X196215046Y-117523982D01*
X196215046Y-117523982D02*
X196262665Y-117476363D01*
X196262665Y-117476363D02*
X196262665Y-117571601D01*
X195881713Y-117809696D02*
X195643618Y-118476363D01*
X195643618Y-118476363D02*
X195405523Y-117809696D01*
X194643618Y-118428744D02*
X194738856Y-118476363D01*
X194738856Y-118476363D02*
X194929332Y-118476363D01*
X194929332Y-118476363D02*
X195024570Y-118428744D01*
X195024570Y-118428744D02*
X195072189Y-118333505D01*
X195072189Y-118333505D02*
X195072189Y-117952553D01*
X195072189Y-117952553D02*
X195024570Y-117857315D01*
X195024570Y-117857315D02*
X194929332Y-117809696D01*
X194929332Y-117809696D02*
X194738856Y-117809696D01*
X194738856Y-117809696D02*
X194643618Y-117857315D01*
X194643618Y-117857315D02*
X194595999Y-117952553D01*
X194595999Y-117952553D02*
X194595999Y-118047791D01*
X194595999Y-118047791D02*
X195072189Y-118143029D01*
X93742342Y-105661734D02*
X93789961Y-105614115D01*
X93789961Y-105614115D02*
X93837580Y-105518877D01*
X93837580Y-105518877D02*
X93837580Y-105280782D01*
X93837580Y-105280782D02*
X93789961Y-105185544D01*
X93789961Y-105185544D02*
X93742342Y-105137925D01*
X93742342Y-105137925D02*
X93647104Y-105090306D01*
X93647104Y-105090306D02*
X93551866Y-105090306D01*
X93551866Y-105090306D02*
X93409009Y-105137925D01*
X93409009Y-105137925D02*
X92837580Y-105709353D01*
X92837580Y-105709353D02*
X92837580Y-105090306D01*
X93837580Y-104471258D02*
X93837580Y-104376020D01*
X93837580Y-104376020D02*
X93789961Y-104280782D01*
X93789961Y-104280782D02*
X93742342Y-104233163D01*
X93742342Y-104233163D02*
X93647104Y-104185544D01*
X93647104Y-104185544D02*
X93456628Y-104137925D01*
X93456628Y-104137925D02*
X93218533Y-104137925D01*
X93218533Y-104137925D02*
X93028057Y-104185544D01*
X93028057Y-104185544D02*
X92932819Y-104233163D01*
X92932819Y-104233163D02*
X92885200Y-104280782D01*
X92885200Y-104280782D02*
X92837580Y-104376020D01*
X92837580Y-104376020D02*
X92837580Y-104471258D01*
X92837580Y-104471258D02*
X92885200Y-104566496D01*
X92885200Y-104566496D02*
X92932819Y-104614115D01*
X92932819Y-104614115D02*
X93028057Y-104661734D01*
X93028057Y-104661734D02*
X93218533Y-104709353D01*
X93218533Y-104709353D02*
X93456628Y-104709353D01*
X93456628Y-104709353D02*
X93647104Y-104661734D01*
X93647104Y-104661734D02*
X93742342Y-104614115D01*
X93742342Y-104614115D02*
X93789961Y-104566496D01*
X93789961Y-104566496D02*
X93837580Y-104471258D01*
X93837580Y-103852210D02*
X92837580Y-103518877D01*
X92837580Y-103518877D02*
X93837580Y-103185544D01*
X93218533Y-102852210D02*
X93218533Y-102090306D01*
X93837580Y-101137925D02*
X93837580Y-101614115D01*
X93837580Y-101614115D02*
X93361390Y-101661734D01*
X93361390Y-101661734D02*
X93409009Y-101614115D01*
X93409009Y-101614115D02*
X93456628Y-101518877D01*
X93456628Y-101518877D02*
X93456628Y-101280782D01*
X93456628Y-101280782D02*
X93409009Y-101185544D01*
X93409009Y-101185544D02*
X93361390Y-101137925D01*
X93361390Y-101137925D02*
X93266152Y-101090306D01*
X93266152Y-101090306D02*
X93028057Y-101090306D01*
X93028057Y-101090306D02*
X92932819Y-101137925D01*
X92932819Y-101137925D02*
X92885200Y-101185544D01*
X92885200Y-101185544D02*
X92837580Y-101280782D01*
X92837580Y-101280782D02*
X92837580Y-101518877D01*
X92837580Y-101518877D02*
X92885200Y-101614115D01*
X92885200Y-101614115D02*
X92932819Y-101661734D01*
X93837580Y-100471258D02*
X93837580Y-100376020D01*
X93837580Y-100376020D02*
X93789961Y-100280782D01*
X93789961Y-100280782D02*
X93742342Y-100233163D01*
X93742342Y-100233163D02*
X93647104Y-100185544D01*
X93647104Y-100185544D02*
X93456628Y-100137925D01*
X93456628Y-100137925D02*
X93218533Y-100137925D01*
X93218533Y-100137925D02*
X93028057Y-100185544D01*
X93028057Y-100185544D02*
X92932819Y-100233163D01*
X92932819Y-100233163D02*
X92885200Y-100280782D01*
X92885200Y-100280782D02*
X92837580Y-100376020D01*
X92837580Y-100376020D02*
X92837580Y-100471258D01*
X92837580Y-100471258D02*
X92885200Y-100566496D01*
X92885200Y-100566496D02*
X92932819Y-100614115D01*
X92932819Y-100614115D02*
X93028057Y-100661734D01*
X93028057Y-100661734D02*
X93218533Y-100709353D01*
X93218533Y-100709353D02*
X93456628Y-100709353D01*
X93456628Y-100709353D02*
X93647104Y-100661734D01*
X93647104Y-100661734D02*
X93742342Y-100614115D01*
X93742342Y-100614115D02*
X93789961Y-100566496D01*
X93789961Y-100566496D02*
X93837580Y-100471258D01*
X93837580Y-99852210D02*
X92837580Y-99518877D01*
X92837580Y-99518877D02*
X93837580Y-99185544D01*
X185657809Y-72686419D02*
X185467333Y-72686419D01*
X185467333Y-72686419D02*
X185372095Y-72734038D01*
X185372095Y-72734038D02*
X185276857Y-72829276D01*
X185276857Y-72829276D02*
X185229238Y-73019752D01*
X185229238Y-73019752D02*
X185229238Y-73353085D01*
X185229238Y-73353085D02*
X185276857Y-73543561D01*
X185276857Y-73543561D02*
X185372095Y-73638800D01*
X185372095Y-73638800D02*
X185467333Y-73686419D01*
X185467333Y-73686419D02*
X185657809Y-73686419D01*
X185657809Y-73686419D02*
X185753047Y-73638800D01*
X185753047Y-73638800D02*
X185848285Y-73543561D01*
X185848285Y-73543561D02*
X185895904Y-73353085D01*
X185895904Y-73353085D02*
X185895904Y-73019752D01*
X185895904Y-73019752D02*
X185848285Y-72829276D01*
X185848285Y-72829276D02*
X185753047Y-72734038D01*
X185753047Y-72734038D02*
X185657809Y-72686419D01*
X184800666Y-73686419D02*
X184800666Y-72686419D01*
X184800666Y-72686419D02*
X184229238Y-73686419D01*
X184229238Y-73686419D02*
X184229238Y-72686419D01*
X183038762Y-72638800D02*
X183895904Y-73924514D01*
X182514952Y-72686419D02*
X182324476Y-72686419D01*
X182324476Y-72686419D02*
X182229238Y-72734038D01*
X182229238Y-72734038D02*
X182134000Y-72829276D01*
X182134000Y-72829276D02*
X182086381Y-73019752D01*
X182086381Y-73019752D02*
X182086381Y-73353085D01*
X182086381Y-73353085D02*
X182134000Y-73543561D01*
X182134000Y-73543561D02*
X182229238Y-73638800D01*
X182229238Y-73638800D02*
X182324476Y-73686419D01*
X182324476Y-73686419D02*
X182514952Y-73686419D01*
X182514952Y-73686419D02*
X182610190Y-73638800D01*
X182610190Y-73638800D02*
X182705428Y-73543561D01*
X182705428Y-73543561D02*
X182753047Y-73353085D01*
X182753047Y-73353085D02*
X182753047Y-73019752D01*
X182753047Y-73019752D02*
X182705428Y-72829276D01*
X182705428Y-72829276D02*
X182610190Y-72734038D01*
X182610190Y-72734038D02*
X182514952Y-72686419D01*
X181324476Y-73162609D02*
X181657809Y-73162609D01*
X181657809Y-73686419D02*
X181657809Y-72686419D01*
X181657809Y-72686419D02*
X181181619Y-72686419D01*
X180467333Y-73162609D02*
X180800666Y-73162609D01*
X180800666Y-73686419D02*
X180800666Y-72686419D01*
X180800666Y-72686419D02*
X180324476Y-72686419D01*
X185157809Y-74296363D02*
X184967333Y-74296363D01*
X184967333Y-74296363D02*
X184872095Y-74343982D01*
X184872095Y-74343982D02*
X184776857Y-74439220D01*
X184776857Y-74439220D02*
X184729238Y-74629696D01*
X184729238Y-74629696D02*
X184729238Y-74963029D01*
X184729238Y-74963029D02*
X184776857Y-75153505D01*
X184776857Y-75153505D02*
X184872095Y-75248744D01*
X184872095Y-75248744D02*
X184967333Y-75296363D01*
X184967333Y-75296363D02*
X185157809Y-75296363D01*
X185157809Y-75296363D02*
X185253047Y-75248744D01*
X185253047Y-75248744D02*
X185348285Y-75153505D01*
X185348285Y-75153505D02*
X185395904Y-74963029D01*
X185395904Y-74963029D02*
X185395904Y-74629696D01*
X185395904Y-74629696D02*
X185348285Y-74439220D01*
X185348285Y-74439220D02*
X185253047Y-74343982D01*
X185253047Y-74343982D02*
X185157809Y-74296363D01*
X183872095Y-74629696D02*
X183872095Y-75296363D01*
X184300666Y-74629696D02*
X184300666Y-75153505D01*
X184300666Y-75153505D02*
X184253047Y-75248744D01*
X184253047Y-75248744D02*
X184157809Y-75296363D01*
X184157809Y-75296363D02*
X184014952Y-75296363D01*
X184014952Y-75296363D02*
X183919714Y-75248744D01*
X183919714Y-75248744D02*
X183872095Y-75201124D01*
X183538761Y-74629696D02*
X183157809Y-74629696D01*
X183395904Y-74296363D02*
X183395904Y-75153505D01*
X183395904Y-75153505D02*
X183348285Y-75248744D01*
X183348285Y-75248744D02*
X183253047Y-75296363D01*
X183253047Y-75296363D02*
X183157809Y-75296363D01*
X182824475Y-74629696D02*
X182824475Y-75629696D01*
X182824475Y-74677315D02*
X182729237Y-74629696D01*
X182729237Y-74629696D02*
X182538761Y-74629696D01*
X182538761Y-74629696D02*
X182443523Y-74677315D01*
X182443523Y-74677315D02*
X182395904Y-74724934D01*
X182395904Y-74724934D02*
X182348285Y-74820172D01*
X182348285Y-74820172D02*
X182348285Y-75105886D01*
X182348285Y-75105886D02*
X182395904Y-75201124D01*
X182395904Y-75201124D02*
X182443523Y-75248744D01*
X182443523Y-75248744D02*
X182538761Y-75296363D01*
X182538761Y-75296363D02*
X182729237Y-75296363D01*
X182729237Y-75296363D02*
X182824475Y-75248744D01*
X181491142Y-74629696D02*
X181491142Y-75296363D01*
X181919713Y-74629696D02*
X181919713Y-75153505D01*
X181919713Y-75153505D02*
X181872094Y-75248744D01*
X181872094Y-75248744D02*
X181776856Y-75296363D01*
X181776856Y-75296363D02*
X181633999Y-75296363D01*
X181633999Y-75296363D02*
X181538761Y-75248744D01*
X181538761Y-75248744D02*
X181491142Y-75201124D01*
X181157808Y-74629696D02*
X180776856Y-74629696D01*
X181014951Y-74296363D02*
X181014951Y-75153505D01*
X181014951Y-75153505D02*
X180967332Y-75248744D01*
X180967332Y-75248744D02*
X180872094Y-75296363D01*
X180872094Y-75296363D02*
X180776856Y-75296363D01*
X92837580Y-93979904D02*
X92837580Y-94551332D01*
X92837580Y-94265618D02*
X93837580Y-94265618D01*
X93837580Y-94265618D02*
X93694723Y-94360856D01*
X93694723Y-94360856D02*
X93599485Y-94456094D01*
X93599485Y-94456094D02*
X93551866Y-94551332D01*
X93837580Y-93360856D02*
X93837580Y-93265618D01*
X93837580Y-93265618D02*
X93789961Y-93170380D01*
X93789961Y-93170380D02*
X93742342Y-93122761D01*
X93742342Y-93122761D02*
X93647104Y-93075142D01*
X93647104Y-93075142D02*
X93456628Y-93027523D01*
X93456628Y-93027523D02*
X93218533Y-93027523D01*
X93218533Y-93027523D02*
X93028057Y-93075142D01*
X93028057Y-93075142D02*
X92932819Y-93122761D01*
X92932819Y-93122761D02*
X92885200Y-93170380D01*
X92885200Y-93170380D02*
X92837580Y-93265618D01*
X92837580Y-93265618D02*
X92837580Y-93360856D01*
X92837580Y-93360856D02*
X92885200Y-93456094D01*
X92885200Y-93456094D02*
X92932819Y-93503713D01*
X92932819Y-93503713D02*
X93028057Y-93551332D01*
X93028057Y-93551332D02*
X93218533Y-93598951D01*
X93218533Y-93598951D02*
X93456628Y-93598951D01*
X93456628Y-93598951D02*
X93647104Y-93551332D01*
X93647104Y-93551332D02*
X93742342Y-93503713D01*
X93742342Y-93503713D02*
X93789961Y-93456094D01*
X93789961Y-93456094D02*
X93837580Y-93360856D01*
X93837580Y-92694189D02*
X92837580Y-92456094D01*
X92837580Y-92456094D02*
X93551866Y-92265618D01*
X93551866Y-92265618D02*
X92837580Y-92075142D01*
X92837580Y-92075142D02*
X93837580Y-91837047D01*
X199254761Y-76496419D02*
X199064285Y-76496419D01*
X199064285Y-76496419D02*
X198969047Y-76544038D01*
X198969047Y-76544038D02*
X198873809Y-76639276D01*
X198873809Y-76639276D02*
X198826190Y-76829752D01*
X198826190Y-76829752D02*
X198826190Y-77163085D01*
X198826190Y-77163085D02*
X198873809Y-77353561D01*
X198873809Y-77353561D02*
X198969047Y-77448800D01*
X198969047Y-77448800D02*
X199064285Y-77496419D01*
X199064285Y-77496419D02*
X199254761Y-77496419D01*
X199254761Y-77496419D02*
X199349999Y-77448800D01*
X199349999Y-77448800D02*
X199445237Y-77353561D01*
X199445237Y-77353561D02*
X199492856Y-77163085D01*
X199492856Y-77163085D02*
X199492856Y-76829752D01*
X199492856Y-76829752D02*
X199445237Y-76639276D01*
X199445237Y-76639276D02*
X199349999Y-76544038D01*
X199349999Y-76544038D02*
X199254761Y-76496419D01*
X198397618Y-76496419D02*
X198397618Y-77305942D01*
X198397618Y-77305942D02*
X198349999Y-77401180D01*
X198349999Y-77401180D02*
X198302380Y-77448800D01*
X198302380Y-77448800D02*
X198207142Y-77496419D01*
X198207142Y-77496419D02*
X198016666Y-77496419D01*
X198016666Y-77496419D02*
X197921428Y-77448800D01*
X197921428Y-77448800D02*
X197873809Y-77401180D01*
X197873809Y-77401180D02*
X197826190Y-77305942D01*
X197826190Y-77305942D02*
X197826190Y-76496419D01*
X197492856Y-76496419D02*
X196921428Y-76496419D01*
X197207142Y-77496419D02*
X197207142Y-76496419D01*
X196588094Y-77496419D02*
X196588094Y-76496419D01*
X196588094Y-76496419D02*
X196207142Y-76496419D01*
X196207142Y-76496419D02*
X196111904Y-76544038D01*
X196111904Y-76544038D02*
X196064285Y-76591657D01*
X196064285Y-76591657D02*
X196016666Y-76686895D01*
X196016666Y-76686895D02*
X196016666Y-76829752D01*
X196016666Y-76829752D02*
X196064285Y-76924990D01*
X196064285Y-76924990D02*
X196111904Y-76972609D01*
X196111904Y-76972609D02*
X196207142Y-77020228D01*
X196207142Y-77020228D02*
X196588094Y-77020228D01*
X195588094Y-76496419D02*
X195588094Y-77305942D01*
X195588094Y-77305942D02*
X195540475Y-77401180D01*
X195540475Y-77401180D02*
X195492856Y-77448800D01*
X195492856Y-77448800D02*
X195397618Y-77496419D01*
X195397618Y-77496419D02*
X195207142Y-77496419D01*
X195207142Y-77496419D02*
X195111904Y-77448800D01*
X195111904Y-77448800D02*
X195064285Y-77401180D01*
X195064285Y-77401180D02*
X195016666Y-77305942D01*
X195016666Y-77305942D02*
X195016666Y-76496419D01*
X194683332Y-76496419D02*
X194111904Y-76496419D01*
X194397618Y-77496419D02*
X194397618Y-76496419D01*
X198849999Y-78820648D02*
X198373809Y-78820648D01*
X198945237Y-79106363D02*
X198611904Y-78106363D01*
X198611904Y-78106363D02*
X198278571Y-79106363D01*
X197516666Y-79058744D02*
X197611904Y-79106363D01*
X197611904Y-79106363D02*
X197802380Y-79106363D01*
X197802380Y-79106363D02*
X197897618Y-79058744D01*
X197897618Y-79058744D02*
X197945237Y-79011124D01*
X197945237Y-79011124D02*
X197992856Y-78915886D01*
X197992856Y-78915886D02*
X197992856Y-78630172D01*
X197992856Y-78630172D02*
X197945237Y-78534934D01*
X197945237Y-78534934D02*
X197897618Y-78487315D01*
X197897618Y-78487315D02*
X197802380Y-78439696D01*
X197802380Y-78439696D02*
X197611904Y-78439696D01*
X197611904Y-78439696D02*
X197516666Y-78487315D01*
X197230951Y-78439696D02*
X196849999Y-78439696D01*
X197088094Y-78106363D02*
X197088094Y-78963505D01*
X197088094Y-78963505D02*
X197040475Y-79058744D01*
X197040475Y-79058744D02*
X196945237Y-79106363D01*
X196945237Y-79106363D02*
X196849999Y-79106363D01*
X196516665Y-79106363D02*
X196516665Y-78439696D01*
X196516665Y-78106363D02*
X196564284Y-78153982D01*
X196564284Y-78153982D02*
X196516665Y-78201601D01*
X196516665Y-78201601D02*
X196469046Y-78153982D01*
X196469046Y-78153982D02*
X196516665Y-78106363D01*
X196516665Y-78106363D02*
X196516665Y-78201601D01*
X196135713Y-78439696D02*
X195897618Y-79106363D01*
X195897618Y-79106363D02*
X195659523Y-78439696D01*
X194897618Y-79058744D02*
X194992856Y-79106363D01*
X194992856Y-79106363D02*
X195183332Y-79106363D01*
X195183332Y-79106363D02*
X195278570Y-79058744D01*
X195278570Y-79058744D02*
X195326189Y-78963505D01*
X195326189Y-78963505D02*
X195326189Y-78582553D01*
X195326189Y-78582553D02*
X195278570Y-78487315D01*
X195278570Y-78487315D02*
X195183332Y-78439696D01*
X195183332Y-78439696D02*
X194992856Y-78439696D01*
X194992856Y-78439696D02*
X194897618Y-78487315D01*
X194897618Y-78487315D02*
X194849999Y-78582553D01*
X194849999Y-78582553D02*
X194849999Y-78677791D01*
X194849999Y-78677791D02*
X195326189Y-78773029D01*
X186165809Y-119168419D02*
X185975333Y-119168419D01*
X185975333Y-119168419D02*
X185880095Y-119216038D01*
X185880095Y-119216038D02*
X185784857Y-119311276D01*
X185784857Y-119311276D02*
X185737238Y-119501752D01*
X185737238Y-119501752D02*
X185737238Y-119835085D01*
X185737238Y-119835085D02*
X185784857Y-120025561D01*
X185784857Y-120025561D02*
X185880095Y-120120800D01*
X185880095Y-120120800D02*
X185975333Y-120168419D01*
X185975333Y-120168419D02*
X186165809Y-120168419D01*
X186165809Y-120168419D02*
X186261047Y-120120800D01*
X186261047Y-120120800D02*
X186356285Y-120025561D01*
X186356285Y-120025561D02*
X186403904Y-119835085D01*
X186403904Y-119835085D02*
X186403904Y-119501752D01*
X186403904Y-119501752D02*
X186356285Y-119311276D01*
X186356285Y-119311276D02*
X186261047Y-119216038D01*
X186261047Y-119216038D02*
X186165809Y-119168419D01*
X185308666Y-120168419D02*
X185308666Y-119168419D01*
X185308666Y-119168419D02*
X184737238Y-120168419D01*
X184737238Y-120168419D02*
X184737238Y-119168419D01*
X183546762Y-119120800D02*
X184403904Y-120406514D01*
X183022952Y-119168419D02*
X182832476Y-119168419D01*
X182832476Y-119168419D02*
X182737238Y-119216038D01*
X182737238Y-119216038D02*
X182642000Y-119311276D01*
X182642000Y-119311276D02*
X182594381Y-119501752D01*
X182594381Y-119501752D02*
X182594381Y-119835085D01*
X182594381Y-119835085D02*
X182642000Y-120025561D01*
X182642000Y-120025561D02*
X182737238Y-120120800D01*
X182737238Y-120120800D02*
X182832476Y-120168419D01*
X182832476Y-120168419D02*
X183022952Y-120168419D01*
X183022952Y-120168419D02*
X183118190Y-120120800D01*
X183118190Y-120120800D02*
X183213428Y-120025561D01*
X183213428Y-120025561D02*
X183261047Y-119835085D01*
X183261047Y-119835085D02*
X183261047Y-119501752D01*
X183261047Y-119501752D02*
X183213428Y-119311276D01*
X183213428Y-119311276D02*
X183118190Y-119216038D01*
X183118190Y-119216038D02*
X183022952Y-119168419D01*
X181832476Y-119644609D02*
X182165809Y-119644609D01*
X182165809Y-120168419D02*
X182165809Y-119168419D01*
X182165809Y-119168419D02*
X181689619Y-119168419D01*
X180975333Y-119644609D02*
X181308666Y-119644609D01*
X181308666Y-120168419D02*
X181308666Y-119168419D01*
X181308666Y-119168419D02*
X180832476Y-119168419D01*
X185284856Y-121778363D02*
X185284856Y-120778363D01*
X184808666Y-121111696D02*
X184808666Y-121778363D01*
X184808666Y-121206934D02*
X184761047Y-121159315D01*
X184761047Y-121159315D02*
X184665809Y-121111696D01*
X184665809Y-121111696D02*
X184522952Y-121111696D01*
X184522952Y-121111696D02*
X184427714Y-121159315D01*
X184427714Y-121159315D02*
X184380095Y-121254553D01*
X184380095Y-121254553D02*
X184380095Y-121778363D01*
X183903904Y-121111696D02*
X183903904Y-122111696D01*
X183903904Y-121159315D02*
X183808666Y-121111696D01*
X183808666Y-121111696D02*
X183618190Y-121111696D01*
X183618190Y-121111696D02*
X183522952Y-121159315D01*
X183522952Y-121159315D02*
X183475333Y-121206934D01*
X183475333Y-121206934D02*
X183427714Y-121302172D01*
X183427714Y-121302172D02*
X183427714Y-121587886D01*
X183427714Y-121587886D02*
X183475333Y-121683124D01*
X183475333Y-121683124D02*
X183522952Y-121730744D01*
X183522952Y-121730744D02*
X183618190Y-121778363D01*
X183618190Y-121778363D02*
X183808666Y-121778363D01*
X183808666Y-121778363D02*
X183903904Y-121730744D01*
X182570571Y-121111696D02*
X182570571Y-121778363D01*
X182999142Y-121111696D02*
X182999142Y-121635505D01*
X182999142Y-121635505D02*
X182951523Y-121730744D01*
X182951523Y-121730744D02*
X182856285Y-121778363D01*
X182856285Y-121778363D02*
X182713428Y-121778363D01*
X182713428Y-121778363D02*
X182618190Y-121730744D01*
X182618190Y-121730744D02*
X182570571Y-121683124D01*
X182237237Y-121111696D02*
X181856285Y-121111696D01*
X182094380Y-120778363D02*
X182094380Y-121635505D01*
X182094380Y-121635505D02*
X182046761Y-121730744D01*
X182046761Y-121730744D02*
X181951523Y-121778363D01*
X181951523Y-121778363D02*
X181856285Y-121778363D01*
X120038475Y-124740419D02*
X120038475Y-124073752D01*
X120038475Y-124264228D02*
X119990856Y-124168990D01*
X119990856Y-124168990D02*
X119943237Y-124121371D01*
X119943237Y-124121371D02*
X119847999Y-124073752D01*
X119847999Y-124073752D02*
X119752761Y-124073752D01*
X119038475Y-124692800D02*
X119133713Y-124740419D01*
X119133713Y-124740419D02*
X119324189Y-124740419D01*
X119324189Y-124740419D02*
X119419427Y-124692800D01*
X119419427Y-124692800D02*
X119467046Y-124597561D01*
X119467046Y-124597561D02*
X119467046Y-124216609D01*
X119467046Y-124216609D02*
X119419427Y-124121371D01*
X119419427Y-124121371D02*
X119324189Y-124073752D01*
X119324189Y-124073752D02*
X119133713Y-124073752D01*
X119133713Y-124073752D02*
X119038475Y-124121371D01*
X119038475Y-124121371D02*
X118990856Y-124216609D01*
X118990856Y-124216609D02*
X118990856Y-124311847D01*
X118990856Y-124311847D02*
X119467046Y-124407085D01*
X118657522Y-124073752D02*
X118419427Y-124740419D01*
X118419427Y-124740419D02*
X118181332Y-124073752D01*
X117800379Y-124645180D02*
X117752760Y-124692800D01*
X117752760Y-124692800D02*
X117800379Y-124740419D01*
X117800379Y-124740419D02*
X117847998Y-124692800D01*
X117847998Y-124692800D02*
X117800379Y-124645180D01*
X117800379Y-124645180D02*
X117800379Y-124740419D01*
X116038475Y-124740419D02*
X116609903Y-124740419D01*
X116324189Y-124740419D02*
X116324189Y-123740419D01*
X116324189Y-123740419D02*
X116419427Y-123883276D01*
X116419427Y-123883276D02*
X116514665Y-123978514D01*
X116514665Y-123978514D02*
X116609903Y-124026133D01*
X115609903Y-124645180D02*
X115562284Y-124692800D01*
X115562284Y-124692800D02*
X115609903Y-124740419D01*
X115609903Y-124740419D02*
X115657522Y-124692800D01*
X115657522Y-124692800D02*
X115609903Y-124645180D01*
X115609903Y-124645180D02*
X115609903Y-124740419D01*
X114943237Y-123740419D02*
X114847999Y-123740419D01*
X114847999Y-123740419D02*
X114752761Y-123788038D01*
X114752761Y-123788038D02*
X114705142Y-123835657D01*
X114705142Y-123835657D02*
X114657523Y-123930895D01*
X114657523Y-123930895D02*
X114609904Y-124121371D01*
X114609904Y-124121371D02*
X114609904Y-124359466D01*
X114609904Y-124359466D02*
X114657523Y-124549942D01*
X114657523Y-124549942D02*
X114705142Y-124645180D01*
X114705142Y-124645180D02*
X114752761Y-124692800D01*
X114752761Y-124692800D02*
X114847999Y-124740419D01*
X114847999Y-124740419D02*
X114943237Y-124740419D01*
X114943237Y-124740419D02*
X115038475Y-124692800D01*
X115038475Y-124692800D02*
X115086094Y-124645180D01*
X115086094Y-124645180D02*
X115133713Y-124549942D01*
X115133713Y-124549942D02*
X115181332Y-124359466D01*
X115181332Y-124359466D02*
X115181332Y-124121371D01*
X115181332Y-124121371D02*
X115133713Y-123930895D01*
X115133713Y-123930895D02*
X115086094Y-123835657D01*
X115086094Y-123835657D02*
X115038475Y-123788038D01*
X115038475Y-123788038D02*
X114943237Y-123740419D01*
X90905580Y-104798570D02*
X91905580Y-104798570D01*
X90905580Y-104322380D02*
X91905580Y-104322380D01*
X91905580Y-104322380D02*
X90905580Y-103750952D01*
X90905580Y-103750952D02*
X91905580Y-103750952D01*
X90905580Y-103274761D02*
X91905580Y-103274761D01*
X91905580Y-103274761D02*
X91905580Y-102893809D01*
X91905580Y-102893809D02*
X91857961Y-102798571D01*
X91857961Y-102798571D02*
X91810342Y-102750952D01*
X91810342Y-102750952D02*
X91715104Y-102703333D01*
X91715104Y-102703333D02*
X91572247Y-102703333D01*
X91572247Y-102703333D02*
X91477009Y-102750952D01*
X91477009Y-102750952D02*
X91429390Y-102798571D01*
X91429390Y-102798571D02*
X91381771Y-102893809D01*
X91381771Y-102893809D02*
X91381771Y-103274761D01*
X91905580Y-102274761D02*
X91096057Y-102274761D01*
X91096057Y-102274761D02*
X91000819Y-102227142D01*
X91000819Y-102227142D02*
X90953200Y-102179523D01*
X90953200Y-102179523D02*
X90905580Y-102084285D01*
X90905580Y-102084285D02*
X90905580Y-101893809D01*
X90905580Y-101893809D02*
X90953200Y-101798571D01*
X90953200Y-101798571D02*
X91000819Y-101750952D01*
X91000819Y-101750952D02*
X91096057Y-101703333D01*
X91096057Y-101703333D02*
X91905580Y-101703333D01*
X91905580Y-101369999D02*
X91905580Y-100798571D01*
X90905580Y-101084285D02*
X91905580Y-101084285D01*
X89676589Y-105203332D02*
X89676589Y-104441428D01*
X90295636Y-104108094D02*
X89295636Y-103774761D01*
X89295636Y-103774761D02*
X90295636Y-103441428D01*
X88962303Y-102869999D02*
X90390875Y-102869999D01*
X89676589Y-102155713D02*
X89676589Y-101393809D01*
X89295636Y-101774761D02*
X90057541Y-101774761D01*
X90295636Y-101060475D02*
X89295636Y-100727142D01*
X89295636Y-100727142D02*
X90295636Y-100393809D01*
D11*
X192061094Y-114207819D02*
X192061094Y-113207819D01*
X192061094Y-113207819D02*
X191822999Y-113207819D01*
X191822999Y-113207819D02*
X191680142Y-113255438D01*
X191680142Y-113255438D02*
X191584904Y-113350676D01*
X191584904Y-113350676D02*
X191537285Y-113445914D01*
X191537285Y-113445914D02*
X191489666Y-113636390D01*
X191489666Y-113636390D02*
X191489666Y-113779247D01*
X191489666Y-113779247D02*
X191537285Y-113969723D01*
X191537285Y-113969723D02*
X191584904Y-114064961D01*
X191584904Y-114064961D02*
X191680142Y-114160200D01*
X191680142Y-114160200D02*
X191822999Y-114207819D01*
X191822999Y-114207819D02*
X192061094Y-114207819D01*
X191156332Y-113207819D02*
X190537285Y-113207819D01*
X190537285Y-113207819D02*
X190870618Y-113588771D01*
X190870618Y-113588771D02*
X190727761Y-113588771D01*
X190727761Y-113588771D02*
X190632523Y-113636390D01*
X190632523Y-113636390D02*
X190584904Y-113684009D01*
X190584904Y-113684009D02*
X190537285Y-113779247D01*
X190537285Y-113779247D02*
X190537285Y-114017342D01*
X190537285Y-114017342D02*
X190584904Y-114112580D01*
X190584904Y-114112580D02*
X190632523Y-114160200D01*
X190632523Y-114160200D02*
X190727761Y-114207819D01*
X190727761Y-114207819D02*
X191013475Y-114207819D01*
X191013475Y-114207819D02*
X191108713Y-114160200D01*
X191108713Y-114160200D02*
X191156332Y-114112580D01*
D10*
X211632580Y-110966094D02*
X212632580Y-110966094D01*
X212156390Y-110966094D02*
X212156390Y-110394666D01*
X211632580Y-110394666D02*
X212632580Y-110394666D01*
X211680200Y-109966094D02*
X211632580Y-109823237D01*
X211632580Y-109823237D02*
X211632580Y-109585142D01*
X211632580Y-109585142D02*
X211680200Y-109489904D01*
X211680200Y-109489904D02*
X211727819Y-109442285D01*
X211727819Y-109442285D02*
X211823057Y-109394666D01*
X211823057Y-109394666D02*
X211918295Y-109394666D01*
X211918295Y-109394666D02*
X212013533Y-109442285D01*
X212013533Y-109442285D02*
X212061152Y-109489904D01*
X212061152Y-109489904D02*
X212108771Y-109585142D01*
X212108771Y-109585142D02*
X212156390Y-109775618D01*
X212156390Y-109775618D02*
X212204009Y-109870856D01*
X212204009Y-109870856D02*
X212251628Y-109918475D01*
X212251628Y-109918475D02*
X212346866Y-109966094D01*
X212346866Y-109966094D02*
X212442104Y-109966094D01*
X212442104Y-109966094D02*
X212537342Y-109918475D01*
X212537342Y-109918475D02*
X212584961Y-109870856D01*
X212584961Y-109870856D02*
X212632580Y-109775618D01*
X212632580Y-109775618D02*
X212632580Y-109537523D01*
X212632580Y-109537523D02*
X212584961Y-109394666D01*
X212537342Y-109013713D02*
X212584961Y-108966094D01*
X212584961Y-108966094D02*
X212632580Y-108870856D01*
X212632580Y-108870856D02*
X212632580Y-108632761D01*
X212632580Y-108632761D02*
X212584961Y-108537523D01*
X212584961Y-108537523D02*
X212537342Y-108489904D01*
X212537342Y-108489904D02*
X212442104Y-108442285D01*
X212442104Y-108442285D02*
X212346866Y-108442285D01*
X212346866Y-108442285D02*
X212204009Y-108489904D01*
X212204009Y-108489904D02*
X211632580Y-109061332D01*
X211632580Y-109061332D02*
X211632580Y-108442285D01*
D11*
X181443238Y-93672819D02*
X181776571Y-93196628D01*
X182014666Y-93672819D02*
X182014666Y-92672819D01*
X182014666Y-92672819D02*
X181633714Y-92672819D01*
X181633714Y-92672819D02*
X181538476Y-92720438D01*
X181538476Y-92720438D02*
X181490857Y-92768057D01*
X181490857Y-92768057D02*
X181443238Y-92863295D01*
X181443238Y-92863295D02*
X181443238Y-93006152D01*
X181443238Y-93006152D02*
X181490857Y-93101390D01*
X181490857Y-93101390D02*
X181538476Y-93149009D01*
X181538476Y-93149009D02*
X181633714Y-93196628D01*
X181633714Y-93196628D02*
X182014666Y-93196628D01*
X181157523Y-92672819D02*
X180824190Y-93672819D01*
X180824190Y-93672819D02*
X180490857Y-92672819D01*
X179633714Y-93672819D02*
X180205142Y-93672819D01*
X179919428Y-93672819D02*
X179919428Y-92672819D01*
X179919428Y-92672819D02*
X180014666Y-92815676D01*
X180014666Y-92815676D02*
X180109904Y-92910914D01*
X180109904Y-92910914D02*
X180205142Y-92958533D01*
D10*
X211632580Y-86582094D02*
X212632580Y-86582094D01*
X212156390Y-86582094D02*
X212156390Y-86010666D01*
X211632580Y-86010666D02*
X212632580Y-86010666D01*
X211680200Y-85582094D02*
X211632580Y-85439237D01*
X211632580Y-85439237D02*
X211632580Y-85201142D01*
X211632580Y-85201142D02*
X211680200Y-85105904D01*
X211680200Y-85105904D02*
X211727819Y-85058285D01*
X211727819Y-85058285D02*
X211823057Y-85010666D01*
X211823057Y-85010666D02*
X211918295Y-85010666D01*
X211918295Y-85010666D02*
X212013533Y-85058285D01*
X212013533Y-85058285D02*
X212061152Y-85105904D01*
X212061152Y-85105904D02*
X212108771Y-85201142D01*
X212108771Y-85201142D02*
X212156390Y-85391618D01*
X212156390Y-85391618D02*
X212204009Y-85486856D01*
X212204009Y-85486856D02*
X212251628Y-85534475D01*
X212251628Y-85534475D02*
X212346866Y-85582094D01*
X212346866Y-85582094D02*
X212442104Y-85582094D01*
X212442104Y-85582094D02*
X212537342Y-85534475D01*
X212537342Y-85534475D02*
X212584961Y-85486856D01*
X212584961Y-85486856D02*
X212632580Y-85391618D01*
X212632580Y-85391618D02*
X212632580Y-85153523D01*
X212632580Y-85153523D02*
X212584961Y-85010666D01*
X211632580Y-84058285D02*
X211632580Y-84629713D01*
X211632580Y-84343999D02*
X212632580Y-84343999D01*
X212632580Y-84343999D02*
X212489723Y-84439237D01*
X212489723Y-84439237D02*
X212394485Y-84534475D01*
X212394485Y-84534475D02*
X212346866Y-84629713D01*
D11*
X138005714Y-73337009D02*
X137862857Y-73384628D01*
X137862857Y-73384628D02*
X137815238Y-73432247D01*
X137815238Y-73432247D02*
X137767619Y-73527485D01*
X137767619Y-73527485D02*
X137767619Y-73670342D01*
X137767619Y-73670342D02*
X137815238Y-73765580D01*
X137815238Y-73765580D02*
X137862857Y-73813200D01*
X137862857Y-73813200D02*
X137958095Y-73860819D01*
X137958095Y-73860819D02*
X138339047Y-73860819D01*
X138339047Y-73860819D02*
X138339047Y-72860819D01*
X138339047Y-72860819D02*
X138005714Y-72860819D01*
X138005714Y-72860819D02*
X137910476Y-72908438D01*
X137910476Y-72908438D02*
X137862857Y-72956057D01*
X137862857Y-72956057D02*
X137815238Y-73051295D01*
X137815238Y-73051295D02*
X137815238Y-73146533D01*
X137815238Y-73146533D02*
X137862857Y-73241771D01*
X137862857Y-73241771D02*
X137910476Y-73289390D01*
X137910476Y-73289390D02*
X138005714Y-73337009D01*
X138005714Y-73337009D02*
X138339047Y-73337009D01*
X137481904Y-72860819D02*
X136910476Y-72860819D01*
X137196190Y-73860819D02*
X137196190Y-72860819D01*
X136053333Y-73860819D02*
X136624761Y-73860819D01*
X136339047Y-73860819D02*
X136339047Y-72860819D01*
X136339047Y-72860819D02*
X136434285Y-73003676D01*
X136434285Y-73003676D02*
X136529523Y-73098914D01*
X136529523Y-73098914D02*
X136624761Y-73146533D01*
X96646857Y-90661200D02*
X94361143Y-90661200D01*
X95504000Y-91804057D02*
X95504000Y-89518342D01*
X198082819Y-90932095D02*
X198892342Y-90932095D01*
X198892342Y-90932095D02*
X198987580Y-90979714D01*
X198987580Y-90979714D02*
X199035200Y-91027333D01*
X199035200Y-91027333D02*
X199082819Y-91122571D01*
X199082819Y-91122571D02*
X199082819Y-91313047D01*
X199082819Y-91313047D02*
X199035200Y-91408285D01*
X199035200Y-91408285D02*
X198987580Y-91455904D01*
X198987580Y-91455904D02*
X198892342Y-91503523D01*
X198892342Y-91503523D02*
X198082819Y-91503523D01*
X198082819Y-91884476D02*
X198082819Y-92503523D01*
X198082819Y-92503523D02*
X198463771Y-92170190D01*
X198463771Y-92170190D02*
X198463771Y-92313047D01*
X198463771Y-92313047D02*
X198511390Y-92408285D01*
X198511390Y-92408285D02*
X198559009Y-92455904D01*
X198559009Y-92455904D02*
X198654247Y-92503523D01*
X198654247Y-92503523D02*
X198892342Y-92503523D01*
X198892342Y-92503523D02*
X198987580Y-92455904D01*
X198987580Y-92455904D02*
X199035200Y-92408285D01*
X199035200Y-92408285D02*
X199082819Y-92313047D01*
X199082819Y-92313047D02*
X199082819Y-92027333D01*
X199082819Y-92027333D02*
X199035200Y-91932095D01*
X199035200Y-91932095D02*
X198987580Y-91884476D01*
X181443238Y-99768819D02*
X181776571Y-99292628D01*
X182014666Y-99768819D02*
X182014666Y-98768819D01*
X182014666Y-98768819D02*
X181633714Y-98768819D01*
X181633714Y-98768819D02*
X181538476Y-98816438D01*
X181538476Y-98816438D02*
X181490857Y-98864057D01*
X181490857Y-98864057D02*
X181443238Y-98959295D01*
X181443238Y-98959295D02*
X181443238Y-99102152D01*
X181443238Y-99102152D02*
X181490857Y-99197390D01*
X181490857Y-99197390D02*
X181538476Y-99245009D01*
X181538476Y-99245009D02*
X181633714Y-99292628D01*
X181633714Y-99292628D02*
X182014666Y-99292628D01*
X181157523Y-98768819D02*
X180824190Y-99768819D01*
X180824190Y-99768819D02*
X180490857Y-98768819D01*
X180205142Y-98864057D02*
X180157523Y-98816438D01*
X180157523Y-98816438D02*
X180062285Y-98768819D01*
X180062285Y-98768819D02*
X179824190Y-98768819D01*
X179824190Y-98768819D02*
X179728952Y-98816438D01*
X179728952Y-98816438D02*
X179681333Y-98864057D01*
X179681333Y-98864057D02*
X179633714Y-98959295D01*
X179633714Y-98959295D02*
X179633714Y-99054533D01*
X179633714Y-99054533D02*
X179681333Y-99197390D01*
X179681333Y-99197390D02*
X180252761Y-99768819D01*
X180252761Y-99768819D02*
X179633714Y-99768819D01*
X189552857Y-80338819D02*
X189886190Y-79862628D01*
X190124285Y-80338819D02*
X190124285Y-79338819D01*
X190124285Y-79338819D02*
X189743333Y-79338819D01*
X189743333Y-79338819D02*
X189648095Y-79386438D01*
X189648095Y-79386438D02*
X189600476Y-79434057D01*
X189600476Y-79434057D02*
X189552857Y-79529295D01*
X189552857Y-79529295D02*
X189552857Y-79672152D01*
X189552857Y-79672152D02*
X189600476Y-79767390D01*
X189600476Y-79767390D02*
X189648095Y-79815009D01*
X189648095Y-79815009D02*
X189743333Y-79862628D01*
X189743333Y-79862628D02*
X190124285Y-79862628D01*
X188600476Y-80338819D02*
X189171904Y-80338819D01*
X188886190Y-80338819D02*
X188886190Y-79338819D01*
X188886190Y-79338819D02*
X188981428Y-79481676D01*
X188981428Y-79481676D02*
X189076666Y-79576914D01*
X189076666Y-79576914D02*
X189171904Y-79624533D01*
X187648095Y-80338819D02*
X188219523Y-80338819D01*
X187933809Y-80338819D02*
X187933809Y-79338819D01*
X187933809Y-79338819D02*
X188029047Y-79481676D01*
X188029047Y-79481676D02*
X188124285Y-79576914D01*
X188124285Y-79576914D02*
X188219523Y-79624533D01*
X188856857Y-113230819D02*
X189190190Y-112754628D01*
X189428285Y-113230819D02*
X189428285Y-112230819D01*
X189428285Y-112230819D02*
X189047333Y-112230819D01*
X189047333Y-112230819D02*
X188952095Y-112278438D01*
X188952095Y-112278438D02*
X188904476Y-112326057D01*
X188904476Y-112326057D02*
X188856857Y-112421295D01*
X188856857Y-112421295D02*
X188856857Y-112564152D01*
X188856857Y-112564152D02*
X188904476Y-112659390D01*
X188904476Y-112659390D02*
X188952095Y-112707009D01*
X188952095Y-112707009D02*
X189047333Y-112754628D01*
X189047333Y-112754628D02*
X189428285Y-112754628D01*
X187904476Y-113230819D02*
X188475904Y-113230819D01*
X188190190Y-113230819D02*
X188190190Y-112230819D01*
X188190190Y-112230819D02*
X188285428Y-112373676D01*
X188285428Y-112373676D02*
X188380666Y-112468914D01*
X188380666Y-112468914D02*
X188475904Y-112516533D01*
X187523523Y-112326057D02*
X187475904Y-112278438D01*
X187475904Y-112278438D02*
X187380666Y-112230819D01*
X187380666Y-112230819D02*
X187142571Y-112230819D01*
X187142571Y-112230819D02*
X187047333Y-112278438D01*
X187047333Y-112278438D02*
X186999714Y-112326057D01*
X186999714Y-112326057D02*
X186952095Y-112421295D01*
X186952095Y-112421295D02*
X186952095Y-112516533D01*
X186952095Y-112516533D02*
X186999714Y-112659390D01*
X186999714Y-112659390D02*
X187571142Y-113230819D01*
X187571142Y-113230819D02*
X186952095Y-113230819D01*
X91254319Y-74855666D02*
X91968604Y-74855666D01*
X91968604Y-74855666D02*
X92111461Y-74808047D01*
X92111461Y-74808047D02*
X92206700Y-74712809D01*
X92206700Y-74712809D02*
X92254319Y-74569952D01*
X92254319Y-74569952D02*
X92254319Y-74474714D01*
X91349557Y-75284238D02*
X91301938Y-75331857D01*
X91301938Y-75331857D02*
X91254319Y-75427095D01*
X91254319Y-75427095D02*
X91254319Y-75665190D01*
X91254319Y-75665190D02*
X91301938Y-75760428D01*
X91301938Y-75760428D02*
X91349557Y-75808047D01*
X91349557Y-75808047D02*
X91444795Y-75855666D01*
X91444795Y-75855666D02*
X91540033Y-75855666D01*
X91540033Y-75855666D02*
X91682890Y-75808047D01*
X91682890Y-75808047D02*
X92254319Y-75236619D01*
X92254319Y-75236619D02*
X92254319Y-75855666D01*
X192188094Y-74964819D02*
X192188094Y-73964819D01*
X192188094Y-73964819D02*
X191949999Y-73964819D01*
X191949999Y-73964819D02*
X191807142Y-74012438D01*
X191807142Y-74012438D02*
X191711904Y-74107676D01*
X191711904Y-74107676D02*
X191664285Y-74202914D01*
X191664285Y-74202914D02*
X191616666Y-74393390D01*
X191616666Y-74393390D02*
X191616666Y-74536247D01*
X191616666Y-74536247D02*
X191664285Y-74726723D01*
X191664285Y-74726723D02*
X191711904Y-74821961D01*
X191711904Y-74821961D02*
X191807142Y-74917200D01*
X191807142Y-74917200D02*
X191949999Y-74964819D01*
X191949999Y-74964819D02*
X192188094Y-74964819D01*
X190664285Y-74964819D02*
X191235713Y-74964819D01*
X190949999Y-74964819D02*
X190949999Y-73964819D01*
X190949999Y-73964819D02*
X191045237Y-74107676D01*
X191045237Y-74107676D02*
X191140475Y-74202914D01*
X191140475Y-74202914D02*
X191235713Y-74250533D01*
X90894819Y-119300666D02*
X91609104Y-119300666D01*
X91609104Y-119300666D02*
X91751961Y-119253047D01*
X91751961Y-119253047D02*
X91847200Y-119157809D01*
X91847200Y-119157809D02*
X91894819Y-119014952D01*
X91894819Y-119014952D02*
X91894819Y-118919714D01*
X91894819Y-120300666D02*
X91894819Y-119729238D01*
X91894819Y-120014952D02*
X90894819Y-120014952D01*
X90894819Y-120014952D02*
X91037676Y-119919714D01*
X91037676Y-119919714D02*
X91132914Y-119824476D01*
X91132914Y-119824476D02*
X91180533Y-119729238D01*
X137945714Y-121851009D02*
X137802857Y-121898628D01*
X137802857Y-121898628D02*
X137755238Y-121946247D01*
X137755238Y-121946247D02*
X137707619Y-122041485D01*
X137707619Y-122041485D02*
X137707619Y-122184342D01*
X137707619Y-122184342D02*
X137755238Y-122279580D01*
X137755238Y-122279580D02*
X137802857Y-122327200D01*
X137802857Y-122327200D02*
X137898095Y-122374819D01*
X137898095Y-122374819D02*
X138279047Y-122374819D01*
X138279047Y-122374819D02*
X138279047Y-121374819D01*
X138279047Y-121374819D02*
X137945714Y-121374819D01*
X137945714Y-121374819D02*
X137850476Y-121422438D01*
X137850476Y-121422438D02*
X137802857Y-121470057D01*
X137802857Y-121470057D02*
X137755238Y-121565295D01*
X137755238Y-121565295D02*
X137755238Y-121660533D01*
X137755238Y-121660533D02*
X137802857Y-121755771D01*
X137802857Y-121755771D02*
X137850476Y-121803390D01*
X137850476Y-121803390D02*
X137945714Y-121851009D01*
X137945714Y-121851009D02*
X138279047Y-121851009D01*
X137421904Y-121374819D02*
X136850476Y-121374819D01*
X137136190Y-122374819D02*
X137136190Y-121374819D01*
X136564761Y-121470057D02*
X136517142Y-121422438D01*
X136517142Y-121422438D02*
X136421904Y-121374819D01*
X136421904Y-121374819D02*
X136183809Y-121374819D01*
X136183809Y-121374819D02*
X136088571Y-121422438D01*
X136088571Y-121422438D02*
X136040952Y-121470057D01*
X136040952Y-121470057D02*
X135993333Y-121565295D01*
X135993333Y-121565295D02*
X135993333Y-121660533D01*
X135993333Y-121660533D02*
X136040952Y-121803390D01*
X136040952Y-121803390D02*
X136612380Y-122374819D01*
X136612380Y-122374819D02*
X135993333Y-122374819D01*
X179958857Y-101837200D02*
X177673143Y-101837200D01*
X178816000Y-102980057D02*
X178816000Y-100694342D01*
X179634819Y-77136666D02*
X180349104Y-77136666D01*
X180349104Y-77136666D02*
X180491961Y-77089047D01*
X180491961Y-77089047D02*
X180587200Y-76993809D01*
X180587200Y-76993809D02*
X180634819Y-76850952D01*
X180634819Y-76850952D02*
X180634819Y-76755714D01*
X179968152Y-78041428D02*
X180634819Y-78041428D01*
X179587200Y-77803333D02*
X180301485Y-77565238D01*
X180301485Y-77565238D02*
X180301485Y-78184285D01*
X179629819Y-116379666D02*
X180344104Y-116379666D01*
X180344104Y-116379666D02*
X180486961Y-116332047D01*
X180486961Y-116332047D02*
X180582200Y-116236809D01*
X180582200Y-116236809D02*
X180629819Y-116093952D01*
X180629819Y-116093952D02*
X180629819Y-115998714D01*
X179629819Y-116760619D02*
X179629819Y-117379666D01*
X179629819Y-117379666D02*
X180010771Y-117046333D01*
X180010771Y-117046333D02*
X180010771Y-117189190D01*
X180010771Y-117189190D02*
X180058390Y-117284428D01*
X180058390Y-117284428D02*
X180106009Y-117332047D01*
X180106009Y-117332047D02*
X180201247Y-117379666D01*
X180201247Y-117379666D02*
X180439342Y-117379666D01*
X180439342Y-117379666D02*
X180534580Y-117332047D01*
X180534580Y-117332047D02*
X180582200Y-117284428D01*
X180582200Y-117284428D02*
X180629819Y-117189190D01*
X180629819Y-117189190D02*
X180629819Y-116903476D01*
X180629819Y-116903476D02*
X180582200Y-116808238D01*
X180582200Y-116808238D02*
X180534580Y-116760619D01*
X198082819Y-102362095D02*
X198892342Y-102362095D01*
X198892342Y-102362095D02*
X198987580Y-102409714D01*
X198987580Y-102409714D02*
X199035200Y-102457333D01*
X199035200Y-102457333D02*
X199082819Y-102552571D01*
X199082819Y-102552571D02*
X199082819Y-102743047D01*
X199082819Y-102743047D02*
X199035200Y-102838285D01*
X199035200Y-102838285D02*
X198987580Y-102885904D01*
X198987580Y-102885904D02*
X198892342Y-102933523D01*
X198892342Y-102933523D02*
X198082819Y-102933523D01*
X198416152Y-103838285D02*
X199082819Y-103838285D01*
X198035200Y-103600190D02*
X198749485Y-103362095D01*
X198749485Y-103362095D02*
X198749485Y-103981142D01*
D12*
G04 #@! TO.C,D3*
X192883000Y-115477000D02*
X192883000Y-115633000D01*
X192883000Y-117793000D02*
X192883000Y-117949000D01*
X189651563Y-115633000D02*
G75*
G02*
X192883000Y-115477484I1671437J-1080000D01*
G01*
X190282039Y-115633000D02*
G75*
G02*
X192363961Y-115633000I1040961J-1080000D01*
G01*
X192363961Y-117793000D02*
G75*
G02*
X190282039Y-117793000I-1040961J1080000D01*
G01*
X192883000Y-117948516D02*
G75*
G02*
X189651563Y-117793000I-1560000J1235516D01*
G01*
D10*
G04 #@! TO.C,HS2*
X195761000Y-99228000D02*
X202261000Y-99228000D01*
X195761000Y-120228000D02*
X202261000Y-120228000D01*
X202261000Y-120228000D02*
X202261000Y-99228000D01*
X204261000Y-99228000D02*
X210761000Y-99228000D01*
X204261000Y-102728000D02*
X204261000Y-99228000D01*
X204261000Y-103728000D02*
X204261000Y-107228000D01*
X204261000Y-103728000D02*
X210761000Y-103728000D01*
X204261000Y-112228000D02*
X210761000Y-112228000D01*
X204261000Y-115728000D02*
X204261000Y-112228000D01*
X204261000Y-116728000D02*
X210761000Y-116728000D01*
X204261000Y-120228000D02*
X204261000Y-116728000D01*
X204261000Y-120228000D02*
X210761000Y-120228000D01*
X207261000Y-108228000D02*
X210761000Y-108228000D01*
X210761000Y-98228000D02*
X195761000Y-98228000D01*
X210761000Y-102728000D02*
X204261000Y-102728000D01*
X210761000Y-107228000D02*
X204261000Y-107228000D01*
X210761000Y-111228000D02*
X207261000Y-111228000D01*
X210761000Y-115728000D02*
X204261000Y-115728000D01*
X210761000Y-121228000D02*
X195761000Y-121228000D01*
X195761000Y-99228000D02*
G75*
G02*
X195761000Y-98228000I0J500000D01*
G01*
X195761000Y-121228000D02*
G75*
G02*
X195761000Y-120228000I0J500000D01*
G01*
X210761000Y-98228000D02*
G75*
G02*
X210761000Y-99228000I0J-500000D01*
G01*
X210761000Y-102728000D02*
G75*
G02*
X210761000Y-103728000I0J-500000D01*
G01*
X210761000Y-107228000D02*
G75*
G02*
X210761000Y-108228000I0J-500000D01*
G01*
X210761000Y-111228000D02*
G75*
G02*
X210761000Y-112228000I0J-500000D01*
G01*
X210761000Y-115728000D02*
G75*
G02*
X210761000Y-116728000I0J-500000D01*
G01*
X210761000Y-120228000D02*
G75*
G02*
X210761000Y-121228000I0J-500000D01*
G01*
D12*
G04 #@! TO.C,RV1*
X182356000Y-85374000D02*
X182356000Y-88988000D01*
X182356000Y-91780000D02*
X182356000Y-95394000D01*
X182356000Y-95394000D02*
X192576000Y-95394000D01*
X192576000Y-85374000D02*
X182356000Y-85374000D01*
X192576000Y-86488000D02*
X192576000Y-85374000D01*
X192576000Y-91488000D02*
X192576000Y-89280000D01*
X192576000Y-95394000D02*
X192576000Y-94280000D01*
D10*
G04 #@! TO.C,HS1*
X195761000Y-74844000D02*
X202261000Y-74844000D01*
X195761000Y-95844000D02*
X202261000Y-95844000D01*
X202261000Y-95844000D02*
X202261000Y-74844000D01*
X204261000Y-74844000D02*
X210761000Y-74844000D01*
X204261000Y-78344000D02*
X204261000Y-74844000D01*
X204261000Y-79344000D02*
X204261000Y-82844000D01*
X204261000Y-79344000D02*
X210761000Y-79344000D01*
X204261000Y-87844000D02*
X210761000Y-87844000D01*
X204261000Y-91344000D02*
X204261000Y-87844000D01*
X204261000Y-92344000D02*
X210761000Y-92344000D01*
X204261000Y-95844000D02*
X204261000Y-92344000D01*
X204261000Y-95844000D02*
X210761000Y-95844000D01*
X207261000Y-83844000D02*
X210761000Y-83844000D01*
X210761000Y-73844000D02*
X195761000Y-73844000D01*
X210761000Y-78344000D02*
X204261000Y-78344000D01*
X210761000Y-82844000D02*
X204261000Y-82844000D01*
X210761000Y-86844000D02*
X207261000Y-86844000D01*
X210761000Y-91344000D02*
X204261000Y-91344000D01*
X210761000Y-96844000D02*
X195761000Y-96844000D01*
X195761000Y-74844000D02*
G75*
G02*
X195761000Y-73844000I0J500000D01*
G01*
X195761000Y-96844000D02*
G75*
G02*
X195761000Y-95844000I0J500000D01*
G01*
X210761000Y-73844000D02*
G75*
G02*
X210761000Y-74844000I0J-500000D01*
G01*
X210761000Y-78344000D02*
G75*
G02*
X210761000Y-79344000I0J-500000D01*
G01*
X210761000Y-82844000D02*
G75*
G02*
X210761000Y-83844000I0J-500000D01*
G01*
X210761000Y-86844000D02*
G75*
G02*
X210761000Y-87844000I0J-500000D01*
G01*
X210761000Y-91344000D02*
G75*
G02*
X210761000Y-92344000I0J-500000D01*
G01*
X210761000Y-95844000D02*
G75*
G02*
X210761000Y-96844000I0J-500000D01*
G01*
D12*
G04 #@! TO.C,BT1*
X97760000Y-74284000D02*
X97760000Y-96404000D01*
X97760000Y-96404000D02*
X176680000Y-96404000D01*
X176680000Y-74284000D02*
X97760000Y-74284000D01*
X176680000Y-96404000D02*
X176680000Y-74284000D01*
D13*
G04 #@! TO.C,G\u002A\u002A\u002A*
G36*
X144145914Y-70332801D02*
G01*
X144156640Y-70347636D01*
X144164196Y-70382263D01*
X144169033Y-70441939D01*
X144171603Y-70531917D01*
X144172360Y-70657453D01*
X144173072Y-70774871D01*
X144175789Y-70870986D01*
X144180955Y-70936270D01*
X144189004Y-70975966D01*
X144200371Y-70995320D01*
X144206459Y-70999053D01*
X144234082Y-71002211D01*
X144281772Y-70993459D01*
X144355366Y-70971441D01*
X144460701Y-70934799D01*
X144557432Y-70899997D01*
X144745422Y-70832958D01*
X144898866Y-70779238D01*
X145020266Y-70738020D01*
X145112123Y-70708489D01*
X145176937Y-70689827D01*
X145217211Y-70681218D01*
X145235444Y-70681845D01*
X145243163Y-70689020D01*
X145250540Y-70722295D01*
X145239987Y-70734189D01*
X145199901Y-70768689D01*
X145133570Y-70821917D01*
X145044846Y-70890887D01*
X144937577Y-70972616D01*
X144815615Y-71064117D01*
X144682810Y-71162407D01*
X144609917Y-71216012D01*
X144465716Y-71322107D01*
X144325289Y-71425489D01*
X144194462Y-71521863D01*
X144079063Y-71606937D01*
X143984919Y-71676418D01*
X143917855Y-71726012D01*
X143913446Y-71729273D01*
X143833325Y-71786161D01*
X143763282Y-71831747D01*
X143710721Y-71861466D01*
X143683048Y-71870754D01*
X143673285Y-71865429D01*
X143663853Y-71846591D01*
X143657015Y-71809063D01*
X143652171Y-71747310D01*
X143648722Y-71655794D01*
X143646070Y-71528980D01*
X143645703Y-71508536D01*
X143641696Y-71372623D01*
X143635637Y-71271015D01*
X143627697Y-71205881D01*
X143618052Y-71179386D01*
X143612378Y-71178738D01*
X143573581Y-71185707D01*
X143504464Y-71203646D01*
X143410956Y-71230859D01*
X143298988Y-71265650D01*
X143174486Y-71306322D01*
X143124736Y-71322824D01*
X143004059Y-71361752D01*
X142898035Y-71394423D01*
X142812654Y-71419079D01*
X142753908Y-71433965D01*
X142727786Y-71437323D01*
X142718447Y-71431885D01*
X142702263Y-71400842D01*
X142704333Y-71396854D01*
X142730924Y-71370564D01*
X142784994Y-71324519D01*
X142862511Y-71261938D01*
X142959446Y-71186038D01*
X143071765Y-71100037D01*
X143195438Y-71007154D01*
X143203530Y-71001133D01*
X143340776Y-70898996D01*
X143478617Y-70796399D01*
X143610380Y-70698311D01*
X143729394Y-70609697D01*
X143828988Y-70535525D01*
X143902490Y-70480761D01*
X143916989Y-70470027D01*
X143997669Y-70412942D01*
X144067121Y-70368058D01*
X144118351Y-70339674D01*
X144144364Y-70332090D01*
X144145914Y-70332801D01*
G37*
G36*
X142669271Y-69407339D02*
G01*
X142952020Y-69407696D01*
X143050107Y-69407857D01*
X143269294Y-69408216D01*
X143623198Y-69408871D01*
X144015835Y-69409636D01*
X146796074Y-69415096D01*
X146877746Y-69459247D01*
X146975772Y-69527403D01*
X147061290Y-69616195D01*
X147119405Y-69711157D01*
X147123184Y-69721514D01*
X147128963Y-69746059D01*
X147133896Y-69781687D01*
X147138054Y-69831373D01*
X147141504Y-69898092D01*
X147144318Y-69984820D01*
X147146564Y-70094531D01*
X147148313Y-70230202D01*
X147149633Y-70394807D01*
X147150596Y-70591322D01*
X147151269Y-70822723D01*
X147151723Y-71091983D01*
X147152030Y-71320728D01*
X147152251Y-71561735D01*
X147152064Y-71767591D01*
X147151212Y-71941407D01*
X147149436Y-72086289D01*
X147146477Y-72205346D01*
X147142075Y-72301686D01*
X147135974Y-72378419D01*
X147127913Y-72438651D01*
X147117635Y-72485492D01*
X147104880Y-72522050D01*
X147089390Y-72551433D01*
X147070906Y-72576749D01*
X147049170Y-72601108D01*
X147023922Y-72627616D01*
X147012553Y-72639085D01*
X146946483Y-72694703D01*
X146877746Y-72739915D01*
X146796074Y-72784067D01*
X144020468Y-72789529D01*
X143940302Y-72789686D01*
X143552755Y-72790403D01*
X143203571Y-72790960D01*
X142890679Y-72791336D01*
X142612009Y-72791512D01*
X142365492Y-72791468D01*
X142149056Y-72791184D01*
X141960634Y-72790639D01*
X141798153Y-72789814D01*
X141659545Y-72788688D01*
X141542739Y-72787243D01*
X141445665Y-72785457D01*
X141366253Y-72783310D01*
X141302434Y-72780784D01*
X141252137Y-72777857D01*
X141213292Y-72774510D01*
X141183829Y-72770723D01*
X141161678Y-72766475D01*
X141144770Y-72761747D01*
X141032965Y-72708432D01*
X140928297Y-72617622D01*
X140851398Y-72498363D01*
X140843338Y-72480643D01*
X140827806Y-72440965D01*
X140816944Y-72399003D01*
X140809921Y-72347048D01*
X140805907Y-72277389D01*
X140804073Y-72182318D01*
X140803588Y-72054123D01*
X140803389Y-71712121D01*
X140658444Y-71712121D01*
X140560594Y-71707212D01*
X140461447Y-71684772D01*
X140391036Y-71642232D01*
X140344439Y-71577480D01*
X140337455Y-71560968D01*
X140328007Y-71527531D01*
X140321411Y-71482446D01*
X140317358Y-71419880D01*
X140315535Y-71333998D01*
X140315632Y-71218968D01*
X140317339Y-71068957D01*
X140322125Y-70732057D01*
X140558373Y-70732057D01*
X140558373Y-71099581D01*
X140558373Y-71467105D01*
X140680881Y-71467105D01*
X140803389Y-71467105D01*
X140803389Y-71099581D01*
X141048405Y-71099581D01*
X141048410Y-71254500D01*
X141048487Y-71492631D01*
X141048734Y-71694820D01*
X141049250Y-71864173D01*
X141050135Y-72003793D01*
X141051488Y-72116785D01*
X141053407Y-72206252D01*
X141055993Y-72275301D01*
X141059343Y-72327033D01*
X141063558Y-72364555D01*
X141068736Y-72390969D01*
X141074977Y-72409382D01*
X141082380Y-72422895D01*
X141091044Y-72434615D01*
X141097859Y-72443647D01*
X141108643Y-72458928D01*
X141118999Y-72472664D01*
X141130989Y-72484938D01*
X141146677Y-72495833D01*
X141168126Y-72505429D01*
X141197399Y-72513808D01*
X141236559Y-72521054D01*
X141287670Y-72527247D01*
X141352795Y-72532469D01*
X141433997Y-72536803D01*
X141533339Y-72540330D01*
X141652884Y-72543133D01*
X141794697Y-72545293D01*
X141960839Y-72546891D01*
X142153375Y-72548011D01*
X142374367Y-72548734D01*
X142625879Y-72549142D01*
X142909974Y-72549316D01*
X143228715Y-72549339D01*
X143584166Y-72549293D01*
X143978389Y-72549260D01*
X144198758Y-72549271D01*
X144571537Y-72549322D01*
X144906670Y-72549340D01*
X145206221Y-72549245D01*
X145472254Y-72548953D01*
X145706832Y-72548383D01*
X145912017Y-72547454D01*
X146089873Y-72546082D01*
X146242464Y-72544187D01*
X146371852Y-72541686D01*
X146480100Y-72538498D01*
X146569273Y-72534540D01*
X146641433Y-72529731D01*
X146698644Y-72523988D01*
X146742968Y-72517230D01*
X146776469Y-72509375D01*
X146801211Y-72500340D01*
X146819256Y-72490045D01*
X146832667Y-72478407D01*
X146843508Y-72465344D01*
X146853843Y-72450774D01*
X146865734Y-72434615D01*
X146870891Y-72427894D01*
X146878815Y-72415518D01*
X146885535Y-72399558D01*
X146891151Y-72376909D01*
X146895762Y-72344466D01*
X146899466Y-72299126D01*
X146902363Y-72237784D01*
X146904552Y-72157336D01*
X146906133Y-72054678D01*
X146907204Y-71926705D01*
X146907864Y-71770313D01*
X146908213Y-71582398D01*
X146908349Y-71359855D01*
X146908373Y-71099581D01*
X146908367Y-70944662D01*
X146908291Y-70706532D01*
X146908044Y-70504342D01*
X146907527Y-70334990D01*
X146906642Y-70195369D01*
X146905290Y-70082378D01*
X146903370Y-69992910D01*
X146900785Y-69923862D01*
X146897434Y-69872129D01*
X146893219Y-69834607D01*
X146888041Y-69808193D01*
X146881800Y-69789781D01*
X146874397Y-69776267D01*
X146865734Y-69764547D01*
X146858919Y-69755515D01*
X146848134Y-69740235D01*
X146837778Y-69726498D01*
X146825788Y-69714224D01*
X146810100Y-69703330D01*
X146788651Y-69693734D01*
X146759379Y-69685354D01*
X146720218Y-69678108D01*
X146669107Y-69671915D01*
X146603983Y-69666693D01*
X146522781Y-69662359D01*
X146423439Y-69658832D01*
X146303893Y-69656029D01*
X146162081Y-69653870D01*
X145995938Y-69652271D01*
X145803402Y-69651151D01*
X145582410Y-69650428D01*
X145330898Y-69650021D01*
X145046803Y-69649846D01*
X144728062Y-69649823D01*
X144372612Y-69649869D01*
X143978389Y-69649903D01*
X143758019Y-69649891D01*
X143385241Y-69649840D01*
X143050107Y-69649822D01*
X142750556Y-69649917D01*
X142484523Y-69650209D01*
X142249946Y-69650779D01*
X142044761Y-69651709D01*
X141866904Y-69653080D01*
X141714314Y-69654975D01*
X141584926Y-69657476D01*
X141476677Y-69660664D01*
X141387504Y-69664622D01*
X141315344Y-69669432D01*
X141258134Y-69675174D01*
X141213809Y-69681932D01*
X141180308Y-69689788D01*
X141155567Y-69698822D01*
X141137522Y-69709117D01*
X141124110Y-69720755D01*
X141113269Y-69733819D01*
X141102935Y-69748389D01*
X141091044Y-69764547D01*
X141085887Y-69771268D01*
X141077962Y-69783644D01*
X141071242Y-69799604D01*
X141065626Y-69822254D01*
X141061016Y-69854696D01*
X141057311Y-69900036D01*
X141054414Y-69961378D01*
X141052225Y-70041826D01*
X141050645Y-70144485D01*
X141049574Y-70272458D01*
X141048914Y-70428849D01*
X141048565Y-70616764D01*
X141048428Y-70839307D01*
X141048405Y-71099581D01*
X140803389Y-71099581D01*
X140803389Y-70732057D01*
X140680881Y-70732057D01*
X140558373Y-70732057D01*
X140322125Y-70732057D01*
X140323566Y-70630665D01*
X140390310Y-70563958D01*
X140416378Y-70539001D01*
X140449010Y-70515503D01*
X140487829Y-70501883D01*
X140544384Y-70494584D01*
X140630221Y-70490050D01*
X140680881Y-70487944D01*
X140803389Y-70482850D01*
X140803389Y-70155522D01*
X140803476Y-70124476D01*
X140805767Y-69996492D01*
X140810825Y-69885885D01*
X140818189Y-69800467D01*
X140827401Y-69748049D01*
X140852873Y-69686243D01*
X140921936Y-69587741D01*
X141015188Y-69504316D01*
X141122244Y-69446587D01*
X141124669Y-69445681D01*
X141141031Y-69439781D01*
X141158269Y-69434473D01*
X141178485Y-69429731D01*
X141203782Y-69425528D01*
X141236264Y-69421836D01*
X141278034Y-69418630D01*
X141331195Y-69415882D01*
X141397850Y-69413566D01*
X141480103Y-69411654D01*
X141580056Y-69410119D01*
X141699814Y-69408935D01*
X141841478Y-69408076D01*
X142007153Y-69407513D01*
X142198941Y-69407221D01*
X142418946Y-69407171D01*
X142669271Y-69407339D01*
G37*
G36*
X143854715Y-123206571D02*
G01*
X143864147Y-123225409D01*
X143870985Y-123262937D01*
X143875829Y-123324690D01*
X143879278Y-123416206D01*
X143881930Y-123543020D01*
X143882297Y-123563464D01*
X143886304Y-123699377D01*
X143892363Y-123800985D01*
X143900303Y-123866119D01*
X143909948Y-123892614D01*
X143915622Y-123893262D01*
X143954419Y-123886293D01*
X144023536Y-123868354D01*
X144117044Y-123841141D01*
X144229012Y-123806350D01*
X144353514Y-123765678D01*
X144403264Y-123749176D01*
X144523941Y-123710248D01*
X144629965Y-123677577D01*
X144715346Y-123652921D01*
X144774092Y-123638035D01*
X144800214Y-123634677D01*
X144809553Y-123640115D01*
X144825737Y-123671158D01*
X144823667Y-123675146D01*
X144797076Y-123701436D01*
X144743006Y-123747481D01*
X144665489Y-123810062D01*
X144568554Y-123885962D01*
X144456235Y-123971963D01*
X144332562Y-124064846D01*
X144324470Y-124070867D01*
X144187224Y-124173004D01*
X144049383Y-124275601D01*
X143917620Y-124373689D01*
X143798606Y-124462303D01*
X143699012Y-124536475D01*
X143625510Y-124591239D01*
X143611011Y-124601973D01*
X143530331Y-124659058D01*
X143460879Y-124703942D01*
X143409649Y-124732326D01*
X143383636Y-124739910D01*
X143382086Y-124739199D01*
X143371360Y-124724364D01*
X143363804Y-124689737D01*
X143358967Y-124630061D01*
X143356397Y-124540083D01*
X143355640Y-124414547D01*
X143354928Y-124297129D01*
X143352211Y-124201014D01*
X143347045Y-124135730D01*
X143338996Y-124096034D01*
X143327629Y-124076680D01*
X143321541Y-124072947D01*
X143293918Y-124069789D01*
X143246228Y-124078541D01*
X143172634Y-124100559D01*
X143067299Y-124137201D01*
X142970568Y-124172003D01*
X142782578Y-124239042D01*
X142629134Y-124292762D01*
X142507734Y-124333980D01*
X142415877Y-124363511D01*
X142351063Y-124382173D01*
X142310789Y-124390782D01*
X142292556Y-124390155D01*
X142284837Y-124382980D01*
X142277460Y-124349705D01*
X142288013Y-124337811D01*
X142328099Y-124303311D01*
X142394430Y-124250083D01*
X142483154Y-124181113D01*
X142590423Y-124099384D01*
X142712385Y-124007883D01*
X142845190Y-123909593D01*
X142918083Y-123855988D01*
X143062284Y-123749893D01*
X143202711Y-123646511D01*
X143333538Y-123550137D01*
X143448937Y-123465063D01*
X143543081Y-123395582D01*
X143610145Y-123345988D01*
X143614554Y-123342727D01*
X143694675Y-123285839D01*
X143764718Y-123240253D01*
X143817279Y-123210534D01*
X143844952Y-123201246D01*
X143854715Y-123206571D01*
G37*
G36*
X145162508Y-122280532D02*
G01*
X145378944Y-122280816D01*
X145567366Y-122281361D01*
X145729847Y-122282186D01*
X145868455Y-122283312D01*
X145985261Y-122284757D01*
X146082335Y-122286543D01*
X146161747Y-122288690D01*
X146225566Y-122291216D01*
X146275863Y-122294143D01*
X146314708Y-122297490D01*
X146344171Y-122301277D01*
X146366322Y-122305525D01*
X146383230Y-122310253D01*
X146495035Y-122363568D01*
X146599703Y-122454378D01*
X146676602Y-122573637D01*
X146684662Y-122591357D01*
X146700194Y-122631035D01*
X146711056Y-122672997D01*
X146718079Y-122724952D01*
X146722093Y-122794611D01*
X146723927Y-122889682D01*
X146724412Y-123017877D01*
X146724611Y-123359879D01*
X146869556Y-123359879D01*
X146967406Y-123364788D01*
X147066553Y-123387228D01*
X147136964Y-123429768D01*
X147183561Y-123494520D01*
X147190545Y-123511032D01*
X147199993Y-123544469D01*
X147206589Y-123589554D01*
X147210642Y-123652120D01*
X147212465Y-123738002D01*
X147212368Y-123853032D01*
X147210661Y-124003043D01*
X147204434Y-124441335D01*
X147137690Y-124508042D01*
X147111622Y-124532999D01*
X147078990Y-124556497D01*
X147040171Y-124570117D01*
X146983616Y-124577416D01*
X146897779Y-124581950D01*
X146847119Y-124584056D01*
X146724611Y-124589150D01*
X146724611Y-124916478D01*
X146724524Y-124947524D01*
X146722233Y-125075508D01*
X146717175Y-125186115D01*
X146709811Y-125271533D01*
X146700599Y-125323951D01*
X146675127Y-125385757D01*
X146606064Y-125484259D01*
X146512812Y-125567684D01*
X146405756Y-125625413D01*
X146403331Y-125626319D01*
X146386969Y-125632219D01*
X146369731Y-125637527D01*
X146349515Y-125642269D01*
X146324218Y-125646472D01*
X146291736Y-125650164D01*
X146249966Y-125653370D01*
X146196805Y-125656118D01*
X146130150Y-125658434D01*
X146047897Y-125660346D01*
X145947944Y-125661881D01*
X145828186Y-125663065D01*
X145686522Y-125663924D01*
X145520847Y-125664487D01*
X145329059Y-125664779D01*
X145109054Y-125664829D01*
X144858729Y-125664661D01*
X144575980Y-125664304D01*
X144477893Y-125664143D01*
X144258706Y-125663784D01*
X143904802Y-125663129D01*
X143512165Y-125662364D01*
X140731926Y-125656904D01*
X140650254Y-125612753D01*
X140552228Y-125544597D01*
X140466710Y-125455805D01*
X140408595Y-125360843D01*
X140404816Y-125350486D01*
X140399037Y-125325941D01*
X140394104Y-125290313D01*
X140389946Y-125240627D01*
X140386496Y-125173908D01*
X140383682Y-125087180D01*
X140381436Y-124977469D01*
X140379687Y-124841798D01*
X140378367Y-124677193D01*
X140377404Y-124480678D01*
X140376731Y-124249277D01*
X140376277Y-123980017D01*
X140376267Y-123972419D01*
X140619627Y-123972419D01*
X140619633Y-124127338D01*
X140619709Y-124365468D01*
X140619956Y-124567658D01*
X140620473Y-124737010D01*
X140621358Y-124876631D01*
X140622710Y-124989622D01*
X140624630Y-125079090D01*
X140627215Y-125148138D01*
X140630566Y-125199871D01*
X140634781Y-125237393D01*
X140639959Y-125263807D01*
X140646200Y-125282219D01*
X140653603Y-125295733D01*
X140662266Y-125307453D01*
X140669081Y-125316485D01*
X140679866Y-125331765D01*
X140690222Y-125345502D01*
X140702212Y-125357776D01*
X140717900Y-125368670D01*
X140739349Y-125378266D01*
X140768621Y-125386646D01*
X140807782Y-125393892D01*
X140858893Y-125400085D01*
X140924017Y-125405307D01*
X141005219Y-125409641D01*
X141104561Y-125413168D01*
X141224107Y-125415971D01*
X141365919Y-125418130D01*
X141532062Y-125419729D01*
X141724598Y-125420849D01*
X141945590Y-125421572D01*
X142197102Y-125421979D01*
X142481197Y-125422154D01*
X142799938Y-125422177D01*
X143155388Y-125422131D01*
X143549611Y-125422097D01*
X143769981Y-125422109D01*
X144142759Y-125422160D01*
X144477893Y-125422178D01*
X144777444Y-125422083D01*
X145043477Y-125421791D01*
X145278054Y-125421221D01*
X145483239Y-125420291D01*
X145661096Y-125418920D01*
X145813686Y-125417025D01*
X145943074Y-125414524D01*
X146051323Y-125411336D01*
X146140496Y-125407378D01*
X146212656Y-125402568D01*
X146269866Y-125396826D01*
X146314191Y-125390068D01*
X146347692Y-125382212D01*
X146372433Y-125373178D01*
X146390478Y-125362883D01*
X146403890Y-125351245D01*
X146414731Y-125338181D01*
X146425065Y-125323611D01*
X146436956Y-125307453D01*
X146442113Y-125300732D01*
X146450038Y-125288356D01*
X146456758Y-125272396D01*
X146462374Y-125249746D01*
X146466984Y-125217304D01*
X146470689Y-125171964D01*
X146473586Y-125110622D01*
X146475775Y-125030174D01*
X146477355Y-124927515D01*
X146478426Y-124799542D01*
X146479086Y-124643151D01*
X146479435Y-124455236D01*
X146479572Y-124232693D01*
X146479595Y-123972419D01*
X146724611Y-123972419D01*
X146724611Y-124339943D01*
X146847119Y-124339943D01*
X146969627Y-124339943D01*
X146969627Y-123972419D01*
X146969627Y-123604895D01*
X146847119Y-123604895D01*
X146724611Y-123604895D01*
X146724611Y-123972419D01*
X146479595Y-123972419D01*
X146479590Y-123817500D01*
X146479513Y-123579369D01*
X146479266Y-123377180D01*
X146478750Y-123207827D01*
X146477865Y-123068207D01*
X146476512Y-122955215D01*
X146474593Y-122865748D01*
X146472007Y-122796699D01*
X146468657Y-122744967D01*
X146464442Y-122707445D01*
X146459264Y-122681031D01*
X146453023Y-122662618D01*
X146445620Y-122649105D01*
X146436956Y-122637385D01*
X146430141Y-122628353D01*
X146419357Y-122613072D01*
X146409001Y-122599336D01*
X146397011Y-122587062D01*
X146381323Y-122576167D01*
X146359874Y-122566571D01*
X146330601Y-122558192D01*
X146291441Y-122550946D01*
X146240330Y-122544753D01*
X146175205Y-122539531D01*
X146094003Y-122535197D01*
X145994661Y-122531670D01*
X145875116Y-122528867D01*
X145733303Y-122526707D01*
X145567161Y-122525109D01*
X145374625Y-122523989D01*
X145153633Y-122523266D01*
X144902121Y-122522858D01*
X144618026Y-122522684D01*
X144299285Y-122522661D01*
X143943834Y-122522707D01*
X143549611Y-122522740D01*
X143329242Y-122522729D01*
X142956463Y-122522678D01*
X142621330Y-122522660D01*
X142321779Y-122522755D01*
X142055746Y-122523047D01*
X141821168Y-122523617D01*
X141615983Y-122524546D01*
X141438127Y-122525918D01*
X141285536Y-122527813D01*
X141156148Y-122530314D01*
X141047900Y-122533502D01*
X140958727Y-122537460D01*
X140886567Y-122542269D01*
X140829356Y-122548012D01*
X140785032Y-122554770D01*
X140751531Y-122562625D01*
X140726789Y-122571660D01*
X140708744Y-122581955D01*
X140695333Y-122593593D01*
X140684492Y-122606656D01*
X140674157Y-122621226D01*
X140662266Y-122637385D01*
X140657109Y-122644106D01*
X140649185Y-122656482D01*
X140642465Y-122672442D01*
X140636849Y-122695091D01*
X140632238Y-122727534D01*
X140628534Y-122772874D01*
X140625637Y-122834216D01*
X140623448Y-122914664D01*
X140621867Y-123017322D01*
X140620796Y-123145295D01*
X140620136Y-123301687D01*
X140619787Y-123489602D01*
X140619651Y-123712145D01*
X140619627Y-123972419D01*
X140376267Y-123972419D01*
X140375970Y-123751272D01*
X140375749Y-123510265D01*
X140375936Y-123304409D01*
X140376788Y-123130593D01*
X140378564Y-122985711D01*
X140381523Y-122866654D01*
X140385925Y-122770314D01*
X140392026Y-122693581D01*
X140400087Y-122633349D01*
X140410365Y-122586508D01*
X140423120Y-122549950D01*
X140438610Y-122520567D01*
X140457094Y-122495251D01*
X140478830Y-122470892D01*
X140504078Y-122444384D01*
X140515447Y-122432915D01*
X140581517Y-122377297D01*
X140650254Y-122332085D01*
X140731926Y-122287933D01*
X143507532Y-122282471D01*
X143587698Y-122282314D01*
X143975245Y-122281597D01*
X144324429Y-122281040D01*
X144637321Y-122280664D01*
X144915991Y-122280488D01*
X145162508Y-122280532D01*
G37*
D12*
G04 #@! TO.C,U3*
X197268000Y-80234000D02*
X197268000Y-90454000D01*
X197268000Y-90454000D02*
X201888000Y-90454000D01*
X200508000Y-90454000D02*
X200508000Y-80234000D01*
X201888000Y-80234000D02*
X197268000Y-80234000D01*
X201888000Y-83494000D02*
X200508000Y-83494000D01*
X201888000Y-87194000D02*
X200508000Y-87194000D01*
X201888000Y-90454000D02*
X201888000Y-80234000D01*
G04 #@! TO.C,RV2*
X182356000Y-96884000D02*
X182356000Y-100498000D01*
X182356000Y-103290000D02*
X182356000Y-106904000D01*
X182356000Y-106904000D02*
X192576000Y-106904000D01*
X192576000Y-96884000D02*
X182356000Y-96884000D01*
X192576000Y-97998000D02*
X192576000Y-96884000D01*
X192576000Y-102998000D02*
X192576000Y-100790000D01*
X192576000Y-106904000D02*
X192576000Y-105790000D01*
G04 #@! TO.C,R11*
X183840000Y-80884000D02*
X183840000Y-81364000D01*
X183840000Y-84724000D02*
X183840000Y-84244000D01*
X193980000Y-80884000D02*
X183840000Y-80884000D01*
X193980000Y-81364000D02*
X193980000Y-80884000D01*
X193980000Y-84244000D02*
X193980000Y-84724000D01*
X193980000Y-84724000D02*
X183840000Y-84724000D01*
G04 #@! TO.C,R12*
X183840000Y-107808000D02*
X183840000Y-108288000D01*
X183840000Y-111648000D02*
X183840000Y-111168000D01*
X193980000Y-107808000D02*
X183840000Y-107808000D01*
X193980000Y-108288000D02*
X193980000Y-107808000D01*
X193980000Y-111168000D02*
X193980000Y-111648000D01*
X193980000Y-111648000D02*
X183840000Y-111648000D01*
G04 #@! TO.C,J2*
X86238000Y-79964000D02*
X86238000Y-80564000D01*
X86238000Y-80564000D02*
X86838000Y-80264000D01*
X86838000Y-80264000D02*
X86238000Y-79964000D01*
X87038000Y-76614000D02*
X95858000Y-76614000D01*
X87038000Y-79264000D02*
X87038000Y-81264000D01*
X87038000Y-81264000D02*
X88848000Y-81264000D01*
X87038000Y-84344000D02*
X87038000Y-86344000D01*
X87038000Y-86344000D02*
X88848000Y-86344000D01*
X87038000Y-88994000D02*
X87038000Y-76614000D01*
X87848000Y-76614000D02*
X87848000Y-79154000D01*
X87848000Y-81264000D02*
X87848000Y-84344000D01*
X87848000Y-88994000D02*
X87848000Y-86454000D01*
X88848000Y-77524000D02*
X88848000Y-88084000D01*
X88848000Y-79264000D02*
X87038000Y-79264000D01*
X88848000Y-81264000D02*
X88848000Y-79264000D01*
X88848000Y-84344000D02*
X87038000Y-84344000D01*
X88848000Y-86344000D02*
X88848000Y-84344000D01*
X88848000Y-88084000D02*
X94148000Y-88084000D01*
X94148000Y-77524000D02*
X88848000Y-77524000D01*
X94148000Y-78264000D02*
X94148000Y-77524000D01*
X94148000Y-82264000D02*
X94148000Y-83344000D01*
X94148000Y-88084000D02*
X94148000Y-87344000D01*
X95858000Y-76614000D02*
X95858000Y-88994000D01*
X95858000Y-88994000D02*
X87038000Y-88994000D01*
X94148000Y-78264000D02*
G75*
G02*
X94163821Y-82250842I-1650000J-2000000D01*
G01*
X94148000Y-83344000D02*
G75*
G02*
X94163821Y-87330842I-1650000J-2000000D01*
G01*
G04 #@! TO.C,D1*
X193010000Y-76234000D02*
X193010000Y-76390000D01*
X193010000Y-78550000D02*
X193010000Y-78706000D01*
X189778563Y-76390000D02*
G75*
G02*
X193010000Y-76234484I1671437J-1080000D01*
G01*
X190409039Y-76390000D02*
G75*
G02*
X192490961Y-76390000I1040961J-1080000D01*
G01*
X192490961Y-78550000D02*
G75*
G02*
X190409039Y-78550000I-1040961J1080000D01*
G01*
X193010000Y-78705516D02*
G75*
G02*
X189778563Y-78550000I-1560000J1235516D01*
G01*
G04 #@! TO.C,J1*
X86238000Y-109428000D02*
X86238000Y-110028000D01*
X86238000Y-110028000D02*
X86838000Y-109728000D01*
X86838000Y-109728000D02*
X86238000Y-109428000D01*
X87038000Y-106078000D02*
X95858000Y-106078000D01*
X87038000Y-108728000D02*
X87038000Y-110728000D01*
X87038000Y-110728000D02*
X88848000Y-110728000D01*
X87038000Y-113808000D02*
X87038000Y-115808000D01*
X87038000Y-115808000D02*
X88848000Y-115808000D01*
X87038000Y-118458000D02*
X87038000Y-106078000D01*
X87848000Y-106078000D02*
X87848000Y-108618000D01*
X87848000Y-110728000D02*
X87848000Y-113808000D01*
X87848000Y-118458000D02*
X87848000Y-115918000D01*
X88848000Y-106988000D02*
X88848000Y-117548000D01*
X88848000Y-108728000D02*
X87038000Y-108728000D01*
X88848000Y-110728000D02*
X88848000Y-108728000D01*
X88848000Y-113808000D02*
X87038000Y-113808000D01*
X88848000Y-115808000D02*
X88848000Y-113808000D01*
X88848000Y-117548000D02*
X94148000Y-117548000D01*
X94148000Y-106988000D02*
X88848000Y-106988000D01*
X94148000Y-107728000D02*
X94148000Y-106988000D01*
X94148000Y-111728000D02*
X94148000Y-112808000D01*
X94148000Y-117548000D02*
X94148000Y-116808000D01*
X95858000Y-106078000D02*
X95858000Y-118458000D01*
X95858000Y-118458000D02*
X87038000Y-118458000D01*
X94148000Y-107728000D02*
G75*
G02*
X94163821Y-111714842I-1650000J-2000000D01*
G01*
X94148000Y-112808000D02*
G75*
G02*
X94163821Y-116794842I-1650000J-2000000D01*
G01*
G04 #@! TO.C,BT2*
X97760000Y-98668000D02*
X97760000Y-120788000D01*
X97760000Y-120788000D02*
X176680000Y-120788000D01*
X176680000Y-98668000D02*
X97760000Y-98668000D01*
X176680000Y-120788000D02*
X176680000Y-98668000D01*
G04 #@! TO.C,J4*
X181180000Y-76090000D02*
X181180000Y-77470000D01*
X182560000Y-76090000D02*
X181180000Y-76090000D01*
X183830000Y-76090000D02*
X183830000Y-78850000D01*
X183830000Y-76090000D02*
X186480000Y-76090000D01*
X183830000Y-78850000D02*
X186480000Y-78850000D01*
X186480000Y-76090000D02*
X186480000Y-78850000D01*
G04 #@! TO.C,J3*
X181175000Y-115333000D02*
X181175000Y-116713000D01*
X182555000Y-115333000D02*
X181175000Y-115333000D01*
X183825000Y-115333000D02*
X183825000Y-118093000D01*
X183825000Y-115333000D02*
X186475000Y-115333000D01*
X183825000Y-118093000D02*
X186475000Y-118093000D01*
X186475000Y-115333000D02*
X186475000Y-118093000D01*
G04 #@! TO.C,U4*
X197268000Y-104618000D02*
X197268000Y-114838000D01*
X197268000Y-114838000D02*
X201888000Y-114838000D01*
X200508000Y-114838000D02*
X200508000Y-104618000D01*
X201888000Y-104618000D02*
X197268000Y-104618000D01*
X201888000Y-107878000D02*
X200508000Y-107878000D01*
X201888000Y-111578000D02*
X200508000Y-111578000D01*
X201888000Y-114838000D02*
X201888000Y-104618000D01*
G04 #@! TD*
%LPC*%
D14*
G04 #@! TO.C,H1*
X89000000Y-71000000D03*
G04 #@! TD*
G04 #@! TO.C,H4*
X89000000Y-124000000D03*
G04 #@! TD*
G04 #@! TO.C,H3*
X189000000Y-124000000D03*
G04 #@! TD*
G04 #@! TO.C,H2*
X189000000Y-71000000D03*
G04 #@! TD*
D15*
G04 #@! TO.C,D3*
X192593000Y-116713000D03*
D16*
X190053000Y-116713000D03*
G04 #@! TD*
D17*
G04 #@! TO.C,HS2*
X205420000Y-109728000D03*
G04 #@! TD*
D18*
G04 #@! TO.C,RV1*
X192466000Y-92884000D03*
X182466000Y-90384000D03*
X192466000Y-87884000D03*
G04 #@! TD*
D17*
G04 #@! TO.C,HS1*
X205420000Y-85344000D03*
G04 #@! TD*
D14*
G04 #@! TO.C,BT1*
X109215000Y-85344000D03*
X164825000Y-85344000D03*
D19*
X100770000Y-85344000D03*
D20*
X173670000Y-85344000D03*
G04 #@! TD*
D21*
G04 #@! TO.C,U3*
X198628000Y-87884000D03*
D22*
X198628000Y-85344000D03*
X198628000Y-82804000D03*
G04 #@! TD*
D18*
G04 #@! TO.C,RV2*
X192466000Y-104394000D03*
X182466000Y-101894000D03*
X192466000Y-99394000D03*
G04 #@! TD*
D23*
G04 #@! TO.C,R11*
X195260000Y-82804000D03*
X182560000Y-82804000D03*
G04 #@! TD*
G04 #@! TO.C,R12*
X195260000Y-109728000D03*
X182560000Y-109728000D03*
G04 #@! TD*
D24*
G04 #@! TO.C,J2*
X91948000Y-80264000D03*
D25*
X91948000Y-85344000D03*
G04 #@! TD*
D15*
G04 #@! TO.C,D1*
X192720000Y-77470000D03*
D16*
X190180000Y-77470000D03*
G04 #@! TD*
D24*
G04 #@! TO.C,J1*
X91948000Y-109728000D03*
D25*
X91948000Y-114808000D03*
G04 #@! TD*
D14*
G04 #@! TO.C,BT2*
X165225000Y-109728000D03*
X109615000Y-109728000D03*
D26*
X173670000Y-109728000D03*
D20*
X100770000Y-109728000D03*
G04 #@! TD*
D27*
G04 #@! TO.C,J4*
X182560000Y-77470000D03*
D28*
X185100000Y-77470000D03*
G04 #@! TD*
D27*
G04 #@! TO.C,J3*
X182555000Y-116713000D03*
D28*
X185095000Y-116713000D03*
G04 #@! TD*
D21*
G04 #@! TO.C,U4*
X198628000Y-112268000D03*
D22*
X198628000Y-109728000D03*
X198628000Y-107188000D03*
G04 #@! TD*
%LPD*%
M02*
