G04 #@! TF.GenerationSoftware,KiCad,Pcbnew,9.0.5*
G04 #@! TF.CreationDate,2026-01-17T16:52:57+01:00*
G04 #@! TF.ProjectId,power_bank,706f7765-725f-4626-916e-6b2e6b696361,1.0*
G04 #@! TF.SameCoordinates,Original*
G04 #@! TF.FileFunction,Soldermask,Bot*
G04 #@! TF.FilePolarity,Negative*
%FSLAX46Y46*%
G04 Gerber Fmt 4.6, Leading zero omitted, Abs format (unit mm)*
G04 Created by KiCad (PCBNEW 9.0.5) date 2026-01-17 16:52:57*
%MOMM*%
%LPD*%
G01*
G04 APERTURE LIST*
G04 Aperture macros list*
%AMRoundRect*
0 Rectangle with rounded corners*
0 $1 Rounding radius*
0 $2 $3 $4 $5 $6 $7 $8 $9 X,Y pos of 4 corners*
0 Add a 4 corners polygon primitive as box body*
4,1,4,$2,$3,$4,$5,$6,$7,$8,$9,$2,$3,0*
0 Add four circle primitives for the rounded corners*
1,1,$1+$1,$2,$3*
1,1,$1+$1,$4,$5*
1,1,$1+$1,$6,$7*
1,1,$1+$1,$8,$9*
0 Add four rect primitives between the rounded corners*
20,1,$1+$1,$2,$3,$4,$5,0*
20,1,$1+$1,$4,$5,$6,$7,0*
20,1,$1+$1,$6,$7,$8,$9,0*
20,1,$1+$1,$8,$9,$2,$3,0*%
G04 Aperture macros list end*
%ADD10C,3.200000*%
%ADD11R,1.800000X1.800000*%
%ADD12C,1.800000*%
%ADD13C,4.000000*%
%ADD14C,2.340000*%
%ADD15RoundRect,0.249999X-1.250001X-1.250001X1.250001X-1.250001X1.250001X1.250001X-1.250001X1.250001X0*%
%ADD16C,3.000000*%
%ADD17R,2.000000X1.905000*%
%ADD18O,2.000000X1.905000*%
%ADD19C,2.400000*%
%ADD20RoundRect,0.249999X-1.550001X0.790001X-1.550001X-0.790001X1.550001X-0.790001X1.550001X0.790001X0*%
%ADD21O,3.600000X2.080000*%
%ADD22RoundRect,0.249999X1.250001X1.250001X-1.250001X1.250001X-1.250001X-1.250001X1.250001X-1.250001X0*%
%ADD23R,1.700000X1.700000*%
%ADD24C,1.700000*%
G04 APERTURE END LIST*
D10*
G04 #@! TO.C,H1*
X89000000Y-71000000D03*
G04 #@! TD*
G04 #@! TO.C,H4*
X89000000Y-124000000D03*
G04 #@! TD*
G04 #@! TO.C,H3*
X189000000Y-124000000D03*
G04 #@! TD*
G04 #@! TO.C,H2*
X189000000Y-71000000D03*
G04 #@! TD*
D11*
G04 #@! TO.C,D3*
X192593000Y-116713000D03*
D12*
X190053000Y-116713000D03*
G04 #@! TD*
D13*
G04 #@! TO.C,HS2*
X205420000Y-109728000D03*
G04 #@! TD*
D14*
G04 #@! TO.C,RV1*
X192466000Y-92884000D03*
X182466000Y-90384000D03*
X192466000Y-87884000D03*
G04 #@! TD*
D13*
G04 #@! TO.C,HS1*
X205420000Y-85344000D03*
G04 #@! TD*
D10*
G04 #@! TO.C,BT1*
X109215000Y-85344000D03*
X164825000Y-85344000D03*
D15*
X100770000Y-85344000D03*
D16*
X173670000Y-85344000D03*
G04 #@! TD*
D17*
G04 #@! TO.C,U3*
X198628000Y-87884000D03*
D18*
X198628000Y-85344000D03*
X198628000Y-82804000D03*
G04 #@! TD*
D14*
G04 #@! TO.C,RV2*
X192466000Y-104394000D03*
X182466000Y-101894000D03*
X192466000Y-99394000D03*
G04 #@! TD*
D19*
G04 #@! TO.C,R11*
X195260000Y-82804000D03*
X182560000Y-82804000D03*
G04 #@! TD*
G04 #@! TO.C,R12*
X195260000Y-109728000D03*
X182560000Y-109728000D03*
G04 #@! TD*
D20*
G04 #@! TO.C,J2*
X91948000Y-80264000D03*
D21*
X91948000Y-85344000D03*
G04 #@! TD*
D11*
G04 #@! TO.C,D1*
X192720000Y-77470000D03*
D12*
X190180000Y-77470000D03*
G04 #@! TD*
D20*
G04 #@! TO.C,J1*
X91948000Y-109728000D03*
D21*
X91948000Y-114808000D03*
G04 #@! TD*
D10*
G04 #@! TO.C,BT2*
X165225000Y-109728000D03*
X109615000Y-109728000D03*
D22*
X173670000Y-109728000D03*
D16*
X100770000Y-109728000D03*
G04 #@! TD*
D23*
G04 #@! TO.C,J4*
X182560000Y-77470000D03*
D24*
X185100000Y-77470000D03*
G04 #@! TD*
D23*
G04 #@! TO.C,J3*
X182555000Y-116713000D03*
D24*
X185095000Y-116713000D03*
G04 #@! TD*
D17*
G04 #@! TO.C,U4*
X198628000Y-112268000D03*
D18*
X198628000Y-109728000D03*
X198628000Y-107188000D03*
G04 #@! TD*
M02*
