%TF.GenerationSoftware,KiCad,Pcbnew,9.0.5*%
%TF.CreationDate,2026-01-17T16:52:57+01:00*%
%TF.ProjectId,power_bank,706f7765-725f-4626-916e-6b2e6b696361,1.0*%
%TF.SameCoordinates,Original*%
%TF.FileFunction,Drillmap*%
%TF.FilePolarity,Positive*%
%FSLAX45Y45*%
G04 Gerber Fmt 4.5, Leading zero omitted, Abs format (unit mm)*
G04 Created by KiCad (PCBNEW 9.0.5) date 2026-01-17 16:52:57*
%MOMM*%
%LPD*%
G01*
G04 APERTURE LIST*
%ADD10C,0.050000*%
%ADD11C,0.200000*%
%ADD12C,0.100000*%
%ADD13C,0.110000*%
%ADD14C,0.120000*%
%ADD15C,0.130000*%
%ADD16C,0.140000*%
%ADD17C,0.157000*%
%ADD18C,0.260000*%
G04 APERTURE END LIST*
D10*
X21100000Y-6750000D02*
X8900000Y-6750000D01*
X8900000Y-12750000D02*
X21100000Y-12750000D01*
X8500000Y-7150000D02*
G75*
G02*
X8900000Y-6750000I400000J0D01*
G01*
X8900000Y-12750000D02*
G75*
G02*
X8500000Y-12350000I0J400000D01*
G01*
X8500000Y-7150000D02*
X8500000Y-12350000D01*
X21100000Y-6750000D02*
G75*
G02*
X21500000Y-7150000I0J-400000D01*
G01*
X21500000Y-12350000D02*
G75*
G02*
X21100000Y-12750000I-400000J0D01*
G01*
X21500000Y-12350000D02*
X21500000Y-7150000D01*
D11*
D12*
X11535160Y-9789160D02*
X11565640Y-9819640D01*
X11565640Y-9789160D02*
X11535160Y-9819640D01*
X12365360Y-8892160D02*
X12395840Y-8922640D01*
X12395840Y-8892160D02*
X12365360Y-8922640D01*
X12367760Y-9560560D02*
X12398240Y-9591040D01*
X12398240Y-9560560D02*
X12367760Y-9591040D01*
X12652760Y-8239760D02*
X12683240Y-8270240D01*
X12683240Y-8239760D02*
X12652760Y-8270240D01*
X12855960Y-8239760D02*
X12886440Y-8270240D01*
X12886440Y-8239760D02*
X12855960Y-8270240D01*
X12255250Y-7797800D02*
G75*
G02*
X12217150Y-7797800I-19050J0D01*
G01*
X12217150Y-7797800D02*
G75*
G02*
X12255250Y-7797800I19050J0D01*
G01*
X12306050Y-8305800D02*
G75*
G02*
X12267950Y-8305800I-19050J0D01*
G01*
X12267950Y-8305800D02*
G75*
G02*
X12306050Y-8305800I19050J0D01*
G01*
X12389775Y-8120475D02*
G75*
G02*
X12351675Y-8120475I-19050J0D01*
G01*
X12351675Y-8120475D02*
G75*
G02*
X12389775Y-8120475I19050J0D01*
G01*
X12395450Y-7797800D02*
G75*
G02*
X12357350Y-7797800I-19050J0D01*
G01*
X12357350Y-7797800D02*
G75*
G02*
X12395450Y-7797800I19050J0D01*
G01*
X12496550Y-8509000D02*
G75*
G02*
X12458450Y-8509000I-19050J0D01*
G01*
X12458450Y-8509000D02*
G75*
G02*
X12496550Y-8509000I19050J0D01*
G01*
X12661650Y-8521700D02*
G75*
G02*
X12623550Y-8521700I-19050J0D01*
G01*
X12623550Y-8521700D02*
G75*
G02*
X12661650Y-8521700I19050J0D01*
G01*
X12706850Y-8114800D02*
G75*
G02*
X12668750Y-8114800I-19050J0D01*
G01*
X12668750Y-8114800D02*
G75*
G02*
X12706850Y-8114800I19050J0D01*
G01*
X12820650Y-8128000D02*
G75*
G02*
X12782550Y-8128000I-19050J0D01*
G01*
X12782550Y-8128000D02*
G75*
G02*
X12820650Y-8128000I19050J0D01*
G01*
X13131550Y-8559800D02*
G75*
G02*
X13093450Y-8559800I-19050J0D01*
G01*
X13093450Y-8559800D02*
G75*
G02*
X13131550Y-8559800I19050J0D01*
G01*
X13169650Y-10795000D02*
G75*
G02*
X13131550Y-10795000I-19050J0D01*
G01*
X13131550Y-10795000D02*
G75*
G02*
X13169650Y-10795000I19050J0D01*
G01*
X13277850Y-11163300D02*
G75*
G02*
X13239750Y-11163300I-19050J0D01*
G01*
X13239750Y-11163300D02*
G75*
G02*
X13277850Y-11163300I19050J0D01*
G01*
X13322050Y-11544300D02*
G75*
G02*
X13283950Y-11544300I-19050J0D01*
G01*
X13283950Y-11544300D02*
G75*
G02*
X13322050Y-11544300I19050J0D01*
G01*
X13487150Y-11163300D02*
G75*
G02*
X13449050Y-11163300I-19050J0D01*
G01*
X13449050Y-11163300D02*
G75*
G02*
X13487150Y-11163300I19050J0D01*
G01*
X13906250Y-10464800D02*
G75*
G02*
X13868150Y-10464800I-19050J0D01*
G01*
X13868150Y-10464800D02*
G75*
G02*
X13906250Y-10464800I19050J0D01*
G01*
X13906250Y-11734800D02*
G75*
G02*
X13868150Y-11734800I-19050J0D01*
G01*
X13868150Y-11734800D02*
G75*
G02*
X13906250Y-11734800I19050J0D01*
G01*
X14071350Y-11341100D02*
G75*
G02*
X14033250Y-11341100I-19050J0D01*
G01*
X14033250Y-11341100D02*
G75*
G02*
X14071350Y-11341100I19050J0D01*
G01*
X14134850Y-11163300D02*
G75*
G02*
X14096750Y-11163300I-19050J0D01*
G01*
X14096750Y-11163300D02*
G75*
G02*
X14134850Y-11163300I19050J0D01*
G01*
X15722350Y-11366500D02*
G75*
G02*
X15684250Y-11366500I-19050J0D01*
G01*
X15684250Y-11366500D02*
G75*
G02*
X15722350Y-11366500I19050J0D01*
G01*
X15811250Y-11049000D02*
G75*
G02*
X15773150Y-11049000I-19050J0D01*
G01*
X15773150Y-11049000D02*
G75*
G02*
X15811250Y-11049000I19050J0D01*
G01*
X18275050Y-10439400D02*
G75*
G02*
X18236950Y-10439400I-19050J0D01*
G01*
X18236950Y-10439400D02*
G75*
G02*
X18275050Y-10439400I19050J0D01*
G01*
X19595850Y-10172700D02*
G75*
G02*
X19557750Y-10172700I-19050J0D01*
G01*
X19557750Y-10172700D02*
G75*
G02*
X19595850Y-10172700I19050J0D01*
G01*
X19875250Y-10172700D02*
G75*
G02*
X19837150Y-10172700I-19050J0D01*
G01*
X19837150Y-10172700D02*
G75*
G02*
X19875250Y-10172700I19050J0D01*
G01*
X20180050Y-8712200D02*
G75*
G02*
X20141950Y-8712200I-19050J0D01*
G01*
X20141950Y-8712200D02*
G75*
G02*
X20180050Y-8712200I19050J0D01*
G01*
X11372600Y-10717600D02*
X11372600Y-10768400D01*
X11347200Y-10743000D02*
X11398000Y-10743000D01*
X11525000Y-10617200D02*
X11525000Y-10668000D01*
X11499600Y-10642600D02*
X11550400Y-10642600D01*
X11525000Y-10820400D02*
X11525000Y-10871200D01*
X11499600Y-10845800D02*
X11550400Y-10845800D01*
X11956800Y-10337800D02*
X11956800Y-10388600D01*
X11931400Y-10363200D02*
X11982200Y-10363200D01*
X11956800Y-10490200D02*
X11956800Y-10541000D01*
X11931400Y-10515600D02*
X11982200Y-10515600D01*
X11956800Y-10642600D02*
X11956800Y-10693400D01*
X11931400Y-10668000D02*
X11982200Y-10668000D01*
X12160000Y-10337800D02*
X12160000Y-10388600D01*
X12134600Y-10363200D02*
X12185400Y-10363200D01*
X12160000Y-10490200D02*
X12160000Y-10541000D01*
X12134600Y-10515600D02*
X12185400Y-10515600D01*
X12160000Y-10642600D02*
X12160000Y-10693400D01*
X12134600Y-10668000D02*
X12185400Y-10668000D01*
X12363200Y-10337800D02*
X12363200Y-10388600D01*
X12337800Y-10363200D02*
X12388600Y-10363200D01*
X12363200Y-10490200D02*
X12363200Y-10541000D01*
X12337800Y-10515600D02*
X12388600Y-10515600D01*
X12363200Y-10642600D02*
X12363200Y-10693400D01*
X12337800Y-10668000D02*
X12388600Y-10668000D01*
X12972800Y-8991600D02*
X12972800Y-9042400D01*
X12947400Y-9017000D02*
X12998200Y-9017000D01*
X15589000Y-9728200D02*
X15589000Y-9779000D01*
X15563600Y-9753600D02*
X15614400Y-9753600D01*
X19037120Y-11703120D02*
X19037120Y-11639480D01*
X18973480Y-11639480D01*
X18973480Y-11703120D01*
X19037120Y-11703120D01*
X19049820Y-7778820D02*
X19049820Y-7715180D01*
X18986180Y-7715180D01*
X18986180Y-7778820D01*
X19049820Y-7778820D01*
X19291120Y-11703120D02*
X19291120Y-11639480D01*
X19227480Y-11639480D01*
X19227480Y-11703120D01*
X19291120Y-11703120D01*
X19303820Y-7778820D02*
X19303820Y-7715180D01*
X19240180Y-7715180D01*
X19240180Y-7778820D01*
X19303820Y-7778820D01*
X18255500Y-11721300D02*
X18305500Y-11671300D01*
X18255500Y-11621300D01*
X18205500Y-11671300D01*
X18255500Y-11721300D01*
X18256000Y-7797000D02*
X18306000Y-7747000D01*
X18256000Y-7697000D01*
X18206000Y-7747000D01*
X18256000Y-7797000D01*
X18509500Y-11721300D02*
X18559500Y-11671300D01*
X18509500Y-11621300D01*
X18459500Y-11671300D01*
X18509500Y-11721300D01*
X18510000Y-7797000D02*
X18560000Y-7747000D01*
X18510000Y-7697000D01*
X18460000Y-7747000D01*
X18510000Y-7797000D01*
D13*
X19807800Y-8225400D02*
X19917800Y-8335400D01*
X19917800Y-8225400D02*
X19807800Y-8335400D01*
X19917800Y-8280400D02*
G75*
G02*
X19807800Y-8280400I-55000J0D01*
G01*
X19807800Y-8280400D02*
G75*
G02*
X19917800Y-8280400I55000J0D01*
G01*
X19807800Y-8479400D02*
X19917800Y-8589400D01*
X19917800Y-8479400D02*
X19807800Y-8589400D01*
X19917800Y-8534400D02*
G75*
G02*
X19807800Y-8534400I-55000J0D01*
G01*
X19807800Y-8534400D02*
G75*
G02*
X19917800Y-8534400I55000J0D01*
G01*
X19807800Y-8733400D02*
X19917800Y-8843400D01*
X19917800Y-8733400D02*
X19807800Y-8843400D01*
X19917800Y-8788400D02*
G75*
G02*
X19807800Y-8788400I-55000J0D01*
G01*
X19807800Y-8788400D02*
G75*
G02*
X19917800Y-8788400I55000J0D01*
G01*
X19807800Y-10663800D02*
X19917800Y-10773800D01*
X19917800Y-10663800D02*
X19807800Y-10773800D01*
X19917800Y-10718800D02*
G75*
G02*
X19807800Y-10718800I-55000J0D01*
G01*
X19807800Y-10718800D02*
G75*
G02*
X19917800Y-10718800I55000J0D01*
G01*
X19807800Y-10917800D02*
X19917800Y-11027800D01*
X19917800Y-10917800D02*
X19807800Y-11027800D01*
X19917800Y-10972800D02*
G75*
G02*
X19807800Y-10972800I-55000J0D01*
G01*
X19807800Y-10972800D02*
G75*
G02*
X19917800Y-10972800I55000J0D01*
G01*
X19807800Y-11171800D02*
X19917800Y-11281800D01*
X19917800Y-11171800D02*
X19807800Y-11281800D01*
X19917800Y-11226800D02*
G75*
G02*
X19807800Y-11226800I-55000J0D01*
G01*
X19807800Y-11226800D02*
G75*
G02*
X19917800Y-11226800I55000J0D01*
G01*
D14*
X18196000Y-8220400D02*
X18316000Y-8340400D01*
X18316000Y-8220400D02*
X18196000Y-8340400D01*
X18256000Y-8220400D02*
X18256000Y-8340400D01*
X18196000Y-8280400D02*
X18316000Y-8280400D01*
X18196000Y-10912800D02*
X18316000Y-11032800D01*
X18316000Y-10912800D02*
X18196000Y-11032800D01*
X18256000Y-10912800D02*
X18256000Y-11032800D01*
X18196000Y-10972800D02*
X18316000Y-10972800D01*
X19466000Y-8220400D02*
X19586000Y-8340400D01*
X19586000Y-8220400D02*
X19466000Y-8340400D01*
X19526000Y-8220400D02*
X19526000Y-8340400D01*
X19466000Y-8280400D02*
X19586000Y-8280400D01*
X19466000Y-10912800D02*
X19586000Y-11032800D01*
X19586000Y-10912800D02*
X19466000Y-11032800D01*
X19526000Y-10912800D02*
X19526000Y-11032800D01*
X19466000Y-10972800D02*
X19586000Y-10972800D01*
D15*
X18181600Y-8973400D02*
X18311600Y-9103400D01*
X18311600Y-8973400D02*
X18181600Y-9103400D01*
X18292562Y-9084362D02*
X18292562Y-8992438D01*
X18200638Y-8992438D01*
X18200638Y-9084362D01*
X18292562Y-9084362D01*
X18181600Y-10124400D02*
X18311600Y-10254400D01*
X18311600Y-10124400D02*
X18181600Y-10254400D01*
X18292562Y-10235362D02*
X18292562Y-10143438D01*
X18200638Y-10143438D01*
X18200638Y-10235362D01*
X18292562Y-10235362D01*
X19181600Y-8723400D02*
X19311600Y-8853400D01*
X19311600Y-8723400D02*
X19181600Y-8853400D01*
X19292562Y-8834362D02*
X19292562Y-8742438D01*
X19200638Y-8742438D01*
X19200638Y-8834362D01*
X19292562Y-8834362D01*
X19181600Y-9223400D02*
X19311600Y-9353400D01*
X19311600Y-9223400D02*
X19181600Y-9353400D01*
X19292562Y-9334362D02*
X19292562Y-9242438D01*
X19200638Y-9242438D01*
X19200638Y-9334362D01*
X19292562Y-9334362D01*
X19181600Y-9874400D02*
X19311600Y-10004400D01*
X19311600Y-9874400D02*
X19181600Y-10004400D01*
X19292562Y-9985362D02*
X19292562Y-9893438D01*
X19200638Y-9893438D01*
X19200638Y-9985362D01*
X19292562Y-9985362D01*
X19181600Y-10374400D02*
X19311600Y-10504400D01*
X19311600Y-10374400D02*
X19181600Y-10504400D01*
X19292562Y-10485362D02*
X19292562Y-10393438D01*
X19200638Y-10393438D01*
X19200638Y-10485362D01*
X19292562Y-10485362D01*
D16*
X9124800Y-7956400D02*
X9264800Y-8096400D01*
X9264800Y-7956400D02*
X9124800Y-8096400D01*
X9194800Y-8096400D02*
X9264800Y-8026400D01*
X9194800Y-7956400D01*
X9124800Y-8026400D01*
X9194800Y-8096400D01*
X9124800Y-8464400D02*
X9264800Y-8604400D01*
X9264800Y-8464400D02*
X9124800Y-8604400D01*
X9194800Y-8604400D02*
X9264800Y-8534400D01*
X9194800Y-8464400D01*
X9124800Y-8534400D01*
X9194800Y-8604400D01*
X9124800Y-10902800D02*
X9264800Y-11042800D01*
X9264800Y-10902800D02*
X9124800Y-11042800D01*
X9194800Y-11042800D02*
X9264800Y-10972800D01*
X9194800Y-10902800D01*
X9124800Y-10972800D01*
X9194800Y-11042800D01*
X9124800Y-11410800D02*
X9264800Y-11550800D01*
X9264800Y-11410800D02*
X9124800Y-11550800D01*
X9194800Y-11550800D02*
X9264800Y-11480800D01*
X9194800Y-11410800D01*
X9124800Y-11480800D01*
X9194800Y-11550800D01*
D17*
X10077000Y-8455900D02*
X10077000Y-8612900D01*
X9998500Y-8534400D02*
X10155500Y-8534400D01*
X10155500Y-8534400D02*
G75*
G02*
X9998500Y-8534400I-78500J0D01*
G01*
X9998500Y-8534400D02*
G75*
G02*
X10155500Y-8534400I78500J0D01*
G01*
X10077000Y-10894300D02*
X10077000Y-11051300D01*
X9998500Y-10972800D02*
X10155500Y-10972800D01*
X10155500Y-10972800D02*
G75*
G02*
X9998500Y-10972800I-78500J0D01*
G01*
X9998500Y-10972800D02*
G75*
G02*
X10155500Y-10972800I78500J0D01*
G01*
X17367000Y-8455900D02*
X17367000Y-8612900D01*
X17288500Y-8534400D02*
X17445500Y-8534400D01*
X17445500Y-8534400D02*
G75*
G02*
X17288500Y-8534400I-78500J0D01*
G01*
X17288500Y-8534400D02*
G75*
G02*
X17445500Y-8534400I78500J0D01*
G01*
X17367000Y-10894300D02*
X17367000Y-11051300D01*
X17288500Y-10972800D02*
X17445500Y-10972800D01*
X17445500Y-10972800D02*
G75*
G02*
X17288500Y-10972800I-78500J0D01*
G01*
X17288500Y-10972800D02*
G75*
G02*
X17445500Y-10972800I78500J0D01*
G01*
D18*
X20633925Y-8626325D02*
X20633925Y-8442475D01*
X20450075Y-8442475D01*
X20450075Y-8626325D01*
X20633925Y-8626325D01*
X20672000Y-8534400D02*
G75*
G02*
X20412000Y-8534400I-130000J0D01*
G01*
X20412000Y-8534400D02*
G75*
G02*
X20672000Y-8534400I130000J0D01*
G01*
X20633925Y-11064725D02*
X20633925Y-10880875D01*
X20450075Y-10880875D01*
X20450075Y-11064725D01*
X20633925Y-11064725D01*
X20672000Y-10972800D02*
G75*
G02*
X20412000Y-10972800I-130000J0D01*
G01*
X20412000Y-10972800D02*
G75*
G02*
X20672000Y-10972800I130000J0D01*
G01*
D11*
X8758277Y-13063984D02*
X8758277Y-12863984D01*
X8758277Y-12863984D02*
X8805896Y-12863984D01*
X8805896Y-12863984D02*
X8834467Y-12873508D01*
X8834467Y-12873508D02*
X8853515Y-12892555D01*
X8853515Y-12892555D02*
X8863039Y-12911603D01*
X8863039Y-12911603D02*
X8872563Y-12949698D01*
X8872563Y-12949698D02*
X8872563Y-12978269D01*
X8872563Y-12978269D02*
X8863039Y-13016365D01*
X8863039Y-13016365D02*
X8853515Y-13035412D01*
X8853515Y-13035412D02*
X8834467Y-13054460D01*
X8834467Y-13054460D02*
X8805896Y-13063984D01*
X8805896Y-13063984D02*
X8758277Y-13063984D01*
X8958277Y-13063984D02*
X8958277Y-12930650D01*
X8958277Y-12968746D02*
X8967801Y-12949698D01*
X8967801Y-12949698D02*
X8977324Y-12940174D01*
X8977324Y-12940174D02*
X8996372Y-12930650D01*
X8996372Y-12930650D02*
X9015420Y-12930650D01*
X9082086Y-13063984D02*
X9082086Y-12930650D01*
X9082086Y-12863984D02*
X9072563Y-12873508D01*
X9072563Y-12873508D02*
X9082086Y-12883031D01*
X9082086Y-12883031D02*
X9091610Y-12873508D01*
X9091610Y-12873508D02*
X9082086Y-12863984D01*
X9082086Y-12863984D02*
X9082086Y-12883031D01*
X9205896Y-13063984D02*
X9186848Y-13054460D01*
X9186848Y-13054460D02*
X9177324Y-13035412D01*
X9177324Y-13035412D02*
X9177324Y-12863984D01*
X9310658Y-13063984D02*
X9291610Y-13054460D01*
X9291610Y-13054460D02*
X9282086Y-13035412D01*
X9282086Y-13035412D02*
X9282086Y-12863984D01*
X9539229Y-13063984D02*
X9539229Y-12863984D01*
X9539229Y-12863984D02*
X9605896Y-13006841D01*
X9605896Y-13006841D02*
X9672563Y-12863984D01*
X9672563Y-12863984D02*
X9672563Y-13063984D01*
X9853515Y-13063984D02*
X9853515Y-12959222D01*
X9853515Y-12959222D02*
X9843991Y-12940174D01*
X9843991Y-12940174D02*
X9824944Y-12930650D01*
X9824944Y-12930650D02*
X9786848Y-12930650D01*
X9786848Y-12930650D02*
X9767801Y-12940174D01*
X9853515Y-13054460D02*
X9834467Y-13063984D01*
X9834467Y-13063984D02*
X9786848Y-13063984D01*
X9786848Y-13063984D02*
X9767801Y-13054460D01*
X9767801Y-13054460D02*
X9758277Y-13035412D01*
X9758277Y-13035412D02*
X9758277Y-13016365D01*
X9758277Y-13016365D02*
X9767801Y-12997317D01*
X9767801Y-12997317D02*
X9786848Y-12987793D01*
X9786848Y-12987793D02*
X9834467Y-12987793D01*
X9834467Y-12987793D02*
X9853515Y-12978269D01*
X9948753Y-12930650D02*
X9948753Y-13130650D01*
X9948753Y-12940174D02*
X9967801Y-12930650D01*
X9967801Y-12930650D02*
X10005896Y-12930650D01*
X10005896Y-12930650D02*
X10024944Y-12940174D01*
X10024944Y-12940174D02*
X10034467Y-12949698D01*
X10034467Y-12949698D02*
X10043991Y-12968746D01*
X10043991Y-12968746D02*
X10043991Y-13025888D01*
X10043991Y-13025888D02*
X10034467Y-13044936D01*
X10034467Y-13044936D02*
X10024944Y-13054460D01*
X10024944Y-13054460D02*
X10005896Y-13063984D01*
X10005896Y-13063984D02*
X9967801Y-13063984D01*
X9967801Y-13063984D02*
X9948753Y-13054460D01*
X10129705Y-13044936D02*
X10139229Y-13054460D01*
X10139229Y-13054460D02*
X10129705Y-13063984D01*
X10129705Y-13063984D02*
X10120182Y-13054460D01*
X10120182Y-13054460D02*
X10129705Y-13044936D01*
X10129705Y-13044936D02*
X10129705Y-13063984D01*
X10129705Y-12940174D02*
X10139229Y-12949698D01*
X10139229Y-12949698D02*
X10129705Y-12959222D01*
X10129705Y-12959222D02*
X10120182Y-12949698D01*
X10120182Y-12949698D02*
X10129705Y-12940174D01*
X10129705Y-12940174D02*
X10129705Y-12959222D01*
D12*
X8467020Y-13377260D02*
X8497500Y-13407740D01*
X8497500Y-13377260D02*
X8467020Y-13407740D01*
D11*
X8796372Y-13283984D02*
X8815420Y-13283984D01*
X8815420Y-13283984D02*
X8834467Y-13293508D01*
X8834467Y-13293508D02*
X8843991Y-13303031D01*
X8843991Y-13303031D02*
X8853515Y-13322079D01*
X8853515Y-13322079D02*
X8863039Y-13360174D01*
X8863039Y-13360174D02*
X8863039Y-13407793D01*
X8863039Y-13407793D02*
X8853515Y-13445888D01*
X8853515Y-13445888D02*
X8843991Y-13464936D01*
X8843991Y-13464936D02*
X8834467Y-13474460D01*
X8834467Y-13474460D02*
X8815420Y-13483984D01*
X8815420Y-13483984D02*
X8796372Y-13483984D01*
X8796372Y-13483984D02*
X8777324Y-13474460D01*
X8777324Y-13474460D02*
X8767801Y-13464936D01*
X8767801Y-13464936D02*
X8758277Y-13445888D01*
X8758277Y-13445888D02*
X8748753Y-13407793D01*
X8748753Y-13407793D02*
X8748753Y-13360174D01*
X8748753Y-13360174D02*
X8758277Y-13322079D01*
X8758277Y-13322079D02*
X8767801Y-13303031D01*
X8767801Y-13303031D02*
X8777324Y-13293508D01*
X8777324Y-13293508D02*
X8796372Y-13283984D01*
X8948753Y-13464936D02*
X8958277Y-13474460D01*
X8958277Y-13474460D02*
X8948753Y-13483984D01*
X8948753Y-13483984D02*
X8939229Y-13474460D01*
X8939229Y-13474460D02*
X8948753Y-13464936D01*
X8948753Y-13464936D02*
X8948753Y-13483984D01*
X9024944Y-13283984D02*
X9148753Y-13283984D01*
X9148753Y-13283984D02*
X9082086Y-13360174D01*
X9082086Y-13360174D02*
X9110658Y-13360174D01*
X9110658Y-13360174D02*
X9129705Y-13369698D01*
X9129705Y-13369698D02*
X9139229Y-13379222D01*
X9139229Y-13379222D02*
X9148753Y-13398269D01*
X9148753Y-13398269D02*
X9148753Y-13445888D01*
X9148753Y-13445888D02*
X9139229Y-13464936D01*
X9139229Y-13464936D02*
X9129705Y-13474460D01*
X9129705Y-13474460D02*
X9110658Y-13483984D01*
X9110658Y-13483984D02*
X9053515Y-13483984D01*
X9053515Y-13483984D02*
X9034467Y-13474460D01*
X9034467Y-13474460D02*
X9024944Y-13464936D01*
X9272563Y-13283984D02*
X9291610Y-13283984D01*
X9291610Y-13283984D02*
X9310658Y-13293508D01*
X9310658Y-13293508D02*
X9320182Y-13303031D01*
X9320182Y-13303031D02*
X9329705Y-13322079D01*
X9329705Y-13322079D02*
X9339229Y-13360174D01*
X9339229Y-13360174D02*
X9339229Y-13407793D01*
X9339229Y-13407793D02*
X9329705Y-13445888D01*
X9329705Y-13445888D02*
X9320182Y-13464936D01*
X9320182Y-13464936D02*
X9310658Y-13474460D01*
X9310658Y-13474460D02*
X9291610Y-13483984D01*
X9291610Y-13483984D02*
X9272563Y-13483984D01*
X9272563Y-13483984D02*
X9253515Y-13474460D01*
X9253515Y-13474460D02*
X9243991Y-13464936D01*
X9243991Y-13464936D02*
X9234467Y-13445888D01*
X9234467Y-13445888D02*
X9224944Y-13407793D01*
X9224944Y-13407793D02*
X9224944Y-13360174D01*
X9224944Y-13360174D02*
X9234467Y-13322079D01*
X9234467Y-13322079D02*
X9243991Y-13303031D01*
X9243991Y-13303031D02*
X9253515Y-13293508D01*
X9253515Y-13293508D02*
X9272563Y-13283984D01*
X9520182Y-13283984D02*
X9424944Y-13283984D01*
X9424944Y-13283984D02*
X9415420Y-13379222D01*
X9415420Y-13379222D02*
X9424944Y-13369698D01*
X9424944Y-13369698D02*
X9443991Y-13360174D01*
X9443991Y-13360174D02*
X9491610Y-13360174D01*
X9491610Y-13360174D02*
X9510658Y-13369698D01*
X9510658Y-13369698D02*
X9520182Y-13379222D01*
X9520182Y-13379222D02*
X9529705Y-13398269D01*
X9529705Y-13398269D02*
X9529705Y-13445888D01*
X9529705Y-13445888D02*
X9520182Y-13464936D01*
X9520182Y-13464936D02*
X9510658Y-13474460D01*
X9510658Y-13474460D02*
X9491610Y-13483984D01*
X9491610Y-13483984D02*
X9443991Y-13483984D01*
X9443991Y-13483984D02*
X9424944Y-13474460D01*
X9424944Y-13474460D02*
X9415420Y-13464936D01*
X9615420Y-13483984D02*
X9615420Y-13350650D01*
X9615420Y-13369698D02*
X9624944Y-13360174D01*
X9624944Y-13360174D02*
X9643991Y-13350650D01*
X9643991Y-13350650D02*
X9672563Y-13350650D01*
X9672563Y-13350650D02*
X9691610Y-13360174D01*
X9691610Y-13360174D02*
X9701134Y-13379222D01*
X9701134Y-13379222D02*
X9701134Y-13483984D01*
X9701134Y-13379222D02*
X9710658Y-13360174D01*
X9710658Y-13360174D02*
X9729705Y-13350650D01*
X9729705Y-13350650D02*
X9758277Y-13350650D01*
X9758277Y-13350650D02*
X9777325Y-13360174D01*
X9777325Y-13360174D02*
X9786848Y-13379222D01*
X9786848Y-13379222D02*
X9786848Y-13483984D01*
X9882086Y-13483984D02*
X9882086Y-13350650D01*
X9882086Y-13369698D02*
X9891610Y-13360174D01*
X9891610Y-13360174D02*
X9910658Y-13350650D01*
X9910658Y-13350650D02*
X9939229Y-13350650D01*
X9939229Y-13350650D02*
X9958277Y-13360174D01*
X9958277Y-13360174D02*
X9967801Y-13379222D01*
X9967801Y-13379222D02*
X9967801Y-13483984D01*
X9967801Y-13379222D02*
X9977325Y-13360174D01*
X9977325Y-13360174D02*
X9996372Y-13350650D01*
X9996372Y-13350650D02*
X10024944Y-13350650D01*
X10024944Y-13350650D02*
X10043991Y-13360174D01*
X10043991Y-13360174D02*
X10053515Y-13379222D01*
X10053515Y-13379222D02*
X10053515Y-13483984D01*
X10443991Y-13274460D02*
X10272563Y-13531603D01*
X10701134Y-13283984D02*
X10720182Y-13283984D01*
X10720182Y-13283984D02*
X10739229Y-13293508D01*
X10739229Y-13293508D02*
X10748753Y-13303031D01*
X10748753Y-13303031D02*
X10758277Y-13322079D01*
X10758277Y-13322079D02*
X10767801Y-13360174D01*
X10767801Y-13360174D02*
X10767801Y-13407793D01*
X10767801Y-13407793D02*
X10758277Y-13445888D01*
X10758277Y-13445888D02*
X10748753Y-13464936D01*
X10748753Y-13464936D02*
X10739229Y-13474460D01*
X10739229Y-13474460D02*
X10720182Y-13483984D01*
X10720182Y-13483984D02*
X10701134Y-13483984D01*
X10701134Y-13483984D02*
X10682087Y-13474460D01*
X10682087Y-13474460D02*
X10672563Y-13464936D01*
X10672563Y-13464936D02*
X10663039Y-13445888D01*
X10663039Y-13445888D02*
X10653515Y-13407793D01*
X10653515Y-13407793D02*
X10653515Y-13360174D01*
X10653515Y-13360174D02*
X10663039Y-13322079D01*
X10663039Y-13322079D02*
X10672563Y-13303031D01*
X10672563Y-13303031D02*
X10682087Y-13293508D01*
X10682087Y-13293508D02*
X10701134Y-13283984D01*
X10853515Y-13464936D02*
X10863039Y-13474460D01*
X10863039Y-13474460D02*
X10853515Y-13483984D01*
X10853515Y-13483984D02*
X10843991Y-13474460D01*
X10843991Y-13474460D02*
X10853515Y-13464936D01*
X10853515Y-13464936D02*
X10853515Y-13483984D01*
X10986848Y-13283984D02*
X11005896Y-13283984D01*
X11005896Y-13283984D02*
X11024944Y-13293508D01*
X11024944Y-13293508D02*
X11034468Y-13303031D01*
X11034468Y-13303031D02*
X11043991Y-13322079D01*
X11043991Y-13322079D02*
X11053515Y-13360174D01*
X11053515Y-13360174D02*
X11053515Y-13407793D01*
X11053515Y-13407793D02*
X11043991Y-13445888D01*
X11043991Y-13445888D02*
X11034468Y-13464936D01*
X11034468Y-13464936D02*
X11024944Y-13474460D01*
X11024944Y-13474460D02*
X11005896Y-13483984D01*
X11005896Y-13483984D02*
X10986848Y-13483984D01*
X10986848Y-13483984D02*
X10967801Y-13474460D01*
X10967801Y-13474460D02*
X10958277Y-13464936D01*
X10958277Y-13464936D02*
X10948753Y-13445888D01*
X10948753Y-13445888D02*
X10939229Y-13407793D01*
X10939229Y-13407793D02*
X10939229Y-13360174D01*
X10939229Y-13360174D02*
X10948753Y-13322079D01*
X10948753Y-13322079D02*
X10958277Y-13303031D01*
X10958277Y-13303031D02*
X10967801Y-13293508D01*
X10967801Y-13293508D02*
X10986848Y-13283984D01*
X11243991Y-13483984D02*
X11129706Y-13483984D01*
X11186848Y-13483984D02*
X11186848Y-13283984D01*
X11186848Y-13283984D02*
X11167801Y-13312555D01*
X11167801Y-13312555D02*
X11148753Y-13331603D01*
X11148753Y-13331603D02*
X11129706Y-13341127D01*
X11320182Y-13303031D02*
X11329706Y-13293508D01*
X11329706Y-13293508D02*
X11348753Y-13283984D01*
X11348753Y-13283984D02*
X11396372Y-13283984D01*
X11396372Y-13283984D02*
X11415420Y-13293508D01*
X11415420Y-13293508D02*
X11424944Y-13303031D01*
X11424944Y-13303031D02*
X11434467Y-13322079D01*
X11434467Y-13322079D02*
X11434467Y-13341127D01*
X11434467Y-13341127D02*
X11424944Y-13369698D01*
X11424944Y-13369698D02*
X11310658Y-13483984D01*
X11310658Y-13483984D02*
X11434467Y-13483984D01*
X11558277Y-13283984D02*
X11577325Y-13283984D01*
X11577325Y-13283984D02*
X11596372Y-13293508D01*
X11596372Y-13293508D02*
X11605896Y-13303031D01*
X11605896Y-13303031D02*
X11615420Y-13322079D01*
X11615420Y-13322079D02*
X11624944Y-13360174D01*
X11624944Y-13360174D02*
X11624944Y-13407793D01*
X11624944Y-13407793D02*
X11615420Y-13445888D01*
X11615420Y-13445888D02*
X11605896Y-13464936D01*
X11605896Y-13464936D02*
X11596372Y-13474460D01*
X11596372Y-13474460D02*
X11577325Y-13483984D01*
X11577325Y-13483984D02*
X11558277Y-13483984D01*
X11558277Y-13483984D02*
X11539229Y-13474460D01*
X11539229Y-13474460D02*
X11529706Y-13464936D01*
X11529706Y-13464936D02*
X11520182Y-13445888D01*
X11520182Y-13445888D02*
X11510658Y-13407793D01*
X11510658Y-13407793D02*
X11510658Y-13360174D01*
X11510658Y-13360174D02*
X11520182Y-13322079D01*
X11520182Y-13322079D02*
X11529706Y-13303031D01*
X11529706Y-13303031D02*
X11539229Y-13293508D01*
X11539229Y-13293508D02*
X11558277Y-13283984D01*
X11701134Y-13283984D02*
X11701134Y-13322079D01*
X11777325Y-13283984D02*
X11777325Y-13322079D01*
X12072563Y-13560174D02*
X12063039Y-13550650D01*
X12063039Y-13550650D02*
X12043991Y-13522079D01*
X12043991Y-13522079D02*
X12034468Y-13503031D01*
X12034468Y-13503031D02*
X12024944Y-13474460D01*
X12024944Y-13474460D02*
X12015420Y-13426841D01*
X12015420Y-13426841D02*
X12015420Y-13388746D01*
X12015420Y-13388746D02*
X12024944Y-13341127D01*
X12024944Y-13341127D02*
X12034468Y-13312555D01*
X12034468Y-13312555D02*
X12043991Y-13293508D01*
X12043991Y-13293508D02*
X12063039Y-13264936D01*
X12063039Y-13264936D02*
X12072563Y-13255412D01*
X12243991Y-13283984D02*
X12148753Y-13283984D01*
X12148753Y-13283984D02*
X12139229Y-13379222D01*
X12139229Y-13379222D02*
X12148753Y-13369698D01*
X12148753Y-13369698D02*
X12167801Y-13360174D01*
X12167801Y-13360174D02*
X12215420Y-13360174D01*
X12215420Y-13360174D02*
X12234468Y-13369698D01*
X12234468Y-13369698D02*
X12243991Y-13379222D01*
X12243991Y-13379222D02*
X12253515Y-13398269D01*
X12253515Y-13398269D02*
X12253515Y-13445888D01*
X12253515Y-13445888D02*
X12243991Y-13464936D01*
X12243991Y-13464936D02*
X12234468Y-13474460D01*
X12234468Y-13474460D02*
X12215420Y-13483984D01*
X12215420Y-13483984D02*
X12167801Y-13483984D01*
X12167801Y-13483984D02*
X12148753Y-13474460D01*
X12148753Y-13474460D02*
X12139229Y-13464936D01*
X12491610Y-13483984D02*
X12491610Y-13283984D01*
X12577325Y-13483984D02*
X12577325Y-13379222D01*
X12577325Y-13379222D02*
X12567801Y-13360174D01*
X12567801Y-13360174D02*
X12548753Y-13350650D01*
X12548753Y-13350650D02*
X12520182Y-13350650D01*
X12520182Y-13350650D02*
X12501134Y-13360174D01*
X12501134Y-13360174D02*
X12491610Y-13369698D01*
X12701134Y-13483984D02*
X12682087Y-13474460D01*
X12682087Y-13474460D02*
X12672563Y-13464936D01*
X12672563Y-13464936D02*
X12663039Y-13445888D01*
X12663039Y-13445888D02*
X12663039Y-13388746D01*
X12663039Y-13388746D02*
X12672563Y-13369698D01*
X12672563Y-13369698D02*
X12682087Y-13360174D01*
X12682087Y-13360174D02*
X12701134Y-13350650D01*
X12701134Y-13350650D02*
X12729706Y-13350650D01*
X12729706Y-13350650D02*
X12748753Y-13360174D01*
X12748753Y-13360174D02*
X12758277Y-13369698D01*
X12758277Y-13369698D02*
X12767801Y-13388746D01*
X12767801Y-13388746D02*
X12767801Y-13445888D01*
X12767801Y-13445888D02*
X12758277Y-13464936D01*
X12758277Y-13464936D02*
X12748753Y-13474460D01*
X12748753Y-13474460D02*
X12729706Y-13483984D01*
X12729706Y-13483984D02*
X12701134Y-13483984D01*
X12882087Y-13483984D02*
X12863039Y-13474460D01*
X12863039Y-13474460D02*
X12853515Y-13455412D01*
X12853515Y-13455412D02*
X12853515Y-13283984D01*
X13034468Y-13474460D02*
X13015420Y-13483984D01*
X13015420Y-13483984D02*
X12977325Y-13483984D01*
X12977325Y-13483984D02*
X12958277Y-13474460D01*
X12958277Y-13474460D02*
X12948753Y-13455412D01*
X12948753Y-13455412D02*
X12948753Y-13379222D01*
X12948753Y-13379222D02*
X12958277Y-13360174D01*
X12958277Y-13360174D02*
X12977325Y-13350650D01*
X12977325Y-13350650D02*
X13015420Y-13350650D01*
X13015420Y-13350650D02*
X13034468Y-13360174D01*
X13034468Y-13360174D02*
X13043991Y-13379222D01*
X13043991Y-13379222D02*
X13043991Y-13398269D01*
X13043991Y-13398269D02*
X12948753Y-13417317D01*
X13120182Y-13474460D02*
X13139230Y-13483984D01*
X13139230Y-13483984D02*
X13177325Y-13483984D01*
X13177325Y-13483984D02*
X13196372Y-13474460D01*
X13196372Y-13474460D02*
X13205896Y-13455412D01*
X13205896Y-13455412D02*
X13205896Y-13445888D01*
X13205896Y-13445888D02*
X13196372Y-13426841D01*
X13196372Y-13426841D02*
X13177325Y-13417317D01*
X13177325Y-13417317D02*
X13148753Y-13417317D01*
X13148753Y-13417317D02*
X13129706Y-13407793D01*
X13129706Y-13407793D02*
X13120182Y-13388746D01*
X13120182Y-13388746D02*
X13120182Y-13379222D01*
X13120182Y-13379222D02*
X13129706Y-13360174D01*
X13129706Y-13360174D02*
X13148753Y-13350650D01*
X13148753Y-13350650D02*
X13177325Y-13350650D01*
X13177325Y-13350650D02*
X13196372Y-13360174D01*
X13272563Y-13560174D02*
X13282087Y-13550650D01*
X13282087Y-13550650D02*
X13301134Y-13522079D01*
X13301134Y-13522079D02*
X13310658Y-13503031D01*
X13310658Y-13503031D02*
X13320182Y-13474460D01*
X13320182Y-13474460D02*
X13329706Y-13426841D01*
X13329706Y-13426841D02*
X13329706Y-13388746D01*
X13329706Y-13388746D02*
X13320182Y-13341127D01*
X13320182Y-13341127D02*
X13310658Y-13312555D01*
X13310658Y-13312555D02*
X13301134Y-13293508D01*
X13301134Y-13293508D02*
X13282087Y-13264936D01*
X13282087Y-13264936D02*
X13272563Y-13255412D01*
D12*
X8497500Y-13656500D02*
G75*
G02*
X8459400Y-13656500I-19050J0D01*
G01*
X8459400Y-13656500D02*
G75*
G02*
X8497500Y-13656500I19050J0D01*
G01*
D11*
X8796372Y-13547984D02*
X8815420Y-13547984D01*
X8815420Y-13547984D02*
X8834467Y-13557508D01*
X8834467Y-13557508D02*
X8843991Y-13567031D01*
X8843991Y-13567031D02*
X8853515Y-13586079D01*
X8853515Y-13586079D02*
X8863039Y-13624174D01*
X8863039Y-13624174D02*
X8863039Y-13671793D01*
X8863039Y-13671793D02*
X8853515Y-13709888D01*
X8853515Y-13709888D02*
X8843991Y-13728936D01*
X8843991Y-13728936D02*
X8834467Y-13738460D01*
X8834467Y-13738460D02*
X8815420Y-13747984D01*
X8815420Y-13747984D02*
X8796372Y-13747984D01*
X8796372Y-13747984D02*
X8777324Y-13738460D01*
X8777324Y-13738460D02*
X8767801Y-13728936D01*
X8767801Y-13728936D02*
X8758277Y-13709888D01*
X8758277Y-13709888D02*
X8748753Y-13671793D01*
X8748753Y-13671793D02*
X8748753Y-13624174D01*
X8748753Y-13624174D02*
X8758277Y-13586079D01*
X8758277Y-13586079D02*
X8767801Y-13567031D01*
X8767801Y-13567031D02*
X8777324Y-13557508D01*
X8777324Y-13557508D02*
X8796372Y-13547984D01*
X8948753Y-13728936D02*
X8958277Y-13738460D01*
X8958277Y-13738460D02*
X8948753Y-13747984D01*
X8948753Y-13747984D02*
X8939229Y-13738460D01*
X8939229Y-13738460D02*
X8948753Y-13728936D01*
X8948753Y-13728936D02*
X8948753Y-13747984D01*
X9024944Y-13547984D02*
X9148753Y-13547984D01*
X9148753Y-13547984D02*
X9082086Y-13624174D01*
X9082086Y-13624174D02*
X9110658Y-13624174D01*
X9110658Y-13624174D02*
X9129705Y-13633698D01*
X9129705Y-13633698D02*
X9139229Y-13643222D01*
X9139229Y-13643222D02*
X9148753Y-13662269D01*
X9148753Y-13662269D02*
X9148753Y-13709888D01*
X9148753Y-13709888D02*
X9139229Y-13728936D01*
X9139229Y-13728936D02*
X9129705Y-13738460D01*
X9129705Y-13738460D02*
X9110658Y-13747984D01*
X9110658Y-13747984D02*
X9053515Y-13747984D01*
X9053515Y-13747984D02*
X9034467Y-13738460D01*
X9034467Y-13738460D02*
X9024944Y-13728936D01*
X9263039Y-13633698D02*
X9243991Y-13624174D01*
X9243991Y-13624174D02*
X9234467Y-13614650D01*
X9234467Y-13614650D02*
X9224944Y-13595603D01*
X9224944Y-13595603D02*
X9224944Y-13586079D01*
X9224944Y-13586079D02*
X9234467Y-13567031D01*
X9234467Y-13567031D02*
X9243991Y-13557508D01*
X9243991Y-13557508D02*
X9263039Y-13547984D01*
X9263039Y-13547984D02*
X9301134Y-13547984D01*
X9301134Y-13547984D02*
X9320182Y-13557508D01*
X9320182Y-13557508D02*
X9329705Y-13567031D01*
X9329705Y-13567031D02*
X9339229Y-13586079D01*
X9339229Y-13586079D02*
X9339229Y-13595603D01*
X9339229Y-13595603D02*
X9329705Y-13614650D01*
X9329705Y-13614650D02*
X9320182Y-13624174D01*
X9320182Y-13624174D02*
X9301134Y-13633698D01*
X9301134Y-13633698D02*
X9263039Y-13633698D01*
X9263039Y-13633698D02*
X9243991Y-13643222D01*
X9243991Y-13643222D02*
X9234467Y-13652746D01*
X9234467Y-13652746D02*
X9224944Y-13671793D01*
X9224944Y-13671793D02*
X9224944Y-13709888D01*
X9224944Y-13709888D02*
X9234467Y-13728936D01*
X9234467Y-13728936D02*
X9243991Y-13738460D01*
X9243991Y-13738460D02*
X9263039Y-13747984D01*
X9263039Y-13747984D02*
X9301134Y-13747984D01*
X9301134Y-13747984D02*
X9320182Y-13738460D01*
X9320182Y-13738460D02*
X9329705Y-13728936D01*
X9329705Y-13728936D02*
X9339229Y-13709888D01*
X9339229Y-13709888D02*
X9339229Y-13671793D01*
X9339229Y-13671793D02*
X9329705Y-13652746D01*
X9329705Y-13652746D02*
X9320182Y-13643222D01*
X9320182Y-13643222D02*
X9301134Y-13633698D01*
X9529705Y-13747984D02*
X9415420Y-13747984D01*
X9472563Y-13747984D02*
X9472563Y-13547984D01*
X9472563Y-13547984D02*
X9453515Y-13576555D01*
X9453515Y-13576555D02*
X9434467Y-13595603D01*
X9434467Y-13595603D02*
X9415420Y-13605127D01*
X9615420Y-13747984D02*
X9615420Y-13614650D01*
X9615420Y-13633698D02*
X9624944Y-13624174D01*
X9624944Y-13624174D02*
X9643991Y-13614650D01*
X9643991Y-13614650D02*
X9672563Y-13614650D01*
X9672563Y-13614650D02*
X9691610Y-13624174D01*
X9691610Y-13624174D02*
X9701134Y-13643222D01*
X9701134Y-13643222D02*
X9701134Y-13747984D01*
X9701134Y-13643222D02*
X9710658Y-13624174D01*
X9710658Y-13624174D02*
X9729705Y-13614650D01*
X9729705Y-13614650D02*
X9758277Y-13614650D01*
X9758277Y-13614650D02*
X9777325Y-13624174D01*
X9777325Y-13624174D02*
X9786848Y-13643222D01*
X9786848Y-13643222D02*
X9786848Y-13747984D01*
X9882086Y-13747984D02*
X9882086Y-13614650D01*
X9882086Y-13633698D02*
X9891610Y-13624174D01*
X9891610Y-13624174D02*
X9910658Y-13614650D01*
X9910658Y-13614650D02*
X9939229Y-13614650D01*
X9939229Y-13614650D02*
X9958277Y-13624174D01*
X9958277Y-13624174D02*
X9967801Y-13643222D01*
X9967801Y-13643222D02*
X9967801Y-13747984D01*
X9967801Y-13643222D02*
X9977325Y-13624174D01*
X9977325Y-13624174D02*
X9996372Y-13614650D01*
X9996372Y-13614650D02*
X10024944Y-13614650D01*
X10024944Y-13614650D02*
X10043991Y-13624174D01*
X10043991Y-13624174D02*
X10053515Y-13643222D01*
X10053515Y-13643222D02*
X10053515Y-13747984D01*
X10443991Y-13538460D02*
X10272563Y-13795603D01*
X10701134Y-13547984D02*
X10720182Y-13547984D01*
X10720182Y-13547984D02*
X10739229Y-13557508D01*
X10739229Y-13557508D02*
X10748753Y-13567031D01*
X10748753Y-13567031D02*
X10758277Y-13586079D01*
X10758277Y-13586079D02*
X10767801Y-13624174D01*
X10767801Y-13624174D02*
X10767801Y-13671793D01*
X10767801Y-13671793D02*
X10758277Y-13709888D01*
X10758277Y-13709888D02*
X10748753Y-13728936D01*
X10748753Y-13728936D02*
X10739229Y-13738460D01*
X10739229Y-13738460D02*
X10720182Y-13747984D01*
X10720182Y-13747984D02*
X10701134Y-13747984D01*
X10701134Y-13747984D02*
X10682087Y-13738460D01*
X10682087Y-13738460D02*
X10672563Y-13728936D01*
X10672563Y-13728936D02*
X10663039Y-13709888D01*
X10663039Y-13709888D02*
X10653515Y-13671793D01*
X10653515Y-13671793D02*
X10653515Y-13624174D01*
X10653515Y-13624174D02*
X10663039Y-13586079D01*
X10663039Y-13586079D02*
X10672563Y-13567031D01*
X10672563Y-13567031D02*
X10682087Y-13557508D01*
X10682087Y-13557508D02*
X10701134Y-13547984D01*
X10853515Y-13728936D02*
X10863039Y-13738460D01*
X10863039Y-13738460D02*
X10853515Y-13747984D01*
X10853515Y-13747984D02*
X10843991Y-13738460D01*
X10843991Y-13738460D02*
X10853515Y-13728936D01*
X10853515Y-13728936D02*
X10853515Y-13747984D01*
X10986848Y-13547984D02*
X11005896Y-13547984D01*
X11005896Y-13547984D02*
X11024944Y-13557508D01*
X11024944Y-13557508D02*
X11034468Y-13567031D01*
X11034468Y-13567031D02*
X11043991Y-13586079D01*
X11043991Y-13586079D02*
X11053515Y-13624174D01*
X11053515Y-13624174D02*
X11053515Y-13671793D01*
X11053515Y-13671793D02*
X11043991Y-13709888D01*
X11043991Y-13709888D02*
X11034468Y-13728936D01*
X11034468Y-13728936D02*
X11024944Y-13738460D01*
X11024944Y-13738460D02*
X11005896Y-13747984D01*
X11005896Y-13747984D02*
X10986848Y-13747984D01*
X10986848Y-13747984D02*
X10967801Y-13738460D01*
X10967801Y-13738460D02*
X10958277Y-13728936D01*
X10958277Y-13728936D02*
X10948753Y-13709888D01*
X10948753Y-13709888D02*
X10939229Y-13671793D01*
X10939229Y-13671793D02*
X10939229Y-13624174D01*
X10939229Y-13624174D02*
X10948753Y-13586079D01*
X10948753Y-13586079D02*
X10958277Y-13567031D01*
X10958277Y-13567031D02*
X10967801Y-13557508D01*
X10967801Y-13557508D02*
X10986848Y-13547984D01*
X11243991Y-13747984D02*
X11129706Y-13747984D01*
X11186848Y-13747984D02*
X11186848Y-13547984D01*
X11186848Y-13547984D02*
X11167801Y-13576555D01*
X11167801Y-13576555D02*
X11148753Y-13595603D01*
X11148753Y-13595603D02*
X11129706Y-13605127D01*
X11424944Y-13547984D02*
X11329706Y-13547984D01*
X11329706Y-13547984D02*
X11320182Y-13643222D01*
X11320182Y-13643222D02*
X11329706Y-13633698D01*
X11329706Y-13633698D02*
X11348753Y-13624174D01*
X11348753Y-13624174D02*
X11396372Y-13624174D01*
X11396372Y-13624174D02*
X11415420Y-13633698D01*
X11415420Y-13633698D02*
X11424944Y-13643222D01*
X11424944Y-13643222D02*
X11434467Y-13662269D01*
X11434467Y-13662269D02*
X11434467Y-13709888D01*
X11434467Y-13709888D02*
X11424944Y-13728936D01*
X11424944Y-13728936D02*
X11415420Y-13738460D01*
X11415420Y-13738460D02*
X11396372Y-13747984D01*
X11396372Y-13747984D02*
X11348753Y-13747984D01*
X11348753Y-13747984D02*
X11329706Y-13738460D01*
X11329706Y-13738460D02*
X11320182Y-13728936D01*
X11558277Y-13547984D02*
X11577325Y-13547984D01*
X11577325Y-13547984D02*
X11596372Y-13557508D01*
X11596372Y-13557508D02*
X11605896Y-13567031D01*
X11605896Y-13567031D02*
X11615420Y-13586079D01*
X11615420Y-13586079D02*
X11624944Y-13624174D01*
X11624944Y-13624174D02*
X11624944Y-13671793D01*
X11624944Y-13671793D02*
X11615420Y-13709888D01*
X11615420Y-13709888D02*
X11605896Y-13728936D01*
X11605896Y-13728936D02*
X11596372Y-13738460D01*
X11596372Y-13738460D02*
X11577325Y-13747984D01*
X11577325Y-13747984D02*
X11558277Y-13747984D01*
X11558277Y-13747984D02*
X11539229Y-13738460D01*
X11539229Y-13738460D02*
X11529706Y-13728936D01*
X11529706Y-13728936D02*
X11520182Y-13709888D01*
X11520182Y-13709888D02*
X11510658Y-13671793D01*
X11510658Y-13671793D02*
X11510658Y-13624174D01*
X11510658Y-13624174D02*
X11520182Y-13586079D01*
X11520182Y-13586079D02*
X11529706Y-13567031D01*
X11529706Y-13567031D02*
X11539229Y-13557508D01*
X11539229Y-13557508D02*
X11558277Y-13547984D01*
X11701134Y-13547984D02*
X11701134Y-13586079D01*
X11777325Y-13547984D02*
X11777325Y-13586079D01*
X12072563Y-13824174D02*
X12063039Y-13814650D01*
X12063039Y-13814650D02*
X12043991Y-13786079D01*
X12043991Y-13786079D02*
X12034468Y-13767031D01*
X12034468Y-13767031D02*
X12024944Y-13738460D01*
X12024944Y-13738460D02*
X12015420Y-13690841D01*
X12015420Y-13690841D02*
X12015420Y-13652746D01*
X12015420Y-13652746D02*
X12024944Y-13605127D01*
X12024944Y-13605127D02*
X12034468Y-13576555D01*
X12034468Y-13576555D02*
X12043991Y-13557508D01*
X12043991Y-13557508D02*
X12063039Y-13528936D01*
X12063039Y-13528936D02*
X12072563Y-13519412D01*
X12139229Y-13567031D02*
X12148753Y-13557508D01*
X12148753Y-13557508D02*
X12167801Y-13547984D01*
X12167801Y-13547984D02*
X12215420Y-13547984D01*
X12215420Y-13547984D02*
X12234468Y-13557508D01*
X12234468Y-13557508D02*
X12243991Y-13567031D01*
X12243991Y-13567031D02*
X12253515Y-13586079D01*
X12253515Y-13586079D02*
X12253515Y-13605127D01*
X12253515Y-13605127D02*
X12243991Y-13633698D01*
X12243991Y-13633698D02*
X12129706Y-13747984D01*
X12129706Y-13747984D02*
X12253515Y-13747984D01*
X12320182Y-13547984D02*
X12443991Y-13547984D01*
X12443991Y-13547984D02*
X12377325Y-13624174D01*
X12377325Y-13624174D02*
X12405896Y-13624174D01*
X12405896Y-13624174D02*
X12424944Y-13633698D01*
X12424944Y-13633698D02*
X12434468Y-13643222D01*
X12434468Y-13643222D02*
X12443991Y-13662269D01*
X12443991Y-13662269D02*
X12443991Y-13709888D01*
X12443991Y-13709888D02*
X12434468Y-13728936D01*
X12434468Y-13728936D02*
X12424944Y-13738460D01*
X12424944Y-13738460D02*
X12405896Y-13747984D01*
X12405896Y-13747984D02*
X12348753Y-13747984D01*
X12348753Y-13747984D02*
X12329706Y-13738460D01*
X12329706Y-13738460D02*
X12320182Y-13728936D01*
X12682087Y-13747984D02*
X12682087Y-13547984D01*
X12767801Y-13747984D02*
X12767801Y-13643222D01*
X12767801Y-13643222D02*
X12758277Y-13624174D01*
X12758277Y-13624174D02*
X12739230Y-13614650D01*
X12739230Y-13614650D02*
X12710658Y-13614650D01*
X12710658Y-13614650D02*
X12691610Y-13624174D01*
X12691610Y-13624174D02*
X12682087Y-13633698D01*
X12891610Y-13747984D02*
X12872563Y-13738460D01*
X12872563Y-13738460D02*
X12863039Y-13728936D01*
X12863039Y-13728936D02*
X12853515Y-13709888D01*
X12853515Y-13709888D02*
X12853515Y-13652746D01*
X12853515Y-13652746D02*
X12863039Y-13633698D01*
X12863039Y-13633698D02*
X12872563Y-13624174D01*
X12872563Y-13624174D02*
X12891610Y-13614650D01*
X12891610Y-13614650D02*
X12920182Y-13614650D01*
X12920182Y-13614650D02*
X12939230Y-13624174D01*
X12939230Y-13624174D02*
X12948753Y-13633698D01*
X12948753Y-13633698D02*
X12958277Y-13652746D01*
X12958277Y-13652746D02*
X12958277Y-13709888D01*
X12958277Y-13709888D02*
X12948753Y-13728936D01*
X12948753Y-13728936D02*
X12939230Y-13738460D01*
X12939230Y-13738460D02*
X12920182Y-13747984D01*
X12920182Y-13747984D02*
X12891610Y-13747984D01*
X13072563Y-13747984D02*
X13053515Y-13738460D01*
X13053515Y-13738460D02*
X13043991Y-13719412D01*
X13043991Y-13719412D02*
X13043991Y-13547984D01*
X13224944Y-13738460D02*
X13205896Y-13747984D01*
X13205896Y-13747984D02*
X13167801Y-13747984D01*
X13167801Y-13747984D02*
X13148753Y-13738460D01*
X13148753Y-13738460D02*
X13139230Y-13719412D01*
X13139230Y-13719412D02*
X13139230Y-13643222D01*
X13139230Y-13643222D02*
X13148753Y-13624174D01*
X13148753Y-13624174D02*
X13167801Y-13614650D01*
X13167801Y-13614650D02*
X13205896Y-13614650D01*
X13205896Y-13614650D02*
X13224944Y-13624174D01*
X13224944Y-13624174D02*
X13234468Y-13643222D01*
X13234468Y-13643222D02*
X13234468Y-13662269D01*
X13234468Y-13662269D02*
X13139230Y-13681317D01*
X13310658Y-13738460D02*
X13329706Y-13747984D01*
X13329706Y-13747984D02*
X13367801Y-13747984D01*
X13367801Y-13747984D02*
X13386849Y-13738460D01*
X13386849Y-13738460D02*
X13396372Y-13719412D01*
X13396372Y-13719412D02*
X13396372Y-13709888D01*
X13396372Y-13709888D02*
X13386849Y-13690841D01*
X13386849Y-13690841D02*
X13367801Y-13681317D01*
X13367801Y-13681317D02*
X13339230Y-13681317D01*
X13339230Y-13681317D02*
X13320182Y-13671793D01*
X13320182Y-13671793D02*
X13310658Y-13652746D01*
X13310658Y-13652746D02*
X13310658Y-13643222D01*
X13310658Y-13643222D02*
X13320182Y-13624174D01*
X13320182Y-13624174D02*
X13339230Y-13614650D01*
X13339230Y-13614650D02*
X13367801Y-13614650D01*
X13367801Y-13614650D02*
X13386849Y-13624174D01*
X13463039Y-13824174D02*
X13472563Y-13814650D01*
X13472563Y-13814650D02*
X13491611Y-13786079D01*
X13491611Y-13786079D02*
X13501134Y-13767031D01*
X13501134Y-13767031D02*
X13510658Y-13738460D01*
X13510658Y-13738460D02*
X13520182Y-13690841D01*
X13520182Y-13690841D02*
X13520182Y-13652746D01*
X13520182Y-13652746D02*
X13510658Y-13605127D01*
X13510658Y-13605127D02*
X13501134Y-13576555D01*
X13501134Y-13576555D02*
X13491611Y-13557508D01*
X13491611Y-13557508D02*
X13472563Y-13528936D01*
X13472563Y-13528936D02*
X13463039Y-13519412D01*
D12*
X8472100Y-13895100D02*
X8472100Y-13945900D01*
X8446700Y-13920500D02*
X8497500Y-13920500D01*
D11*
X8796372Y-13811984D02*
X8815420Y-13811984D01*
X8815420Y-13811984D02*
X8834467Y-13821508D01*
X8834467Y-13821508D02*
X8843991Y-13831031D01*
X8843991Y-13831031D02*
X8853515Y-13850079D01*
X8853515Y-13850079D02*
X8863039Y-13888174D01*
X8863039Y-13888174D02*
X8863039Y-13935793D01*
X8863039Y-13935793D02*
X8853515Y-13973888D01*
X8853515Y-13973888D02*
X8843991Y-13992936D01*
X8843991Y-13992936D02*
X8834467Y-14002460D01*
X8834467Y-14002460D02*
X8815420Y-14011984D01*
X8815420Y-14011984D02*
X8796372Y-14011984D01*
X8796372Y-14011984D02*
X8777324Y-14002460D01*
X8777324Y-14002460D02*
X8767801Y-13992936D01*
X8767801Y-13992936D02*
X8758277Y-13973888D01*
X8758277Y-13973888D02*
X8748753Y-13935793D01*
X8748753Y-13935793D02*
X8748753Y-13888174D01*
X8748753Y-13888174D02*
X8758277Y-13850079D01*
X8758277Y-13850079D02*
X8767801Y-13831031D01*
X8767801Y-13831031D02*
X8777324Y-13821508D01*
X8777324Y-13821508D02*
X8796372Y-13811984D01*
X8948753Y-13992936D02*
X8958277Y-14002460D01*
X8958277Y-14002460D02*
X8948753Y-14011984D01*
X8948753Y-14011984D02*
X8939229Y-14002460D01*
X8939229Y-14002460D02*
X8948753Y-13992936D01*
X8948753Y-13992936D02*
X8948753Y-14011984D01*
X9139229Y-13811984D02*
X9043991Y-13811984D01*
X9043991Y-13811984D02*
X9034467Y-13907222D01*
X9034467Y-13907222D02*
X9043991Y-13897698D01*
X9043991Y-13897698D02*
X9063039Y-13888174D01*
X9063039Y-13888174D02*
X9110658Y-13888174D01*
X9110658Y-13888174D02*
X9129705Y-13897698D01*
X9129705Y-13897698D02*
X9139229Y-13907222D01*
X9139229Y-13907222D02*
X9148753Y-13926269D01*
X9148753Y-13926269D02*
X9148753Y-13973888D01*
X9148753Y-13973888D02*
X9139229Y-13992936D01*
X9139229Y-13992936D02*
X9129705Y-14002460D01*
X9129705Y-14002460D02*
X9110658Y-14011984D01*
X9110658Y-14011984D02*
X9063039Y-14011984D01*
X9063039Y-14011984D02*
X9043991Y-14002460D01*
X9043991Y-14002460D02*
X9034467Y-13992936D01*
X9272563Y-13811984D02*
X9291610Y-13811984D01*
X9291610Y-13811984D02*
X9310658Y-13821508D01*
X9310658Y-13821508D02*
X9320182Y-13831031D01*
X9320182Y-13831031D02*
X9329705Y-13850079D01*
X9329705Y-13850079D02*
X9339229Y-13888174D01*
X9339229Y-13888174D02*
X9339229Y-13935793D01*
X9339229Y-13935793D02*
X9329705Y-13973888D01*
X9329705Y-13973888D02*
X9320182Y-13992936D01*
X9320182Y-13992936D02*
X9310658Y-14002460D01*
X9310658Y-14002460D02*
X9291610Y-14011984D01*
X9291610Y-14011984D02*
X9272563Y-14011984D01*
X9272563Y-14011984D02*
X9253515Y-14002460D01*
X9253515Y-14002460D02*
X9243991Y-13992936D01*
X9243991Y-13992936D02*
X9234467Y-13973888D01*
X9234467Y-13973888D02*
X9224944Y-13935793D01*
X9224944Y-13935793D02*
X9224944Y-13888174D01*
X9224944Y-13888174D02*
X9234467Y-13850079D01*
X9234467Y-13850079D02*
X9243991Y-13831031D01*
X9243991Y-13831031D02*
X9253515Y-13821508D01*
X9253515Y-13821508D02*
X9272563Y-13811984D01*
X9453515Y-13897698D02*
X9434467Y-13888174D01*
X9434467Y-13888174D02*
X9424944Y-13878650D01*
X9424944Y-13878650D02*
X9415420Y-13859603D01*
X9415420Y-13859603D02*
X9415420Y-13850079D01*
X9415420Y-13850079D02*
X9424944Y-13831031D01*
X9424944Y-13831031D02*
X9434467Y-13821508D01*
X9434467Y-13821508D02*
X9453515Y-13811984D01*
X9453515Y-13811984D02*
X9491610Y-13811984D01*
X9491610Y-13811984D02*
X9510658Y-13821508D01*
X9510658Y-13821508D02*
X9520182Y-13831031D01*
X9520182Y-13831031D02*
X9529705Y-13850079D01*
X9529705Y-13850079D02*
X9529705Y-13859603D01*
X9529705Y-13859603D02*
X9520182Y-13878650D01*
X9520182Y-13878650D02*
X9510658Y-13888174D01*
X9510658Y-13888174D02*
X9491610Y-13897698D01*
X9491610Y-13897698D02*
X9453515Y-13897698D01*
X9453515Y-13897698D02*
X9434467Y-13907222D01*
X9434467Y-13907222D02*
X9424944Y-13916746D01*
X9424944Y-13916746D02*
X9415420Y-13935793D01*
X9415420Y-13935793D02*
X9415420Y-13973888D01*
X9415420Y-13973888D02*
X9424944Y-13992936D01*
X9424944Y-13992936D02*
X9434467Y-14002460D01*
X9434467Y-14002460D02*
X9453515Y-14011984D01*
X9453515Y-14011984D02*
X9491610Y-14011984D01*
X9491610Y-14011984D02*
X9510658Y-14002460D01*
X9510658Y-14002460D02*
X9520182Y-13992936D01*
X9520182Y-13992936D02*
X9529705Y-13973888D01*
X9529705Y-13973888D02*
X9529705Y-13935793D01*
X9529705Y-13935793D02*
X9520182Y-13916746D01*
X9520182Y-13916746D02*
X9510658Y-13907222D01*
X9510658Y-13907222D02*
X9491610Y-13897698D01*
X9615420Y-14011984D02*
X9615420Y-13878650D01*
X9615420Y-13897698D02*
X9624944Y-13888174D01*
X9624944Y-13888174D02*
X9643991Y-13878650D01*
X9643991Y-13878650D02*
X9672563Y-13878650D01*
X9672563Y-13878650D02*
X9691610Y-13888174D01*
X9691610Y-13888174D02*
X9701134Y-13907222D01*
X9701134Y-13907222D02*
X9701134Y-14011984D01*
X9701134Y-13907222D02*
X9710658Y-13888174D01*
X9710658Y-13888174D02*
X9729705Y-13878650D01*
X9729705Y-13878650D02*
X9758277Y-13878650D01*
X9758277Y-13878650D02*
X9777325Y-13888174D01*
X9777325Y-13888174D02*
X9786848Y-13907222D01*
X9786848Y-13907222D02*
X9786848Y-14011984D01*
X9882086Y-14011984D02*
X9882086Y-13878650D01*
X9882086Y-13897698D02*
X9891610Y-13888174D01*
X9891610Y-13888174D02*
X9910658Y-13878650D01*
X9910658Y-13878650D02*
X9939229Y-13878650D01*
X9939229Y-13878650D02*
X9958277Y-13888174D01*
X9958277Y-13888174D02*
X9967801Y-13907222D01*
X9967801Y-13907222D02*
X9967801Y-14011984D01*
X9967801Y-13907222D02*
X9977325Y-13888174D01*
X9977325Y-13888174D02*
X9996372Y-13878650D01*
X9996372Y-13878650D02*
X10024944Y-13878650D01*
X10024944Y-13878650D02*
X10043991Y-13888174D01*
X10043991Y-13888174D02*
X10053515Y-13907222D01*
X10053515Y-13907222D02*
X10053515Y-14011984D01*
X10443991Y-13802460D02*
X10272563Y-14059603D01*
X10701134Y-13811984D02*
X10720182Y-13811984D01*
X10720182Y-13811984D02*
X10739229Y-13821508D01*
X10739229Y-13821508D02*
X10748753Y-13831031D01*
X10748753Y-13831031D02*
X10758277Y-13850079D01*
X10758277Y-13850079D02*
X10767801Y-13888174D01*
X10767801Y-13888174D02*
X10767801Y-13935793D01*
X10767801Y-13935793D02*
X10758277Y-13973888D01*
X10758277Y-13973888D02*
X10748753Y-13992936D01*
X10748753Y-13992936D02*
X10739229Y-14002460D01*
X10739229Y-14002460D02*
X10720182Y-14011984D01*
X10720182Y-14011984D02*
X10701134Y-14011984D01*
X10701134Y-14011984D02*
X10682087Y-14002460D01*
X10682087Y-14002460D02*
X10672563Y-13992936D01*
X10672563Y-13992936D02*
X10663039Y-13973888D01*
X10663039Y-13973888D02*
X10653515Y-13935793D01*
X10653515Y-13935793D02*
X10653515Y-13888174D01*
X10653515Y-13888174D02*
X10663039Y-13850079D01*
X10663039Y-13850079D02*
X10672563Y-13831031D01*
X10672563Y-13831031D02*
X10682087Y-13821508D01*
X10682087Y-13821508D02*
X10701134Y-13811984D01*
X10853515Y-13992936D02*
X10863039Y-14002460D01*
X10863039Y-14002460D02*
X10853515Y-14011984D01*
X10853515Y-14011984D02*
X10843991Y-14002460D01*
X10843991Y-14002460D02*
X10853515Y-13992936D01*
X10853515Y-13992936D02*
X10853515Y-14011984D01*
X10986848Y-13811984D02*
X11005896Y-13811984D01*
X11005896Y-13811984D02*
X11024944Y-13821508D01*
X11024944Y-13821508D02*
X11034468Y-13831031D01*
X11034468Y-13831031D02*
X11043991Y-13850079D01*
X11043991Y-13850079D02*
X11053515Y-13888174D01*
X11053515Y-13888174D02*
X11053515Y-13935793D01*
X11053515Y-13935793D02*
X11043991Y-13973888D01*
X11043991Y-13973888D02*
X11034468Y-13992936D01*
X11034468Y-13992936D02*
X11024944Y-14002460D01*
X11024944Y-14002460D02*
X11005896Y-14011984D01*
X11005896Y-14011984D02*
X10986848Y-14011984D01*
X10986848Y-14011984D02*
X10967801Y-14002460D01*
X10967801Y-14002460D02*
X10958277Y-13992936D01*
X10958277Y-13992936D02*
X10948753Y-13973888D01*
X10948753Y-13973888D02*
X10939229Y-13935793D01*
X10939229Y-13935793D02*
X10939229Y-13888174D01*
X10939229Y-13888174D02*
X10948753Y-13850079D01*
X10948753Y-13850079D02*
X10958277Y-13831031D01*
X10958277Y-13831031D02*
X10967801Y-13821508D01*
X10967801Y-13821508D02*
X10986848Y-13811984D01*
X11129706Y-13831031D02*
X11139229Y-13821508D01*
X11139229Y-13821508D02*
X11158277Y-13811984D01*
X11158277Y-13811984D02*
X11205896Y-13811984D01*
X11205896Y-13811984D02*
X11224944Y-13821508D01*
X11224944Y-13821508D02*
X11234467Y-13831031D01*
X11234467Y-13831031D02*
X11243991Y-13850079D01*
X11243991Y-13850079D02*
X11243991Y-13869127D01*
X11243991Y-13869127D02*
X11234467Y-13897698D01*
X11234467Y-13897698D02*
X11120182Y-14011984D01*
X11120182Y-14011984D02*
X11243991Y-14011984D01*
X11367801Y-13811984D02*
X11386848Y-13811984D01*
X11386848Y-13811984D02*
X11405896Y-13821508D01*
X11405896Y-13821508D02*
X11415420Y-13831031D01*
X11415420Y-13831031D02*
X11424944Y-13850079D01*
X11424944Y-13850079D02*
X11434467Y-13888174D01*
X11434467Y-13888174D02*
X11434467Y-13935793D01*
X11434467Y-13935793D02*
X11424944Y-13973888D01*
X11424944Y-13973888D02*
X11415420Y-13992936D01*
X11415420Y-13992936D02*
X11405896Y-14002460D01*
X11405896Y-14002460D02*
X11386848Y-14011984D01*
X11386848Y-14011984D02*
X11367801Y-14011984D01*
X11367801Y-14011984D02*
X11348753Y-14002460D01*
X11348753Y-14002460D02*
X11339229Y-13992936D01*
X11339229Y-13992936D02*
X11329706Y-13973888D01*
X11329706Y-13973888D02*
X11320182Y-13935793D01*
X11320182Y-13935793D02*
X11320182Y-13888174D01*
X11320182Y-13888174D02*
X11329706Y-13850079D01*
X11329706Y-13850079D02*
X11339229Y-13831031D01*
X11339229Y-13831031D02*
X11348753Y-13821508D01*
X11348753Y-13821508D02*
X11367801Y-13811984D01*
X11558277Y-13811984D02*
X11577325Y-13811984D01*
X11577325Y-13811984D02*
X11596372Y-13821508D01*
X11596372Y-13821508D02*
X11605896Y-13831031D01*
X11605896Y-13831031D02*
X11615420Y-13850079D01*
X11615420Y-13850079D02*
X11624944Y-13888174D01*
X11624944Y-13888174D02*
X11624944Y-13935793D01*
X11624944Y-13935793D02*
X11615420Y-13973888D01*
X11615420Y-13973888D02*
X11605896Y-13992936D01*
X11605896Y-13992936D02*
X11596372Y-14002460D01*
X11596372Y-14002460D02*
X11577325Y-14011984D01*
X11577325Y-14011984D02*
X11558277Y-14011984D01*
X11558277Y-14011984D02*
X11539229Y-14002460D01*
X11539229Y-14002460D02*
X11529706Y-13992936D01*
X11529706Y-13992936D02*
X11520182Y-13973888D01*
X11520182Y-13973888D02*
X11510658Y-13935793D01*
X11510658Y-13935793D02*
X11510658Y-13888174D01*
X11510658Y-13888174D02*
X11520182Y-13850079D01*
X11520182Y-13850079D02*
X11529706Y-13831031D01*
X11529706Y-13831031D02*
X11539229Y-13821508D01*
X11539229Y-13821508D02*
X11558277Y-13811984D01*
X11701134Y-13811984D02*
X11701134Y-13850079D01*
X11777325Y-13811984D02*
X11777325Y-13850079D01*
X12072563Y-14088174D02*
X12063039Y-14078650D01*
X12063039Y-14078650D02*
X12043991Y-14050079D01*
X12043991Y-14050079D02*
X12034468Y-14031031D01*
X12034468Y-14031031D02*
X12024944Y-14002460D01*
X12024944Y-14002460D02*
X12015420Y-13954841D01*
X12015420Y-13954841D02*
X12015420Y-13916746D01*
X12015420Y-13916746D02*
X12024944Y-13869127D01*
X12024944Y-13869127D02*
X12034468Y-13840555D01*
X12034468Y-13840555D02*
X12043991Y-13821508D01*
X12043991Y-13821508D02*
X12063039Y-13792936D01*
X12063039Y-13792936D02*
X12072563Y-13783412D01*
X12253515Y-14011984D02*
X12139229Y-14011984D01*
X12196372Y-14011984D02*
X12196372Y-13811984D01*
X12196372Y-13811984D02*
X12177325Y-13840555D01*
X12177325Y-13840555D02*
X12158277Y-13859603D01*
X12158277Y-13859603D02*
X12139229Y-13869127D01*
X12424944Y-13878650D02*
X12424944Y-14011984D01*
X12377325Y-13802460D02*
X12329706Y-13945317D01*
X12329706Y-13945317D02*
X12453515Y-13945317D01*
X12682087Y-14011984D02*
X12682087Y-13811984D01*
X12767801Y-14011984D02*
X12767801Y-13907222D01*
X12767801Y-13907222D02*
X12758277Y-13888174D01*
X12758277Y-13888174D02*
X12739230Y-13878650D01*
X12739230Y-13878650D02*
X12710658Y-13878650D01*
X12710658Y-13878650D02*
X12691610Y-13888174D01*
X12691610Y-13888174D02*
X12682087Y-13897698D01*
X12891610Y-14011984D02*
X12872563Y-14002460D01*
X12872563Y-14002460D02*
X12863039Y-13992936D01*
X12863039Y-13992936D02*
X12853515Y-13973888D01*
X12853515Y-13973888D02*
X12853515Y-13916746D01*
X12853515Y-13916746D02*
X12863039Y-13897698D01*
X12863039Y-13897698D02*
X12872563Y-13888174D01*
X12872563Y-13888174D02*
X12891610Y-13878650D01*
X12891610Y-13878650D02*
X12920182Y-13878650D01*
X12920182Y-13878650D02*
X12939230Y-13888174D01*
X12939230Y-13888174D02*
X12948753Y-13897698D01*
X12948753Y-13897698D02*
X12958277Y-13916746D01*
X12958277Y-13916746D02*
X12958277Y-13973888D01*
X12958277Y-13973888D02*
X12948753Y-13992936D01*
X12948753Y-13992936D02*
X12939230Y-14002460D01*
X12939230Y-14002460D02*
X12920182Y-14011984D01*
X12920182Y-14011984D02*
X12891610Y-14011984D01*
X13072563Y-14011984D02*
X13053515Y-14002460D01*
X13053515Y-14002460D02*
X13043991Y-13983412D01*
X13043991Y-13983412D02*
X13043991Y-13811984D01*
X13224944Y-14002460D02*
X13205896Y-14011984D01*
X13205896Y-14011984D02*
X13167801Y-14011984D01*
X13167801Y-14011984D02*
X13148753Y-14002460D01*
X13148753Y-14002460D02*
X13139230Y-13983412D01*
X13139230Y-13983412D02*
X13139230Y-13907222D01*
X13139230Y-13907222D02*
X13148753Y-13888174D01*
X13148753Y-13888174D02*
X13167801Y-13878650D01*
X13167801Y-13878650D02*
X13205896Y-13878650D01*
X13205896Y-13878650D02*
X13224944Y-13888174D01*
X13224944Y-13888174D02*
X13234468Y-13907222D01*
X13234468Y-13907222D02*
X13234468Y-13926269D01*
X13234468Y-13926269D02*
X13139230Y-13945317D01*
X13310658Y-14002460D02*
X13329706Y-14011984D01*
X13329706Y-14011984D02*
X13367801Y-14011984D01*
X13367801Y-14011984D02*
X13386849Y-14002460D01*
X13386849Y-14002460D02*
X13396372Y-13983412D01*
X13396372Y-13983412D02*
X13396372Y-13973888D01*
X13396372Y-13973888D02*
X13386849Y-13954841D01*
X13386849Y-13954841D02*
X13367801Y-13945317D01*
X13367801Y-13945317D02*
X13339230Y-13945317D01*
X13339230Y-13945317D02*
X13320182Y-13935793D01*
X13320182Y-13935793D02*
X13310658Y-13916746D01*
X13310658Y-13916746D02*
X13310658Y-13907222D01*
X13310658Y-13907222D02*
X13320182Y-13888174D01*
X13320182Y-13888174D02*
X13339230Y-13878650D01*
X13339230Y-13878650D02*
X13367801Y-13878650D01*
X13367801Y-13878650D02*
X13386849Y-13888174D01*
X13463039Y-14088174D02*
X13472563Y-14078650D01*
X13472563Y-14078650D02*
X13491611Y-14050079D01*
X13491611Y-14050079D02*
X13501134Y-14031031D01*
X13501134Y-14031031D02*
X13510658Y-14002460D01*
X13510658Y-14002460D02*
X13520182Y-13954841D01*
X13520182Y-13954841D02*
X13520182Y-13916746D01*
X13520182Y-13916746D02*
X13510658Y-13869127D01*
X13510658Y-13869127D02*
X13501134Y-13840555D01*
X13501134Y-13840555D02*
X13491611Y-13821508D01*
X13491611Y-13821508D02*
X13472563Y-13792936D01*
X13472563Y-13792936D02*
X13463039Y-13783412D01*
D12*
X8484320Y-14216320D02*
X8484320Y-14152680D01*
X8420680Y-14152680D01*
X8420680Y-14216320D01*
X8484320Y-14216320D01*
D11*
X8796372Y-14075984D02*
X8815420Y-14075984D01*
X8815420Y-14075984D02*
X8834467Y-14085508D01*
X8834467Y-14085508D02*
X8843991Y-14095031D01*
X8843991Y-14095031D02*
X8853515Y-14114079D01*
X8853515Y-14114079D02*
X8863039Y-14152174D01*
X8863039Y-14152174D02*
X8863039Y-14199793D01*
X8863039Y-14199793D02*
X8853515Y-14237888D01*
X8853515Y-14237888D02*
X8843991Y-14256936D01*
X8843991Y-14256936D02*
X8834467Y-14266460D01*
X8834467Y-14266460D02*
X8815420Y-14275984D01*
X8815420Y-14275984D02*
X8796372Y-14275984D01*
X8796372Y-14275984D02*
X8777324Y-14266460D01*
X8777324Y-14266460D02*
X8767801Y-14256936D01*
X8767801Y-14256936D02*
X8758277Y-14237888D01*
X8758277Y-14237888D02*
X8748753Y-14199793D01*
X8748753Y-14199793D02*
X8748753Y-14152174D01*
X8748753Y-14152174D02*
X8758277Y-14114079D01*
X8758277Y-14114079D02*
X8767801Y-14095031D01*
X8767801Y-14095031D02*
X8777324Y-14085508D01*
X8777324Y-14085508D02*
X8796372Y-14075984D01*
X8948753Y-14256936D02*
X8958277Y-14266460D01*
X8958277Y-14266460D02*
X8948753Y-14275984D01*
X8948753Y-14275984D02*
X8939229Y-14266460D01*
X8939229Y-14266460D02*
X8948753Y-14256936D01*
X8948753Y-14256936D02*
X8948753Y-14275984D01*
X9053515Y-14275984D02*
X9091610Y-14275984D01*
X9091610Y-14275984D02*
X9110658Y-14266460D01*
X9110658Y-14266460D02*
X9120182Y-14256936D01*
X9120182Y-14256936D02*
X9139229Y-14228365D01*
X9139229Y-14228365D02*
X9148753Y-14190269D01*
X9148753Y-14190269D02*
X9148753Y-14114079D01*
X9148753Y-14114079D02*
X9139229Y-14095031D01*
X9139229Y-14095031D02*
X9129705Y-14085508D01*
X9129705Y-14085508D02*
X9110658Y-14075984D01*
X9110658Y-14075984D02*
X9072563Y-14075984D01*
X9072563Y-14075984D02*
X9053515Y-14085508D01*
X9053515Y-14085508D02*
X9043991Y-14095031D01*
X9043991Y-14095031D02*
X9034467Y-14114079D01*
X9034467Y-14114079D02*
X9034467Y-14161698D01*
X9034467Y-14161698D02*
X9043991Y-14180746D01*
X9043991Y-14180746D02*
X9053515Y-14190269D01*
X9053515Y-14190269D02*
X9072563Y-14199793D01*
X9072563Y-14199793D02*
X9110658Y-14199793D01*
X9110658Y-14199793D02*
X9129705Y-14190269D01*
X9129705Y-14190269D02*
X9139229Y-14180746D01*
X9139229Y-14180746D02*
X9148753Y-14161698D01*
X9272563Y-14075984D02*
X9291610Y-14075984D01*
X9291610Y-14075984D02*
X9310658Y-14085508D01*
X9310658Y-14085508D02*
X9320182Y-14095031D01*
X9320182Y-14095031D02*
X9329705Y-14114079D01*
X9329705Y-14114079D02*
X9339229Y-14152174D01*
X9339229Y-14152174D02*
X9339229Y-14199793D01*
X9339229Y-14199793D02*
X9329705Y-14237888D01*
X9329705Y-14237888D02*
X9320182Y-14256936D01*
X9320182Y-14256936D02*
X9310658Y-14266460D01*
X9310658Y-14266460D02*
X9291610Y-14275984D01*
X9291610Y-14275984D02*
X9272563Y-14275984D01*
X9272563Y-14275984D02*
X9253515Y-14266460D01*
X9253515Y-14266460D02*
X9243991Y-14256936D01*
X9243991Y-14256936D02*
X9234467Y-14237888D01*
X9234467Y-14237888D02*
X9224944Y-14199793D01*
X9224944Y-14199793D02*
X9224944Y-14152174D01*
X9224944Y-14152174D02*
X9234467Y-14114079D01*
X9234467Y-14114079D02*
X9243991Y-14095031D01*
X9243991Y-14095031D02*
X9253515Y-14085508D01*
X9253515Y-14085508D02*
X9272563Y-14075984D01*
X9463039Y-14075984D02*
X9482086Y-14075984D01*
X9482086Y-14075984D02*
X9501134Y-14085508D01*
X9501134Y-14085508D02*
X9510658Y-14095031D01*
X9510658Y-14095031D02*
X9520182Y-14114079D01*
X9520182Y-14114079D02*
X9529705Y-14152174D01*
X9529705Y-14152174D02*
X9529705Y-14199793D01*
X9529705Y-14199793D02*
X9520182Y-14237888D01*
X9520182Y-14237888D02*
X9510658Y-14256936D01*
X9510658Y-14256936D02*
X9501134Y-14266460D01*
X9501134Y-14266460D02*
X9482086Y-14275984D01*
X9482086Y-14275984D02*
X9463039Y-14275984D01*
X9463039Y-14275984D02*
X9443991Y-14266460D01*
X9443991Y-14266460D02*
X9434467Y-14256936D01*
X9434467Y-14256936D02*
X9424944Y-14237888D01*
X9424944Y-14237888D02*
X9415420Y-14199793D01*
X9415420Y-14199793D02*
X9415420Y-14152174D01*
X9415420Y-14152174D02*
X9424944Y-14114079D01*
X9424944Y-14114079D02*
X9434467Y-14095031D01*
X9434467Y-14095031D02*
X9443991Y-14085508D01*
X9443991Y-14085508D02*
X9463039Y-14075984D01*
X9615420Y-14275984D02*
X9615420Y-14142650D01*
X9615420Y-14161698D02*
X9624944Y-14152174D01*
X9624944Y-14152174D02*
X9643991Y-14142650D01*
X9643991Y-14142650D02*
X9672563Y-14142650D01*
X9672563Y-14142650D02*
X9691610Y-14152174D01*
X9691610Y-14152174D02*
X9701134Y-14171222D01*
X9701134Y-14171222D02*
X9701134Y-14275984D01*
X9701134Y-14171222D02*
X9710658Y-14152174D01*
X9710658Y-14152174D02*
X9729705Y-14142650D01*
X9729705Y-14142650D02*
X9758277Y-14142650D01*
X9758277Y-14142650D02*
X9777325Y-14152174D01*
X9777325Y-14152174D02*
X9786848Y-14171222D01*
X9786848Y-14171222D02*
X9786848Y-14275984D01*
X9882086Y-14275984D02*
X9882086Y-14142650D01*
X9882086Y-14161698D02*
X9891610Y-14152174D01*
X9891610Y-14152174D02*
X9910658Y-14142650D01*
X9910658Y-14142650D02*
X9939229Y-14142650D01*
X9939229Y-14142650D02*
X9958277Y-14152174D01*
X9958277Y-14152174D02*
X9967801Y-14171222D01*
X9967801Y-14171222D02*
X9967801Y-14275984D01*
X9967801Y-14171222D02*
X9977325Y-14152174D01*
X9977325Y-14152174D02*
X9996372Y-14142650D01*
X9996372Y-14142650D02*
X10024944Y-14142650D01*
X10024944Y-14142650D02*
X10043991Y-14152174D01*
X10043991Y-14152174D02*
X10053515Y-14171222D01*
X10053515Y-14171222D02*
X10053515Y-14275984D01*
X10443991Y-14066460D02*
X10272563Y-14323603D01*
X10701134Y-14075984D02*
X10720182Y-14075984D01*
X10720182Y-14075984D02*
X10739229Y-14085508D01*
X10739229Y-14085508D02*
X10748753Y-14095031D01*
X10748753Y-14095031D02*
X10758277Y-14114079D01*
X10758277Y-14114079D02*
X10767801Y-14152174D01*
X10767801Y-14152174D02*
X10767801Y-14199793D01*
X10767801Y-14199793D02*
X10758277Y-14237888D01*
X10758277Y-14237888D02*
X10748753Y-14256936D01*
X10748753Y-14256936D02*
X10739229Y-14266460D01*
X10739229Y-14266460D02*
X10720182Y-14275984D01*
X10720182Y-14275984D02*
X10701134Y-14275984D01*
X10701134Y-14275984D02*
X10682087Y-14266460D01*
X10682087Y-14266460D02*
X10672563Y-14256936D01*
X10672563Y-14256936D02*
X10663039Y-14237888D01*
X10663039Y-14237888D02*
X10653515Y-14199793D01*
X10653515Y-14199793D02*
X10653515Y-14152174D01*
X10653515Y-14152174D02*
X10663039Y-14114079D01*
X10663039Y-14114079D02*
X10672563Y-14095031D01*
X10672563Y-14095031D02*
X10682087Y-14085508D01*
X10682087Y-14085508D02*
X10701134Y-14075984D01*
X10853515Y-14256936D02*
X10863039Y-14266460D01*
X10863039Y-14266460D02*
X10853515Y-14275984D01*
X10853515Y-14275984D02*
X10843991Y-14266460D01*
X10843991Y-14266460D02*
X10853515Y-14256936D01*
X10853515Y-14256936D02*
X10853515Y-14275984D01*
X10986848Y-14075984D02*
X11005896Y-14075984D01*
X11005896Y-14075984D02*
X11024944Y-14085508D01*
X11024944Y-14085508D02*
X11034468Y-14095031D01*
X11034468Y-14095031D02*
X11043991Y-14114079D01*
X11043991Y-14114079D02*
X11053515Y-14152174D01*
X11053515Y-14152174D02*
X11053515Y-14199793D01*
X11053515Y-14199793D02*
X11043991Y-14237888D01*
X11043991Y-14237888D02*
X11034468Y-14256936D01*
X11034468Y-14256936D02*
X11024944Y-14266460D01*
X11024944Y-14266460D02*
X11005896Y-14275984D01*
X11005896Y-14275984D02*
X10986848Y-14275984D01*
X10986848Y-14275984D02*
X10967801Y-14266460D01*
X10967801Y-14266460D02*
X10958277Y-14256936D01*
X10958277Y-14256936D02*
X10948753Y-14237888D01*
X10948753Y-14237888D02*
X10939229Y-14199793D01*
X10939229Y-14199793D02*
X10939229Y-14152174D01*
X10939229Y-14152174D02*
X10948753Y-14114079D01*
X10948753Y-14114079D02*
X10958277Y-14095031D01*
X10958277Y-14095031D02*
X10967801Y-14085508D01*
X10967801Y-14085508D02*
X10986848Y-14075984D01*
X11120182Y-14075984D02*
X11243991Y-14075984D01*
X11243991Y-14075984D02*
X11177325Y-14152174D01*
X11177325Y-14152174D02*
X11205896Y-14152174D01*
X11205896Y-14152174D02*
X11224944Y-14161698D01*
X11224944Y-14161698D02*
X11234467Y-14171222D01*
X11234467Y-14171222D02*
X11243991Y-14190269D01*
X11243991Y-14190269D02*
X11243991Y-14237888D01*
X11243991Y-14237888D02*
X11234467Y-14256936D01*
X11234467Y-14256936D02*
X11224944Y-14266460D01*
X11224944Y-14266460D02*
X11205896Y-14275984D01*
X11205896Y-14275984D02*
X11148753Y-14275984D01*
X11148753Y-14275984D02*
X11129706Y-14266460D01*
X11129706Y-14266460D02*
X11120182Y-14256936D01*
X11424944Y-14075984D02*
X11329706Y-14075984D01*
X11329706Y-14075984D02*
X11320182Y-14171222D01*
X11320182Y-14171222D02*
X11329706Y-14161698D01*
X11329706Y-14161698D02*
X11348753Y-14152174D01*
X11348753Y-14152174D02*
X11396372Y-14152174D01*
X11396372Y-14152174D02*
X11415420Y-14161698D01*
X11415420Y-14161698D02*
X11424944Y-14171222D01*
X11424944Y-14171222D02*
X11434467Y-14190269D01*
X11434467Y-14190269D02*
X11434467Y-14237888D01*
X11434467Y-14237888D02*
X11424944Y-14256936D01*
X11424944Y-14256936D02*
X11415420Y-14266460D01*
X11415420Y-14266460D02*
X11396372Y-14275984D01*
X11396372Y-14275984D02*
X11348753Y-14275984D01*
X11348753Y-14275984D02*
X11329706Y-14266460D01*
X11329706Y-14266460D02*
X11320182Y-14256936D01*
X11605896Y-14142650D02*
X11605896Y-14275984D01*
X11558277Y-14066460D02*
X11510658Y-14209317D01*
X11510658Y-14209317D02*
X11634467Y-14209317D01*
X11701134Y-14075984D02*
X11701134Y-14114079D01*
X11777325Y-14075984D02*
X11777325Y-14114079D01*
X12072563Y-14352174D02*
X12063039Y-14342650D01*
X12063039Y-14342650D02*
X12043991Y-14314079D01*
X12043991Y-14314079D02*
X12034468Y-14295031D01*
X12034468Y-14295031D02*
X12024944Y-14266460D01*
X12024944Y-14266460D02*
X12015420Y-14218841D01*
X12015420Y-14218841D02*
X12015420Y-14180746D01*
X12015420Y-14180746D02*
X12024944Y-14133127D01*
X12024944Y-14133127D02*
X12034468Y-14104555D01*
X12034468Y-14104555D02*
X12043991Y-14085508D01*
X12043991Y-14085508D02*
X12063039Y-14056936D01*
X12063039Y-14056936D02*
X12072563Y-14047412D01*
X12234468Y-14142650D02*
X12234468Y-14275984D01*
X12186848Y-14066460D02*
X12139229Y-14209317D01*
X12139229Y-14209317D02*
X12263039Y-14209317D01*
X12491610Y-14275984D02*
X12491610Y-14075984D01*
X12577325Y-14275984D02*
X12577325Y-14171222D01*
X12577325Y-14171222D02*
X12567801Y-14152174D01*
X12567801Y-14152174D02*
X12548753Y-14142650D01*
X12548753Y-14142650D02*
X12520182Y-14142650D01*
X12520182Y-14142650D02*
X12501134Y-14152174D01*
X12501134Y-14152174D02*
X12491610Y-14161698D01*
X12701134Y-14275984D02*
X12682087Y-14266460D01*
X12682087Y-14266460D02*
X12672563Y-14256936D01*
X12672563Y-14256936D02*
X12663039Y-14237888D01*
X12663039Y-14237888D02*
X12663039Y-14180746D01*
X12663039Y-14180746D02*
X12672563Y-14161698D01*
X12672563Y-14161698D02*
X12682087Y-14152174D01*
X12682087Y-14152174D02*
X12701134Y-14142650D01*
X12701134Y-14142650D02*
X12729706Y-14142650D01*
X12729706Y-14142650D02*
X12748753Y-14152174D01*
X12748753Y-14152174D02*
X12758277Y-14161698D01*
X12758277Y-14161698D02*
X12767801Y-14180746D01*
X12767801Y-14180746D02*
X12767801Y-14237888D01*
X12767801Y-14237888D02*
X12758277Y-14256936D01*
X12758277Y-14256936D02*
X12748753Y-14266460D01*
X12748753Y-14266460D02*
X12729706Y-14275984D01*
X12729706Y-14275984D02*
X12701134Y-14275984D01*
X12882087Y-14275984D02*
X12863039Y-14266460D01*
X12863039Y-14266460D02*
X12853515Y-14247412D01*
X12853515Y-14247412D02*
X12853515Y-14075984D01*
X13034468Y-14266460D02*
X13015420Y-14275984D01*
X13015420Y-14275984D02*
X12977325Y-14275984D01*
X12977325Y-14275984D02*
X12958277Y-14266460D01*
X12958277Y-14266460D02*
X12948753Y-14247412D01*
X12948753Y-14247412D02*
X12948753Y-14171222D01*
X12948753Y-14171222D02*
X12958277Y-14152174D01*
X12958277Y-14152174D02*
X12977325Y-14142650D01*
X12977325Y-14142650D02*
X13015420Y-14142650D01*
X13015420Y-14142650D02*
X13034468Y-14152174D01*
X13034468Y-14152174D02*
X13043991Y-14171222D01*
X13043991Y-14171222D02*
X13043991Y-14190269D01*
X13043991Y-14190269D02*
X12948753Y-14209317D01*
X13120182Y-14266460D02*
X13139230Y-14275984D01*
X13139230Y-14275984D02*
X13177325Y-14275984D01*
X13177325Y-14275984D02*
X13196372Y-14266460D01*
X13196372Y-14266460D02*
X13205896Y-14247412D01*
X13205896Y-14247412D02*
X13205896Y-14237888D01*
X13205896Y-14237888D02*
X13196372Y-14218841D01*
X13196372Y-14218841D02*
X13177325Y-14209317D01*
X13177325Y-14209317D02*
X13148753Y-14209317D01*
X13148753Y-14209317D02*
X13129706Y-14199793D01*
X13129706Y-14199793D02*
X13120182Y-14180746D01*
X13120182Y-14180746D02*
X13120182Y-14171222D01*
X13120182Y-14171222D02*
X13129706Y-14152174D01*
X13129706Y-14152174D02*
X13148753Y-14142650D01*
X13148753Y-14142650D02*
X13177325Y-14142650D01*
X13177325Y-14142650D02*
X13196372Y-14152174D01*
X13272563Y-14352174D02*
X13282087Y-14342650D01*
X13282087Y-14342650D02*
X13301134Y-14314079D01*
X13301134Y-14314079D02*
X13310658Y-14295031D01*
X13310658Y-14295031D02*
X13320182Y-14266460D01*
X13320182Y-14266460D02*
X13329706Y-14218841D01*
X13329706Y-14218841D02*
X13329706Y-14180746D01*
X13329706Y-14180746D02*
X13320182Y-14133127D01*
X13320182Y-14133127D02*
X13310658Y-14104555D01*
X13310658Y-14104555D02*
X13301134Y-14085508D01*
X13301134Y-14085508D02*
X13282087Y-14056936D01*
X13282087Y-14056936D02*
X13272563Y-14047412D01*
D12*
X8447500Y-14498500D02*
X8497500Y-14448500D01*
X8447500Y-14398500D01*
X8397500Y-14448500D01*
X8447500Y-14498500D01*
D11*
X8863039Y-14539984D02*
X8748753Y-14539984D01*
X8805896Y-14539984D02*
X8805896Y-14339984D01*
X8805896Y-14339984D02*
X8786848Y-14368555D01*
X8786848Y-14368555D02*
X8767801Y-14387603D01*
X8767801Y-14387603D02*
X8748753Y-14397127D01*
X8948753Y-14520936D02*
X8958277Y-14530460D01*
X8958277Y-14530460D02*
X8948753Y-14539984D01*
X8948753Y-14539984D02*
X8939229Y-14530460D01*
X8939229Y-14530460D02*
X8948753Y-14520936D01*
X8948753Y-14520936D02*
X8948753Y-14539984D01*
X9082086Y-14339984D02*
X9101134Y-14339984D01*
X9101134Y-14339984D02*
X9120182Y-14349508D01*
X9120182Y-14349508D02*
X9129705Y-14359031D01*
X9129705Y-14359031D02*
X9139229Y-14378079D01*
X9139229Y-14378079D02*
X9148753Y-14416174D01*
X9148753Y-14416174D02*
X9148753Y-14463793D01*
X9148753Y-14463793D02*
X9139229Y-14501888D01*
X9139229Y-14501888D02*
X9129705Y-14520936D01*
X9129705Y-14520936D02*
X9120182Y-14530460D01*
X9120182Y-14530460D02*
X9101134Y-14539984D01*
X9101134Y-14539984D02*
X9082086Y-14539984D01*
X9082086Y-14539984D02*
X9063039Y-14530460D01*
X9063039Y-14530460D02*
X9053515Y-14520936D01*
X9053515Y-14520936D02*
X9043991Y-14501888D01*
X9043991Y-14501888D02*
X9034467Y-14463793D01*
X9034467Y-14463793D02*
X9034467Y-14416174D01*
X9034467Y-14416174D02*
X9043991Y-14378079D01*
X9043991Y-14378079D02*
X9053515Y-14359031D01*
X9053515Y-14359031D02*
X9063039Y-14349508D01*
X9063039Y-14349508D02*
X9082086Y-14339984D01*
X9272563Y-14339984D02*
X9291610Y-14339984D01*
X9291610Y-14339984D02*
X9310658Y-14349508D01*
X9310658Y-14349508D02*
X9320182Y-14359031D01*
X9320182Y-14359031D02*
X9329705Y-14378079D01*
X9329705Y-14378079D02*
X9339229Y-14416174D01*
X9339229Y-14416174D02*
X9339229Y-14463793D01*
X9339229Y-14463793D02*
X9329705Y-14501888D01*
X9329705Y-14501888D02*
X9320182Y-14520936D01*
X9320182Y-14520936D02*
X9310658Y-14530460D01*
X9310658Y-14530460D02*
X9291610Y-14539984D01*
X9291610Y-14539984D02*
X9272563Y-14539984D01*
X9272563Y-14539984D02*
X9253515Y-14530460D01*
X9253515Y-14530460D02*
X9243991Y-14520936D01*
X9243991Y-14520936D02*
X9234467Y-14501888D01*
X9234467Y-14501888D02*
X9224944Y-14463793D01*
X9224944Y-14463793D02*
X9224944Y-14416174D01*
X9224944Y-14416174D02*
X9234467Y-14378079D01*
X9234467Y-14378079D02*
X9243991Y-14359031D01*
X9243991Y-14359031D02*
X9253515Y-14349508D01*
X9253515Y-14349508D02*
X9272563Y-14339984D01*
X9463039Y-14339984D02*
X9482086Y-14339984D01*
X9482086Y-14339984D02*
X9501134Y-14349508D01*
X9501134Y-14349508D02*
X9510658Y-14359031D01*
X9510658Y-14359031D02*
X9520182Y-14378079D01*
X9520182Y-14378079D02*
X9529705Y-14416174D01*
X9529705Y-14416174D02*
X9529705Y-14463793D01*
X9529705Y-14463793D02*
X9520182Y-14501888D01*
X9520182Y-14501888D02*
X9510658Y-14520936D01*
X9510658Y-14520936D02*
X9501134Y-14530460D01*
X9501134Y-14530460D02*
X9482086Y-14539984D01*
X9482086Y-14539984D02*
X9463039Y-14539984D01*
X9463039Y-14539984D02*
X9443991Y-14530460D01*
X9443991Y-14530460D02*
X9434467Y-14520936D01*
X9434467Y-14520936D02*
X9424944Y-14501888D01*
X9424944Y-14501888D02*
X9415420Y-14463793D01*
X9415420Y-14463793D02*
X9415420Y-14416174D01*
X9415420Y-14416174D02*
X9424944Y-14378079D01*
X9424944Y-14378079D02*
X9434467Y-14359031D01*
X9434467Y-14359031D02*
X9443991Y-14349508D01*
X9443991Y-14349508D02*
X9463039Y-14339984D01*
X9615420Y-14539984D02*
X9615420Y-14406650D01*
X9615420Y-14425698D02*
X9624944Y-14416174D01*
X9624944Y-14416174D02*
X9643991Y-14406650D01*
X9643991Y-14406650D02*
X9672563Y-14406650D01*
X9672563Y-14406650D02*
X9691610Y-14416174D01*
X9691610Y-14416174D02*
X9701134Y-14435222D01*
X9701134Y-14435222D02*
X9701134Y-14539984D01*
X9701134Y-14435222D02*
X9710658Y-14416174D01*
X9710658Y-14416174D02*
X9729705Y-14406650D01*
X9729705Y-14406650D02*
X9758277Y-14406650D01*
X9758277Y-14406650D02*
X9777325Y-14416174D01*
X9777325Y-14416174D02*
X9786848Y-14435222D01*
X9786848Y-14435222D02*
X9786848Y-14539984D01*
X9882086Y-14539984D02*
X9882086Y-14406650D01*
X9882086Y-14425698D02*
X9891610Y-14416174D01*
X9891610Y-14416174D02*
X9910658Y-14406650D01*
X9910658Y-14406650D02*
X9939229Y-14406650D01*
X9939229Y-14406650D02*
X9958277Y-14416174D01*
X9958277Y-14416174D02*
X9967801Y-14435222D01*
X9967801Y-14435222D02*
X9967801Y-14539984D01*
X9967801Y-14435222D02*
X9977325Y-14416174D01*
X9977325Y-14416174D02*
X9996372Y-14406650D01*
X9996372Y-14406650D02*
X10024944Y-14406650D01*
X10024944Y-14406650D02*
X10043991Y-14416174D01*
X10043991Y-14416174D02*
X10053515Y-14435222D01*
X10053515Y-14435222D02*
X10053515Y-14539984D01*
X10443991Y-14330460D02*
X10272563Y-14587603D01*
X10701134Y-14339984D02*
X10720182Y-14339984D01*
X10720182Y-14339984D02*
X10739229Y-14349508D01*
X10739229Y-14349508D02*
X10748753Y-14359031D01*
X10748753Y-14359031D02*
X10758277Y-14378079D01*
X10758277Y-14378079D02*
X10767801Y-14416174D01*
X10767801Y-14416174D02*
X10767801Y-14463793D01*
X10767801Y-14463793D02*
X10758277Y-14501888D01*
X10758277Y-14501888D02*
X10748753Y-14520936D01*
X10748753Y-14520936D02*
X10739229Y-14530460D01*
X10739229Y-14530460D02*
X10720182Y-14539984D01*
X10720182Y-14539984D02*
X10701134Y-14539984D01*
X10701134Y-14539984D02*
X10682087Y-14530460D01*
X10682087Y-14530460D02*
X10672563Y-14520936D01*
X10672563Y-14520936D02*
X10663039Y-14501888D01*
X10663039Y-14501888D02*
X10653515Y-14463793D01*
X10653515Y-14463793D02*
X10653515Y-14416174D01*
X10653515Y-14416174D02*
X10663039Y-14378079D01*
X10663039Y-14378079D02*
X10672563Y-14359031D01*
X10672563Y-14359031D02*
X10682087Y-14349508D01*
X10682087Y-14349508D02*
X10701134Y-14339984D01*
X10853515Y-14520936D02*
X10863039Y-14530460D01*
X10863039Y-14530460D02*
X10853515Y-14539984D01*
X10853515Y-14539984D02*
X10843991Y-14530460D01*
X10843991Y-14530460D02*
X10853515Y-14520936D01*
X10853515Y-14520936D02*
X10853515Y-14539984D01*
X10986848Y-14339984D02*
X11005896Y-14339984D01*
X11005896Y-14339984D02*
X11024944Y-14349508D01*
X11024944Y-14349508D02*
X11034468Y-14359031D01*
X11034468Y-14359031D02*
X11043991Y-14378079D01*
X11043991Y-14378079D02*
X11053515Y-14416174D01*
X11053515Y-14416174D02*
X11053515Y-14463793D01*
X11053515Y-14463793D02*
X11043991Y-14501888D01*
X11043991Y-14501888D02*
X11034468Y-14520936D01*
X11034468Y-14520936D02*
X11024944Y-14530460D01*
X11024944Y-14530460D02*
X11005896Y-14539984D01*
X11005896Y-14539984D02*
X10986848Y-14539984D01*
X10986848Y-14539984D02*
X10967801Y-14530460D01*
X10967801Y-14530460D02*
X10958277Y-14520936D01*
X10958277Y-14520936D02*
X10948753Y-14501888D01*
X10948753Y-14501888D02*
X10939229Y-14463793D01*
X10939229Y-14463793D02*
X10939229Y-14416174D01*
X10939229Y-14416174D02*
X10948753Y-14378079D01*
X10948753Y-14378079D02*
X10958277Y-14359031D01*
X10958277Y-14359031D02*
X10967801Y-14349508D01*
X10967801Y-14349508D02*
X10986848Y-14339984D01*
X11120182Y-14339984D02*
X11243991Y-14339984D01*
X11243991Y-14339984D02*
X11177325Y-14416174D01*
X11177325Y-14416174D02*
X11205896Y-14416174D01*
X11205896Y-14416174D02*
X11224944Y-14425698D01*
X11224944Y-14425698D02*
X11234467Y-14435222D01*
X11234467Y-14435222D02*
X11243991Y-14454269D01*
X11243991Y-14454269D02*
X11243991Y-14501888D01*
X11243991Y-14501888D02*
X11234467Y-14520936D01*
X11234467Y-14520936D02*
X11224944Y-14530460D01*
X11224944Y-14530460D02*
X11205896Y-14539984D01*
X11205896Y-14539984D02*
X11148753Y-14539984D01*
X11148753Y-14539984D02*
X11129706Y-14530460D01*
X11129706Y-14530460D02*
X11120182Y-14520936D01*
X11339229Y-14539984D02*
X11377325Y-14539984D01*
X11377325Y-14539984D02*
X11396372Y-14530460D01*
X11396372Y-14530460D02*
X11405896Y-14520936D01*
X11405896Y-14520936D02*
X11424944Y-14492365D01*
X11424944Y-14492365D02*
X11434467Y-14454269D01*
X11434467Y-14454269D02*
X11434467Y-14378079D01*
X11434467Y-14378079D02*
X11424944Y-14359031D01*
X11424944Y-14359031D02*
X11415420Y-14349508D01*
X11415420Y-14349508D02*
X11396372Y-14339984D01*
X11396372Y-14339984D02*
X11358277Y-14339984D01*
X11358277Y-14339984D02*
X11339229Y-14349508D01*
X11339229Y-14349508D02*
X11329706Y-14359031D01*
X11329706Y-14359031D02*
X11320182Y-14378079D01*
X11320182Y-14378079D02*
X11320182Y-14425698D01*
X11320182Y-14425698D02*
X11329706Y-14444746D01*
X11329706Y-14444746D02*
X11339229Y-14454269D01*
X11339229Y-14454269D02*
X11358277Y-14463793D01*
X11358277Y-14463793D02*
X11396372Y-14463793D01*
X11396372Y-14463793D02*
X11415420Y-14454269D01*
X11415420Y-14454269D02*
X11424944Y-14444746D01*
X11424944Y-14444746D02*
X11434467Y-14425698D01*
X11605896Y-14406650D02*
X11605896Y-14539984D01*
X11558277Y-14330460D02*
X11510658Y-14473317D01*
X11510658Y-14473317D02*
X11634467Y-14473317D01*
X11701134Y-14339984D02*
X11701134Y-14378079D01*
X11777325Y-14339984D02*
X11777325Y-14378079D01*
X12072563Y-14616174D02*
X12063039Y-14606650D01*
X12063039Y-14606650D02*
X12043991Y-14578079D01*
X12043991Y-14578079D02*
X12034468Y-14559031D01*
X12034468Y-14559031D02*
X12024944Y-14530460D01*
X12024944Y-14530460D02*
X12015420Y-14482841D01*
X12015420Y-14482841D02*
X12015420Y-14444746D01*
X12015420Y-14444746D02*
X12024944Y-14397127D01*
X12024944Y-14397127D02*
X12034468Y-14368555D01*
X12034468Y-14368555D02*
X12043991Y-14349508D01*
X12043991Y-14349508D02*
X12063039Y-14320936D01*
X12063039Y-14320936D02*
X12072563Y-14311412D01*
X12234468Y-14406650D02*
X12234468Y-14539984D01*
X12186848Y-14330460D02*
X12139229Y-14473317D01*
X12139229Y-14473317D02*
X12263039Y-14473317D01*
X12491610Y-14539984D02*
X12491610Y-14339984D01*
X12577325Y-14539984D02*
X12577325Y-14435222D01*
X12577325Y-14435222D02*
X12567801Y-14416174D01*
X12567801Y-14416174D02*
X12548753Y-14406650D01*
X12548753Y-14406650D02*
X12520182Y-14406650D01*
X12520182Y-14406650D02*
X12501134Y-14416174D01*
X12501134Y-14416174D02*
X12491610Y-14425698D01*
X12701134Y-14539984D02*
X12682087Y-14530460D01*
X12682087Y-14530460D02*
X12672563Y-14520936D01*
X12672563Y-14520936D02*
X12663039Y-14501888D01*
X12663039Y-14501888D02*
X12663039Y-14444746D01*
X12663039Y-14444746D02*
X12672563Y-14425698D01*
X12672563Y-14425698D02*
X12682087Y-14416174D01*
X12682087Y-14416174D02*
X12701134Y-14406650D01*
X12701134Y-14406650D02*
X12729706Y-14406650D01*
X12729706Y-14406650D02*
X12748753Y-14416174D01*
X12748753Y-14416174D02*
X12758277Y-14425698D01*
X12758277Y-14425698D02*
X12767801Y-14444746D01*
X12767801Y-14444746D02*
X12767801Y-14501888D01*
X12767801Y-14501888D02*
X12758277Y-14520936D01*
X12758277Y-14520936D02*
X12748753Y-14530460D01*
X12748753Y-14530460D02*
X12729706Y-14539984D01*
X12729706Y-14539984D02*
X12701134Y-14539984D01*
X12882087Y-14539984D02*
X12863039Y-14530460D01*
X12863039Y-14530460D02*
X12853515Y-14511412D01*
X12853515Y-14511412D02*
X12853515Y-14339984D01*
X13034468Y-14530460D02*
X13015420Y-14539984D01*
X13015420Y-14539984D02*
X12977325Y-14539984D01*
X12977325Y-14539984D02*
X12958277Y-14530460D01*
X12958277Y-14530460D02*
X12948753Y-14511412D01*
X12948753Y-14511412D02*
X12948753Y-14435222D01*
X12948753Y-14435222D02*
X12958277Y-14416174D01*
X12958277Y-14416174D02*
X12977325Y-14406650D01*
X12977325Y-14406650D02*
X13015420Y-14406650D01*
X13015420Y-14406650D02*
X13034468Y-14416174D01*
X13034468Y-14416174D02*
X13043991Y-14435222D01*
X13043991Y-14435222D02*
X13043991Y-14454269D01*
X13043991Y-14454269D02*
X12948753Y-14473317D01*
X13120182Y-14530460D02*
X13139230Y-14539984D01*
X13139230Y-14539984D02*
X13177325Y-14539984D01*
X13177325Y-14539984D02*
X13196372Y-14530460D01*
X13196372Y-14530460D02*
X13205896Y-14511412D01*
X13205896Y-14511412D02*
X13205896Y-14501888D01*
X13205896Y-14501888D02*
X13196372Y-14482841D01*
X13196372Y-14482841D02*
X13177325Y-14473317D01*
X13177325Y-14473317D02*
X13148753Y-14473317D01*
X13148753Y-14473317D02*
X13129706Y-14463793D01*
X13129706Y-14463793D02*
X13120182Y-14444746D01*
X13120182Y-14444746D02*
X13120182Y-14435222D01*
X13120182Y-14435222D02*
X13129706Y-14416174D01*
X13129706Y-14416174D02*
X13148753Y-14406650D01*
X13148753Y-14406650D02*
X13177325Y-14406650D01*
X13177325Y-14406650D02*
X13196372Y-14416174D01*
X13272563Y-14616174D02*
X13282087Y-14606650D01*
X13282087Y-14606650D02*
X13301134Y-14578079D01*
X13301134Y-14578079D02*
X13310658Y-14559031D01*
X13310658Y-14559031D02*
X13320182Y-14530460D01*
X13320182Y-14530460D02*
X13329706Y-14482841D01*
X13329706Y-14482841D02*
X13329706Y-14444746D01*
X13329706Y-14444746D02*
X13320182Y-14397127D01*
X13320182Y-14397127D02*
X13310658Y-14368555D01*
X13310658Y-14368555D02*
X13301134Y-14349508D01*
X13301134Y-14349508D02*
X13282087Y-14320936D01*
X13282087Y-14320936D02*
X13272563Y-14311412D01*
D13*
X8387500Y-14657500D02*
X8497500Y-14767500D01*
X8497500Y-14657500D02*
X8387500Y-14767500D01*
X8497500Y-14712500D02*
G75*
G02*
X8387500Y-14712500I-55000J0D01*
G01*
X8387500Y-14712500D02*
G75*
G02*
X8497500Y-14712500I55000J0D01*
G01*
D11*
X8863039Y-14803984D02*
X8748753Y-14803984D01*
X8805896Y-14803984D02*
X8805896Y-14603984D01*
X8805896Y-14603984D02*
X8786848Y-14632555D01*
X8786848Y-14632555D02*
X8767801Y-14651603D01*
X8767801Y-14651603D02*
X8748753Y-14661127D01*
X8948753Y-14784936D02*
X8958277Y-14794460D01*
X8958277Y-14794460D02*
X8948753Y-14803984D01*
X8948753Y-14803984D02*
X8939229Y-14794460D01*
X8939229Y-14794460D02*
X8948753Y-14784936D01*
X8948753Y-14784936D02*
X8948753Y-14803984D01*
X9148753Y-14803984D02*
X9034467Y-14803984D01*
X9091610Y-14803984D02*
X9091610Y-14603984D01*
X9091610Y-14603984D02*
X9072563Y-14632555D01*
X9072563Y-14632555D02*
X9053515Y-14651603D01*
X9053515Y-14651603D02*
X9034467Y-14661127D01*
X9272563Y-14603984D02*
X9291610Y-14603984D01*
X9291610Y-14603984D02*
X9310658Y-14613508D01*
X9310658Y-14613508D02*
X9320182Y-14623031D01*
X9320182Y-14623031D02*
X9329705Y-14642079D01*
X9329705Y-14642079D02*
X9339229Y-14680174D01*
X9339229Y-14680174D02*
X9339229Y-14727793D01*
X9339229Y-14727793D02*
X9329705Y-14765888D01*
X9329705Y-14765888D02*
X9320182Y-14784936D01*
X9320182Y-14784936D02*
X9310658Y-14794460D01*
X9310658Y-14794460D02*
X9291610Y-14803984D01*
X9291610Y-14803984D02*
X9272563Y-14803984D01*
X9272563Y-14803984D02*
X9253515Y-14794460D01*
X9253515Y-14794460D02*
X9243991Y-14784936D01*
X9243991Y-14784936D02*
X9234467Y-14765888D01*
X9234467Y-14765888D02*
X9224944Y-14727793D01*
X9224944Y-14727793D02*
X9224944Y-14680174D01*
X9224944Y-14680174D02*
X9234467Y-14642079D01*
X9234467Y-14642079D02*
X9243991Y-14623031D01*
X9243991Y-14623031D02*
X9253515Y-14613508D01*
X9253515Y-14613508D02*
X9272563Y-14603984D01*
X9463039Y-14603984D02*
X9482086Y-14603984D01*
X9482086Y-14603984D02*
X9501134Y-14613508D01*
X9501134Y-14613508D02*
X9510658Y-14623031D01*
X9510658Y-14623031D02*
X9520182Y-14642079D01*
X9520182Y-14642079D02*
X9529705Y-14680174D01*
X9529705Y-14680174D02*
X9529705Y-14727793D01*
X9529705Y-14727793D02*
X9520182Y-14765888D01*
X9520182Y-14765888D02*
X9510658Y-14784936D01*
X9510658Y-14784936D02*
X9501134Y-14794460D01*
X9501134Y-14794460D02*
X9482086Y-14803984D01*
X9482086Y-14803984D02*
X9463039Y-14803984D01*
X9463039Y-14803984D02*
X9443991Y-14794460D01*
X9443991Y-14794460D02*
X9434467Y-14784936D01*
X9434467Y-14784936D02*
X9424944Y-14765888D01*
X9424944Y-14765888D02*
X9415420Y-14727793D01*
X9415420Y-14727793D02*
X9415420Y-14680174D01*
X9415420Y-14680174D02*
X9424944Y-14642079D01*
X9424944Y-14642079D02*
X9434467Y-14623031D01*
X9434467Y-14623031D02*
X9443991Y-14613508D01*
X9443991Y-14613508D02*
X9463039Y-14603984D01*
X9615420Y-14803984D02*
X9615420Y-14670650D01*
X9615420Y-14689698D02*
X9624944Y-14680174D01*
X9624944Y-14680174D02*
X9643991Y-14670650D01*
X9643991Y-14670650D02*
X9672563Y-14670650D01*
X9672563Y-14670650D02*
X9691610Y-14680174D01*
X9691610Y-14680174D02*
X9701134Y-14699222D01*
X9701134Y-14699222D02*
X9701134Y-14803984D01*
X9701134Y-14699222D02*
X9710658Y-14680174D01*
X9710658Y-14680174D02*
X9729705Y-14670650D01*
X9729705Y-14670650D02*
X9758277Y-14670650D01*
X9758277Y-14670650D02*
X9777325Y-14680174D01*
X9777325Y-14680174D02*
X9786848Y-14699222D01*
X9786848Y-14699222D02*
X9786848Y-14803984D01*
X9882086Y-14803984D02*
X9882086Y-14670650D01*
X9882086Y-14689698D02*
X9891610Y-14680174D01*
X9891610Y-14680174D02*
X9910658Y-14670650D01*
X9910658Y-14670650D02*
X9939229Y-14670650D01*
X9939229Y-14670650D02*
X9958277Y-14680174D01*
X9958277Y-14680174D02*
X9967801Y-14699222D01*
X9967801Y-14699222D02*
X9967801Y-14803984D01*
X9967801Y-14699222D02*
X9977325Y-14680174D01*
X9977325Y-14680174D02*
X9996372Y-14670650D01*
X9996372Y-14670650D02*
X10024944Y-14670650D01*
X10024944Y-14670650D02*
X10043991Y-14680174D01*
X10043991Y-14680174D02*
X10053515Y-14699222D01*
X10053515Y-14699222D02*
X10053515Y-14803984D01*
X10443991Y-14594460D02*
X10272563Y-14851603D01*
X10701134Y-14603984D02*
X10720182Y-14603984D01*
X10720182Y-14603984D02*
X10739229Y-14613508D01*
X10739229Y-14613508D02*
X10748753Y-14623031D01*
X10748753Y-14623031D02*
X10758277Y-14642079D01*
X10758277Y-14642079D02*
X10767801Y-14680174D01*
X10767801Y-14680174D02*
X10767801Y-14727793D01*
X10767801Y-14727793D02*
X10758277Y-14765888D01*
X10758277Y-14765888D02*
X10748753Y-14784936D01*
X10748753Y-14784936D02*
X10739229Y-14794460D01*
X10739229Y-14794460D02*
X10720182Y-14803984D01*
X10720182Y-14803984D02*
X10701134Y-14803984D01*
X10701134Y-14803984D02*
X10682087Y-14794460D01*
X10682087Y-14794460D02*
X10672563Y-14784936D01*
X10672563Y-14784936D02*
X10663039Y-14765888D01*
X10663039Y-14765888D02*
X10653515Y-14727793D01*
X10653515Y-14727793D02*
X10653515Y-14680174D01*
X10653515Y-14680174D02*
X10663039Y-14642079D01*
X10663039Y-14642079D02*
X10672563Y-14623031D01*
X10672563Y-14623031D02*
X10682087Y-14613508D01*
X10682087Y-14613508D02*
X10701134Y-14603984D01*
X10853515Y-14784936D02*
X10863039Y-14794460D01*
X10863039Y-14794460D02*
X10853515Y-14803984D01*
X10853515Y-14803984D02*
X10843991Y-14794460D01*
X10843991Y-14794460D02*
X10853515Y-14784936D01*
X10853515Y-14784936D02*
X10853515Y-14803984D01*
X10986848Y-14603984D02*
X11005896Y-14603984D01*
X11005896Y-14603984D02*
X11024944Y-14613508D01*
X11024944Y-14613508D02*
X11034468Y-14623031D01*
X11034468Y-14623031D02*
X11043991Y-14642079D01*
X11043991Y-14642079D02*
X11053515Y-14680174D01*
X11053515Y-14680174D02*
X11053515Y-14727793D01*
X11053515Y-14727793D02*
X11043991Y-14765888D01*
X11043991Y-14765888D02*
X11034468Y-14784936D01*
X11034468Y-14784936D02*
X11024944Y-14794460D01*
X11024944Y-14794460D02*
X11005896Y-14803984D01*
X11005896Y-14803984D02*
X10986848Y-14803984D01*
X10986848Y-14803984D02*
X10967801Y-14794460D01*
X10967801Y-14794460D02*
X10958277Y-14784936D01*
X10958277Y-14784936D02*
X10948753Y-14765888D01*
X10948753Y-14765888D02*
X10939229Y-14727793D01*
X10939229Y-14727793D02*
X10939229Y-14680174D01*
X10939229Y-14680174D02*
X10948753Y-14642079D01*
X10948753Y-14642079D02*
X10958277Y-14623031D01*
X10958277Y-14623031D02*
X10967801Y-14613508D01*
X10967801Y-14613508D02*
X10986848Y-14603984D01*
X11224944Y-14670650D02*
X11224944Y-14803984D01*
X11177325Y-14594460D02*
X11129706Y-14737317D01*
X11129706Y-14737317D02*
X11253515Y-14737317D01*
X11310658Y-14603984D02*
X11434467Y-14603984D01*
X11434467Y-14603984D02*
X11367801Y-14680174D01*
X11367801Y-14680174D02*
X11396372Y-14680174D01*
X11396372Y-14680174D02*
X11415420Y-14689698D01*
X11415420Y-14689698D02*
X11424944Y-14699222D01*
X11424944Y-14699222D02*
X11434467Y-14718269D01*
X11434467Y-14718269D02*
X11434467Y-14765888D01*
X11434467Y-14765888D02*
X11424944Y-14784936D01*
X11424944Y-14784936D02*
X11415420Y-14794460D01*
X11415420Y-14794460D02*
X11396372Y-14803984D01*
X11396372Y-14803984D02*
X11339229Y-14803984D01*
X11339229Y-14803984D02*
X11320182Y-14794460D01*
X11320182Y-14794460D02*
X11310658Y-14784936D01*
X11501134Y-14603984D02*
X11624944Y-14603984D01*
X11624944Y-14603984D02*
X11558277Y-14680174D01*
X11558277Y-14680174D02*
X11586848Y-14680174D01*
X11586848Y-14680174D02*
X11605896Y-14689698D01*
X11605896Y-14689698D02*
X11615420Y-14699222D01*
X11615420Y-14699222D02*
X11624944Y-14718269D01*
X11624944Y-14718269D02*
X11624944Y-14765888D01*
X11624944Y-14765888D02*
X11615420Y-14784936D01*
X11615420Y-14784936D02*
X11605896Y-14794460D01*
X11605896Y-14794460D02*
X11586848Y-14803984D01*
X11586848Y-14803984D02*
X11529706Y-14803984D01*
X11529706Y-14803984D02*
X11510658Y-14794460D01*
X11510658Y-14794460D02*
X11501134Y-14784936D01*
X11701134Y-14603984D02*
X11701134Y-14642079D01*
X11777325Y-14603984D02*
X11777325Y-14642079D01*
X12072563Y-14880174D02*
X12063039Y-14870650D01*
X12063039Y-14870650D02*
X12043991Y-14842079D01*
X12043991Y-14842079D02*
X12034468Y-14823031D01*
X12034468Y-14823031D02*
X12024944Y-14794460D01*
X12024944Y-14794460D02*
X12015420Y-14746841D01*
X12015420Y-14746841D02*
X12015420Y-14708746D01*
X12015420Y-14708746D02*
X12024944Y-14661127D01*
X12024944Y-14661127D02*
X12034468Y-14632555D01*
X12034468Y-14632555D02*
X12043991Y-14613508D01*
X12043991Y-14613508D02*
X12063039Y-14584936D01*
X12063039Y-14584936D02*
X12072563Y-14575412D01*
X12234468Y-14603984D02*
X12196372Y-14603984D01*
X12196372Y-14603984D02*
X12177325Y-14613508D01*
X12177325Y-14613508D02*
X12167801Y-14623031D01*
X12167801Y-14623031D02*
X12148753Y-14651603D01*
X12148753Y-14651603D02*
X12139229Y-14689698D01*
X12139229Y-14689698D02*
X12139229Y-14765888D01*
X12139229Y-14765888D02*
X12148753Y-14784936D01*
X12148753Y-14784936D02*
X12158277Y-14794460D01*
X12158277Y-14794460D02*
X12177325Y-14803984D01*
X12177325Y-14803984D02*
X12215420Y-14803984D01*
X12215420Y-14803984D02*
X12234468Y-14794460D01*
X12234468Y-14794460D02*
X12243991Y-14784936D01*
X12243991Y-14784936D02*
X12253515Y-14765888D01*
X12253515Y-14765888D02*
X12253515Y-14718269D01*
X12253515Y-14718269D02*
X12243991Y-14699222D01*
X12243991Y-14699222D02*
X12234468Y-14689698D01*
X12234468Y-14689698D02*
X12215420Y-14680174D01*
X12215420Y-14680174D02*
X12177325Y-14680174D01*
X12177325Y-14680174D02*
X12158277Y-14689698D01*
X12158277Y-14689698D02*
X12148753Y-14699222D01*
X12148753Y-14699222D02*
X12139229Y-14718269D01*
X12491610Y-14803984D02*
X12491610Y-14603984D01*
X12577325Y-14803984D02*
X12577325Y-14699222D01*
X12577325Y-14699222D02*
X12567801Y-14680174D01*
X12567801Y-14680174D02*
X12548753Y-14670650D01*
X12548753Y-14670650D02*
X12520182Y-14670650D01*
X12520182Y-14670650D02*
X12501134Y-14680174D01*
X12501134Y-14680174D02*
X12491610Y-14689698D01*
X12701134Y-14803984D02*
X12682087Y-14794460D01*
X12682087Y-14794460D02*
X12672563Y-14784936D01*
X12672563Y-14784936D02*
X12663039Y-14765888D01*
X12663039Y-14765888D02*
X12663039Y-14708746D01*
X12663039Y-14708746D02*
X12672563Y-14689698D01*
X12672563Y-14689698D02*
X12682087Y-14680174D01*
X12682087Y-14680174D02*
X12701134Y-14670650D01*
X12701134Y-14670650D02*
X12729706Y-14670650D01*
X12729706Y-14670650D02*
X12748753Y-14680174D01*
X12748753Y-14680174D02*
X12758277Y-14689698D01*
X12758277Y-14689698D02*
X12767801Y-14708746D01*
X12767801Y-14708746D02*
X12767801Y-14765888D01*
X12767801Y-14765888D02*
X12758277Y-14784936D01*
X12758277Y-14784936D02*
X12748753Y-14794460D01*
X12748753Y-14794460D02*
X12729706Y-14803984D01*
X12729706Y-14803984D02*
X12701134Y-14803984D01*
X12882087Y-14803984D02*
X12863039Y-14794460D01*
X12863039Y-14794460D02*
X12853515Y-14775412D01*
X12853515Y-14775412D02*
X12853515Y-14603984D01*
X13034468Y-14794460D02*
X13015420Y-14803984D01*
X13015420Y-14803984D02*
X12977325Y-14803984D01*
X12977325Y-14803984D02*
X12958277Y-14794460D01*
X12958277Y-14794460D02*
X12948753Y-14775412D01*
X12948753Y-14775412D02*
X12948753Y-14699222D01*
X12948753Y-14699222D02*
X12958277Y-14680174D01*
X12958277Y-14680174D02*
X12977325Y-14670650D01*
X12977325Y-14670650D02*
X13015420Y-14670650D01*
X13015420Y-14670650D02*
X13034468Y-14680174D01*
X13034468Y-14680174D02*
X13043991Y-14699222D01*
X13043991Y-14699222D02*
X13043991Y-14718269D01*
X13043991Y-14718269D02*
X12948753Y-14737317D01*
X13120182Y-14794460D02*
X13139230Y-14803984D01*
X13139230Y-14803984D02*
X13177325Y-14803984D01*
X13177325Y-14803984D02*
X13196372Y-14794460D01*
X13196372Y-14794460D02*
X13205896Y-14775412D01*
X13205896Y-14775412D02*
X13205896Y-14765888D01*
X13205896Y-14765888D02*
X13196372Y-14746841D01*
X13196372Y-14746841D02*
X13177325Y-14737317D01*
X13177325Y-14737317D02*
X13148753Y-14737317D01*
X13148753Y-14737317D02*
X13129706Y-14727793D01*
X13129706Y-14727793D02*
X13120182Y-14708746D01*
X13120182Y-14708746D02*
X13120182Y-14699222D01*
X13120182Y-14699222D02*
X13129706Y-14680174D01*
X13129706Y-14680174D02*
X13148753Y-14670650D01*
X13148753Y-14670650D02*
X13177325Y-14670650D01*
X13177325Y-14670650D02*
X13196372Y-14680174D01*
X13272563Y-14880174D02*
X13282087Y-14870650D01*
X13282087Y-14870650D02*
X13301134Y-14842079D01*
X13301134Y-14842079D02*
X13310658Y-14823031D01*
X13310658Y-14823031D02*
X13320182Y-14794460D01*
X13320182Y-14794460D02*
X13329706Y-14746841D01*
X13329706Y-14746841D02*
X13329706Y-14708746D01*
X13329706Y-14708746D02*
X13320182Y-14661127D01*
X13320182Y-14661127D02*
X13310658Y-14632555D01*
X13310658Y-14632555D02*
X13301134Y-14613508D01*
X13301134Y-14613508D02*
X13282087Y-14584936D01*
X13282087Y-14584936D02*
X13272563Y-14575412D01*
D14*
X8377500Y-14916500D02*
X8497500Y-15036500D01*
X8497500Y-14916500D02*
X8377500Y-15036500D01*
X8437500Y-14916500D02*
X8437500Y-15036500D01*
X8377500Y-14976500D02*
X8497500Y-14976500D01*
D11*
X8863039Y-15067984D02*
X8748753Y-15067984D01*
X8805896Y-15067984D02*
X8805896Y-14867984D01*
X8805896Y-14867984D02*
X8786848Y-14896555D01*
X8786848Y-14896555D02*
X8767801Y-14915603D01*
X8767801Y-14915603D02*
X8748753Y-14925127D01*
X8948753Y-15048936D02*
X8958277Y-15058460D01*
X8958277Y-15058460D02*
X8948753Y-15067984D01*
X8948753Y-15067984D02*
X8939229Y-15058460D01*
X8939229Y-15058460D02*
X8948753Y-15048936D01*
X8948753Y-15048936D02*
X8948753Y-15067984D01*
X9034467Y-14887031D02*
X9043991Y-14877508D01*
X9043991Y-14877508D02*
X9063039Y-14867984D01*
X9063039Y-14867984D02*
X9110658Y-14867984D01*
X9110658Y-14867984D02*
X9129705Y-14877508D01*
X9129705Y-14877508D02*
X9139229Y-14887031D01*
X9139229Y-14887031D02*
X9148753Y-14906079D01*
X9148753Y-14906079D02*
X9148753Y-14925127D01*
X9148753Y-14925127D02*
X9139229Y-14953698D01*
X9139229Y-14953698D02*
X9024944Y-15067984D01*
X9024944Y-15067984D02*
X9148753Y-15067984D01*
X9272563Y-14867984D02*
X9291610Y-14867984D01*
X9291610Y-14867984D02*
X9310658Y-14877508D01*
X9310658Y-14877508D02*
X9320182Y-14887031D01*
X9320182Y-14887031D02*
X9329705Y-14906079D01*
X9329705Y-14906079D02*
X9339229Y-14944174D01*
X9339229Y-14944174D02*
X9339229Y-14991793D01*
X9339229Y-14991793D02*
X9329705Y-15029888D01*
X9329705Y-15029888D02*
X9320182Y-15048936D01*
X9320182Y-15048936D02*
X9310658Y-15058460D01*
X9310658Y-15058460D02*
X9291610Y-15067984D01*
X9291610Y-15067984D02*
X9272563Y-15067984D01*
X9272563Y-15067984D02*
X9253515Y-15058460D01*
X9253515Y-15058460D02*
X9243991Y-15048936D01*
X9243991Y-15048936D02*
X9234467Y-15029888D01*
X9234467Y-15029888D02*
X9224944Y-14991793D01*
X9224944Y-14991793D02*
X9224944Y-14944174D01*
X9224944Y-14944174D02*
X9234467Y-14906079D01*
X9234467Y-14906079D02*
X9243991Y-14887031D01*
X9243991Y-14887031D02*
X9253515Y-14877508D01*
X9253515Y-14877508D02*
X9272563Y-14867984D01*
X9463039Y-14867984D02*
X9482086Y-14867984D01*
X9482086Y-14867984D02*
X9501134Y-14877508D01*
X9501134Y-14877508D02*
X9510658Y-14887031D01*
X9510658Y-14887031D02*
X9520182Y-14906079D01*
X9520182Y-14906079D02*
X9529705Y-14944174D01*
X9529705Y-14944174D02*
X9529705Y-14991793D01*
X9529705Y-14991793D02*
X9520182Y-15029888D01*
X9520182Y-15029888D02*
X9510658Y-15048936D01*
X9510658Y-15048936D02*
X9501134Y-15058460D01*
X9501134Y-15058460D02*
X9482086Y-15067984D01*
X9482086Y-15067984D02*
X9463039Y-15067984D01*
X9463039Y-15067984D02*
X9443991Y-15058460D01*
X9443991Y-15058460D02*
X9434467Y-15048936D01*
X9434467Y-15048936D02*
X9424944Y-15029888D01*
X9424944Y-15029888D02*
X9415420Y-14991793D01*
X9415420Y-14991793D02*
X9415420Y-14944174D01*
X9415420Y-14944174D02*
X9424944Y-14906079D01*
X9424944Y-14906079D02*
X9434467Y-14887031D01*
X9434467Y-14887031D02*
X9443991Y-14877508D01*
X9443991Y-14877508D02*
X9463039Y-14867984D01*
X9615420Y-15067984D02*
X9615420Y-14934650D01*
X9615420Y-14953698D02*
X9624944Y-14944174D01*
X9624944Y-14944174D02*
X9643991Y-14934650D01*
X9643991Y-14934650D02*
X9672563Y-14934650D01*
X9672563Y-14934650D02*
X9691610Y-14944174D01*
X9691610Y-14944174D02*
X9701134Y-14963222D01*
X9701134Y-14963222D02*
X9701134Y-15067984D01*
X9701134Y-14963222D02*
X9710658Y-14944174D01*
X9710658Y-14944174D02*
X9729705Y-14934650D01*
X9729705Y-14934650D02*
X9758277Y-14934650D01*
X9758277Y-14934650D02*
X9777325Y-14944174D01*
X9777325Y-14944174D02*
X9786848Y-14963222D01*
X9786848Y-14963222D02*
X9786848Y-15067984D01*
X9882086Y-15067984D02*
X9882086Y-14934650D01*
X9882086Y-14953698D02*
X9891610Y-14944174D01*
X9891610Y-14944174D02*
X9910658Y-14934650D01*
X9910658Y-14934650D02*
X9939229Y-14934650D01*
X9939229Y-14934650D02*
X9958277Y-14944174D01*
X9958277Y-14944174D02*
X9967801Y-14963222D01*
X9967801Y-14963222D02*
X9967801Y-15067984D01*
X9967801Y-14963222D02*
X9977325Y-14944174D01*
X9977325Y-14944174D02*
X9996372Y-14934650D01*
X9996372Y-14934650D02*
X10024944Y-14934650D01*
X10024944Y-14934650D02*
X10043991Y-14944174D01*
X10043991Y-14944174D02*
X10053515Y-14963222D01*
X10053515Y-14963222D02*
X10053515Y-15067984D01*
X10443991Y-14858460D02*
X10272563Y-15115603D01*
X10701134Y-14867984D02*
X10720182Y-14867984D01*
X10720182Y-14867984D02*
X10739229Y-14877508D01*
X10739229Y-14877508D02*
X10748753Y-14887031D01*
X10748753Y-14887031D02*
X10758277Y-14906079D01*
X10758277Y-14906079D02*
X10767801Y-14944174D01*
X10767801Y-14944174D02*
X10767801Y-14991793D01*
X10767801Y-14991793D02*
X10758277Y-15029888D01*
X10758277Y-15029888D02*
X10748753Y-15048936D01*
X10748753Y-15048936D02*
X10739229Y-15058460D01*
X10739229Y-15058460D02*
X10720182Y-15067984D01*
X10720182Y-15067984D02*
X10701134Y-15067984D01*
X10701134Y-15067984D02*
X10682087Y-15058460D01*
X10682087Y-15058460D02*
X10672563Y-15048936D01*
X10672563Y-15048936D02*
X10663039Y-15029888D01*
X10663039Y-15029888D02*
X10653515Y-14991793D01*
X10653515Y-14991793D02*
X10653515Y-14944174D01*
X10653515Y-14944174D02*
X10663039Y-14906079D01*
X10663039Y-14906079D02*
X10672563Y-14887031D01*
X10672563Y-14887031D02*
X10682087Y-14877508D01*
X10682087Y-14877508D02*
X10701134Y-14867984D01*
X10853515Y-15048936D02*
X10863039Y-15058460D01*
X10863039Y-15058460D02*
X10853515Y-15067984D01*
X10853515Y-15067984D02*
X10843991Y-15058460D01*
X10843991Y-15058460D02*
X10853515Y-15048936D01*
X10853515Y-15048936D02*
X10853515Y-15067984D01*
X10986848Y-14867984D02*
X11005896Y-14867984D01*
X11005896Y-14867984D02*
X11024944Y-14877508D01*
X11024944Y-14877508D02*
X11034468Y-14887031D01*
X11034468Y-14887031D02*
X11043991Y-14906079D01*
X11043991Y-14906079D02*
X11053515Y-14944174D01*
X11053515Y-14944174D02*
X11053515Y-14991793D01*
X11053515Y-14991793D02*
X11043991Y-15029888D01*
X11043991Y-15029888D02*
X11034468Y-15048936D01*
X11034468Y-15048936D02*
X11024944Y-15058460D01*
X11024944Y-15058460D02*
X11005896Y-15067984D01*
X11005896Y-15067984D02*
X10986848Y-15067984D01*
X10986848Y-15067984D02*
X10967801Y-15058460D01*
X10967801Y-15058460D02*
X10958277Y-15048936D01*
X10958277Y-15048936D02*
X10948753Y-15029888D01*
X10948753Y-15029888D02*
X10939229Y-14991793D01*
X10939229Y-14991793D02*
X10939229Y-14944174D01*
X10939229Y-14944174D02*
X10948753Y-14906079D01*
X10948753Y-14906079D02*
X10958277Y-14887031D01*
X10958277Y-14887031D02*
X10967801Y-14877508D01*
X10967801Y-14877508D02*
X10986848Y-14867984D01*
X11224944Y-14934650D02*
X11224944Y-15067984D01*
X11177325Y-14858460D02*
X11129706Y-15001317D01*
X11129706Y-15001317D02*
X11253515Y-15001317D01*
X11310658Y-14867984D02*
X11443991Y-14867984D01*
X11443991Y-14867984D02*
X11358277Y-15067984D01*
X11510658Y-14887031D02*
X11520182Y-14877508D01*
X11520182Y-14877508D02*
X11539229Y-14867984D01*
X11539229Y-14867984D02*
X11586848Y-14867984D01*
X11586848Y-14867984D02*
X11605896Y-14877508D01*
X11605896Y-14877508D02*
X11615420Y-14887031D01*
X11615420Y-14887031D02*
X11624944Y-14906079D01*
X11624944Y-14906079D02*
X11624944Y-14925127D01*
X11624944Y-14925127D02*
X11615420Y-14953698D01*
X11615420Y-14953698D02*
X11501134Y-15067984D01*
X11501134Y-15067984D02*
X11624944Y-15067984D01*
X11701134Y-14867984D02*
X11701134Y-14906079D01*
X11777325Y-14867984D02*
X11777325Y-14906079D01*
X12072563Y-15144174D02*
X12063039Y-15134650D01*
X12063039Y-15134650D02*
X12043991Y-15106079D01*
X12043991Y-15106079D02*
X12034468Y-15087031D01*
X12034468Y-15087031D02*
X12024944Y-15058460D01*
X12024944Y-15058460D02*
X12015420Y-15010841D01*
X12015420Y-15010841D02*
X12015420Y-14972746D01*
X12015420Y-14972746D02*
X12024944Y-14925127D01*
X12024944Y-14925127D02*
X12034468Y-14896555D01*
X12034468Y-14896555D02*
X12043991Y-14877508D01*
X12043991Y-14877508D02*
X12063039Y-14848936D01*
X12063039Y-14848936D02*
X12072563Y-14839412D01*
X12234468Y-14934650D02*
X12234468Y-15067984D01*
X12186848Y-14858460D02*
X12139229Y-15001317D01*
X12139229Y-15001317D02*
X12263039Y-15001317D01*
X12491610Y-15067984D02*
X12491610Y-14867984D01*
X12577325Y-15067984D02*
X12577325Y-14963222D01*
X12577325Y-14963222D02*
X12567801Y-14944174D01*
X12567801Y-14944174D02*
X12548753Y-14934650D01*
X12548753Y-14934650D02*
X12520182Y-14934650D01*
X12520182Y-14934650D02*
X12501134Y-14944174D01*
X12501134Y-14944174D02*
X12491610Y-14953698D01*
X12701134Y-15067984D02*
X12682087Y-15058460D01*
X12682087Y-15058460D02*
X12672563Y-15048936D01*
X12672563Y-15048936D02*
X12663039Y-15029888D01*
X12663039Y-15029888D02*
X12663039Y-14972746D01*
X12663039Y-14972746D02*
X12672563Y-14953698D01*
X12672563Y-14953698D02*
X12682087Y-14944174D01*
X12682087Y-14944174D02*
X12701134Y-14934650D01*
X12701134Y-14934650D02*
X12729706Y-14934650D01*
X12729706Y-14934650D02*
X12748753Y-14944174D01*
X12748753Y-14944174D02*
X12758277Y-14953698D01*
X12758277Y-14953698D02*
X12767801Y-14972746D01*
X12767801Y-14972746D02*
X12767801Y-15029888D01*
X12767801Y-15029888D02*
X12758277Y-15048936D01*
X12758277Y-15048936D02*
X12748753Y-15058460D01*
X12748753Y-15058460D02*
X12729706Y-15067984D01*
X12729706Y-15067984D02*
X12701134Y-15067984D01*
X12882087Y-15067984D02*
X12863039Y-15058460D01*
X12863039Y-15058460D02*
X12853515Y-15039412D01*
X12853515Y-15039412D02*
X12853515Y-14867984D01*
X13034468Y-15058460D02*
X13015420Y-15067984D01*
X13015420Y-15067984D02*
X12977325Y-15067984D01*
X12977325Y-15067984D02*
X12958277Y-15058460D01*
X12958277Y-15058460D02*
X12948753Y-15039412D01*
X12948753Y-15039412D02*
X12948753Y-14963222D01*
X12948753Y-14963222D02*
X12958277Y-14944174D01*
X12958277Y-14944174D02*
X12977325Y-14934650D01*
X12977325Y-14934650D02*
X13015420Y-14934650D01*
X13015420Y-14934650D02*
X13034468Y-14944174D01*
X13034468Y-14944174D02*
X13043991Y-14963222D01*
X13043991Y-14963222D02*
X13043991Y-14982269D01*
X13043991Y-14982269D02*
X12948753Y-15001317D01*
X13120182Y-15058460D02*
X13139230Y-15067984D01*
X13139230Y-15067984D02*
X13177325Y-15067984D01*
X13177325Y-15067984D02*
X13196372Y-15058460D01*
X13196372Y-15058460D02*
X13205896Y-15039412D01*
X13205896Y-15039412D02*
X13205896Y-15029888D01*
X13205896Y-15029888D02*
X13196372Y-15010841D01*
X13196372Y-15010841D02*
X13177325Y-15001317D01*
X13177325Y-15001317D02*
X13148753Y-15001317D01*
X13148753Y-15001317D02*
X13129706Y-14991793D01*
X13129706Y-14991793D02*
X13120182Y-14972746D01*
X13120182Y-14972746D02*
X13120182Y-14963222D01*
X13120182Y-14963222D02*
X13129706Y-14944174D01*
X13129706Y-14944174D02*
X13148753Y-14934650D01*
X13148753Y-14934650D02*
X13177325Y-14934650D01*
X13177325Y-14934650D02*
X13196372Y-14944174D01*
X13272563Y-15144174D02*
X13282087Y-15134650D01*
X13282087Y-15134650D02*
X13301134Y-15106079D01*
X13301134Y-15106079D02*
X13310658Y-15087031D01*
X13310658Y-15087031D02*
X13320182Y-15058460D01*
X13320182Y-15058460D02*
X13329706Y-15010841D01*
X13329706Y-15010841D02*
X13329706Y-14972746D01*
X13329706Y-14972746D02*
X13320182Y-14925127D01*
X13320182Y-14925127D02*
X13310658Y-14896555D01*
X13310658Y-14896555D02*
X13301134Y-14877508D01*
X13301134Y-14877508D02*
X13282087Y-14848936D01*
X13282087Y-14848936D02*
X13272563Y-14839412D01*
D15*
X8367500Y-15175500D02*
X8497500Y-15305500D01*
X8497500Y-15175500D02*
X8367500Y-15305500D01*
X8478462Y-15286462D02*
X8478462Y-15194538D01*
X8386538Y-15194538D01*
X8386538Y-15286462D01*
X8478462Y-15286462D01*
D11*
X8863039Y-15331984D02*
X8748753Y-15331984D01*
X8805896Y-15331984D02*
X8805896Y-15131984D01*
X8805896Y-15131984D02*
X8786848Y-15160555D01*
X8786848Y-15160555D02*
X8767801Y-15179603D01*
X8767801Y-15179603D02*
X8748753Y-15189127D01*
X8948753Y-15312936D02*
X8958277Y-15322460D01*
X8958277Y-15322460D02*
X8948753Y-15331984D01*
X8948753Y-15331984D02*
X8939229Y-15322460D01*
X8939229Y-15322460D02*
X8948753Y-15312936D01*
X8948753Y-15312936D02*
X8948753Y-15331984D01*
X9024944Y-15131984D02*
X9148753Y-15131984D01*
X9148753Y-15131984D02*
X9082086Y-15208174D01*
X9082086Y-15208174D02*
X9110658Y-15208174D01*
X9110658Y-15208174D02*
X9129705Y-15217698D01*
X9129705Y-15217698D02*
X9139229Y-15227222D01*
X9139229Y-15227222D02*
X9148753Y-15246269D01*
X9148753Y-15246269D02*
X9148753Y-15293888D01*
X9148753Y-15293888D02*
X9139229Y-15312936D01*
X9139229Y-15312936D02*
X9129705Y-15322460D01*
X9129705Y-15322460D02*
X9110658Y-15331984D01*
X9110658Y-15331984D02*
X9053515Y-15331984D01*
X9053515Y-15331984D02*
X9034467Y-15322460D01*
X9034467Y-15322460D02*
X9024944Y-15312936D01*
X9272563Y-15131984D02*
X9291610Y-15131984D01*
X9291610Y-15131984D02*
X9310658Y-15141508D01*
X9310658Y-15141508D02*
X9320182Y-15151031D01*
X9320182Y-15151031D02*
X9329705Y-15170079D01*
X9329705Y-15170079D02*
X9339229Y-15208174D01*
X9339229Y-15208174D02*
X9339229Y-15255793D01*
X9339229Y-15255793D02*
X9329705Y-15293888D01*
X9329705Y-15293888D02*
X9320182Y-15312936D01*
X9320182Y-15312936D02*
X9310658Y-15322460D01*
X9310658Y-15322460D02*
X9291610Y-15331984D01*
X9291610Y-15331984D02*
X9272563Y-15331984D01*
X9272563Y-15331984D02*
X9253515Y-15322460D01*
X9253515Y-15322460D02*
X9243991Y-15312936D01*
X9243991Y-15312936D02*
X9234467Y-15293888D01*
X9234467Y-15293888D02*
X9224944Y-15255793D01*
X9224944Y-15255793D02*
X9224944Y-15208174D01*
X9224944Y-15208174D02*
X9234467Y-15170079D01*
X9234467Y-15170079D02*
X9243991Y-15151031D01*
X9243991Y-15151031D02*
X9253515Y-15141508D01*
X9253515Y-15141508D02*
X9272563Y-15131984D01*
X9463039Y-15131984D02*
X9482086Y-15131984D01*
X9482086Y-15131984D02*
X9501134Y-15141508D01*
X9501134Y-15141508D02*
X9510658Y-15151031D01*
X9510658Y-15151031D02*
X9520182Y-15170079D01*
X9520182Y-15170079D02*
X9529705Y-15208174D01*
X9529705Y-15208174D02*
X9529705Y-15255793D01*
X9529705Y-15255793D02*
X9520182Y-15293888D01*
X9520182Y-15293888D02*
X9510658Y-15312936D01*
X9510658Y-15312936D02*
X9501134Y-15322460D01*
X9501134Y-15322460D02*
X9482086Y-15331984D01*
X9482086Y-15331984D02*
X9463039Y-15331984D01*
X9463039Y-15331984D02*
X9443991Y-15322460D01*
X9443991Y-15322460D02*
X9434467Y-15312936D01*
X9434467Y-15312936D02*
X9424944Y-15293888D01*
X9424944Y-15293888D02*
X9415420Y-15255793D01*
X9415420Y-15255793D02*
X9415420Y-15208174D01*
X9415420Y-15208174D02*
X9424944Y-15170079D01*
X9424944Y-15170079D02*
X9434467Y-15151031D01*
X9434467Y-15151031D02*
X9443991Y-15141508D01*
X9443991Y-15141508D02*
X9463039Y-15131984D01*
X9615420Y-15331984D02*
X9615420Y-15198650D01*
X9615420Y-15217698D02*
X9624944Y-15208174D01*
X9624944Y-15208174D02*
X9643991Y-15198650D01*
X9643991Y-15198650D02*
X9672563Y-15198650D01*
X9672563Y-15198650D02*
X9691610Y-15208174D01*
X9691610Y-15208174D02*
X9701134Y-15227222D01*
X9701134Y-15227222D02*
X9701134Y-15331984D01*
X9701134Y-15227222D02*
X9710658Y-15208174D01*
X9710658Y-15208174D02*
X9729705Y-15198650D01*
X9729705Y-15198650D02*
X9758277Y-15198650D01*
X9758277Y-15198650D02*
X9777325Y-15208174D01*
X9777325Y-15208174D02*
X9786848Y-15227222D01*
X9786848Y-15227222D02*
X9786848Y-15331984D01*
X9882086Y-15331984D02*
X9882086Y-15198650D01*
X9882086Y-15217698D02*
X9891610Y-15208174D01*
X9891610Y-15208174D02*
X9910658Y-15198650D01*
X9910658Y-15198650D02*
X9939229Y-15198650D01*
X9939229Y-15198650D02*
X9958277Y-15208174D01*
X9958277Y-15208174D02*
X9967801Y-15227222D01*
X9967801Y-15227222D02*
X9967801Y-15331984D01*
X9967801Y-15227222D02*
X9977325Y-15208174D01*
X9977325Y-15208174D02*
X9996372Y-15198650D01*
X9996372Y-15198650D02*
X10024944Y-15198650D01*
X10024944Y-15198650D02*
X10043991Y-15208174D01*
X10043991Y-15208174D02*
X10053515Y-15227222D01*
X10053515Y-15227222D02*
X10053515Y-15331984D01*
X10443991Y-15122460D02*
X10272563Y-15379603D01*
X10701134Y-15131984D02*
X10720182Y-15131984D01*
X10720182Y-15131984D02*
X10739229Y-15141508D01*
X10739229Y-15141508D02*
X10748753Y-15151031D01*
X10748753Y-15151031D02*
X10758277Y-15170079D01*
X10758277Y-15170079D02*
X10767801Y-15208174D01*
X10767801Y-15208174D02*
X10767801Y-15255793D01*
X10767801Y-15255793D02*
X10758277Y-15293888D01*
X10758277Y-15293888D02*
X10748753Y-15312936D01*
X10748753Y-15312936D02*
X10739229Y-15322460D01*
X10739229Y-15322460D02*
X10720182Y-15331984D01*
X10720182Y-15331984D02*
X10701134Y-15331984D01*
X10701134Y-15331984D02*
X10682087Y-15322460D01*
X10682087Y-15322460D02*
X10672563Y-15312936D01*
X10672563Y-15312936D02*
X10663039Y-15293888D01*
X10663039Y-15293888D02*
X10653515Y-15255793D01*
X10653515Y-15255793D02*
X10653515Y-15208174D01*
X10653515Y-15208174D02*
X10663039Y-15170079D01*
X10663039Y-15170079D02*
X10672563Y-15151031D01*
X10672563Y-15151031D02*
X10682087Y-15141508D01*
X10682087Y-15141508D02*
X10701134Y-15131984D01*
X10853515Y-15312936D02*
X10863039Y-15322460D01*
X10863039Y-15322460D02*
X10853515Y-15331984D01*
X10853515Y-15331984D02*
X10843991Y-15322460D01*
X10843991Y-15322460D02*
X10853515Y-15312936D01*
X10853515Y-15312936D02*
X10853515Y-15331984D01*
X10986848Y-15131984D02*
X11005896Y-15131984D01*
X11005896Y-15131984D02*
X11024944Y-15141508D01*
X11024944Y-15141508D02*
X11034468Y-15151031D01*
X11034468Y-15151031D02*
X11043991Y-15170079D01*
X11043991Y-15170079D02*
X11053515Y-15208174D01*
X11053515Y-15208174D02*
X11053515Y-15255793D01*
X11053515Y-15255793D02*
X11043991Y-15293888D01*
X11043991Y-15293888D02*
X11034468Y-15312936D01*
X11034468Y-15312936D02*
X11024944Y-15322460D01*
X11024944Y-15322460D02*
X11005896Y-15331984D01*
X11005896Y-15331984D02*
X10986848Y-15331984D01*
X10986848Y-15331984D02*
X10967801Y-15322460D01*
X10967801Y-15322460D02*
X10958277Y-15312936D01*
X10958277Y-15312936D02*
X10948753Y-15293888D01*
X10948753Y-15293888D02*
X10939229Y-15255793D01*
X10939229Y-15255793D02*
X10939229Y-15208174D01*
X10939229Y-15208174D02*
X10948753Y-15170079D01*
X10948753Y-15170079D02*
X10958277Y-15151031D01*
X10958277Y-15151031D02*
X10967801Y-15141508D01*
X10967801Y-15141508D02*
X10986848Y-15131984D01*
X11234467Y-15131984D02*
X11139229Y-15131984D01*
X11139229Y-15131984D02*
X11129706Y-15227222D01*
X11129706Y-15227222D02*
X11139229Y-15217698D01*
X11139229Y-15217698D02*
X11158277Y-15208174D01*
X11158277Y-15208174D02*
X11205896Y-15208174D01*
X11205896Y-15208174D02*
X11224944Y-15217698D01*
X11224944Y-15217698D02*
X11234467Y-15227222D01*
X11234467Y-15227222D02*
X11243991Y-15246269D01*
X11243991Y-15246269D02*
X11243991Y-15293888D01*
X11243991Y-15293888D02*
X11234467Y-15312936D01*
X11234467Y-15312936D02*
X11224944Y-15322460D01*
X11224944Y-15322460D02*
X11205896Y-15331984D01*
X11205896Y-15331984D02*
X11158277Y-15331984D01*
X11158277Y-15331984D02*
X11139229Y-15322460D01*
X11139229Y-15322460D02*
X11129706Y-15312936D01*
X11434467Y-15331984D02*
X11320182Y-15331984D01*
X11377325Y-15331984D02*
X11377325Y-15131984D01*
X11377325Y-15131984D02*
X11358277Y-15160555D01*
X11358277Y-15160555D02*
X11339229Y-15179603D01*
X11339229Y-15179603D02*
X11320182Y-15189127D01*
X11510658Y-15151031D02*
X11520182Y-15141508D01*
X11520182Y-15141508D02*
X11539229Y-15131984D01*
X11539229Y-15131984D02*
X11586848Y-15131984D01*
X11586848Y-15131984D02*
X11605896Y-15141508D01*
X11605896Y-15141508D02*
X11615420Y-15151031D01*
X11615420Y-15151031D02*
X11624944Y-15170079D01*
X11624944Y-15170079D02*
X11624944Y-15189127D01*
X11624944Y-15189127D02*
X11615420Y-15217698D01*
X11615420Y-15217698D02*
X11501134Y-15331984D01*
X11501134Y-15331984D02*
X11624944Y-15331984D01*
X11701134Y-15131984D02*
X11701134Y-15170079D01*
X11777325Y-15131984D02*
X11777325Y-15170079D01*
X12072563Y-15408174D02*
X12063039Y-15398650D01*
X12063039Y-15398650D02*
X12043991Y-15370079D01*
X12043991Y-15370079D02*
X12034468Y-15351031D01*
X12034468Y-15351031D02*
X12024944Y-15322460D01*
X12024944Y-15322460D02*
X12015420Y-15274841D01*
X12015420Y-15274841D02*
X12015420Y-15236746D01*
X12015420Y-15236746D02*
X12024944Y-15189127D01*
X12024944Y-15189127D02*
X12034468Y-15160555D01*
X12034468Y-15160555D02*
X12043991Y-15141508D01*
X12043991Y-15141508D02*
X12063039Y-15112936D01*
X12063039Y-15112936D02*
X12072563Y-15103412D01*
X12234468Y-15131984D02*
X12196372Y-15131984D01*
X12196372Y-15131984D02*
X12177325Y-15141508D01*
X12177325Y-15141508D02*
X12167801Y-15151031D01*
X12167801Y-15151031D02*
X12148753Y-15179603D01*
X12148753Y-15179603D02*
X12139229Y-15217698D01*
X12139229Y-15217698D02*
X12139229Y-15293888D01*
X12139229Y-15293888D02*
X12148753Y-15312936D01*
X12148753Y-15312936D02*
X12158277Y-15322460D01*
X12158277Y-15322460D02*
X12177325Y-15331984D01*
X12177325Y-15331984D02*
X12215420Y-15331984D01*
X12215420Y-15331984D02*
X12234468Y-15322460D01*
X12234468Y-15322460D02*
X12243991Y-15312936D01*
X12243991Y-15312936D02*
X12253515Y-15293888D01*
X12253515Y-15293888D02*
X12253515Y-15246269D01*
X12253515Y-15246269D02*
X12243991Y-15227222D01*
X12243991Y-15227222D02*
X12234468Y-15217698D01*
X12234468Y-15217698D02*
X12215420Y-15208174D01*
X12215420Y-15208174D02*
X12177325Y-15208174D01*
X12177325Y-15208174D02*
X12158277Y-15217698D01*
X12158277Y-15217698D02*
X12148753Y-15227222D01*
X12148753Y-15227222D02*
X12139229Y-15246269D01*
X12491610Y-15331984D02*
X12491610Y-15131984D01*
X12577325Y-15331984D02*
X12577325Y-15227222D01*
X12577325Y-15227222D02*
X12567801Y-15208174D01*
X12567801Y-15208174D02*
X12548753Y-15198650D01*
X12548753Y-15198650D02*
X12520182Y-15198650D01*
X12520182Y-15198650D02*
X12501134Y-15208174D01*
X12501134Y-15208174D02*
X12491610Y-15217698D01*
X12701134Y-15331984D02*
X12682087Y-15322460D01*
X12682087Y-15322460D02*
X12672563Y-15312936D01*
X12672563Y-15312936D02*
X12663039Y-15293888D01*
X12663039Y-15293888D02*
X12663039Y-15236746D01*
X12663039Y-15236746D02*
X12672563Y-15217698D01*
X12672563Y-15217698D02*
X12682087Y-15208174D01*
X12682087Y-15208174D02*
X12701134Y-15198650D01*
X12701134Y-15198650D02*
X12729706Y-15198650D01*
X12729706Y-15198650D02*
X12748753Y-15208174D01*
X12748753Y-15208174D02*
X12758277Y-15217698D01*
X12758277Y-15217698D02*
X12767801Y-15236746D01*
X12767801Y-15236746D02*
X12767801Y-15293888D01*
X12767801Y-15293888D02*
X12758277Y-15312936D01*
X12758277Y-15312936D02*
X12748753Y-15322460D01*
X12748753Y-15322460D02*
X12729706Y-15331984D01*
X12729706Y-15331984D02*
X12701134Y-15331984D01*
X12882087Y-15331984D02*
X12863039Y-15322460D01*
X12863039Y-15322460D02*
X12853515Y-15303412D01*
X12853515Y-15303412D02*
X12853515Y-15131984D01*
X13034468Y-15322460D02*
X13015420Y-15331984D01*
X13015420Y-15331984D02*
X12977325Y-15331984D01*
X12977325Y-15331984D02*
X12958277Y-15322460D01*
X12958277Y-15322460D02*
X12948753Y-15303412D01*
X12948753Y-15303412D02*
X12948753Y-15227222D01*
X12948753Y-15227222D02*
X12958277Y-15208174D01*
X12958277Y-15208174D02*
X12977325Y-15198650D01*
X12977325Y-15198650D02*
X13015420Y-15198650D01*
X13015420Y-15198650D02*
X13034468Y-15208174D01*
X13034468Y-15208174D02*
X13043991Y-15227222D01*
X13043991Y-15227222D02*
X13043991Y-15246269D01*
X13043991Y-15246269D02*
X12948753Y-15265317D01*
X13120182Y-15322460D02*
X13139230Y-15331984D01*
X13139230Y-15331984D02*
X13177325Y-15331984D01*
X13177325Y-15331984D02*
X13196372Y-15322460D01*
X13196372Y-15322460D02*
X13205896Y-15303412D01*
X13205896Y-15303412D02*
X13205896Y-15293888D01*
X13205896Y-15293888D02*
X13196372Y-15274841D01*
X13196372Y-15274841D02*
X13177325Y-15265317D01*
X13177325Y-15265317D02*
X13148753Y-15265317D01*
X13148753Y-15265317D02*
X13129706Y-15255793D01*
X13129706Y-15255793D02*
X13120182Y-15236746D01*
X13120182Y-15236746D02*
X13120182Y-15227222D01*
X13120182Y-15227222D02*
X13129706Y-15208174D01*
X13129706Y-15208174D02*
X13148753Y-15198650D01*
X13148753Y-15198650D02*
X13177325Y-15198650D01*
X13177325Y-15198650D02*
X13196372Y-15208174D01*
X13272563Y-15408174D02*
X13282087Y-15398650D01*
X13282087Y-15398650D02*
X13301134Y-15370079D01*
X13301134Y-15370079D02*
X13310658Y-15351031D01*
X13310658Y-15351031D02*
X13320182Y-15322460D01*
X13320182Y-15322460D02*
X13329706Y-15274841D01*
X13329706Y-15274841D02*
X13329706Y-15236746D01*
X13329706Y-15236746D02*
X13320182Y-15189127D01*
X13320182Y-15189127D02*
X13310658Y-15160555D01*
X13310658Y-15160555D02*
X13301134Y-15141508D01*
X13301134Y-15141508D02*
X13282087Y-15112936D01*
X13282087Y-15112936D02*
X13272563Y-15103412D01*
D16*
X8357500Y-15434500D02*
X8497500Y-15574500D01*
X8497500Y-15434500D02*
X8357500Y-15574500D01*
X8427500Y-15574500D02*
X8497500Y-15504500D01*
X8427500Y-15434500D01*
X8357500Y-15504500D01*
X8427500Y-15574500D01*
D11*
X8863039Y-15595984D02*
X8748753Y-15595984D01*
X8805896Y-15595984D02*
X8805896Y-15395984D01*
X8805896Y-15395984D02*
X8786848Y-15424555D01*
X8786848Y-15424555D02*
X8767801Y-15443603D01*
X8767801Y-15443603D02*
X8748753Y-15453127D01*
X8948753Y-15576936D02*
X8958277Y-15586460D01*
X8958277Y-15586460D02*
X8948753Y-15595984D01*
X8948753Y-15595984D02*
X8939229Y-15586460D01*
X8939229Y-15586460D02*
X8948753Y-15576936D01*
X8948753Y-15576936D02*
X8948753Y-15595984D01*
X9129705Y-15462650D02*
X9129705Y-15595984D01*
X9082086Y-15386460D02*
X9034467Y-15529317D01*
X9034467Y-15529317D02*
X9158277Y-15529317D01*
X9272563Y-15395984D02*
X9291610Y-15395984D01*
X9291610Y-15395984D02*
X9310658Y-15405508D01*
X9310658Y-15405508D02*
X9320182Y-15415031D01*
X9320182Y-15415031D02*
X9329705Y-15434079D01*
X9329705Y-15434079D02*
X9339229Y-15472174D01*
X9339229Y-15472174D02*
X9339229Y-15519793D01*
X9339229Y-15519793D02*
X9329705Y-15557888D01*
X9329705Y-15557888D02*
X9320182Y-15576936D01*
X9320182Y-15576936D02*
X9310658Y-15586460D01*
X9310658Y-15586460D02*
X9291610Y-15595984D01*
X9291610Y-15595984D02*
X9272563Y-15595984D01*
X9272563Y-15595984D02*
X9253515Y-15586460D01*
X9253515Y-15586460D02*
X9243991Y-15576936D01*
X9243991Y-15576936D02*
X9234467Y-15557888D01*
X9234467Y-15557888D02*
X9224944Y-15519793D01*
X9224944Y-15519793D02*
X9224944Y-15472174D01*
X9224944Y-15472174D02*
X9234467Y-15434079D01*
X9234467Y-15434079D02*
X9243991Y-15415031D01*
X9243991Y-15415031D02*
X9253515Y-15405508D01*
X9253515Y-15405508D02*
X9272563Y-15395984D01*
X9463039Y-15395984D02*
X9482086Y-15395984D01*
X9482086Y-15395984D02*
X9501134Y-15405508D01*
X9501134Y-15405508D02*
X9510658Y-15415031D01*
X9510658Y-15415031D02*
X9520182Y-15434079D01*
X9520182Y-15434079D02*
X9529705Y-15472174D01*
X9529705Y-15472174D02*
X9529705Y-15519793D01*
X9529705Y-15519793D02*
X9520182Y-15557888D01*
X9520182Y-15557888D02*
X9510658Y-15576936D01*
X9510658Y-15576936D02*
X9501134Y-15586460D01*
X9501134Y-15586460D02*
X9482086Y-15595984D01*
X9482086Y-15595984D02*
X9463039Y-15595984D01*
X9463039Y-15595984D02*
X9443991Y-15586460D01*
X9443991Y-15586460D02*
X9434467Y-15576936D01*
X9434467Y-15576936D02*
X9424944Y-15557888D01*
X9424944Y-15557888D02*
X9415420Y-15519793D01*
X9415420Y-15519793D02*
X9415420Y-15472174D01*
X9415420Y-15472174D02*
X9424944Y-15434079D01*
X9424944Y-15434079D02*
X9434467Y-15415031D01*
X9434467Y-15415031D02*
X9443991Y-15405508D01*
X9443991Y-15405508D02*
X9463039Y-15395984D01*
X9615420Y-15595984D02*
X9615420Y-15462650D01*
X9615420Y-15481698D02*
X9624944Y-15472174D01*
X9624944Y-15472174D02*
X9643991Y-15462650D01*
X9643991Y-15462650D02*
X9672563Y-15462650D01*
X9672563Y-15462650D02*
X9691610Y-15472174D01*
X9691610Y-15472174D02*
X9701134Y-15491222D01*
X9701134Y-15491222D02*
X9701134Y-15595984D01*
X9701134Y-15491222D02*
X9710658Y-15472174D01*
X9710658Y-15472174D02*
X9729705Y-15462650D01*
X9729705Y-15462650D02*
X9758277Y-15462650D01*
X9758277Y-15462650D02*
X9777325Y-15472174D01*
X9777325Y-15472174D02*
X9786848Y-15491222D01*
X9786848Y-15491222D02*
X9786848Y-15595984D01*
X9882086Y-15595984D02*
X9882086Y-15462650D01*
X9882086Y-15481698D02*
X9891610Y-15472174D01*
X9891610Y-15472174D02*
X9910658Y-15462650D01*
X9910658Y-15462650D02*
X9939229Y-15462650D01*
X9939229Y-15462650D02*
X9958277Y-15472174D01*
X9958277Y-15472174D02*
X9967801Y-15491222D01*
X9967801Y-15491222D02*
X9967801Y-15595984D01*
X9967801Y-15491222D02*
X9977325Y-15472174D01*
X9977325Y-15472174D02*
X9996372Y-15462650D01*
X9996372Y-15462650D02*
X10024944Y-15462650D01*
X10024944Y-15462650D02*
X10043991Y-15472174D01*
X10043991Y-15472174D02*
X10053515Y-15491222D01*
X10053515Y-15491222D02*
X10053515Y-15595984D01*
X10443991Y-15386460D02*
X10272563Y-15643603D01*
X10701134Y-15395984D02*
X10720182Y-15395984D01*
X10720182Y-15395984D02*
X10739229Y-15405508D01*
X10739229Y-15405508D02*
X10748753Y-15415031D01*
X10748753Y-15415031D02*
X10758277Y-15434079D01*
X10758277Y-15434079D02*
X10767801Y-15472174D01*
X10767801Y-15472174D02*
X10767801Y-15519793D01*
X10767801Y-15519793D02*
X10758277Y-15557888D01*
X10758277Y-15557888D02*
X10748753Y-15576936D01*
X10748753Y-15576936D02*
X10739229Y-15586460D01*
X10739229Y-15586460D02*
X10720182Y-15595984D01*
X10720182Y-15595984D02*
X10701134Y-15595984D01*
X10701134Y-15595984D02*
X10682087Y-15586460D01*
X10682087Y-15586460D02*
X10672563Y-15576936D01*
X10672563Y-15576936D02*
X10663039Y-15557888D01*
X10663039Y-15557888D02*
X10653515Y-15519793D01*
X10653515Y-15519793D02*
X10653515Y-15472174D01*
X10653515Y-15472174D02*
X10663039Y-15434079D01*
X10663039Y-15434079D02*
X10672563Y-15415031D01*
X10672563Y-15415031D02*
X10682087Y-15405508D01*
X10682087Y-15405508D02*
X10701134Y-15395984D01*
X10853515Y-15576936D02*
X10863039Y-15586460D01*
X10863039Y-15586460D02*
X10853515Y-15595984D01*
X10853515Y-15595984D02*
X10843991Y-15586460D01*
X10843991Y-15586460D02*
X10853515Y-15576936D01*
X10853515Y-15576936D02*
X10853515Y-15595984D01*
X10986848Y-15395984D02*
X11005896Y-15395984D01*
X11005896Y-15395984D02*
X11024944Y-15405508D01*
X11024944Y-15405508D02*
X11034468Y-15415031D01*
X11034468Y-15415031D02*
X11043991Y-15434079D01*
X11043991Y-15434079D02*
X11053515Y-15472174D01*
X11053515Y-15472174D02*
X11053515Y-15519793D01*
X11053515Y-15519793D02*
X11043991Y-15557888D01*
X11043991Y-15557888D02*
X11034468Y-15576936D01*
X11034468Y-15576936D02*
X11024944Y-15586460D01*
X11024944Y-15586460D02*
X11005896Y-15595984D01*
X11005896Y-15595984D02*
X10986848Y-15595984D01*
X10986848Y-15595984D02*
X10967801Y-15586460D01*
X10967801Y-15586460D02*
X10958277Y-15576936D01*
X10958277Y-15576936D02*
X10948753Y-15557888D01*
X10948753Y-15557888D02*
X10939229Y-15519793D01*
X10939229Y-15519793D02*
X10939229Y-15472174D01*
X10939229Y-15472174D02*
X10948753Y-15434079D01*
X10948753Y-15434079D02*
X10958277Y-15415031D01*
X10958277Y-15415031D02*
X10967801Y-15405508D01*
X10967801Y-15405508D02*
X10986848Y-15395984D01*
X11234467Y-15395984D02*
X11139229Y-15395984D01*
X11139229Y-15395984D02*
X11129706Y-15491222D01*
X11129706Y-15491222D02*
X11139229Y-15481698D01*
X11139229Y-15481698D02*
X11158277Y-15472174D01*
X11158277Y-15472174D02*
X11205896Y-15472174D01*
X11205896Y-15472174D02*
X11224944Y-15481698D01*
X11224944Y-15481698D02*
X11234467Y-15491222D01*
X11234467Y-15491222D02*
X11243991Y-15510269D01*
X11243991Y-15510269D02*
X11243991Y-15557888D01*
X11243991Y-15557888D02*
X11234467Y-15576936D01*
X11234467Y-15576936D02*
X11224944Y-15586460D01*
X11224944Y-15586460D02*
X11205896Y-15595984D01*
X11205896Y-15595984D02*
X11158277Y-15595984D01*
X11158277Y-15595984D02*
X11139229Y-15586460D01*
X11139229Y-15586460D02*
X11129706Y-15576936D01*
X11424944Y-15395984D02*
X11329706Y-15395984D01*
X11329706Y-15395984D02*
X11320182Y-15491222D01*
X11320182Y-15491222D02*
X11329706Y-15481698D01*
X11329706Y-15481698D02*
X11348753Y-15472174D01*
X11348753Y-15472174D02*
X11396372Y-15472174D01*
X11396372Y-15472174D02*
X11415420Y-15481698D01*
X11415420Y-15481698D02*
X11424944Y-15491222D01*
X11424944Y-15491222D02*
X11434467Y-15510269D01*
X11434467Y-15510269D02*
X11434467Y-15557888D01*
X11434467Y-15557888D02*
X11424944Y-15576936D01*
X11424944Y-15576936D02*
X11415420Y-15586460D01*
X11415420Y-15586460D02*
X11396372Y-15595984D01*
X11396372Y-15595984D02*
X11348753Y-15595984D01*
X11348753Y-15595984D02*
X11329706Y-15586460D01*
X11329706Y-15586460D02*
X11320182Y-15576936D01*
X11624944Y-15595984D02*
X11510658Y-15595984D01*
X11567801Y-15595984D02*
X11567801Y-15395984D01*
X11567801Y-15395984D02*
X11548753Y-15424555D01*
X11548753Y-15424555D02*
X11529706Y-15443603D01*
X11529706Y-15443603D02*
X11510658Y-15453127D01*
X11701134Y-15395984D02*
X11701134Y-15434079D01*
X11777325Y-15395984D02*
X11777325Y-15434079D01*
X12072563Y-15672174D02*
X12063039Y-15662650D01*
X12063039Y-15662650D02*
X12043991Y-15634079D01*
X12043991Y-15634079D02*
X12034468Y-15615031D01*
X12034468Y-15615031D02*
X12024944Y-15586460D01*
X12024944Y-15586460D02*
X12015420Y-15538841D01*
X12015420Y-15538841D02*
X12015420Y-15500746D01*
X12015420Y-15500746D02*
X12024944Y-15453127D01*
X12024944Y-15453127D02*
X12034468Y-15424555D01*
X12034468Y-15424555D02*
X12043991Y-15405508D01*
X12043991Y-15405508D02*
X12063039Y-15376936D01*
X12063039Y-15376936D02*
X12072563Y-15367412D01*
X12234468Y-15462650D02*
X12234468Y-15595984D01*
X12186848Y-15386460D02*
X12139229Y-15529317D01*
X12139229Y-15529317D02*
X12263039Y-15529317D01*
X12491610Y-15595984D02*
X12491610Y-15395984D01*
X12577325Y-15595984D02*
X12577325Y-15491222D01*
X12577325Y-15491222D02*
X12567801Y-15472174D01*
X12567801Y-15472174D02*
X12548753Y-15462650D01*
X12548753Y-15462650D02*
X12520182Y-15462650D01*
X12520182Y-15462650D02*
X12501134Y-15472174D01*
X12501134Y-15472174D02*
X12491610Y-15481698D01*
X12701134Y-15595984D02*
X12682087Y-15586460D01*
X12682087Y-15586460D02*
X12672563Y-15576936D01*
X12672563Y-15576936D02*
X12663039Y-15557888D01*
X12663039Y-15557888D02*
X12663039Y-15500746D01*
X12663039Y-15500746D02*
X12672563Y-15481698D01*
X12672563Y-15481698D02*
X12682087Y-15472174D01*
X12682087Y-15472174D02*
X12701134Y-15462650D01*
X12701134Y-15462650D02*
X12729706Y-15462650D01*
X12729706Y-15462650D02*
X12748753Y-15472174D01*
X12748753Y-15472174D02*
X12758277Y-15481698D01*
X12758277Y-15481698D02*
X12767801Y-15500746D01*
X12767801Y-15500746D02*
X12767801Y-15557888D01*
X12767801Y-15557888D02*
X12758277Y-15576936D01*
X12758277Y-15576936D02*
X12748753Y-15586460D01*
X12748753Y-15586460D02*
X12729706Y-15595984D01*
X12729706Y-15595984D02*
X12701134Y-15595984D01*
X12882087Y-15595984D02*
X12863039Y-15586460D01*
X12863039Y-15586460D02*
X12853515Y-15567412D01*
X12853515Y-15567412D02*
X12853515Y-15395984D01*
X13034468Y-15586460D02*
X13015420Y-15595984D01*
X13015420Y-15595984D02*
X12977325Y-15595984D01*
X12977325Y-15595984D02*
X12958277Y-15586460D01*
X12958277Y-15586460D02*
X12948753Y-15567412D01*
X12948753Y-15567412D02*
X12948753Y-15491222D01*
X12948753Y-15491222D02*
X12958277Y-15472174D01*
X12958277Y-15472174D02*
X12977325Y-15462650D01*
X12977325Y-15462650D02*
X13015420Y-15462650D01*
X13015420Y-15462650D02*
X13034468Y-15472174D01*
X13034468Y-15472174D02*
X13043991Y-15491222D01*
X13043991Y-15491222D02*
X13043991Y-15510269D01*
X13043991Y-15510269D02*
X12948753Y-15529317D01*
X13120182Y-15586460D02*
X13139230Y-15595984D01*
X13139230Y-15595984D02*
X13177325Y-15595984D01*
X13177325Y-15595984D02*
X13196372Y-15586460D01*
X13196372Y-15586460D02*
X13205896Y-15567412D01*
X13205896Y-15567412D02*
X13205896Y-15557888D01*
X13205896Y-15557888D02*
X13196372Y-15538841D01*
X13196372Y-15538841D02*
X13177325Y-15529317D01*
X13177325Y-15529317D02*
X13148753Y-15529317D01*
X13148753Y-15529317D02*
X13129706Y-15519793D01*
X13129706Y-15519793D02*
X13120182Y-15500746D01*
X13120182Y-15500746D02*
X13120182Y-15491222D01*
X13120182Y-15491222D02*
X13129706Y-15472174D01*
X13129706Y-15472174D02*
X13148753Y-15462650D01*
X13148753Y-15462650D02*
X13177325Y-15462650D01*
X13177325Y-15462650D02*
X13196372Y-15472174D01*
X13272563Y-15672174D02*
X13282087Y-15662650D01*
X13282087Y-15662650D02*
X13301134Y-15634079D01*
X13301134Y-15634079D02*
X13310658Y-15615031D01*
X13310658Y-15615031D02*
X13320182Y-15586460D01*
X13320182Y-15586460D02*
X13329706Y-15538841D01*
X13329706Y-15538841D02*
X13329706Y-15500746D01*
X13329706Y-15500746D02*
X13320182Y-15453127D01*
X13320182Y-15453127D02*
X13310658Y-15424555D01*
X13310658Y-15424555D02*
X13301134Y-15405508D01*
X13301134Y-15405508D02*
X13282087Y-15376936D01*
X13282087Y-15376936D02*
X13272563Y-15367412D01*
D17*
X8419000Y-15690000D02*
X8419000Y-15847000D01*
X8340500Y-15768500D02*
X8497500Y-15768500D01*
X8497500Y-15768500D02*
G75*
G02*
X8340500Y-15768500I-78500J0D01*
G01*
X8340500Y-15768500D02*
G75*
G02*
X8497500Y-15768500I78500J0D01*
G01*
D11*
X8863039Y-15859984D02*
X8748753Y-15859984D01*
X8805896Y-15859984D02*
X8805896Y-15659984D01*
X8805896Y-15659984D02*
X8786848Y-15688555D01*
X8786848Y-15688555D02*
X8767801Y-15707603D01*
X8767801Y-15707603D02*
X8748753Y-15717127D01*
X8948753Y-15840936D02*
X8958277Y-15850460D01*
X8958277Y-15850460D02*
X8948753Y-15859984D01*
X8948753Y-15859984D02*
X8939229Y-15850460D01*
X8939229Y-15850460D02*
X8948753Y-15840936D01*
X8948753Y-15840936D02*
X8948753Y-15859984D01*
X9139229Y-15659984D02*
X9043991Y-15659984D01*
X9043991Y-15659984D02*
X9034467Y-15755222D01*
X9034467Y-15755222D02*
X9043991Y-15745698D01*
X9043991Y-15745698D02*
X9063039Y-15736174D01*
X9063039Y-15736174D02*
X9110658Y-15736174D01*
X9110658Y-15736174D02*
X9129705Y-15745698D01*
X9129705Y-15745698D02*
X9139229Y-15755222D01*
X9139229Y-15755222D02*
X9148753Y-15774269D01*
X9148753Y-15774269D02*
X9148753Y-15821888D01*
X9148753Y-15821888D02*
X9139229Y-15840936D01*
X9139229Y-15840936D02*
X9129705Y-15850460D01*
X9129705Y-15850460D02*
X9110658Y-15859984D01*
X9110658Y-15859984D02*
X9063039Y-15859984D01*
X9063039Y-15859984D02*
X9043991Y-15850460D01*
X9043991Y-15850460D02*
X9034467Y-15840936D01*
X9215420Y-15659984D02*
X9348753Y-15659984D01*
X9348753Y-15659984D02*
X9263039Y-15859984D01*
X9463039Y-15659984D02*
X9482086Y-15659984D01*
X9482086Y-15659984D02*
X9501134Y-15669508D01*
X9501134Y-15669508D02*
X9510658Y-15679031D01*
X9510658Y-15679031D02*
X9520182Y-15698079D01*
X9520182Y-15698079D02*
X9529705Y-15736174D01*
X9529705Y-15736174D02*
X9529705Y-15783793D01*
X9529705Y-15783793D02*
X9520182Y-15821888D01*
X9520182Y-15821888D02*
X9510658Y-15840936D01*
X9510658Y-15840936D02*
X9501134Y-15850460D01*
X9501134Y-15850460D02*
X9482086Y-15859984D01*
X9482086Y-15859984D02*
X9463039Y-15859984D01*
X9463039Y-15859984D02*
X9443991Y-15850460D01*
X9443991Y-15850460D02*
X9434467Y-15840936D01*
X9434467Y-15840936D02*
X9424944Y-15821888D01*
X9424944Y-15821888D02*
X9415420Y-15783793D01*
X9415420Y-15783793D02*
X9415420Y-15736174D01*
X9415420Y-15736174D02*
X9424944Y-15698079D01*
X9424944Y-15698079D02*
X9434467Y-15679031D01*
X9434467Y-15679031D02*
X9443991Y-15669508D01*
X9443991Y-15669508D02*
X9463039Y-15659984D01*
X9615420Y-15859984D02*
X9615420Y-15726650D01*
X9615420Y-15745698D02*
X9624944Y-15736174D01*
X9624944Y-15736174D02*
X9643991Y-15726650D01*
X9643991Y-15726650D02*
X9672563Y-15726650D01*
X9672563Y-15726650D02*
X9691610Y-15736174D01*
X9691610Y-15736174D02*
X9701134Y-15755222D01*
X9701134Y-15755222D02*
X9701134Y-15859984D01*
X9701134Y-15755222D02*
X9710658Y-15736174D01*
X9710658Y-15736174D02*
X9729705Y-15726650D01*
X9729705Y-15726650D02*
X9758277Y-15726650D01*
X9758277Y-15726650D02*
X9777325Y-15736174D01*
X9777325Y-15736174D02*
X9786848Y-15755222D01*
X9786848Y-15755222D02*
X9786848Y-15859984D01*
X9882086Y-15859984D02*
X9882086Y-15726650D01*
X9882086Y-15745698D02*
X9891610Y-15736174D01*
X9891610Y-15736174D02*
X9910658Y-15726650D01*
X9910658Y-15726650D02*
X9939229Y-15726650D01*
X9939229Y-15726650D02*
X9958277Y-15736174D01*
X9958277Y-15736174D02*
X9967801Y-15755222D01*
X9967801Y-15755222D02*
X9967801Y-15859984D01*
X9967801Y-15755222D02*
X9977325Y-15736174D01*
X9977325Y-15736174D02*
X9996372Y-15726650D01*
X9996372Y-15726650D02*
X10024944Y-15726650D01*
X10024944Y-15726650D02*
X10043991Y-15736174D01*
X10043991Y-15736174D02*
X10053515Y-15755222D01*
X10053515Y-15755222D02*
X10053515Y-15859984D01*
X10443991Y-15650460D02*
X10272563Y-15907603D01*
X10701134Y-15659984D02*
X10720182Y-15659984D01*
X10720182Y-15659984D02*
X10739229Y-15669508D01*
X10739229Y-15669508D02*
X10748753Y-15679031D01*
X10748753Y-15679031D02*
X10758277Y-15698079D01*
X10758277Y-15698079D02*
X10767801Y-15736174D01*
X10767801Y-15736174D02*
X10767801Y-15783793D01*
X10767801Y-15783793D02*
X10758277Y-15821888D01*
X10758277Y-15821888D02*
X10748753Y-15840936D01*
X10748753Y-15840936D02*
X10739229Y-15850460D01*
X10739229Y-15850460D02*
X10720182Y-15859984D01*
X10720182Y-15859984D02*
X10701134Y-15859984D01*
X10701134Y-15859984D02*
X10682087Y-15850460D01*
X10682087Y-15850460D02*
X10672563Y-15840936D01*
X10672563Y-15840936D02*
X10663039Y-15821888D01*
X10663039Y-15821888D02*
X10653515Y-15783793D01*
X10653515Y-15783793D02*
X10653515Y-15736174D01*
X10653515Y-15736174D02*
X10663039Y-15698079D01*
X10663039Y-15698079D02*
X10672563Y-15679031D01*
X10672563Y-15679031D02*
X10682087Y-15669508D01*
X10682087Y-15669508D02*
X10701134Y-15659984D01*
X10853515Y-15840936D02*
X10863039Y-15850460D01*
X10863039Y-15850460D02*
X10853515Y-15859984D01*
X10853515Y-15859984D02*
X10843991Y-15850460D01*
X10843991Y-15850460D02*
X10853515Y-15840936D01*
X10853515Y-15840936D02*
X10853515Y-15859984D01*
X10986848Y-15659984D02*
X11005896Y-15659984D01*
X11005896Y-15659984D02*
X11024944Y-15669508D01*
X11024944Y-15669508D02*
X11034468Y-15679031D01*
X11034468Y-15679031D02*
X11043991Y-15698079D01*
X11043991Y-15698079D02*
X11053515Y-15736174D01*
X11053515Y-15736174D02*
X11053515Y-15783793D01*
X11053515Y-15783793D02*
X11043991Y-15821888D01*
X11043991Y-15821888D02*
X11034468Y-15840936D01*
X11034468Y-15840936D02*
X11024944Y-15850460D01*
X11024944Y-15850460D02*
X11005896Y-15859984D01*
X11005896Y-15859984D02*
X10986848Y-15859984D01*
X10986848Y-15859984D02*
X10967801Y-15850460D01*
X10967801Y-15850460D02*
X10958277Y-15840936D01*
X10958277Y-15840936D02*
X10948753Y-15821888D01*
X10948753Y-15821888D02*
X10939229Y-15783793D01*
X10939229Y-15783793D02*
X10939229Y-15736174D01*
X10939229Y-15736174D02*
X10948753Y-15698079D01*
X10948753Y-15698079D02*
X10958277Y-15679031D01*
X10958277Y-15679031D02*
X10967801Y-15669508D01*
X10967801Y-15669508D02*
X10986848Y-15659984D01*
X11224944Y-15659984D02*
X11186848Y-15659984D01*
X11186848Y-15659984D02*
X11167801Y-15669508D01*
X11167801Y-15669508D02*
X11158277Y-15679031D01*
X11158277Y-15679031D02*
X11139229Y-15707603D01*
X11139229Y-15707603D02*
X11129706Y-15745698D01*
X11129706Y-15745698D02*
X11129706Y-15821888D01*
X11129706Y-15821888D02*
X11139229Y-15840936D01*
X11139229Y-15840936D02*
X11148753Y-15850460D01*
X11148753Y-15850460D02*
X11167801Y-15859984D01*
X11167801Y-15859984D02*
X11205896Y-15859984D01*
X11205896Y-15859984D02*
X11224944Y-15850460D01*
X11224944Y-15850460D02*
X11234467Y-15840936D01*
X11234467Y-15840936D02*
X11243991Y-15821888D01*
X11243991Y-15821888D02*
X11243991Y-15774269D01*
X11243991Y-15774269D02*
X11234467Y-15755222D01*
X11234467Y-15755222D02*
X11224944Y-15745698D01*
X11224944Y-15745698D02*
X11205896Y-15736174D01*
X11205896Y-15736174D02*
X11167801Y-15736174D01*
X11167801Y-15736174D02*
X11148753Y-15745698D01*
X11148753Y-15745698D02*
X11139229Y-15755222D01*
X11139229Y-15755222D02*
X11129706Y-15774269D01*
X11434467Y-15859984D02*
X11320182Y-15859984D01*
X11377325Y-15859984D02*
X11377325Y-15659984D01*
X11377325Y-15659984D02*
X11358277Y-15688555D01*
X11358277Y-15688555D02*
X11339229Y-15707603D01*
X11339229Y-15707603D02*
X11320182Y-15717127D01*
X11548753Y-15745698D02*
X11529706Y-15736174D01*
X11529706Y-15736174D02*
X11520182Y-15726650D01*
X11520182Y-15726650D02*
X11510658Y-15707603D01*
X11510658Y-15707603D02*
X11510658Y-15698079D01*
X11510658Y-15698079D02*
X11520182Y-15679031D01*
X11520182Y-15679031D02*
X11529706Y-15669508D01*
X11529706Y-15669508D02*
X11548753Y-15659984D01*
X11548753Y-15659984D02*
X11586848Y-15659984D01*
X11586848Y-15659984D02*
X11605896Y-15669508D01*
X11605896Y-15669508D02*
X11615420Y-15679031D01*
X11615420Y-15679031D02*
X11624944Y-15698079D01*
X11624944Y-15698079D02*
X11624944Y-15707603D01*
X11624944Y-15707603D02*
X11615420Y-15726650D01*
X11615420Y-15726650D02*
X11605896Y-15736174D01*
X11605896Y-15736174D02*
X11586848Y-15745698D01*
X11586848Y-15745698D02*
X11548753Y-15745698D01*
X11548753Y-15745698D02*
X11529706Y-15755222D01*
X11529706Y-15755222D02*
X11520182Y-15764746D01*
X11520182Y-15764746D02*
X11510658Y-15783793D01*
X11510658Y-15783793D02*
X11510658Y-15821888D01*
X11510658Y-15821888D02*
X11520182Y-15840936D01*
X11520182Y-15840936D02*
X11529706Y-15850460D01*
X11529706Y-15850460D02*
X11548753Y-15859984D01*
X11548753Y-15859984D02*
X11586848Y-15859984D01*
X11586848Y-15859984D02*
X11605896Y-15850460D01*
X11605896Y-15850460D02*
X11615420Y-15840936D01*
X11615420Y-15840936D02*
X11624944Y-15821888D01*
X11624944Y-15821888D02*
X11624944Y-15783793D01*
X11624944Y-15783793D02*
X11615420Y-15764746D01*
X11615420Y-15764746D02*
X11605896Y-15755222D01*
X11605896Y-15755222D02*
X11586848Y-15745698D01*
X11701134Y-15659984D02*
X11701134Y-15698079D01*
X11777325Y-15659984D02*
X11777325Y-15698079D01*
X12072563Y-15936174D02*
X12063039Y-15926650D01*
X12063039Y-15926650D02*
X12043991Y-15898079D01*
X12043991Y-15898079D02*
X12034468Y-15879031D01*
X12034468Y-15879031D02*
X12024944Y-15850460D01*
X12024944Y-15850460D02*
X12015420Y-15802841D01*
X12015420Y-15802841D02*
X12015420Y-15764746D01*
X12015420Y-15764746D02*
X12024944Y-15717127D01*
X12024944Y-15717127D02*
X12034468Y-15688555D01*
X12034468Y-15688555D02*
X12043991Y-15669508D01*
X12043991Y-15669508D02*
X12063039Y-15640936D01*
X12063039Y-15640936D02*
X12072563Y-15631412D01*
X12234468Y-15726650D02*
X12234468Y-15859984D01*
X12186848Y-15650460D02*
X12139229Y-15793317D01*
X12139229Y-15793317D02*
X12263039Y-15793317D01*
X12491610Y-15859984D02*
X12491610Y-15659984D01*
X12577325Y-15859984D02*
X12577325Y-15755222D01*
X12577325Y-15755222D02*
X12567801Y-15736174D01*
X12567801Y-15736174D02*
X12548753Y-15726650D01*
X12548753Y-15726650D02*
X12520182Y-15726650D01*
X12520182Y-15726650D02*
X12501134Y-15736174D01*
X12501134Y-15736174D02*
X12491610Y-15745698D01*
X12701134Y-15859984D02*
X12682087Y-15850460D01*
X12682087Y-15850460D02*
X12672563Y-15840936D01*
X12672563Y-15840936D02*
X12663039Y-15821888D01*
X12663039Y-15821888D02*
X12663039Y-15764746D01*
X12663039Y-15764746D02*
X12672563Y-15745698D01*
X12672563Y-15745698D02*
X12682087Y-15736174D01*
X12682087Y-15736174D02*
X12701134Y-15726650D01*
X12701134Y-15726650D02*
X12729706Y-15726650D01*
X12729706Y-15726650D02*
X12748753Y-15736174D01*
X12748753Y-15736174D02*
X12758277Y-15745698D01*
X12758277Y-15745698D02*
X12767801Y-15764746D01*
X12767801Y-15764746D02*
X12767801Y-15821888D01*
X12767801Y-15821888D02*
X12758277Y-15840936D01*
X12758277Y-15840936D02*
X12748753Y-15850460D01*
X12748753Y-15850460D02*
X12729706Y-15859984D01*
X12729706Y-15859984D02*
X12701134Y-15859984D01*
X12882087Y-15859984D02*
X12863039Y-15850460D01*
X12863039Y-15850460D02*
X12853515Y-15831412D01*
X12853515Y-15831412D02*
X12853515Y-15659984D01*
X13034468Y-15850460D02*
X13015420Y-15859984D01*
X13015420Y-15859984D02*
X12977325Y-15859984D01*
X12977325Y-15859984D02*
X12958277Y-15850460D01*
X12958277Y-15850460D02*
X12948753Y-15831412D01*
X12948753Y-15831412D02*
X12948753Y-15755222D01*
X12948753Y-15755222D02*
X12958277Y-15736174D01*
X12958277Y-15736174D02*
X12977325Y-15726650D01*
X12977325Y-15726650D02*
X13015420Y-15726650D01*
X13015420Y-15726650D02*
X13034468Y-15736174D01*
X13034468Y-15736174D02*
X13043991Y-15755222D01*
X13043991Y-15755222D02*
X13043991Y-15774269D01*
X13043991Y-15774269D02*
X12948753Y-15793317D01*
X13120182Y-15850460D02*
X13139230Y-15859984D01*
X13139230Y-15859984D02*
X13177325Y-15859984D01*
X13177325Y-15859984D02*
X13196372Y-15850460D01*
X13196372Y-15850460D02*
X13205896Y-15831412D01*
X13205896Y-15831412D02*
X13205896Y-15821888D01*
X13205896Y-15821888D02*
X13196372Y-15802841D01*
X13196372Y-15802841D02*
X13177325Y-15793317D01*
X13177325Y-15793317D02*
X13148753Y-15793317D01*
X13148753Y-15793317D02*
X13129706Y-15783793D01*
X13129706Y-15783793D02*
X13120182Y-15764746D01*
X13120182Y-15764746D02*
X13120182Y-15755222D01*
X13120182Y-15755222D02*
X13129706Y-15736174D01*
X13129706Y-15736174D02*
X13148753Y-15726650D01*
X13148753Y-15726650D02*
X13177325Y-15726650D01*
X13177325Y-15726650D02*
X13196372Y-15736174D01*
X13272563Y-15936174D02*
X13282087Y-15926650D01*
X13282087Y-15926650D02*
X13301134Y-15898079D01*
X13301134Y-15898079D02*
X13310658Y-15879031D01*
X13310658Y-15879031D02*
X13320182Y-15850460D01*
X13320182Y-15850460D02*
X13329706Y-15802841D01*
X13329706Y-15802841D02*
X13329706Y-15764746D01*
X13329706Y-15764746D02*
X13320182Y-15717127D01*
X13320182Y-15717127D02*
X13310658Y-15688555D01*
X13310658Y-15688555D02*
X13301134Y-15669508D01*
X13301134Y-15669508D02*
X13282087Y-15640936D01*
X13282087Y-15640936D02*
X13272563Y-15631412D01*
X8468211Y-16116211D02*
X8468211Y-15974789D01*
X8326789Y-15974789D01*
X8326789Y-16116211D01*
X8468211Y-16116211D01*
X8497500Y-16045500D02*
G75*
G02*
X8297500Y-16045500I-100000J0D01*
G01*
X8297500Y-16045500D02*
G75*
G02*
X8497500Y-16045500I100000J0D01*
G01*
X8748753Y-15956031D02*
X8758277Y-15946508D01*
X8758277Y-15946508D02*
X8777324Y-15936984D01*
X8777324Y-15936984D02*
X8824944Y-15936984D01*
X8824944Y-15936984D02*
X8843991Y-15946508D01*
X8843991Y-15946508D02*
X8853515Y-15956031D01*
X8853515Y-15956031D02*
X8863039Y-15975079D01*
X8863039Y-15975079D02*
X8863039Y-15994127D01*
X8863039Y-15994127D02*
X8853515Y-16022698D01*
X8853515Y-16022698D02*
X8739229Y-16136984D01*
X8739229Y-16136984D02*
X8863039Y-16136984D01*
X8948753Y-16117936D02*
X8958277Y-16127460D01*
X8958277Y-16127460D02*
X8948753Y-16136984D01*
X8948753Y-16136984D02*
X8939229Y-16127460D01*
X8939229Y-16127460D02*
X8948753Y-16117936D01*
X8948753Y-16117936D02*
X8948753Y-16136984D01*
X9129705Y-15936984D02*
X9091610Y-15936984D01*
X9091610Y-15936984D02*
X9072563Y-15946508D01*
X9072563Y-15946508D02*
X9063039Y-15956031D01*
X9063039Y-15956031D02*
X9043991Y-15984603D01*
X9043991Y-15984603D02*
X9034467Y-16022698D01*
X9034467Y-16022698D02*
X9034467Y-16098888D01*
X9034467Y-16098888D02*
X9043991Y-16117936D01*
X9043991Y-16117936D02*
X9053515Y-16127460D01*
X9053515Y-16127460D02*
X9072563Y-16136984D01*
X9072563Y-16136984D02*
X9110658Y-16136984D01*
X9110658Y-16136984D02*
X9129705Y-16127460D01*
X9129705Y-16127460D02*
X9139229Y-16117936D01*
X9139229Y-16117936D02*
X9148753Y-16098888D01*
X9148753Y-16098888D02*
X9148753Y-16051269D01*
X9148753Y-16051269D02*
X9139229Y-16032222D01*
X9139229Y-16032222D02*
X9129705Y-16022698D01*
X9129705Y-16022698D02*
X9110658Y-16013174D01*
X9110658Y-16013174D02*
X9072563Y-16013174D01*
X9072563Y-16013174D02*
X9053515Y-16022698D01*
X9053515Y-16022698D02*
X9043991Y-16032222D01*
X9043991Y-16032222D02*
X9034467Y-16051269D01*
X9272563Y-15936984D02*
X9291610Y-15936984D01*
X9291610Y-15936984D02*
X9310658Y-15946508D01*
X9310658Y-15946508D02*
X9320182Y-15956031D01*
X9320182Y-15956031D02*
X9329705Y-15975079D01*
X9329705Y-15975079D02*
X9339229Y-16013174D01*
X9339229Y-16013174D02*
X9339229Y-16060793D01*
X9339229Y-16060793D02*
X9329705Y-16098888D01*
X9329705Y-16098888D02*
X9320182Y-16117936D01*
X9320182Y-16117936D02*
X9310658Y-16127460D01*
X9310658Y-16127460D02*
X9291610Y-16136984D01*
X9291610Y-16136984D02*
X9272563Y-16136984D01*
X9272563Y-16136984D02*
X9253515Y-16127460D01*
X9253515Y-16127460D02*
X9243991Y-16117936D01*
X9243991Y-16117936D02*
X9234467Y-16098888D01*
X9234467Y-16098888D02*
X9224944Y-16060793D01*
X9224944Y-16060793D02*
X9224944Y-16013174D01*
X9224944Y-16013174D02*
X9234467Y-15975079D01*
X9234467Y-15975079D02*
X9243991Y-15956031D01*
X9243991Y-15956031D02*
X9253515Y-15946508D01*
X9253515Y-15946508D02*
X9272563Y-15936984D01*
X9463039Y-15936984D02*
X9482086Y-15936984D01*
X9482086Y-15936984D02*
X9501134Y-15946508D01*
X9501134Y-15946508D02*
X9510658Y-15956031D01*
X9510658Y-15956031D02*
X9520182Y-15975079D01*
X9520182Y-15975079D02*
X9529705Y-16013174D01*
X9529705Y-16013174D02*
X9529705Y-16060793D01*
X9529705Y-16060793D02*
X9520182Y-16098888D01*
X9520182Y-16098888D02*
X9510658Y-16117936D01*
X9510658Y-16117936D02*
X9501134Y-16127460D01*
X9501134Y-16127460D02*
X9482086Y-16136984D01*
X9482086Y-16136984D02*
X9463039Y-16136984D01*
X9463039Y-16136984D02*
X9443991Y-16127460D01*
X9443991Y-16127460D02*
X9434467Y-16117936D01*
X9434467Y-16117936D02*
X9424944Y-16098888D01*
X9424944Y-16098888D02*
X9415420Y-16060793D01*
X9415420Y-16060793D02*
X9415420Y-16013174D01*
X9415420Y-16013174D02*
X9424944Y-15975079D01*
X9424944Y-15975079D02*
X9434467Y-15956031D01*
X9434467Y-15956031D02*
X9443991Y-15946508D01*
X9443991Y-15946508D02*
X9463039Y-15936984D01*
X9615420Y-16136984D02*
X9615420Y-16003650D01*
X9615420Y-16022698D02*
X9624944Y-16013174D01*
X9624944Y-16013174D02*
X9643991Y-16003650D01*
X9643991Y-16003650D02*
X9672563Y-16003650D01*
X9672563Y-16003650D02*
X9691610Y-16013174D01*
X9691610Y-16013174D02*
X9701134Y-16032222D01*
X9701134Y-16032222D02*
X9701134Y-16136984D01*
X9701134Y-16032222D02*
X9710658Y-16013174D01*
X9710658Y-16013174D02*
X9729705Y-16003650D01*
X9729705Y-16003650D02*
X9758277Y-16003650D01*
X9758277Y-16003650D02*
X9777325Y-16013174D01*
X9777325Y-16013174D02*
X9786848Y-16032222D01*
X9786848Y-16032222D02*
X9786848Y-16136984D01*
X9882086Y-16136984D02*
X9882086Y-16003650D01*
X9882086Y-16022698D02*
X9891610Y-16013174D01*
X9891610Y-16013174D02*
X9910658Y-16003650D01*
X9910658Y-16003650D02*
X9939229Y-16003650D01*
X9939229Y-16003650D02*
X9958277Y-16013174D01*
X9958277Y-16013174D02*
X9967801Y-16032222D01*
X9967801Y-16032222D02*
X9967801Y-16136984D01*
X9967801Y-16032222D02*
X9977325Y-16013174D01*
X9977325Y-16013174D02*
X9996372Y-16003650D01*
X9996372Y-16003650D02*
X10024944Y-16003650D01*
X10024944Y-16003650D02*
X10043991Y-16013174D01*
X10043991Y-16013174D02*
X10053515Y-16032222D01*
X10053515Y-16032222D02*
X10053515Y-16136984D01*
X10443991Y-15927460D02*
X10272563Y-16184603D01*
X10701134Y-15936984D02*
X10720182Y-15936984D01*
X10720182Y-15936984D02*
X10739229Y-15946508D01*
X10739229Y-15946508D02*
X10748753Y-15956031D01*
X10748753Y-15956031D02*
X10758277Y-15975079D01*
X10758277Y-15975079D02*
X10767801Y-16013174D01*
X10767801Y-16013174D02*
X10767801Y-16060793D01*
X10767801Y-16060793D02*
X10758277Y-16098888D01*
X10758277Y-16098888D02*
X10748753Y-16117936D01*
X10748753Y-16117936D02*
X10739229Y-16127460D01*
X10739229Y-16127460D02*
X10720182Y-16136984D01*
X10720182Y-16136984D02*
X10701134Y-16136984D01*
X10701134Y-16136984D02*
X10682087Y-16127460D01*
X10682087Y-16127460D02*
X10672563Y-16117936D01*
X10672563Y-16117936D02*
X10663039Y-16098888D01*
X10663039Y-16098888D02*
X10653515Y-16060793D01*
X10653515Y-16060793D02*
X10653515Y-16013174D01*
X10653515Y-16013174D02*
X10663039Y-15975079D01*
X10663039Y-15975079D02*
X10672563Y-15956031D01*
X10672563Y-15956031D02*
X10682087Y-15946508D01*
X10682087Y-15946508D02*
X10701134Y-15936984D01*
X10853515Y-16117936D02*
X10863039Y-16127460D01*
X10863039Y-16127460D02*
X10853515Y-16136984D01*
X10853515Y-16136984D02*
X10843991Y-16127460D01*
X10843991Y-16127460D02*
X10853515Y-16117936D01*
X10853515Y-16117936D02*
X10853515Y-16136984D01*
X11053515Y-16136984D02*
X10939229Y-16136984D01*
X10996372Y-16136984D02*
X10996372Y-15936984D01*
X10996372Y-15936984D02*
X10977325Y-15965555D01*
X10977325Y-15965555D02*
X10958277Y-15984603D01*
X10958277Y-15984603D02*
X10939229Y-15994127D01*
X11177325Y-15936984D02*
X11196372Y-15936984D01*
X11196372Y-15936984D02*
X11215420Y-15946508D01*
X11215420Y-15946508D02*
X11224944Y-15956031D01*
X11224944Y-15956031D02*
X11234467Y-15975079D01*
X11234467Y-15975079D02*
X11243991Y-16013174D01*
X11243991Y-16013174D02*
X11243991Y-16060793D01*
X11243991Y-16060793D02*
X11234467Y-16098888D01*
X11234467Y-16098888D02*
X11224944Y-16117936D01*
X11224944Y-16117936D02*
X11215420Y-16127460D01*
X11215420Y-16127460D02*
X11196372Y-16136984D01*
X11196372Y-16136984D02*
X11177325Y-16136984D01*
X11177325Y-16136984D02*
X11158277Y-16127460D01*
X11158277Y-16127460D02*
X11148753Y-16117936D01*
X11148753Y-16117936D02*
X11139229Y-16098888D01*
X11139229Y-16098888D02*
X11129706Y-16060793D01*
X11129706Y-16060793D02*
X11129706Y-16013174D01*
X11129706Y-16013174D02*
X11139229Y-15975079D01*
X11139229Y-15975079D02*
X11148753Y-15956031D01*
X11148753Y-15956031D02*
X11158277Y-15946508D01*
X11158277Y-15946508D02*
X11177325Y-15936984D01*
X11320182Y-15956031D02*
X11329706Y-15946508D01*
X11329706Y-15946508D02*
X11348753Y-15936984D01*
X11348753Y-15936984D02*
X11396372Y-15936984D01*
X11396372Y-15936984D02*
X11415420Y-15946508D01*
X11415420Y-15946508D02*
X11424944Y-15956031D01*
X11424944Y-15956031D02*
X11434467Y-15975079D01*
X11434467Y-15975079D02*
X11434467Y-15994127D01*
X11434467Y-15994127D02*
X11424944Y-16022698D01*
X11424944Y-16022698D02*
X11310658Y-16136984D01*
X11310658Y-16136984D02*
X11434467Y-16136984D01*
X11605896Y-16003650D02*
X11605896Y-16136984D01*
X11558277Y-15927460D02*
X11510658Y-16070317D01*
X11510658Y-16070317D02*
X11634467Y-16070317D01*
X11701134Y-15936984D02*
X11701134Y-15975079D01*
X11777325Y-15936984D02*
X11777325Y-15975079D01*
X12072563Y-16213174D02*
X12063039Y-16203650D01*
X12063039Y-16203650D02*
X12043991Y-16175079D01*
X12043991Y-16175079D02*
X12034468Y-16156031D01*
X12034468Y-16156031D02*
X12024944Y-16127460D01*
X12024944Y-16127460D02*
X12015420Y-16079841D01*
X12015420Y-16079841D02*
X12015420Y-16041746D01*
X12015420Y-16041746D02*
X12024944Y-15994127D01*
X12024944Y-15994127D02*
X12034468Y-15965555D01*
X12034468Y-15965555D02*
X12043991Y-15946508D01*
X12043991Y-15946508D02*
X12063039Y-15917936D01*
X12063039Y-15917936D02*
X12072563Y-15908412D01*
X12139229Y-15956031D02*
X12148753Y-15946508D01*
X12148753Y-15946508D02*
X12167801Y-15936984D01*
X12167801Y-15936984D02*
X12215420Y-15936984D01*
X12215420Y-15936984D02*
X12234468Y-15946508D01*
X12234468Y-15946508D02*
X12243991Y-15956031D01*
X12243991Y-15956031D02*
X12253515Y-15975079D01*
X12253515Y-15975079D02*
X12253515Y-15994127D01*
X12253515Y-15994127D02*
X12243991Y-16022698D01*
X12243991Y-16022698D02*
X12129706Y-16136984D01*
X12129706Y-16136984D02*
X12253515Y-16136984D01*
X12491610Y-16136984D02*
X12491610Y-15936984D01*
X12577325Y-16136984D02*
X12577325Y-16032222D01*
X12577325Y-16032222D02*
X12567801Y-16013174D01*
X12567801Y-16013174D02*
X12548753Y-16003650D01*
X12548753Y-16003650D02*
X12520182Y-16003650D01*
X12520182Y-16003650D02*
X12501134Y-16013174D01*
X12501134Y-16013174D02*
X12491610Y-16022698D01*
X12701134Y-16136984D02*
X12682087Y-16127460D01*
X12682087Y-16127460D02*
X12672563Y-16117936D01*
X12672563Y-16117936D02*
X12663039Y-16098888D01*
X12663039Y-16098888D02*
X12663039Y-16041746D01*
X12663039Y-16041746D02*
X12672563Y-16022698D01*
X12672563Y-16022698D02*
X12682087Y-16013174D01*
X12682087Y-16013174D02*
X12701134Y-16003650D01*
X12701134Y-16003650D02*
X12729706Y-16003650D01*
X12729706Y-16003650D02*
X12748753Y-16013174D01*
X12748753Y-16013174D02*
X12758277Y-16022698D01*
X12758277Y-16022698D02*
X12767801Y-16041746D01*
X12767801Y-16041746D02*
X12767801Y-16098888D01*
X12767801Y-16098888D02*
X12758277Y-16117936D01*
X12758277Y-16117936D02*
X12748753Y-16127460D01*
X12748753Y-16127460D02*
X12729706Y-16136984D01*
X12729706Y-16136984D02*
X12701134Y-16136984D01*
X12882087Y-16136984D02*
X12863039Y-16127460D01*
X12863039Y-16127460D02*
X12853515Y-16108412D01*
X12853515Y-16108412D02*
X12853515Y-15936984D01*
X13034468Y-16127460D02*
X13015420Y-16136984D01*
X13015420Y-16136984D02*
X12977325Y-16136984D01*
X12977325Y-16136984D02*
X12958277Y-16127460D01*
X12958277Y-16127460D02*
X12948753Y-16108412D01*
X12948753Y-16108412D02*
X12948753Y-16032222D01*
X12948753Y-16032222D02*
X12958277Y-16013174D01*
X12958277Y-16013174D02*
X12977325Y-16003650D01*
X12977325Y-16003650D02*
X13015420Y-16003650D01*
X13015420Y-16003650D02*
X13034468Y-16013174D01*
X13034468Y-16013174D02*
X13043991Y-16032222D01*
X13043991Y-16032222D02*
X13043991Y-16051269D01*
X13043991Y-16051269D02*
X12948753Y-16070317D01*
X13120182Y-16127460D02*
X13139230Y-16136984D01*
X13139230Y-16136984D02*
X13177325Y-16136984D01*
X13177325Y-16136984D02*
X13196372Y-16127460D01*
X13196372Y-16127460D02*
X13205896Y-16108412D01*
X13205896Y-16108412D02*
X13205896Y-16098888D01*
X13205896Y-16098888D02*
X13196372Y-16079841D01*
X13196372Y-16079841D02*
X13177325Y-16070317D01*
X13177325Y-16070317D02*
X13148753Y-16070317D01*
X13148753Y-16070317D02*
X13129706Y-16060793D01*
X13129706Y-16060793D02*
X13120182Y-16041746D01*
X13120182Y-16041746D02*
X13120182Y-16032222D01*
X13120182Y-16032222D02*
X13129706Y-16013174D01*
X13129706Y-16013174D02*
X13148753Y-16003650D01*
X13148753Y-16003650D02*
X13177325Y-16003650D01*
X13177325Y-16003650D02*
X13196372Y-16013174D01*
X13272563Y-16213174D02*
X13282087Y-16203650D01*
X13282087Y-16203650D02*
X13301134Y-16175079D01*
X13301134Y-16175079D02*
X13310658Y-16156031D01*
X13310658Y-16156031D02*
X13320182Y-16127460D01*
X13320182Y-16127460D02*
X13329706Y-16079841D01*
X13329706Y-16079841D02*
X13329706Y-16041746D01*
X13329706Y-16041746D02*
X13320182Y-15994127D01*
X13320182Y-15994127D02*
X13310658Y-15965555D01*
X13310658Y-15965555D02*
X13301134Y-15946508D01*
X13301134Y-15946508D02*
X13282087Y-15917936D01*
X13282087Y-15917936D02*
X13272563Y-15908412D01*
M02*
