%TF.GenerationSoftware,KiCad,Pcbnew,9.0.6*%
%TF.CreationDate,2025-11-21T09:32:26+01:00*%
%TF.ProjectId,generator_strme_hrany_smd,67656e65-7261-4746-9f72-5f7374726d65,rev?*%
%TF.SameCoordinates,Original*%
%TF.FileFunction,Legend,Top*%
%TF.FilePolarity,Positive*%
%FSLAX46Y46*%
G04 Gerber Fmt 4.6, Leading zero omitted, Abs format (unit mm)*
G04 Created by KiCad (PCBNEW 9.0.6) date 2025-11-21 09:32:26*
%MOMM*%
%LPD*%
G01*
G04 APERTURE LIST*
%ADD10C,0.100000*%
%ADD11C,0.200000*%
%ADD12C,0.150000*%
%ADD13C,0.120000*%
G04 APERTURE END LIST*
D10*
X120904000Y-119126000D02*
X118364000Y-119126000D01*
X120904000Y-121920000D02*
X120904000Y-127762000D01*
X114808000Y-123952000D02*
X114808000Y-126492000D01*
X115824000Y-118618000D02*
X118364000Y-118618000D01*
X120396000Y-127762000D02*
X121412000Y-127762000D01*
X107696000Y-119126000D02*
X110236000Y-119126000D01*
X112776000Y-119634000D02*
X110236000Y-119634000D01*
X113792000Y-126492000D02*
X113792000Y-123952000D01*
X114300000Y-122174000D02*
X114300000Y-123952000D01*
X118364000Y-118618000D02*
X118364000Y-119634000D01*
X110236000Y-118618000D02*
X112776000Y-118618000D01*
X110236000Y-119634000D02*
X110236000Y-118618000D01*
X114300000Y-120650000D02*
X115316000Y-122174000D01*
X118364000Y-119634000D02*
X115824000Y-119634000D01*
X120904000Y-128270000D02*
X120396000Y-127762000D01*
X112776000Y-118618000D02*
X112776000Y-119634000D01*
X114300000Y-119126000D02*
X114300000Y-120650000D01*
X113792000Y-127762000D02*
X114808000Y-127762000D01*
X112776000Y-119126000D02*
X115824000Y-119126000D01*
X114300000Y-128270000D02*
X113792000Y-127762000D01*
X114808000Y-126492000D02*
X113792000Y-126492000D01*
X121412000Y-127762000D02*
X120904000Y-128270000D01*
X113792000Y-123952000D02*
X114808000Y-123952000D01*
X114808000Y-121920000D02*
X120904000Y-121920000D01*
X115824000Y-119634000D02*
X115824000Y-118618000D01*
X114808000Y-127762000D02*
X114300000Y-128270000D01*
X114300000Y-126492000D02*
X114300000Y-127762000D01*
X120618286Y-118490419D02*
X120618286Y-117490419D01*
X120618286Y-117490419D02*
X121189714Y-118490419D01*
X121189714Y-118490419D02*
X121189714Y-117490419D01*
X107434095Y-118490419D02*
X107434095Y-117490419D01*
X107434095Y-117490419D02*
X107815047Y-117490419D01*
X107815047Y-117490419D02*
X107910285Y-117538038D01*
X107910285Y-117538038D02*
X107957904Y-117585657D01*
X107957904Y-117585657D02*
X108005523Y-117680895D01*
X108005523Y-117680895D02*
X108005523Y-117823752D01*
X108005523Y-117823752D02*
X107957904Y-117918990D01*
X107957904Y-117918990D02*
X107910285Y-117966609D01*
X107910285Y-117966609D02*
X107815047Y-118014228D01*
X107815047Y-118014228D02*
X107434095Y-118014228D01*
D11*
X133469334Y-90828600D02*
X133612191Y-90876219D01*
X133612191Y-90876219D02*
X133850286Y-90876219D01*
X133850286Y-90876219D02*
X133945524Y-90828600D01*
X133945524Y-90828600D02*
X133993143Y-90780980D01*
X133993143Y-90780980D02*
X134040762Y-90685742D01*
X134040762Y-90685742D02*
X134040762Y-90590504D01*
X134040762Y-90590504D02*
X133993143Y-90495266D01*
X133993143Y-90495266D02*
X133945524Y-90447647D01*
X133945524Y-90447647D02*
X133850286Y-90400028D01*
X133850286Y-90400028D02*
X133659810Y-90352409D01*
X133659810Y-90352409D02*
X133564572Y-90304790D01*
X133564572Y-90304790D02*
X133516953Y-90257171D01*
X133516953Y-90257171D02*
X133469334Y-90161933D01*
X133469334Y-90161933D02*
X133469334Y-90066695D01*
X133469334Y-90066695D02*
X133516953Y-89971457D01*
X133516953Y-89971457D02*
X133564572Y-89923838D01*
X133564572Y-89923838D02*
X133659810Y-89876219D01*
X133659810Y-89876219D02*
X133897905Y-89876219D01*
X133897905Y-89876219D02*
X134040762Y-89923838D01*
X134469334Y-90876219D02*
X134469334Y-89876219D01*
X135469333Y-89923838D02*
X135374095Y-89876219D01*
X135374095Y-89876219D02*
X135231238Y-89876219D01*
X135231238Y-89876219D02*
X135088381Y-89923838D01*
X135088381Y-89923838D02*
X134993143Y-90019076D01*
X134993143Y-90019076D02*
X134945524Y-90114314D01*
X134945524Y-90114314D02*
X134897905Y-90304790D01*
X134897905Y-90304790D02*
X134897905Y-90447647D01*
X134897905Y-90447647D02*
X134945524Y-90638123D01*
X134945524Y-90638123D02*
X134993143Y-90733361D01*
X134993143Y-90733361D02*
X135088381Y-90828600D01*
X135088381Y-90828600D02*
X135231238Y-90876219D01*
X135231238Y-90876219D02*
X135326476Y-90876219D01*
X135326476Y-90876219D02*
X135469333Y-90828600D01*
X135469333Y-90828600D02*
X135516952Y-90780980D01*
X135516952Y-90780980D02*
X135516952Y-90447647D01*
X135516952Y-90447647D02*
X135326476Y-90447647D01*
X135945524Y-90495266D02*
X136707429Y-90495266D01*
X137183619Y-90876219D02*
X137183619Y-89876219D01*
X137183619Y-89876219D02*
X137755047Y-90876219D01*
X137755047Y-90876219D02*
X137755047Y-89876219D01*
D10*
X144652419Y-94376380D02*
X143652419Y-94376380D01*
X143652419Y-94376380D02*
X143652419Y-93995428D01*
X143652419Y-93995428D02*
X143700038Y-93900190D01*
X143700038Y-93900190D02*
X143747657Y-93852571D01*
X143747657Y-93852571D02*
X143842895Y-93804952D01*
X143842895Y-93804952D02*
X143985752Y-93804952D01*
X143985752Y-93804952D02*
X144080990Y-93852571D01*
X144080990Y-93852571D02*
X144128609Y-93900190D01*
X144128609Y-93900190D02*
X144176228Y-93995428D01*
X144176228Y-93995428D02*
X144176228Y-94376380D01*
X144652419Y-93376380D02*
X143985752Y-93376380D01*
X144176228Y-93376380D02*
X144080990Y-93328761D01*
X144080990Y-93328761D02*
X144033371Y-93281142D01*
X144033371Y-93281142D02*
X143985752Y-93185904D01*
X143985752Y-93185904D02*
X143985752Y-93090666D01*
X144652419Y-92614475D02*
X144604800Y-92709713D01*
X144604800Y-92709713D02*
X144557180Y-92757332D01*
X144557180Y-92757332D02*
X144461942Y-92804951D01*
X144461942Y-92804951D02*
X144176228Y-92804951D01*
X144176228Y-92804951D02*
X144080990Y-92757332D01*
X144080990Y-92757332D02*
X144033371Y-92709713D01*
X144033371Y-92709713D02*
X143985752Y-92614475D01*
X143985752Y-92614475D02*
X143985752Y-92471618D01*
X143985752Y-92471618D02*
X144033371Y-92376380D01*
X144033371Y-92376380D02*
X144080990Y-92328761D01*
X144080990Y-92328761D02*
X144176228Y-92281142D01*
X144176228Y-92281142D02*
X144461942Y-92281142D01*
X144461942Y-92281142D02*
X144557180Y-92328761D01*
X144557180Y-92328761D02*
X144604800Y-92376380D01*
X144604800Y-92376380D02*
X144652419Y-92471618D01*
X144652419Y-92471618D02*
X144652419Y-92614475D01*
X144652419Y-91852570D02*
X143652419Y-91852570D01*
X144033371Y-91852570D02*
X143985752Y-91757332D01*
X143985752Y-91757332D02*
X143985752Y-91566856D01*
X143985752Y-91566856D02*
X144033371Y-91471618D01*
X144033371Y-91471618D02*
X144080990Y-91423999D01*
X144080990Y-91423999D02*
X144176228Y-91376380D01*
X144176228Y-91376380D02*
X144461942Y-91376380D01*
X144461942Y-91376380D02*
X144557180Y-91423999D01*
X144557180Y-91423999D02*
X144604800Y-91471618D01*
X144604800Y-91471618D02*
X144652419Y-91566856D01*
X144652419Y-91566856D02*
X144652419Y-91757332D01*
X144652419Y-91757332D02*
X144604800Y-91852570D01*
X144604800Y-90566856D02*
X144652419Y-90662094D01*
X144652419Y-90662094D02*
X144652419Y-90852570D01*
X144652419Y-90852570D02*
X144604800Y-90947808D01*
X144604800Y-90947808D02*
X144509561Y-90995427D01*
X144509561Y-90995427D02*
X144128609Y-90995427D01*
X144128609Y-90995427D02*
X144033371Y-90947808D01*
X144033371Y-90947808D02*
X143985752Y-90852570D01*
X143985752Y-90852570D02*
X143985752Y-90662094D01*
X143985752Y-90662094D02*
X144033371Y-90566856D01*
X144033371Y-90566856D02*
X144128609Y-90519237D01*
X144128609Y-90519237D02*
X144223847Y-90519237D01*
X144223847Y-90519237D02*
X144319085Y-90995427D01*
X144652419Y-88804951D02*
X144652419Y-89376379D01*
X144652419Y-89090665D02*
X143652419Y-89090665D01*
X143652419Y-89090665D02*
X143795276Y-89185903D01*
X143795276Y-89185903D02*
X143890514Y-89281141D01*
X143890514Y-89281141D02*
X143938133Y-89376379D01*
X144557180Y-88376379D02*
X144604800Y-88328760D01*
X144604800Y-88328760D02*
X144652419Y-88376379D01*
X144652419Y-88376379D02*
X144604800Y-88423998D01*
X144604800Y-88423998D02*
X144557180Y-88376379D01*
X144557180Y-88376379D02*
X144652419Y-88376379D01*
X144033371Y-88376379D02*
X144080990Y-88328760D01*
X144080990Y-88328760D02*
X144128609Y-88376379D01*
X144128609Y-88376379D02*
X144080990Y-88423998D01*
X144080990Y-88423998D02*
X144033371Y-88376379D01*
X144033371Y-88376379D02*
X144128609Y-88376379D01*
X144652419Y-87376380D02*
X144652419Y-87947808D01*
X144652419Y-87662094D02*
X143652419Y-87662094D01*
X143652419Y-87662094D02*
X143795276Y-87757332D01*
X143795276Y-87757332D02*
X143890514Y-87852570D01*
X143890514Y-87852570D02*
X143938133Y-87947808D01*
X143652419Y-86757332D02*
X143652419Y-86662094D01*
X143652419Y-86662094D02*
X143700038Y-86566856D01*
X143700038Y-86566856D02*
X143747657Y-86519237D01*
X143747657Y-86519237D02*
X143842895Y-86471618D01*
X143842895Y-86471618D02*
X144033371Y-86423999D01*
X144033371Y-86423999D02*
X144271466Y-86423999D01*
X144271466Y-86423999D02*
X144461942Y-86471618D01*
X144461942Y-86471618D02*
X144557180Y-86519237D01*
X144557180Y-86519237D02*
X144604800Y-86566856D01*
X144604800Y-86566856D02*
X144652419Y-86662094D01*
X144652419Y-86662094D02*
X144652419Y-86757332D01*
X144652419Y-86757332D02*
X144604800Y-86852570D01*
X144604800Y-86852570D02*
X144557180Y-86900189D01*
X144557180Y-86900189D02*
X144461942Y-86947808D01*
X144461942Y-86947808D02*
X144271466Y-86995427D01*
X144271466Y-86995427D02*
X144033371Y-86995427D01*
X144033371Y-86995427D02*
X143842895Y-86947808D01*
X143842895Y-86947808D02*
X143747657Y-86900189D01*
X143747657Y-86900189D02*
X143700038Y-86852570D01*
X143700038Y-86852570D02*
X143652419Y-86757332D01*
D11*
X131461143Y-46124600D02*
X131604000Y-46172219D01*
X131604000Y-46172219D02*
X131842095Y-46172219D01*
X131842095Y-46172219D02*
X131937333Y-46124600D01*
X131937333Y-46124600D02*
X131984952Y-46076980D01*
X131984952Y-46076980D02*
X132032571Y-45981742D01*
X132032571Y-45981742D02*
X132032571Y-45886504D01*
X132032571Y-45886504D02*
X131984952Y-45791266D01*
X131984952Y-45791266D02*
X131937333Y-45743647D01*
X131937333Y-45743647D02*
X131842095Y-45696028D01*
X131842095Y-45696028D02*
X131651619Y-45648409D01*
X131651619Y-45648409D02*
X131556381Y-45600790D01*
X131556381Y-45600790D02*
X131508762Y-45553171D01*
X131508762Y-45553171D02*
X131461143Y-45457933D01*
X131461143Y-45457933D02*
X131461143Y-45362695D01*
X131461143Y-45362695D02*
X131508762Y-45267457D01*
X131508762Y-45267457D02*
X131556381Y-45219838D01*
X131556381Y-45219838D02*
X131651619Y-45172219D01*
X131651619Y-45172219D02*
X131889714Y-45172219D01*
X131889714Y-45172219D02*
X132032571Y-45219838D01*
X132461143Y-46172219D02*
X132461143Y-45172219D01*
X133461142Y-45219838D02*
X133365904Y-45172219D01*
X133365904Y-45172219D02*
X133223047Y-45172219D01*
X133223047Y-45172219D02*
X133080190Y-45219838D01*
X133080190Y-45219838D02*
X132984952Y-45315076D01*
X132984952Y-45315076D02*
X132937333Y-45410314D01*
X132937333Y-45410314D02*
X132889714Y-45600790D01*
X132889714Y-45600790D02*
X132889714Y-45743647D01*
X132889714Y-45743647D02*
X132937333Y-45934123D01*
X132937333Y-45934123D02*
X132984952Y-46029361D01*
X132984952Y-46029361D02*
X133080190Y-46124600D01*
X133080190Y-46124600D02*
X133223047Y-46172219D01*
X133223047Y-46172219D02*
X133318285Y-46172219D01*
X133318285Y-46172219D02*
X133461142Y-46124600D01*
X133461142Y-46124600D02*
X133508761Y-46076980D01*
X133508761Y-46076980D02*
X133508761Y-45743647D01*
X133508761Y-45743647D02*
X133318285Y-45743647D01*
X133937333Y-45791266D02*
X134699238Y-45791266D01*
X135175428Y-46172219D02*
X135175428Y-45172219D01*
X135175428Y-45172219D02*
X135556380Y-45172219D01*
X135556380Y-45172219D02*
X135651618Y-45219838D01*
X135651618Y-45219838D02*
X135699237Y-45267457D01*
X135699237Y-45267457D02*
X135746856Y-45362695D01*
X135746856Y-45362695D02*
X135746856Y-45505552D01*
X135746856Y-45505552D02*
X135699237Y-45600790D01*
X135699237Y-45600790D02*
X135651618Y-45648409D01*
X135651618Y-45648409D02*
X135556380Y-45696028D01*
X135556380Y-45696028D02*
X135175428Y-45696028D01*
X134397904Y-163075838D02*
X134302666Y-163028219D01*
X134302666Y-163028219D02*
X134159809Y-163028219D01*
X134159809Y-163028219D02*
X134016952Y-163075838D01*
X134016952Y-163075838D02*
X133921714Y-163171076D01*
X133921714Y-163171076D02*
X133874095Y-163266314D01*
X133874095Y-163266314D02*
X133826476Y-163456790D01*
X133826476Y-163456790D02*
X133826476Y-163599647D01*
X133826476Y-163599647D02*
X133874095Y-163790123D01*
X133874095Y-163790123D02*
X133921714Y-163885361D01*
X133921714Y-163885361D02*
X134016952Y-163980600D01*
X134016952Y-163980600D02*
X134159809Y-164028219D01*
X134159809Y-164028219D02*
X134255047Y-164028219D01*
X134255047Y-164028219D02*
X134397904Y-163980600D01*
X134397904Y-163980600D02*
X134445523Y-163932980D01*
X134445523Y-163932980D02*
X134445523Y-163599647D01*
X134445523Y-163599647D02*
X134255047Y-163599647D01*
X134874095Y-164028219D02*
X134874095Y-163028219D01*
X134874095Y-163028219D02*
X135445523Y-164028219D01*
X135445523Y-164028219D02*
X135445523Y-163028219D01*
X135921714Y-164028219D02*
X135921714Y-163028219D01*
X135921714Y-163028219D02*
X136159809Y-163028219D01*
X136159809Y-163028219D02*
X136302666Y-163075838D01*
X136302666Y-163075838D02*
X136397904Y-163171076D01*
X136397904Y-163171076D02*
X136445523Y-163266314D01*
X136445523Y-163266314D02*
X136493142Y-163456790D01*
X136493142Y-163456790D02*
X136493142Y-163599647D01*
X136493142Y-163599647D02*
X136445523Y-163790123D01*
X136445523Y-163790123D02*
X136397904Y-163885361D01*
X136397904Y-163885361D02*
X136302666Y-163980600D01*
X136302666Y-163980600D02*
X136159809Y-164028219D01*
X136159809Y-164028219D02*
X135921714Y-164028219D01*
X136874095Y-163123457D02*
X136921714Y-163075838D01*
X136921714Y-163075838D02*
X137016952Y-163028219D01*
X137016952Y-163028219D02*
X137255047Y-163028219D01*
X137255047Y-163028219D02*
X137350285Y-163075838D01*
X137350285Y-163075838D02*
X137397904Y-163123457D01*
X137397904Y-163123457D02*
X137445523Y-163218695D01*
X137445523Y-163218695D02*
X137445523Y-163313933D01*
X137445523Y-163313933D02*
X137397904Y-163456790D01*
X137397904Y-163456790D02*
X136826476Y-164028219D01*
X136826476Y-164028219D02*
X137445523Y-164028219D01*
X131461143Y-114196600D02*
X131604000Y-114244219D01*
X131604000Y-114244219D02*
X131842095Y-114244219D01*
X131842095Y-114244219D02*
X131937333Y-114196600D01*
X131937333Y-114196600D02*
X131984952Y-114148980D01*
X131984952Y-114148980D02*
X132032571Y-114053742D01*
X132032571Y-114053742D02*
X132032571Y-113958504D01*
X132032571Y-113958504D02*
X131984952Y-113863266D01*
X131984952Y-113863266D02*
X131937333Y-113815647D01*
X131937333Y-113815647D02*
X131842095Y-113768028D01*
X131842095Y-113768028D02*
X131651619Y-113720409D01*
X131651619Y-113720409D02*
X131556381Y-113672790D01*
X131556381Y-113672790D02*
X131508762Y-113625171D01*
X131508762Y-113625171D02*
X131461143Y-113529933D01*
X131461143Y-113529933D02*
X131461143Y-113434695D01*
X131461143Y-113434695D02*
X131508762Y-113339457D01*
X131508762Y-113339457D02*
X131556381Y-113291838D01*
X131556381Y-113291838D02*
X131651619Y-113244219D01*
X131651619Y-113244219D02*
X131889714Y-113244219D01*
X131889714Y-113244219D02*
X132032571Y-113291838D01*
X132461143Y-114244219D02*
X132461143Y-113244219D01*
X133461142Y-113291838D02*
X133365904Y-113244219D01*
X133365904Y-113244219D02*
X133223047Y-113244219D01*
X133223047Y-113244219D02*
X133080190Y-113291838D01*
X133080190Y-113291838D02*
X132984952Y-113387076D01*
X132984952Y-113387076D02*
X132937333Y-113482314D01*
X132937333Y-113482314D02*
X132889714Y-113672790D01*
X132889714Y-113672790D02*
X132889714Y-113815647D01*
X132889714Y-113815647D02*
X132937333Y-114006123D01*
X132937333Y-114006123D02*
X132984952Y-114101361D01*
X132984952Y-114101361D02*
X133080190Y-114196600D01*
X133080190Y-114196600D02*
X133223047Y-114244219D01*
X133223047Y-114244219D02*
X133318285Y-114244219D01*
X133318285Y-114244219D02*
X133461142Y-114196600D01*
X133461142Y-114196600D02*
X133508761Y-114148980D01*
X133508761Y-114148980D02*
X133508761Y-113815647D01*
X133508761Y-113815647D02*
X133318285Y-113815647D01*
X133937333Y-113863266D02*
X134699238Y-113863266D01*
X135175428Y-114244219D02*
X135175428Y-113244219D01*
X135175428Y-113244219D02*
X135556380Y-113244219D01*
X135556380Y-113244219D02*
X135651618Y-113291838D01*
X135651618Y-113291838D02*
X135699237Y-113339457D01*
X135699237Y-113339457D02*
X135746856Y-113434695D01*
X135746856Y-113434695D02*
X135746856Y-113577552D01*
X135746856Y-113577552D02*
X135699237Y-113672790D01*
X135699237Y-113672790D02*
X135651618Y-113720409D01*
X135651618Y-113720409D02*
X135556380Y-113768028D01*
X135556380Y-113768028D02*
X135175428Y-113768028D01*
D10*
X144652419Y-162448380D02*
X143652419Y-162448380D01*
X143652419Y-162448380D02*
X143652419Y-162067428D01*
X143652419Y-162067428D02*
X143700038Y-161972190D01*
X143700038Y-161972190D02*
X143747657Y-161924571D01*
X143747657Y-161924571D02*
X143842895Y-161876952D01*
X143842895Y-161876952D02*
X143985752Y-161876952D01*
X143985752Y-161876952D02*
X144080990Y-161924571D01*
X144080990Y-161924571D02*
X144128609Y-161972190D01*
X144128609Y-161972190D02*
X144176228Y-162067428D01*
X144176228Y-162067428D02*
X144176228Y-162448380D01*
X144652419Y-161448380D02*
X143985752Y-161448380D01*
X144176228Y-161448380D02*
X144080990Y-161400761D01*
X144080990Y-161400761D02*
X144033371Y-161353142D01*
X144033371Y-161353142D02*
X143985752Y-161257904D01*
X143985752Y-161257904D02*
X143985752Y-161162666D01*
X144652419Y-160686475D02*
X144604800Y-160781713D01*
X144604800Y-160781713D02*
X144557180Y-160829332D01*
X144557180Y-160829332D02*
X144461942Y-160876951D01*
X144461942Y-160876951D02*
X144176228Y-160876951D01*
X144176228Y-160876951D02*
X144080990Y-160829332D01*
X144080990Y-160829332D02*
X144033371Y-160781713D01*
X144033371Y-160781713D02*
X143985752Y-160686475D01*
X143985752Y-160686475D02*
X143985752Y-160543618D01*
X143985752Y-160543618D02*
X144033371Y-160448380D01*
X144033371Y-160448380D02*
X144080990Y-160400761D01*
X144080990Y-160400761D02*
X144176228Y-160353142D01*
X144176228Y-160353142D02*
X144461942Y-160353142D01*
X144461942Y-160353142D02*
X144557180Y-160400761D01*
X144557180Y-160400761D02*
X144604800Y-160448380D01*
X144604800Y-160448380D02*
X144652419Y-160543618D01*
X144652419Y-160543618D02*
X144652419Y-160686475D01*
X144652419Y-159924570D02*
X143652419Y-159924570D01*
X144033371Y-159924570D02*
X143985752Y-159829332D01*
X143985752Y-159829332D02*
X143985752Y-159638856D01*
X143985752Y-159638856D02*
X144033371Y-159543618D01*
X144033371Y-159543618D02*
X144080990Y-159495999D01*
X144080990Y-159495999D02*
X144176228Y-159448380D01*
X144176228Y-159448380D02*
X144461942Y-159448380D01*
X144461942Y-159448380D02*
X144557180Y-159495999D01*
X144557180Y-159495999D02*
X144604800Y-159543618D01*
X144604800Y-159543618D02*
X144652419Y-159638856D01*
X144652419Y-159638856D02*
X144652419Y-159829332D01*
X144652419Y-159829332D02*
X144604800Y-159924570D01*
X144604800Y-158638856D02*
X144652419Y-158734094D01*
X144652419Y-158734094D02*
X144652419Y-158924570D01*
X144652419Y-158924570D02*
X144604800Y-159019808D01*
X144604800Y-159019808D02*
X144509561Y-159067427D01*
X144509561Y-159067427D02*
X144128609Y-159067427D01*
X144128609Y-159067427D02*
X144033371Y-159019808D01*
X144033371Y-159019808D02*
X143985752Y-158924570D01*
X143985752Y-158924570D02*
X143985752Y-158734094D01*
X143985752Y-158734094D02*
X144033371Y-158638856D01*
X144033371Y-158638856D02*
X144128609Y-158591237D01*
X144128609Y-158591237D02*
X144223847Y-158591237D01*
X144223847Y-158591237D02*
X144319085Y-159067427D01*
X144652419Y-156876951D02*
X144652419Y-157448379D01*
X144652419Y-157162665D02*
X143652419Y-157162665D01*
X143652419Y-157162665D02*
X143795276Y-157257903D01*
X143795276Y-157257903D02*
X143890514Y-157353141D01*
X143890514Y-157353141D02*
X143938133Y-157448379D01*
X144557180Y-156448379D02*
X144604800Y-156400760D01*
X144604800Y-156400760D02*
X144652419Y-156448379D01*
X144652419Y-156448379D02*
X144604800Y-156495998D01*
X144604800Y-156495998D02*
X144557180Y-156448379D01*
X144557180Y-156448379D02*
X144652419Y-156448379D01*
X144033371Y-156448379D02*
X144080990Y-156400760D01*
X144080990Y-156400760D02*
X144128609Y-156448379D01*
X144128609Y-156448379D02*
X144080990Y-156495998D01*
X144080990Y-156495998D02*
X144033371Y-156448379D01*
X144033371Y-156448379D02*
X144128609Y-156448379D01*
X144652419Y-155448380D02*
X144652419Y-156019808D01*
X144652419Y-155734094D02*
X143652419Y-155734094D01*
X143652419Y-155734094D02*
X143795276Y-155829332D01*
X143795276Y-155829332D02*
X143890514Y-155924570D01*
X143890514Y-155924570D02*
X143938133Y-156019808D01*
X143652419Y-154829332D02*
X143652419Y-154734094D01*
X143652419Y-154734094D02*
X143700038Y-154638856D01*
X143700038Y-154638856D02*
X143747657Y-154591237D01*
X143747657Y-154591237D02*
X143842895Y-154543618D01*
X143842895Y-154543618D02*
X144033371Y-154495999D01*
X144033371Y-154495999D02*
X144271466Y-154495999D01*
X144271466Y-154495999D02*
X144461942Y-154543618D01*
X144461942Y-154543618D02*
X144557180Y-154591237D01*
X144557180Y-154591237D02*
X144604800Y-154638856D01*
X144604800Y-154638856D02*
X144652419Y-154734094D01*
X144652419Y-154734094D02*
X144652419Y-154829332D01*
X144652419Y-154829332D02*
X144604800Y-154924570D01*
X144604800Y-154924570D02*
X144557180Y-154972189D01*
X144557180Y-154972189D02*
X144461942Y-155019808D01*
X144461942Y-155019808D02*
X144271466Y-155067427D01*
X144271466Y-155067427D02*
X144033371Y-155067427D01*
X144033371Y-155067427D02*
X143842895Y-155019808D01*
X143842895Y-155019808D02*
X143747657Y-154972189D01*
X143747657Y-154972189D02*
X143700038Y-154924570D01*
X143700038Y-154924570D02*
X143652419Y-154829332D01*
X116244761Y-117982419D02*
X115911428Y-117506228D01*
X115673333Y-117982419D02*
X115673333Y-116982419D01*
X115673333Y-116982419D02*
X116054285Y-116982419D01*
X116054285Y-116982419D02*
X116149523Y-117030038D01*
X116149523Y-117030038D02*
X116197142Y-117077657D01*
X116197142Y-117077657D02*
X116244761Y-117172895D01*
X116244761Y-117172895D02*
X116244761Y-117315752D01*
X116244761Y-117315752D02*
X116197142Y-117410990D01*
X116197142Y-117410990D02*
X116149523Y-117458609D01*
X116149523Y-117458609D02*
X116054285Y-117506228D01*
X116054285Y-117506228D02*
X115673333Y-117506228D01*
X116530476Y-116982419D02*
X116863809Y-117982419D01*
X116863809Y-117982419D02*
X117197142Y-116982419D01*
X117482857Y-117077657D02*
X117530476Y-117030038D01*
X117530476Y-117030038D02*
X117625714Y-116982419D01*
X117625714Y-116982419D02*
X117863809Y-116982419D01*
X117863809Y-116982419D02*
X117959047Y-117030038D01*
X117959047Y-117030038D02*
X118006666Y-117077657D01*
X118006666Y-117077657D02*
X118054285Y-117172895D01*
X118054285Y-117172895D02*
X118054285Y-117268133D01*
X118054285Y-117268133D02*
X118006666Y-117410990D01*
X118006666Y-117410990D02*
X117435238Y-117982419D01*
X117435238Y-117982419D02*
X118054285Y-117982419D01*
D11*
X133493143Y-85748600D02*
X133636000Y-85796219D01*
X133636000Y-85796219D02*
X133874095Y-85796219D01*
X133874095Y-85796219D02*
X133969333Y-85748600D01*
X133969333Y-85748600D02*
X134016952Y-85700980D01*
X134016952Y-85700980D02*
X134064571Y-85605742D01*
X134064571Y-85605742D02*
X134064571Y-85510504D01*
X134064571Y-85510504D02*
X134016952Y-85415266D01*
X134016952Y-85415266D02*
X133969333Y-85367647D01*
X133969333Y-85367647D02*
X133874095Y-85320028D01*
X133874095Y-85320028D02*
X133683619Y-85272409D01*
X133683619Y-85272409D02*
X133588381Y-85224790D01*
X133588381Y-85224790D02*
X133540762Y-85177171D01*
X133540762Y-85177171D02*
X133493143Y-85081933D01*
X133493143Y-85081933D02*
X133493143Y-84986695D01*
X133493143Y-84986695D02*
X133540762Y-84891457D01*
X133540762Y-84891457D02*
X133588381Y-84843838D01*
X133588381Y-84843838D02*
X133683619Y-84796219D01*
X133683619Y-84796219D02*
X133921714Y-84796219D01*
X133921714Y-84796219D02*
X134064571Y-84843838D01*
X134493143Y-85796219D02*
X134493143Y-84796219D01*
X135493142Y-84843838D02*
X135397904Y-84796219D01*
X135397904Y-84796219D02*
X135255047Y-84796219D01*
X135255047Y-84796219D02*
X135112190Y-84843838D01*
X135112190Y-84843838D02*
X135016952Y-84939076D01*
X135016952Y-84939076D02*
X134969333Y-85034314D01*
X134969333Y-85034314D02*
X134921714Y-85224790D01*
X134921714Y-85224790D02*
X134921714Y-85367647D01*
X134921714Y-85367647D02*
X134969333Y-85558123D01*
X134969333Y-85558123D02*
X135016952Y-85653361D01*
X135016952Y-85653361D02*
X135112190Y-85748600D01*
X135112190Y-85748600D02*
X135255047Y-85796219D01*
X135255047Y-85796219D02*
X135350285Y-85796219D01*
X135350285Y-85796219D02*
X135493142Y-85748600D01*
X135493142Y-85748600D02*
X135540761Y-85700980D01*
X135540761Y-85700980D02*
X135540761Y-85367647D01*
X135540761Y-85367647D02*
X135350285Y-85367647D01*
X135969333Y-85415266D02*
X136731238Y-85415266D01*
X137207428Y-85796219D02*
X137207428Y-84796219D01*
X137207428Y-84796219D02*
X137588380Y-84796219D01*
X137588380Y-84796219D02*
X137683618Y-84843838D01*
X137683618Y-84843838D02*
X137731237Y-84891457D01*
X137731237Y-84891457D02*
X137778856Y-84986695D01*
X137778856Y-84986695D02*
X137778856Y-85129552D01*
X137778856Y-85129552D02*
X137731237Y-85224790D01*
X137731237Y-85224790D02*
X137683618Y-85272409D01*
X137683618Y-85272409D02*
X137588380Y-85320028D01*
X137588380Y-85320028D02*
X137207428Y-85320028D01*
X112320149Y-105547219D02*
X112510625Y-105547219D01*
X112510625Y-105547219D02*
X112605863Y-105594838D01*
X112605863Y-105594838D02*
X112701101Y-105690076D01*
X112701101Y-105690076D02*
X112748720Y-105880552D01*
X112748720Y-105880552D02*
X112748720Y-106213885D01*
X112748720Y-106213885D02*
X112701101Y-106404361D01*
X112701101Y-106404361D02*
X112605863Y-106499600D01*
X112605863Y-106499600D02*
X112510625Y-106547219D01*
X112510625Y-106547219D02*
X112320149Y-106547219D01*
X112320149Y-106547219D02*
X112224911Y-106499600D01*
X112224911Y-106499600D02*
X112129673Y-106404361D01*
X112129673Y-106404361D02*
X112082054Y-106213885D01*
X112082054Y-106213885D02*
X112082054Y-105880552D01*
X112082054Y-105880552D02*
X112129673Y-105690076D01*
X112129673Y-105690076D02*
X112224911Y-105594838D01*
X112224911Y-105594838D02*
X112320149Y-105547219D01*
X113510625Y-106023409D02*
X113177292Y-106023409D01*
X113177292Y-106547219D02*
X113177292Y-105547219D01*
X113177292Y-105547219D02*
X113653482Y-105547219D01*
X114367768Y-106023409D02*
X114034435Y-106023409D01*
X114034435Y-106547219D02*
X114034435Y-105547219D01*
X114034435Y-105547219D02*
X114510625Y-105547219D01*
X115605863Y-105499600D02*
X114748721Y-106785314D01*
X116129673Y-105547219D02*
X116320149Y-105547219D01*
X116320149Y-105547219D02*
X116415387Y-105594838D01*
X116415387Y-105594838D02*
X116510625Y-105690076D01*
X116510625Y-105690076D02*
X116558244Y-105880552D01*
X116558244Y-105880552D02*
X116558244Y-106213885D01*
X116558244Y-106213885D02*
X116510625Y-106404361D01*
X116510625Y-106404361D02*
X116415387Y-106499600D01*
X116415387Y-106499600D02*
X116320149Y-106547219D01*
X116320149Y-106547219D02*
X116129673Y-106547219D01*
X116129673Y-106547219D02*
X116034435Y-106499600D01*
X116034435Y-106499600D02*
X115939197Y-106404361D01*
X115939197Y-106404361D02*
X115891578Y-106213885D01*
X115891578Y-106213885D02*
X115891578Y-105880552D01*
X115891578Y-105880552D02*
X115939197Y-105690076D01*
X115939197Y-105690076D02*
X116034435Y-105594838D01*
X116034435Y-105594838D02*
X116129673Y-105547219D01*
X116986816Y-106547219D02*
X116986816Y-105547219D01*
X116986816Y-105547219D02*
X117558244Y-106547219D01*
X117558244Y-106547219D02*
X117558244Y-105547219D01*
X132957673Y-106547219D02*
X132957673Y-105547219D01*
X132957673Y-105547219D02*
X133195768Y-105547219D01*
X133195768Y-105547219D02*
X133338625Y-105594838D01*
X133338625Y-105594838D02*
X133433863Y-105690076D01*
X133433863Y-105690076D02*
X133481482Y-105785314D01*
X133481482Y-105785314D02*
X133529101Y-105975790D01*
X133529101Y-105975790D02*
X133529101Y-106118647D01*
X133529101Y-106118647D02*
X133481482Y-106309123D01*
X133481482Y-106309123D02*
X133433863Y-106404361D01*
X133433863Y-106404361D02*
X133338625Y-106499600D01*
X133338625Y-106499600D02*
X133195768Y-106547219D01*
X133195768Y-106547219D02*
X132957673Y-106547219D01*
X133957673Y-106547219D02*
X133957673Y-105547219D01*
X134767196Y-106023409D02*
X134433863Y-106023409D01*
X134433863Y-106547219D02*
X134433863Y-105547219D01*
X134433863Y-105547219D02*
X134910053Y-105547219D01*
X135624339Y-106023409D02*
X135291006Y-106023409D01*
X135291006Y-106547219D02*
X135291006Y-105547219D01*
X135291006Y-105547219D02*
X135767196Y-105547219D01*
X136862434Y-105499600D02*
X136005292Y-106785314D01*
X137767196Y-106451980D02*
X137719577Y-106499600D01*
X137719577Y-106499600D02*
X137576720Y-106547219D01*
X137576720Y-106547219D02*
X137481482Y-106547219D01*
X137481482Y-106547219D02*
X137338625Y-106499600D01*
X137338625Y-106499600D02*
X137243387Y-106404361D01*
X137243387Y-106404361D02*
X137195768Y-106309123D01*
X137195768Y-106309123D02*
X137148149Y-106118647D01*
X137148149Y-106118647D02*
X137148149Y-105975790D01*
X137148149Y-105975790D02*
X137195768Y-105785314D01*
X137195768Y-105785314D02*
X137243387Y-105690076D01*
X137243387Y-105690076D02*
X137338625Y-105594838D01*
X137338625Y-105594838D02*
X137481482Y-105547219D01*
X137481482Y-105547219D02*
X137576720Y-105547219D01*
X137576720Y-105547219D02*
X137719577Y-105594838D01*
X137719577Y-105594838D02*
X137767196Y-105642457D01*
X138386244Y-105547219D02*
X138576720Y-105547219D01*
X138576720Y-105547219D02*
X138671958Y-105594838D01*
X138671958Y-105594838D02*
X138767196Y-105690076D01*
X138767196Y-105690076D02*
X138814815Y-105880552D01*
X138814815Y-105880552D02*
X138814815Y-106213885D01*
X138814815Y-106213885D02*
X138767196Y-106404361D01*
X138767196Y-106404361D02*
X138671958Y-106499600D01*
X138671958Y-106499600D02*
X138576720Y-106547219D01*
X138576720Y-106547219D02*
X138386244Y-106547219D01*
X138386244Y-106547219D02*
X138291006Y-106499600D01*
X138291006Y-106499600D02*
X138195768Y-106404361D01*
X138195768Y-106404361D02*
X138148149Y-106213885D01*
X138148149Y-106213885D02*
X138148149Y-105880552D01*
X138148149Y-105880552D02*
X138195768Y-105690076D01*
X138195768Y-105690076D02*
X138291006Y-105594838D01*
X138291006Y-105594838D02*
X138386244Y-105547219D01*
X139243387Y-106547219D02*
X139243387Y-105547219D01*
X139243387Y-105547219D02*
X139576720Y-106261504D01*
X139576720Y-106261504D02*
X139910053Y-105547219D01*
X139910053Y-105547219D02*
X139910053Y-106547219D01*
D10*
X116244761Y-125602419D02*
X115911428Y-125126228D01*
X115673333Y-125602419D02*
X115673333Y-124602419D01*
X115673333Y-124602419D02*
X116054285Y-124602419D01*
X116054285Y-124602419D02*
X116149523Y-124650038D01*
X116149523Y-124650038D02*
X116197142Y-124697657D01*
X116197142Y-124697657D02*
X116244761Y-124792895D01*
X116244761Y-124792895D02*
X116244761Y-124935752D01*
X116244761Y-124935752D02*
X116197142Y-125030990D01*
X116197142Y-125030990D02*
X116149523Y-125078609D01*
X116149523Y-125078609D02*
X116054285Y-125126228D01*
X116054285Y-125126228D02*
X115673333Y-125126228D01*
X116530476Y-124602419D02*
X116863809Y-125602419D01*
X116863809Y-125602419D02*
X117197142Y-124602419D01*
X117435238Y-124602419D02*
X118054285Y-124602419D01*
X118054285Y-124602419D02*
X117720952Y-124983371D01*
X117720952Y-124983371D02*
X117863809Y-124983371D01*
X117863809Y-124983371D02*
X117959047Y-125030990D01*
X117959047Y-125030990D02*
X118006666Y-125078609D01*
X118006666Y-125078609D02*
X118054285Y-125173847D01*
X118054285Y-125173847D02*
X118054285Y-125411942D01*
X118054285Y-125411942D02*
X118006666Y-125507180D01*
X118006666Y-125507180D02*
X117959047Y-125554800D01*
X117959047Y-125554800D02*
X117863809Y-125602419D01*
X117863809Y-125602419D02*
X117578095Y-125602419D01*
X117578095Y-125602419D02*
X117482857Y-125554800D01*
X117482857Y-125554800D02*
X117435238Y-125507180D01*
X110656761Y-117982419D02*
X110323428Y-117506228D01*
X110085333Y-117982419D02*
X110085333Y-116982419D01*
X110085333Y-116982419D02*
X110466285Y-116982419D01*
X110466285Y-116982419D02*
X110561523Y-117030038D01*
X110561523Y-117030038D02*
X110609142Y-117077657D01*
X110609142Y-117077657D02*
X110656761Y-117172895D01*
X110656761Y-117172895D02*
X110656761Y-117315752D01*
X110656761Y-117315752D02*
X110609142Y-117410990D01*
X110609142Y-117410990D02*
X110561523Y-117458609D01*
X110561523Y-117458609D02*
X110466285Y-117506228D01*
X110466285Y-117506228D02*
X110085333Y-117506228D01*
X110942476Y-116982419D02*
X111275809Y-117982419D01*
X111275809Y-117982419D02*
X111609142Y-116982419D01*
X111894857Y-117077657D02*
X111942476Y-117030038D01*
X111942476Y-117030038D02*
X112037714Y-116982419D01*
X112037714Y-116982419D02*
X112275809Y-116982419D01*
X112275809Y-116982419D02*
X112371047Y-117030038D01*
X112371047Y-117030038D02*
X112418666Y-117077657D01*
X112418666Y-117077657D02*
X112466285Y-117172895D01*
X112466285Y-117172895D02*
X112466285Y-117268133D01*
X112466285Y-117268133D02*
X112418666Y-117410990D01*
X112418666Y-117410990D02*
X111847238Y-117982419D01*
X111847238Y-117982419D02*
X112466285Y-117982419D01*
D11*
X133469334Y-158900600D02*
X133612191Y-158948219D01*
X133612191Y-158948219D02*
X133850286Y-158948219D01*
X133850286Y-158948219D02*
X133945524Y-158900600D01*
X133945524Y-158900600D02*
X133993143Y-158852980D01*
X133993143Y-158852980D02*
X134040762Y-158757742D01*
X134040762Y-158757742D02*
X134040762Y-158662504D01*
X134040762Y-158662504D02*
X133993143Y-158567266D01*
X133993143Y-158567266D02*
X133945524Y-158519647D01*
X133945524Y-158519647D02*
X133850286Y-158472028D01*
X133850286Y-158472028D02*
X133659810Y-158424409D01*
X133659810Y-158424409D02*
X133564572Y-158376790D01*
X133564572Y-158376790D02*
X133516953Y-158329171D01*
X133516953Y-158329171D02*
X133469334Y-158233933D01*
X133469334Y-158233933D02*
X133469334Y-158138695D01*
X133469334Y-158138695D02*
X133516953Y-158043457D01*
X133516953Y-158043457D02*
X133564572Y-157995838D01*
X133564572Y-157995838D02*
X133659810Y-157948219D01*
X133659810Y-157948219D02*
X133897905Y-157948219D01*
X133897905Y-157948219D02*
X134040762Y-157995838D01*
X134469334Y-158948219D02*
X134469334Y-157948219D01*
X135469333Y-157995838D02*
X135374095Y-157948219D01*
X135374095Y-157948219D02*
X135231238Y-157948219D01*
X135231238Y-157948219D02*
X135088381Y-157995838D01*
X135088381Y-157995838D02*
X134993143Y-158091076D01*
X134993143Y-158091076D02*
X134945524Y-158186314D01*
X134945524Y-158186314D02*
X134897905Y-158376790D01*
X134897905Y-158376790D02*
X134897905Y-158519647D01*
X134897905Y-158519647D02*
X134945524Y-158710123D01*
X134945524Y-158710123D02*
X134993143Y-158805361D01*
X134993143Y-158805361D02*
X135088381Y-158900600D01*
X135088381Y-158900600D02*
X135231238Y-158948219D01*
X135231238Y-158948219D02*
X135326476Y-158948219D01*
X135326476Y-158948219D02*
X135469333Y-158900600D01*
X135469333Y-158900600D02*
X135516952Y-158852980D01*
X135516952Y-158852980D02*
X135516952Y-158519647D01*
X135516952Y-158519647D02*
X135326476Y-158519647D01*
X135945524Y-158567266D02*
X136707429Y-158567266D01*
X137183619Y-158948219D02*
X137183619Y-157948219D01*
X137183619Y-157948219D02*
X137755047Y-158948219D01*
X137755047Y-158948219D02*
X137755047Y-157948219D01*
X134397904Y-95003838D02*
X134302666Y-94956219D01*
X134302666Y-94956219D02*
X134159809Y-94956219D01*
X134159809Y-94956219D02*
X134016952Y-95003838D01*
X134016952Y-95003838D02*
X133921714Y-95099076D01*
X133921714Y-95099076D02*
X133874095Y-95194314D01*
X133874095Y-95194314D02*
X133826476Y-95384790D01*
X133826476Y-95384790D02*
X133826476Y-95527647D01*
X133826476Y-95527647D02*
X133874095Y-95718123D01*
X133874095Y-95718123D02*
X133921714Y-95813361D01*
X133921714Y-95813361D02*
X134016952Y-95908600D01*
X134016952Y-95908600D02*
X134159809Y-95956219D01*
X134159809Y-95956219D02*
X134255047Y-95956219D01*
X134255047Y-95956219D02*
X134397904Y-95908600D01*
X134397904Y-95908600D02*
X134445523Y-95860980D01*
X134445523Y-95860980D02*
X134445523Y-95527647D01*
X134445523Y-95527647D02*
X134255047Y-95527647D01*
X134874095Y-95956219D02*
X134874095Y-94956219D01*
X134874095Y-94956219D02*
X135445523Y-95956219D01*
X135445523Y-95956219D02*
X135445523Y-94956219D01*
X135921714Y-95956219D02*
X135921714Y-94956219D01*
X135921714Y-94956219D02*
X136159809Y-94956219D01*
X136159809Y-94956219D02*
X136302666Y-95003838D01*
X136302666Y-95003838D02*
X136397904Y-95099076D01*
X136397904Y-95099076D02*
X136445523Y-95194314D01*
X136445523Y-95194314D02*
X136493142Y-95384790D01*
X136493142Y-95384790D02*
X136493142Y-95527647D01*
X136493142Y-95527647D02*
X136445523Y-95718123D01*
X136445523Y-95718123D02*
X136397904Y-95813361D01*
X136397904Y-95813361D02*
X136302666Y-95908600D01*
X136302666Y-95908600D02*
X136159809Y-95956219D01*
X136159809Y-95956219D02*
X135921714Y-95956219D01*
X137445523Y-95956219D02*
X136874095Y-95956219D01*
X137159809Y-95956219D02*
X137159809Y-94956219D01*
X137159809Y-94956219D02*
X137064571Y-95099076D01*
X137064571Y-95099076D02*
X136969333Y-95194314D01*
X136969333Y-95194314D02*
X136874095Y-95241933D01*
X113161482Y-149790838D02*
X113066244Y-149743219D01*
X113066244Y-149743219D02*
X112923387Y-149743219D01*
X112923387Y-149743219D02*
X112780530Y-149790838D01*
X112780530Y-149790838D02*
X112685292Y-149886076D01*
X112685292Y-149886076D02*
X112637673Y-149981314D01*
X112637673Y-149981314D02*
X112590054Y-150171790D01*
X112590054Y-150171790D02*
X112590054Y-150314647D01*
X112590054Y-150314647D02*
X112637673Y-150505123D01*
X112637673Y-150505123D02*
X112685292Y-150600361D01*
X112685292Y-150600361D02*
X112780530Y-150695600D01*
X112780530Y-150695600D02*
X112923387Y-150743219D01*
X112923387Y-150743219D02*
X113018625Y-150743219D01*
X113018625Y-150743219D02*
X113161482Y-150695600D01*
X113161482Y-150695600D02*
X113209101Y-150647980D01*
X113209101Y-150647980D02*
X113209101Y-150314647D01*
X113209101Y-150314647D02*
X113018625Y-150314647D01*
X113637673Y-150743219D02*
X113637673Y-149743219D01*
X113637673Y-149743219D02*
X114209101Y-150743219D01*
X114209101Y-150743219D02*
X114209101Y-149743219D01*
X114685292Y-150743219D02*
X114685292Y-149743219D01*
X114685292Y-149743219D02*
X114923387Y-149743219D01*
X114923387Y-149743219D02*
X115066244Y-149790838D01*
X115066244Y-149790838D02*
X115161482Y-149886076D01*
X115161482Y-149886076D02*
X115209101Y-149981314D01*
X115209101Y-149981314D02*
X115256720Y-150171790D01*
X115256720Y-150171790D02*
X115256720Y-150314647D01*
X115256720Y-150314647D02*
X115209101Y-150505123D01*
X115209101Y-150505123D02*
X115161482Y-150600361D01*
X115161482Y-150600361D02*
X115066244Y-150695600D01*
X115066244Y-150695600D02*
X114923387Y-150743219D01*
X114923387Y-150743219D02*
X114685292Y-150743219D01*
X116399577Y-149695600D02*
X115542435Y-150981314D01*
X117304339Y-150743219D02*
X116971006Y-150267028D01*
X116732911Y-150743219D02*
X116732911Y-149743219D01*
X116732911Y-149743219D02*
X117113863Y-149743219D01*
X117113863Y-149743219D02*
X117209101Y-149790838D01*
X117209101Y-149790838D02*
X117256720Y-149838457D01*
X117256720Y-149838457D02*
X117304339Y-149933695D01*
X117304339Y-149933695D02*
X117304339Y-150076552D01*
X117304339Y-150076552D02*
X117256720Y-150171790D01*
X117256720Y-150171790D02*
X117209101Y-150219409D01*
X117209101Y-150219409D02*
X117113863Y-150267028D01*
X117113863Y-150267028D02*
X116732911Y-150267028D01*
X117590054Y-149743219D02*
X117923387Y-150743219D01*
X117923387Y-150743219D02*
X118256720Y-149743219D01*
X118494816Y-149743219D02*
X119113863Y-149743219D01*
X119113863Y-149743219D02*
X118780530Y-150124171D01*
X118780530Y-150124171D02*
X118923387Y-150124171D01*
X118923387Y-150124171D02*
X119018625Y-150171790D01*
X119018625Y-150171790D02*
X119066244Y-150219409D01*
X119066244Y-150219409D02*
X119113863Y-150314647D01*
X119113863Y-150314647D02*
X119113863Y-150552742D01*
X119113863Y-150552742D02*
X119066244Y-150647980D01*
X119066244Y-150647980D02*
X119018625Y-150695600D01*
X119018625Y-150695600D02*
X118923387Y-150743219D01*
X118923387Y-150743219D02*
X118637673Y-150743219D01*
X118637673Y-150743219D02*
X118542435Y-150695600D01*
X118542435Y-150695600D02*
X118494816Y-150647980D01*
X133493143Y-153820600D02*
X133636000Y-153868219D01*
X133636000Y-153868219D02*
X133874095Y-153868219D01*
X133874095Y-153868219D02*
X133969333Y-153820600D01*
X133969333Y-153820600D02*
X134016952Y-153772980D01*
X134016952Y-153772980D02*
X134064571Y-153677742D01*
X134064571Y-153677742D02*
X134064571Y-153582504D01*
X134064571Y-153582504D02*
X134016952Y-153487266D01*
X134016952Y-153487266D02*
X133969333Y-153439647D01*
X133969333Y-153439647D02*
X133874095Y-153392028D01*
X133874095Y-153392028D02*
X133683619Y-153344409D01*
X133683619Y-153344409D02*
X133588381Y-153296790D01*
X133588381Y-153296790D02*
X133540762Y-153249171D01*
X133540762Y-153249171D02*
X133493143Y-153153933D01*
X133493143Y-153153933D02*
X133493143Y-153058695D01*
X133493143Y-153058695D02*
X133540762Y-152963457D01*
X133540762Y-152963457D02*
X133588381Y-152915838D01*
X133588381Y-152915838D02*
X133683619Y-152868219D01*
X133683619Y-152868219D02*
X133921714Y-152868219D01*
X133921714Y-152868219D02*
X134064571Y-152915838D01*
X134493143Y-153868219D02*
X134493143Y-152868219D01*
X135493142Y-152915838D02*
X135397904Y-152868219D01*
X135397904Y-152868219D02*
X135255047Y-152868219D01*
X135255047Y-152868219D02*
X135112190Y-152915838D01*
X135112190Y-152915838D02*
X135016952Y-153011076D01*
X135016952Y-153011076D02*
X134969333Y-153106314D01*
X134969333Y-153106314D02*
X134921714Y-153296790D01*
X134921714Y-153296790D02*
X134921714Y-153439647D01*
X134921714Y-153439647D02*
X134969333Y-153630123D01*
X134969333Y-153630123D02*
X135016952Y-153725361D01*
X135016952Y-153725361D02*
X135112190Y-153820600D01*
X135112190Y-153820600D02*
X135255047Y-153868219D01*
X135255047Y-153868219D02*
X135350285Y-153868219D01*
X135350285Y-153868219D02*
X135493142Y-153820600D01*
X135493142Y-153820600D02*
X135540761Y-153772980D01*
X135540761Y-153772980D02*
X135540761Y-153439647D01*
X135540761Y-153439647D02*
X135350285Y-153439647D01*
X135969333Y-153487266D02*
X136731238Y-153487266D01*
X137207428Y-153868219D02*
X137207428Y-152868219D01*
X137207428Y-152868219D02*
X137588380Y-152868219D01*
X137588380Y-152868219D02*
X137683618Y-152915838D01*
X137683618Y-152915838D02*
X137731237Y-152963457D01*
X137731237Y-152963457D02*
X137778856Y-153058695D01*
X137778856Y-153058695D02*
X137778856Y-153201552D01*
X137778856Y-153201552D02*
X137731237Y-153296790D01*
X137731237Y-153296790D02*
X137683618Y-153344409D01*
X137683618Y-153344409D02*
X137588380Y-153392028D01*
X137588380Y-153392028D02*
X137207428Y-153392028D01*
D12*
X132177319Y-71966333D02*
X132891604Y-71966333D01*
X132891604Y-71966333D02*
X133034461Y-72013952D01*
X133034461Y-72013952D02*
X133129700Y-72109190D01*
X133129700Y-72109190D02*
X133177319Y-72252047D01*
X133177319Y-72252047D02*
X133177319Y-72347285D01*
X132272557Y-71537761D02*
X132224938Y-71490142D01*
X132224938Y-71490142D02*
X132177319Y-71394904D01*
X132177319Y-71394904D02*
X132177319Y-71156809D01*
X132177319Y-71156809D02*
X132224938Y-71061571D01*
X132224938Y-71061571D02*
X132272557Y-71013952D01*
X132272557Y-71013952D02*
X132367795Y-70966333D01*
X132367795Y-70966333D02*
X132463033Y-70966333D01*
X132463033Y-70966333D02*
X132605890Y-71013952D01*
X132605890Y-71013952D02*
X133177319Y-71585380D01*
X133177319Y-71585380D02*
X133177319Y-70966333D01*
X139504095Y-150870819D02*
X140075523Y-150870819D01*
X139789809Y-151870819D02*
X139789809Y-150870819D01*
X140408857Y-151870819D02*
X140408857Y-150870819D01*
X140408857Y-150870819D02*
X140789809Y-150870819D01*
X140789809Y-150870819D02*
X140885047Y-150918438D01*
X140885047Y-150918438D02*
X140932666Y-150966057D01*
X140932666Y-150966057D02*
X140980285Y-151061295D01*
X140980285Y-151061295D02*
X140980285Y-151204152D01*
X140980285Y-151204152D02*
X140932666Y-151299390D01*
X140932666Y-151299390D02*
X140885047Y-151347009D01*
X140885047Y-151347009D02*
X140789809Y-151394628D01*
X140789809Y-151394628D02*
X140408857Y-151394628D01*
X141837428Y-150870819D02*
X141646952Y-150870819D01*
X141646952Y-150870819D02*
X141551714Y-150918438D01*
X141551714Y-150918438D02*
X141504095Y-150966057D01*
X141504095Y-150966057D02*
X141408857Y-151108914D01*
X141408857Y-151108914D02*
X141361238Y-151299390D01*
X141361238Y-151299390D02*
X141361238Y-151680342D01*
X141361238Y-151680342D02*
X141408857Y-151775580D01*
X141408857Y-151775580D02*
X141456476Y-151823200D01*
X141456476Y-151823200D02*
X141551714Y-151870819D01*
X141551714Y-151870819D02*
X141742190Y-151870819D01*
X141742190Y-151870819D02*
X141837428Y-151823200D01*
X141837428Y-151823200D02*
X141885047Y-151775580D01*
X141885047Y-151775580D02*
X141932666Y-151680342D01*
X141932666Y-151680342D02*
X141932666Y-151442247D01*
X141932666Y-151442247D02*
X141885047Y-151347009D01*
X141885047Y-151347009D02*
X141837428Y-151299390D01*
X141837428Y-151299390D02*
X141742190Y-151251771D01*
X141742190Y-151251771D02*
X141551714Y-151251771D01*
X141551714Y-151251771D02*
X141456476Y-151299390D01*
X141456476Y-151299390D02*
X141408857Y-151347009D01*
X141408857Y-151347009D02*
X141361238Y-151442247D01*
X138684095Y-173428819D02*
X138684095Y-172428819D01*
X138684095Y-172905009D02*
X139255523Y-172905009D01*
X139255523Y-173428819D02*
X139255523Y-172428819D01*
X139636476Y-172428819D02*
X140255523Y-172428819D01*
X140255523Y-172428819D02*
X139922190Y-172809771D01*
X139922190Y-172809771D02*
X140065047Y-172809771D01*
X140065047Y-172809771D02*
X140160285Y-172857390D01*
X140160285Y-172857390D02*
X140207904Y-172905009D01*
X140207904Y-172905009D02*
X140255523Y-173000247D01*
X140255523Y-173000247D02*
X140255523Y-173238342D01*
X140255523Y-173238342D02*
X140207904Y-173333580D01*
X140207904Y-173333580D02*
X140160285Y-173381200D01*
X140160285Y-173381200D02*
X140065047Y-173428819D01*
X140065047Y-173428819D02*
X139779333Y-173428819D01*
X139779333Y-173428819D02*
X139684095Y-173381200D01*
X139684095Y-173381200D02*
X139636476Y-173333580D01*
X139504095Y-155950819D02*
X140075523Y-155950819D01*
X139789809Y-156950819D02*
X139789809Y-155950819D01*
X140408857Y-156950819D02*
X140408857Y-155950819D01*
X140408857Y-155950819D02*
X140789809Y-155950819D01*
X140789809Y-155950819D02*
X140885047Y-155998438D01*
X140885047Y-155998438D02*
X140932666Y-156046057D01*
X140932666Y-156046057D02*
X140980285Y-156141295D01*
X140980285Y-156141295D02*
X140980285Y-156284152D01*
X140980285Y-156284152D02*
X140932666Y-156379390D01*
X140932666Y-156379390D02*
X140885047Y-156427009D01*
X140885047Y-156427009D02*
X140789809Y-156474628D01*
X140789809Y-156474628D02*
X140408857Y-156474628D01*
X141885047Y-155950819D02*
X141408857Y-155950819D01*
X141408857Y-155950819D02*
X141361238Y-156427009D01*
X141361238Y-156427009D02*
X141408857Y-156379390D01*
X141408857Y-156379390D02*
X141504095Y-156331771D01*
X141504095Y-156331771D02*
X141742190Y-156331771D01*
X141742190Y-156331771D02*
X141837428Y-156379390D01*
X141837428Y-156379390D02*
X141885047Y-156427009D01*
X141885047Y-156427009D02*
X141932666Y-156522247D01*
X141932666Y-156522247D02*
X141932666Y-156760342D01*
X141932666Y-156760342D02*
X141885047Y-156855580D01*
X141885047Y-156855580D02*
X141837428Y-156903200D01*
X141837428Y-156903200D02*
X141742190Y-156950819D01*
X141742190Y-156950819D02*
X141504095Y-156950819D01*
X141504095Y-156950819D02*
X141408857Y-156903200D01*
X141408857Y-156903200D02*
X141361238Y-156855580D01*
X127420761Y-74368819D02*
X127087428Y-73892628D01*
X126849333Y-74368819D02*
X126849333Y-73368819D01*
X126849333Y-73368819D02*
X127230285Y-73368819D01*
X127230285Y-73368819D02*
X127325523Y-73416438D01*
X127325523Y-73416438D02*
X127373142Y-73464057D01*
X127373142Y-73464057D02*
X127420761Y-73559295D01*
X127420761Y-73559295D02*
X127420761Y-73702152D01*
X127420761Y-73702152D02*
X127373142Y-73797390D01*
X127373142Y-73797390D02*
X127325523Y-73845009D01*
X127325523Y-73845009D02*
X127230285Y-73892628D01*
X127230285Y-73892628D02*
X126849333Y-73892628D01*
X127706476Y-73368819D02*
X128039809Y-74368819D01*
X128039809Y-74368819D02*
X128373142Y-73368819D01*
X129230285Y-74368819D02*
X128658857Y-74368819D01*
X128944571Y-74368819D02*
X128944571Y-73368819D01*
X128944571Y-73368819D02*
X128849333Y-73511676D01*
X128849333Y-73511676D02*
X128754095Y-73606914D01*
X128754095Y-73606914D02*
X128658857Y-73654533D01*
X110087580Y-61380666D02*
X110135200Y-61428285D01*
X110135200Y-61428285D02*
X110182819Y-61571142D01*
X110182819Y-61571142D02*
X110182819Y-61666380D01*
X110182819Y-61666380D02*
X110135200Y-61809237D01*
X110135200Y-61809237D02*
X110039961Y-61904475D01*
X110039961Y-61904475D02*
X109944723Y-61952094D01*
X109944723Y-61952094D02*
X109754247Y-61999713D01*
X109754247Y-61999713D02*
X109611390Y-61999713D01*
X109611390Y-61999713D02*
X109420914Y-61952094D01*
X109420914Y-61952094D02*
X109325676Y-61904475D01*
X109325676Y-61904475D02*
X109230438Y-61809237D01*
X109230438Y-61809237D02*
X109182819Y-61666380D01*
X109182819Y-61666380D02*
X109182819Y-61571142D01*
X109182819Y-61571142D02*
X109230438Y-61428285D01*
X109230438Y-61428285D02*
X109278057Y-61380666D01*
X109182819Y-60475904D02*
X109182819Y-60952094D01*
X109182819Y-60952094D02*
X109659009Y-60999713D01*
X109659009Y-60999713D02*
X109611390Y-60952094D01*
X109611390Y-60952094D02*
X109563771Y-60856856D01*
X109563771Y-60856856D02*
X109563771Y-60618761D01*
X109563771Y-60618761D02*
X109611390Y-60523523D01*
X109611390Y-60523523D02*
X109659009Y-60475904D01*
X109659009Y-60475904D02*
X109754247Y-60428285D01*
X109754247Y-60428285D02*
X109992342Y-60428285D01*
X109992342Y-60428285D02*
X110087580Y-60475904D01*
X110087580Y-60475904D02*
X110135200Y-60523523D01*
X110135200Y-60523523D02*
X110182819Y-60618761D01*
X110182819Y-60618761D02*
X110182819Y-60856856D01*
X110182819Y-60856856D02*
X110135200Y-60952094D01*
X110135200Y-60952094D02*
X110087580Y-60999713D01*
D10*
X125158667Y-102517800D02*
X125301524Y-102565419D01*
X125301524Y-102565419D02*
X125539619Y-102565419D01*
X125539619Y-102565419D02*
X125634857Y-102517800D01*
X125634857Y-102517800D02*
X125682476Y-102470180D01*
X125682476Y-102470180D02*
X125730095Y-102374942D01*
X125730095Y-102374942D02*
X125730095Y-102279704D01*
X125730095Y-102279704D02*
X125682476Y-102184466D01*
X125682476Y-102184466D02*
X125634857Y-102136847D01*
X125634857Y-102136847D02*
X125539619Y-102089228D01*
X125539619Y-102089228D02*
X125349143Y-102041609D01*
X125349143Y-102041609D02*
X125253905Y-101993990D01*
X125253905Y-101993990D02*
X125206286Y-101946371D01*
X125206286Y-101946371D02*
X125158667Y-101851133D01*
X125158667Y-101851133D02*
X125158667Y-101755895D01*
X125158667Y-101755895D02*
X125206286Y-101660657D01*
X125206286Y-101660657D02*
X125253905Y-101613038D01*
X125253905Y-101613038D02*
X125349143Y-101565419D01*
X125349143Y-101565419D02*
X125587238Y-101565419D01*
X125587238Y-101565419D02*
X125730095Y-101613038D01*
X126063429Y-101565419D02*
X126301524Y-102565419D01*
X126301524Y-102565419D02*
X126492000Y-101851133D01*
X126492000Y-101851133D02*
X126682476Y-102565419D01*
X126682476Y-102565419D02*
X126920572Y-101565419D01*
X127825333Y-102565419D02*
X127253905Y-102565419D01*
X127539619Y-102565419D02*
X127539619Y-101565419D01*
X127539619Y-101565419D02*
X127444381Y-101708276D01*
X127444381Y-101708276D02*
X127349143Y-101803514D01*
X127349143Y-101803514D02*
X127253905Y-101851133D01*
X125158667Y-146713800D02*
X125301524Y-146761419D01*
X125301524Y-146761419D02*
X125539619Y-146761419D01*
X125539619Y-146761419D02*
X125634857Y-146713800D01*
X125634857Y-146713800D02*
X125682476Y-146666180D01*
X125682476Y-146666180D02*
X125730095Y-146570942D01*
X125730095Y-146570942D02*
X125730095Y-146475704D01*
X125730095Y-146475704D02*
X125682476Y-146380466D01*
X125682476Y-146380466D02*
X125634857Y-146332847D01*
X125634857Y-146332847D02*
X125539619Y-146285228D01*
X125539619Y-146285228D02*
X125349143Y-146237609D01*
X125349143Y-146237609D02*
X125253905Y-146189990D01*
X125253905Y-146189990D02*
X125206286Y-146142371D01*
X125206286Y-146142371D02*
X125158667Y-146047133D01*
X125158667Y-146047133D02*
X125158667Y-145951895D01*
X125158667Y-145951895D02*
X125206286Y-145856657D01*
X125206286Y-145856657D02*
X125253905Y-145809038D01*
X125253905Y-145809038D02*
X125349143Y-145761419D01*
X125349143Y-145761419D02*
X125587238Y-145761419D01*
X125587238Y-145761419D02*
X125730095Y-145809038D01*
X126063429Y-145761419D02*
X126301524Y-146761419D01*
X126301524Y-146761419D02*
X126492000Y-146047133D01*
X126492000Y-146047133D02*
X126682476Y-146761419D01*
X126682476Y-146761419D02*
X126920572Y-145761419D01*
X127206286Y-145761419D02*
X127825333Y-145761419D01*
X127825333Y-145761419D02*
X127492000Y-146142371D01*
X127492000Y-146142371D02*
X127634857Y-146142371D01*
X127634857Y-146142371D02*
X127730095Y-146189990D01*
X127730095Y-146189990D02*
X127777714Y-146237609D01*
X127777714Y-146237609D02*
X127825333Y-146332847D01*
X127825333Y-146332847D02*
X127825333Y-146570942D01*
X127825333Y-146570942D02*
X127777714Y-146666180D01*
X127777714Y-146666180D02*
X127730095Y-146713800D01*
X127730095Y-146713800D02*
X127634857Y-146761419D01*
X127634857Y-146761419D02*
X127349143Y-146761419D01*
X127349143Y-146761419D02*
X127253905Y-146713800D01*
X127253905Y-146713800D02*
X127206286Y-146666180D01*
D12*
X116673333Y-99067580D02*
X116625714Y-99115200D01*
X116625714Y-99115200D02*
X116482857Y-99162819D01*
X116482857Y-99162819D02*
X116387619Y-99162819D01*
X116387619Y-99162819D02*
X116244762Y-99115200D01*
X116244762Y-99115200D02*
X116149524Y-99019961D01*
X116149524Y-99019961D02*
X116101905Y-98924723D01*
X116101905Y-98924723D02*
X116054286Y-98734247D01*
X116054286Y-98734247D02*
X116054286Y-98591390D01*
X116054286Y-98591390D02*
X116101905Y-98400914D01*
X116101905Y-98400914D02*
X116149524Y-98305676D01*
X116149524Y-98305676D02*
X116244762Y-98210438D01*
X116244762Y-98210438D02*
X116387619Y-98162819D01*
X116387619Y-98162819D02*
X116482857Y-98162819D01*
X116482857Y-98162819D02*
X116625714Y-98210438D01*
X116625714Y-98210438D02*
X116673333Y-98258057D01*
X117006667Y-98162819D02*
X117625714Y-98162819D01*
X117625714Y-98162819D02*
X117292381Y-98543771D01*
X117292381Y-98543771D02*
X117435238Y-98543771D01*
X117435238Y-98543771D02*
X117530476Y-98591390D01*
X117530476Y-98591390D02*
X117578095Y-98639009D01*
X117578095Y-98639009D02*
X117625714Y-98734247D01*
X117625714Y-98734247D02*
X117625714Y-98972342D01*
X117625714Y-98972342D02*
X117578095Y-99067580D01*
X117578095Y-99067580D02*
X117530476Y-99115200D01*
X117530476Y-99115200D02*
X117435238Y-99162819D01*
X117435238Y-99162819D02*
X117149524Y-99162819D01*
X117149524Y-99162819D02*
X117054286Y-99115200D01*
X117054286Y-99115200D02*
X117006667Y-99067580D01*
X123698095Y-38272819D02*
X123698095Y-39082342D01*
X123698095Y-39082342D02*
X123745714Y-39177580D01*
X123745714Y-39177580D02*
X123793333Y-39225200D01*
X123793333Y-39225200D02*
X123888571Y-39272819D01*
X123888571Y-39272819D02*
X124079047Y-39272819D01*
X124079047Y-39272819D02*
X124174285Y-39225200D01*
X124174285Y-39225200D02*
X124221904Y-39177580D01*
X124221904Y-39177580D02*
X124269523Y-39082342D01*
X124269523Y-39082342D02*
X124269523Y-38272819D01*
X125269523Y-39272819D02*
X124698095Y-39272819D01*
X124983809Y-39272819D02*
X124983809Y-38272819D01*
X124983809Y-38272819D02*
X124888571Y-38415676D01*
X124888571Y-38415676D02*
X124793333Y-38510914D01*
X124793333Y-38510914D02*
X124698095Y-38558533D01*
X123698095Y-98812819D02*
X123698095Y-99622342D01*
X123698095Y-99622342D02*
X123745714Y-99717580D01*
X123745714Y-99717580D02*
X123793333Y-99765200D01*
X123793333Y-99765200D02*
X123888571Y-99812819D01*
X123888571Y-99812819D02*
X124079047Y-99812819D01*
X124079047Y-99812819D02*
X124174285Y-99765200D01*
X124174285Y-99765200D02*
X124221904Y-99717580D01*
X124221904Y-99717580D02*
X124269523Y-99622342D01*
X124269523Y-99622342D02*
X124269523Y-98812819D01*
X124698095Y-98908057D02*
X124745714Y-98860438D01*
X124745714Y-98860438D02*
X124840952Y-98812819D01*
X124840952Y-98812819D02*
X125079047Y-98812819D01*
X125079047Y-98812819D02*
X125174285Y-98860438D01*
X125174285Y-98860438D02*
X125221904Y-98908057D01*
X125221904Y-98908057D02*
X125269523Y-99003295D01*
X125269523Y-99003295D02*
X125269523Y-99098533D01*
X125269523Y-99098533D02*
X125221904Y-99241390D01*
X125221904Y-99241390D02*
X124650476Y-99812819D01*
X124650476Y-99812819D02*
X125269523Y-99812819D01*
D10*
X104330667Y-102517800D02*
X104473524Y-102565419D01*
X104473524Y-102565419D02*
X104711619Y-102565419D01*
X104711619Y-102565419D02*
X104806857Y-102517800D01*
X104806857Y-102517800D02*
X104854476Y-102470180D01*
X104854476Y-102470180D02*
X104902095Y-102374942D01*
X104902095Y-102374942D02*
X104902095Y-102279704D01*
X104902095Y-102279704D02*
X104854476Y-102184466D01*
X104854476Y-102184466D02*
X104806857Y-102136847D01*
X104806857Y-102136847D02*
X104711619Y-102089228D01*
X104711619Y-102089228D02*
X104521143Y-102041609D01*
X104521143Y-102041609D02*
X104425905Y-101993990D01*
X104425905Y-101993990D02*
X104378286Y-101946371D01*
X104378286Y-101946371D02*
X104330667Y-101851133D01*
X104330667Y-101851133D02*
X104330667Y-101755895D01*
X104330667Y-101755895D02*
X104378286Y-101660657D01*
X104378286Y-101660657D02*
X104425905Y-101613038D01*
X104425905Y-101613038D02*
X104521143Y-101565419D01*
X104521143Y-101565419D02*
X104759238Y-101565419D01*
X104759238Y-101565419D02*
X104902095Y-101613038D01*
X105235429Y-101565419D02*
X105473524Y-102565419D01*
X105473524Y-102565419D02*
X105664000Y-101851133D01*
X105664000Y-101851133D02*
X105854476Y-102565419D01*
X105854476Y-102565419D02*
X106092572Y-101565419D01*
X106425905Y-101660657D02*
X106473524Y-101613038D01*
X106473524Y-101613038D02*
X106568762Y-101565419D01*
X106568762Y-101565419D02*
X106806857Y-101565419D01*
X106806857Y-101565419D02*
X106902095Y-101613038D01*
X106902095Y-101613038D02*
X106949714Y-101660657D01*
X106949714Y-101660657D02*
X106997333Y-101755895D01*
X106997333Y-101755895D02*
X106997333Y-101851133D01*
X106997333Y-101851133D02*
X106949714Y-101993990D01*
X106949714Y-101993990D02*
X106378286Y-102565419D01*
X106378286Y-102565419D02*
X106997333Y-102565419D01*
D12*
X138350666Y-45174819D02*
X138350666Y-45889104D01*
X138350666Y-45889104D02*
X138303047Y-46031961D01*
X138303047Y-46031961D02*
X138207809Y-46127200D01*
X138207809Y-46127200D02*
X138064952Y-46174819D01*
X138064952Y-46174819D02*
X137969714Y-46174819D01*
X138731619Y-45174819D02*
X139350666Y-45174819D01*
X139350666Y-45174819D02*
X139017333Y-45555771D01*
X139017333Y-45555771D02*
X139160190Y-45555771D01*
X139160190Y-45555771D02*
X139255428Y-45603390D01*
X139255428Y-45603390D02*
X139303047Y-45651009D01*
X139303047Y-45651009D02*
X139350666Y-45746247D01*
X139350666Y-45746247D02*
X139350666Y-45984342D01*
X139350666Y-45984342D02*
X139303047Y-46079580D01*
X139303047Y-46079580D02*
X139255428Y-46127200D01*
X139255428Y-46127200D02*
X139160190Y-46174819D01*
X139160190Y-46174819D02*
X138874476Y-46174819D01*
X138874476Y-46174819D02*
X138779238Y-46127200D01*
X138779238Y-46127200D02*
X138731619Y-46079580D01*
X119449761Y-171590819D02*
X119116428Y-171114628D01*
X118878333Y-171590819D02*
X118878333Y-170590819D01*
X118878333Y-170590819D02*
X119259285Y-170590819D01*
X119259285Y-170590819D02*
X119354523Y-170638438D01*
X119354523Y-170638438D02*
X119402142Y-170686057D01*
X119402142Y-170686057D02*
X119449761Y-170781295D01*
X119449761Y-170781295D02*
X119449761Y-170924152D01*
X119449761Y-170924152D02*
X119402142Y-171019390D01*
X119402142Y-171019390D02*
X119354523Y-171067009D01*
X119354523Y-171067009D02*
X119259285Y-171114628D01*
X119259285Y-171114628D02*
X118878333Y-171114628D01*
X119735476Y-170590819D02*
X120068809Y-171590819D01*
X120068809Y-171590819D02*
X120402142Y-170590819D01*
X120640238Y-170590819D02*
X121259285Y-170590819D01*
X121259285Y-170590819D02*
X120925952Y-170971771D01*
X120925952Y-170971771D02*
X121068809Y-170971771D01*
X121068809Y-170971771D02*
X121164047Y-171019390D01*
X121164047Y-171019390D02*
X121211666Y-171067009D01*
X121211666Y-171067009D02*
X121259285Y-171162247D01*
X121259285Y-171162247D02*
X121259285Y-171400342D01*
X121259285Y-171400342D02*
X121211666Y-171495580D01*
X121211666Y-171495580D02*
X121164047Y-171543200D01*
X121164047Y-171543200D02*
X121068809Y-171590819D01*
X121068809Y-171590819D02*
X120783095Y-171590819D01*
X120783095Y-171590819D02*
X120687857Y-171543200D01*
X120687857Y-171543200D02*
X120640238Y-171495580D01*
X117294819Y-77382666D02*
X116818628Y-77715999D01*
X117294819Y-77954094D02*
X116294819Y-77954094D01*
X116294819Y-77954094D02*
X116294819Y-77573142D01*
X116294819Y-77573142D02*
X116342438Y-77477904D01*
X116342438Y-77477904D02*
X116390057Y-77430285D01*
X116390057Y-77430285D02*
X116485295Y-77382666D01*
X116485295Y-77382666D02*
X116628152Y-77382666D01*
X116628152Y-77382666D02*
X116723390Y-77430285D01*
X116723390Y-77430285D02*
X116771009Y-77477904D01*
X116771009Y-77477904D02*
X116818628Y-77573142D01*
X116818628Y-77573142D02*
X116818628Y-77954094D01*
X116294819Y-77049332D02*
X116294819Y-76382666D01*
X116294819Y-76382666D02*
X117294819Y-76811237D01*
X113879333Y-44142819D02*
X113546000Y-43666628D01*
X113307905Y-44142819D02*
X113307905Y-43142819D01*
X113307905Y-43142819D02*
X113688857Y-43142819D01*
X113688857Y-43142819D02*
X113784095Y-43190438D01*
X113784095Y-43190438D02*
X113831714Y-43238057D01*
X113831714Y-43238057D02*
X113879333Y-43333295D01*
X113879333Y-43333295D02*
X113879333Y-43476152D01*
X113879333Y-43476152D02*
X113831714Y-43571390D01*
X113831714Y-43571390D02*
X113784095Y-43619009D01*
X113784095Y-43619009D02*
X113688857Y-43666628D01*
X113688857Y-43666628D02*
X113307905Y-43666628D01*
X114736476Y-43142819D02*
X114546000Y-43142819D01*
X114546000Y-43142819D02*
X114450762Y-43190438D01*
X114450762Y-43190438D02*
X114403143Y-43238057D01*
X114403143Y-43238057D02*
X114307905Y-43380914D01*
X114307905Y-43380914D02*
X114260286Y-43571390D01*
X114260286Y-43571390D02*
X114260286Y-43952342D01*
X114260286Y-43952342D02*
X114307905Y-44047580D01*
X114307905Y-44047580D02*
X114355524Y-44095200D01*
X114355524Y-44095200D02*
X114450762Y-44142819D01*
X114450762Y-44142819D02*
X114641238Y-44142819D01*
X114641238Y-44142819D02*
X114736476Y-44095200D01*
X114736476Y-44095200D02*
X114784095Y-44047580D01*
X114784095Y-44047580D02*
X114831714Y-43952342D01*
X114831714Y-43952342D02*
X114831714Y-43714247D01*
X114831714Y-43714247D02*
X114784095Y-43619009D01*
X114784095Y-43619009D02*
X114736476Y-43571390D01*
X114736476Y-43571390D02*
X114641238Y-43523771D01*
X114641238Y-43523771D02*
X114450762Y-43523771D01*
X114450762Y-43523771D02*
X114355524Y-43571390D01*
X114355524Y-43571390D02*
X114307905Y-43619009D01*
X114307905Y-43619009D02*
X114260286Y-43714247D01*
X104864819Y-71881904D02*
X105674342Y-71881904D01*
X105674342Y-71881904D02*
X105769580Y-71834285D01*
X105769580Y-71834285D02*
X105817200Y-71786666D01*
X105817200Y-71786666D02*
X105864819Y-71691428D01*
X105864819Y-71691428D02*
X105864819Y-71500952D01*
X105864819Y-71500952D02*
X105817200Y-71405714D01*
X105817200Y-71405714D02*
X105769580Y-71358095D01*
X105769580Y-71358095D02*
X105674342Y-71310476D01*
X105674342Y-71310476D02*
X104864819Y-71310476D01*
X104864819Y-70929523D02*
X104864819Y-70310476D01*
X104864819Y-70310476D02*
X105245771Y-70643809D01*
X105245771Y-70643809D02*
X105245771Y-70500952D01*
X105245771Y-70500952D02*
X105293390Y-70405714D01*
X105293390Y-70405714D02*
X105341009Y-70358095D01*
X105341009Y-70358095D02*
X105436247Y-70310476D01*
X105436247Y-70310476D02*
X105674342Y-70310476D01*
X105674342Y-70310476D02*
X105769580Y-70358095D01*
X105769580Y-70358095D02*
X105817200Y-70405714D01*
X105817200Y-70405714D02*
X105864819Y-70500952D01*
X105864819Y-70500952D02*
X105864819Y-70786666D01*
X105864819Y-70786666D02*
X105817200Y-70881904D01*
X105817200Y-70881904D02*
X105769580Y-70929523D01*
X139504095Y-161030819D02*
X140075523Y-161030819D01*
X139789809Y-162030819D02*
X139789809Y-161030819D01*
X140408857Y-162030819D02*
X140408857Y-161030819D01*
X140408857Y-161030819D02*
X140789809Y-161030819D01*
X140789809Y-161030819D02*
X140885047Y-161078438D01*
X140885047Y-161078438D02*
X140932666Y-161126057D01*
X140932666Y-161126057D02*
X140980285Y-161221295D01*
X140980285Y-161221295D02*
X140980285Y-161364152D01*
X140980285Y-161364152D02*
X140932666Y-161459390D01*
X140932666Y-161459390D02*
X140885047Y-161507009D01*
X140885047Y-161507009D02*
X140789809Y-161554628D01*
X140789809Y-161554628D02*
X140408857Y-161554628D01*
X141837428Y-161364152D02*
X141837428Y-162030819D01*
X141599333Y-160983200D02*
X141361238Y-161697485D01*
X141361238Y-161697485D02*
X141980285Y-161697485D01*
X113879333Y-41507580D02*
X113831714Y-41555200D01*
X113831714Y-41555200D02*
X113688857Y-41602819D01*
X113688857Y-41602819D02*
X113593619Y-41602819D01*
X113593619Y-41602819D02*
X113450762Y-41555200D01*
X113450762Y-41555200D02*
X113355524Y-41459961D01*
X113355524Y-41459961D02*
X113307905Y-41364723D01*
X113307905Y-41364723D02*
X113260286Y-41174247D01*
X113260286Y-41174247D02*
X113260286Y-41031390D01*
X113260286Y-41031390D02*
X113307905Y-40840914D01*
X113307905Y-40840914D02*
X113355524Y-40745676D01*
X113355524Y-40745676D02*
X113450762Y-40650438D01*
X113450762Y-40650438D02*
X113593619Y-40602819D01*
X113593619Y-40602819D02*
X113688857Y-40602819D01*
X113688857Y-40602819D02*
X113831714Y-40650438D01*
X113831714Y-40650438D02*
X113879333Y-40698057D01*
X114831714Y-41602819D02*
X114260286Y-41602819D01*
X114546000Y-41602819D02*
X114546000Y-40602819D01*
X114546000Y-40602819D02*
X114450762Y-40745676D01*
X114450762Y-40745676D02*
X114355524Y-40840914D01*
X114355524Y-40840914D02*
X114260286Y-40888533D01*
X105664095Y-39570819D02*
X105664095Y-38570819D01*
X105664095Y-39047009D02*
X106235523Y-39047009D01*
X106235523Y-39570819D02*
X106235523Y-38570819D01*
X107235523Y-39570819D02*
X106664095Y-39570819D01*
X106949809Y-39570819D02*
X106949809Y-38570819D01*
X106949809Y-38570819D02*
X106854571Y-38713676D01*
X106854571Y-38713676D02*
X106759333Y-38808914D01*
X106759333Y-38808914D02*
X106664095Y-38856533D01*
X139504095Y-82798819D02*
X140075523Y-82798819D01*
X139789809Y-83798819D02*
X139789809Y-82798819D01*
X140408857Y-83798819D02*
X140408857Y-82798819D01*
X140408857Y-82798819D02*
X140789809Y-82798819D01*
X140789809Y-82798819D02*
X140885047Y-82846438D01*
X140885047Y-82846438D02*
X140932666Y-82894057D01*
X140932666Y-82894057D02*
X140980285Y-82989295D01*
X140980285Y-82989295D02*
X140980285Y-83132152D01*
X140980285Y-83132152D02*
X140932666Y-83227390D01*
X140932666Y-83227390D02*
X140885047Y-83275009D01*
X140885047Y-83275009D02*
X140789809Y-83322628D01*
X140789809Y-83322628D02*
X140408857Y-83322628D01*
X141313619Y-82798819D02*
X141932666Y-82798819D01*
X141932666Y-82798819D02*
X141599333Y-83179771D01*
X141599333Y-83179771D02*
X141742190Y-83179771D01*
X141742190Y-83179771D02*
X141837428Y-83227390D01*
X141837428Y-83227390D02*
X141885047Y-83275009D01*
X141885047Y-83275009D02*
X141932666Y-83370247D01*
X141932666Y-83370247D02*
X141932666Y-83608342D01*
X141932666Y-83608342D02*
X141885047Y-83703580D01*
X141885047Y-83703580D02*
X141837428Y-83751200D01*
X141837428Y-83751200D02*
X141742190Y-83798819D01*
X141742190Y-83798819D02*
X141456476Y-83798819D01*
X141456476Y-83798819D02*
X141361238Y-83751200D01*
X141361238Y-83751200D02*
X141313619Y-83703580D01*
X116197142Y-102816819D02*
X115863809Y-102340628D01*
X115625714Y-102816819D02*
X115625714Y-101816819D01*
X115625714Y-101816819D02*
X116006666Y-101816819D01*
X116006666Y-101816819D02*
X116101904Y-101864438D01*
X116101904Y-101864438D02*
X116149523Y-101912057D01*
X116149523Y-101912057D02*
X116197142Y-102007295D01*
X116197142Y-102007295D02*
X116197142Y-102150152D01*
X116197142Y-102150152D02*
X116149523Y-102245390D01*
X116149523Y-102245390D02*
X116101904Y-102293009D01*
X116101904Y-102293009D02*
X116006666Y-102340628D01*
X116006666Y-102340628D02*
X115625714Y-102340628D01*
X117149523Y-102816819D02*
X116578095Y-102816819D01*
X116863809Y-102816819D02*
X116863809Y-101816819D01*
X116863809Y-101816819D02*
X116768571Y-101959676D01*
X116768571Y-101959676D02*
X116673333Y-102054914D01*
X116673333Y-102054914D02*
X116578095Y-102102533D01*
X117482857Y-101816819D02*
X118101904Y-101816819D01*
X118101904Y-101816819D02*
X117768571Y-102197771D01*
X117768571Y-102197771D02*
X117911428Y-102197771D01*
X117911428Y-102197771D02*
X118006666Y-102245390D01*
X118006666Y-102245390D02*
X118054285Y-102293009D01*
X118054285Y-102293009D02*
X118101904Y-102388247D01*
X118101904Y-102388247D02*
X118101904Y-102626342D01*
X118101904Y-102626342D02*
X118054285Y-102721580D01*
X118054285Y-102721580D02*
X118006666Y-102769200D01*
X118006666Y-102769200D02*
X117911428Y-102816819D01*
X117911428Y-102816819D02*
X117625714Y-102816819D01*
X117625714Y-102816819D02*
X117530476Y-102769200D01*
X117530476Y-102769200D02*
X117482857Y-102721580D01*
X105664095Y-173428819D02*
X105664095Y-172428819D01*
X105664095Y-172905009D02*
X106235523Y-172905009D01*
X106235523Y-173428819D02*
X106235523Y-172428819D01*
X107140285Y-172762152D02*
X107140285Y-173428819D01*
X106902190Y-172381200D02*
X106664095Y-173095485D01*
X106664095Y-173095485D02*
X107283142Y-173095485D01*
X115770819Y-77858857D02*
X115294628Y-78192190D01*
X115770819Y-78430285D02*
X114770819Y-78430285D01*
X114770819Y-78430285D02*
X114770819Y-78049333D01*
X114770819Y-78049333D02*
X114818438Y-77954095D01*
X114818438Y-77954095D02*
X114866057Y-77906476D01*
X114866057Y-77906476D02*
X114961295Y-77858857D01*
X114961295Y-77858857D02*
X115104152Y-77858857D01*
X115104152Y-77858857D02*
X115199390Y-77906476D01*
X115199390Y-77906476D02*
X115247009Y-77954095D01*
X115247009Y-77954095D02*
X115294628Y-78049333D01*
X115294628Y-78049333D02*
X115294628Y-78430285D01*
X115770819Y-76906476D02*
X115770819Y-77477904D01*
X115770819Y-77192190D02*
X114770819Y-77192190D01*
X114770819Y-77192190D02*
X114913676Y-77287428D01*
X114913676Y-77287428D02*
X115008914Y-77382666D01*
X115008914Y-77382666D02*
X115056533Y-77477904D01*
X115770819Y-75954095D02*
X115770819Y-76525523D01*
X115770819Y-76239809D02*
X114770819Y-76239809D01*
X114770819Y-76239809D02*
X114913676Y-76335047D01*
X114913676Y-76335047D02*
X115008914Y-76430285D01*
X115008914Y-76430285D02*
X115056533Y-76525523D01*
X139504095Y-92958819D02*
X140075523Y-92958819D01*
X139789809Y-93958819D02*
X139789809Y-92958819D01*
X140408857Y-93958819D02*
X140408857Y-92958819D01*
X140408857Y-92958819D02*
X140789809Y-92958819D01*
X140789809Y-92958819D02*
X140885047Y-93006438D01*
X140885047Y-93006438D02*
X140932666Y-93054057D01*
X140932666Y-93054057D02*
X140980285Y-93149295D01*
X140980285Y-93149295D02*
X140980285Y-93292152D01*
X140980285Y-93292152D02*
X140932666Y-93387390D01*
X140932666Y-93387390D02*
X140885047Y-93435009D01*
X140885047Y-93435009D02*
X140789809Y-93482628D01*
X140789809Y-93482628D02*
X140408857Y-93482628D01*
X141932666Y-93958819D02*
X141361238Y-93958819D01*
X141646952Y-93958819D02*
X141646952Y-92958819D01*
X141646952Y-92958819D02*
X141551714Y-93101676D01*
X141551714Y-93101676D02*
X141456476Y-93196914D01*
X141456476Y-93196914D02*
X141361238Y-93244533D01*
X115770819Y-61126666D02*
X115294628Y-61459999D01*
X115770819Y-61698094D02*
X114770819Y-61698094D01*
X114770819Y-61698094D02*
X114770819Y-61317142D01*
X114770819Y-61317142D02*
X114818438Y-61221904D01*
X114818438Y-61221904D02*
X114866057Y-61174285D01*
X114866057Y-61174285D02*
X114961295Y-61126666D01*
X114961295Y-61126666D02*
X115104152Y-61126666D01*
X115104152Y-61126666D02*
X115199390Y-61174285D01*
X115199390Y-61174285D02*
X115247009Y-61221904D01*
X115247009Y-61221904D02*
X115294628Y-61317142D01*
X115294628Y-61317142D02*
X115294628Y-61698094D01*
X114770819Y-60221904D02*
X114770819Y-60698094D01*
X114770819Y-60698094D02*
X115247009Y-60745713D01*
X115247009Y-60745713D02*
X115199390Y-60698094D01*
X115199390Y-60698094D02*
X115151771Y-60602856D01*
X115151771Y-60602856D02*
X115151771Y-60364761D01*
X115151771Y-60364761D02*
X115199390Y-60269523D01*
X115199390Y-60269523D02*
X115247009Y-60221904D01*
X115247009Y-60221904D02*
X115342247Y-60174285D01*
X115342247Y-60174285D02*
X115580342Y-60174285D01*
X115580342Y-60174285D02*
X115675580Y-60221904D01*
X115675580Y-60221904D02*
X115723200Y-60269523D01*
X115723200Y-60269523D02*
X115770819Y-60364761D01*
X115770819Y-60364761D02*
X115770819Y-60602856D01*
X115770819Y-60602856D02*
X115723200Y-60698094D01*
X115723200Y-60698094D02*
X115675580Y-60745713D01*
X130929142Y-99132819D02*
X130595809Y-98656628D01*
X130357714Y-99132819D02*
X130357714Y-98132819D01*
X130357714Y-98132819D02*
X130738666Y-98132819D01*
X130738666Y-98132819D02*
X130833904Y-98180438D01*
X130833904Y-98180438D02*
X130881523Y-98228057D01*
X130881523Y-98228057D02*
X130929142Y-98323295D01*
X130929142Y-98323295D02*
X130929142Y-98466152D01*
X130929142Y-98466152D02*
X130881523Y-98561390D01*
X130881523Y-98561390D02*
X130833904Y-98609009D01*
X130833904Y-98609009D02*
X130738666Y-98656628D01*
X130738666Y-98656628D02*
X130357714Y-98656628D01*
X131881523Y-99132819D02*
X131310095Y-99132819D01*
X131595809Y-99132819D02*
X131595809Y-98132819D01*
X131595809Y-98132819D02*
X131500571Y-98275676D01*
X131500571Y-98275676D02*
X131405333Y-98370914D01*
X131405333Y-98370914D02*
X131310095Y-98418533D01*
X132262476Y-98228057D02*
X132310095Y-98180438D01*
X132310095Y-98180438D02*
X132405333Y-98132819D01*
X132405333Y-98132819D02*
X132643428Y-98132819D01*
X132643428Y-98132819D02*
X132738666Y-98180438D01*
X132738666Y-98180438D02*
X132786285Y-98228057D01*
X132786285Y-98228057D02*
X132833904Y-98323295D01*
X132833904Y-98323295D02*
X132833904Y-98418533D01*
X132833904Y-98418533D02*
X132786285Y-98561390D01*
X132786285Y-98561390D02*
X132214857Y-99132819D01*
X132214857Y-99132819D02*
X132833904Y-99132819D01*
X114246819Y-61126666D02*
X113770628Y-61459999D01*
X114246819Y-61698094D02*
X113246819Y-61698094D01*
X113246819Y-61698094D02*
X113246819Y-61317142D01*
X113246819Y-61317142D02*
X113294438Y-61221904D01*
X113294438Y-61221904D02*
X113342057Y-61174285D01*
X113342057Y-61174285D02*
X113437295Y-61126666D01*
X113437295Y-61126666D02*
X113580152Y-61126666D01*
X113580152Y-61126666D02*
X113675390Y-61174285D01*
X113675390Y-61174285D02*
X113723009Y-61221904D01*
X113723009Y-61221904D02*
X113770628Y-61317142D01*
X113770628Y-61317142D02*
X113770628Y-61698094D01*
X114246819Y-60174285D02*
X114246819Y-60745713D01*
X114246819Y-60459999D02*
X113246819Y-60459999D01*
X113246819Y-60459999D02*
X113389676Y-60555237D01*
X113389676Y-60555237D02*
X113484914Y-60650475D01*
X113484914Y-60650475D02*
X113532533Y-60745713D01*
X117294819Y-61126666D02*
X116818628Y-61459999D01*
X117294819Y-61698094D02*
X116294819Y-61698094D01*
X116294819Y-61698094D02*
X116294819Y-61317142D01*
X116294819Y-61317142D02*
X116342438Y-61221904D01*
X116342438Y-61221904D02*
X116390057Y-61174285D01*
X116390057Y-61174285D02*
X116485295Y-61126666D01*
X116485295Y-61126666D02*
X116628152Y-61126666D01*
X116628152Y-61126666D02*
X116723390Y-61174285D01*
X116723390Y-61174285D02*
X116771009Y-61221904D01*
X116771009Y-61221904D02*
X116818628Y-61317142D01*
X116818628Y-61317142D02*
X116818628Y-61698094D01*
X116628152Y-60269523D02*
X117294819Y-60269523D01*
X116247200Y-60507618D02*
X116961485Y-60745713D01*
X116961485Y-60745713D02*
X116961485Y-60126666D01*
X118818819Y-61126666D02*
X118342628Y-61459999D01*
X118818819Y-61698094D02*
X117818819Y-61698094D01*
X117818819Y-61698094D02*
X117818819Y-61317142D01*
X117818819Y-61317142D02*
X117866438Y-61221904D01*
X117866438Y-61221904D02*
X117914057Y-61174285D01*
X117914057Y-61174285D02*
X118009295Y-61126666D01*
X118009295Y-61126666D02*
X118152152Y-61126666D01*
X118152152Y-61126666D02*
X118247390Y-61174285D01*
X118247390Y-61174285D02*
X118295009Y-61221904D01*
X118295009Y-61221904D02*
X118342628Y-61317142D01*
X118342628Y-61317142D02*
X118342628Y-61698094D01*
X117818819Y-60793332D02*
X117818819Y-60174285D01*
X117818819Y-60174285D02*
X118199771Y-60507618D01*
X118199771Y-60507618D02*
X118199771Y-60364761D01*
X118199771Y-60364761D02*
X118247390Y-60269523D01*
X118247390Y-60269523D02*
X118295009Y-60221904D01*
X118295009Y-60221904D02*
X118390247Y-60174285D01*
X118390247Y-60174285D02*
X118628342Y-60174285D01*
X118628342Y-60174285D02*
X118723580Y-60221904D01*
X118723580Y-60221904D02*
X118771200Y-60269523D01*
X118771200Y-60269523D02*
X118818819Y-60364761D01*
X118818819Y-60364761D02*
X118818819Y-60650475D01*
X118818819Y-60650475D02*
X118771200Y-60745713D01*
X118771200Y-60745713D02*
X118723580Y-60793332D01*
X138350666Y-113246819D02*
X138350666Y-113961104D01*
X138350666Y-113961104D02*
X138303047Y-114103961D01*
X138303047Y-114103961D02*
X138207809Y-114199200D01*
X138207809Y-114199200D02*
X138064952Y-114246819D01*
X138064952Y-114246819D02*
X137969714Y-114246819D01*
X139303047Y-113246819D02*
X138826857Y-113246819D01*
X138826857Y-113246819D02*
X138779238Y-113723009D01*
X138779238Y-113723009D02*
X138826857Y-113675390D01*
X138826857Y-113675390D02*
X138922095Y-113627771D01*
X138922095Y-113627771D02*
X139160190Y-113627771D01*
X139160190Y-113627771D02*
X139255428Y-113675390D01*
X139255428Y-113675390D02*
X139303047Y-113723009D01*
X139303047Y-113723009D02*
X139350666Y-113818247D01*
X139350666Y-113818247D02*
X139350666Y-114056342D01*
X139350666Y-114056342D02*
X139303047Y-114151580D01*
X139303047Y-114151580D02*
X139255428Y-114199200D01*
X139255428Y-114199200D02*
X139160190Y-114246819D01*
X139160190Y-114246819D02*
X138922095Y-114246819D01*
X138922095Y-114246819D02*
X138826857Y-114199200D01*
X138826857Y-114199200D02*
X138779238Y-114151580D01*
X116000819Y-85535333D02*
X116715104Y-85535333D01*
X116715104Y-85535333D02*
X116857961Y-85582952D01*
X116857961Y-85582952D02*
X116953200Y-85678190D01*
X116953200Y-85678190D02*
X117000819Y-85821047D01*
X117000819Y-85821047D02*
X117000819Y-85916285D01*
X117000819Y-84535333D02*
X117000819Y-85106761D01*
X117000819Y-84821047D02*
X116000819Y-84821047D01*
X116000819Y-84821047D02*
X116143676Y-84916285D01*
X116143676Y-84916285D02*
X116238914Y-85011523D01*
X116238914Y-85011523D02*
X116286533Y-85106761D01*
X114246819Y-77858857D02*
X113770628Y-78192190D01*
X114246819Y-78430285D02*
X113246819Y-78430285D01*
X113246819Y-78430285D02*
X113246819Y-78049333D01*
X113246819Y-78049333D02*
X113294438Y-77954095D01*
X113294438Y-77954095D02*
X113342057Y-77906476D01*
X113342057Y-77906476D02*
X113437295Y-77858857D01*
X113437295Y-77858857D02*
X113580152Y-77858857D01*
X113580152Y-77858857D02*
X113675390Y-77906476D01*
X113675390Y-77906476D02*
X113723009Y-77954095D01*
X113723009Y-77954095D02*
X113770628Y-78049333D01*
X113770628Y-78049333D02*
X113770628Y-78430285D01*
X114246819Y-76906476D02*
X114246819Y-77477904D01*
X114246819Y-77192190D02*
X113246819Y-77192190D01*
X113246819Y-77192190D02*
X113389676Y-77287428D01*
X113389676Y-77287428D02*
X113484914Y-77382666D01*
X113484914Y-77382666D02*
X113532533Y-77477904D01*
X113246819Y-76287428D02*
X113246819Y-76192190D01*
X113246819Y-76192190D02*
X113294438Y-76096952D01*
X113294438Y-76096952D02*
X113342057Y-76049333D01*
X113342057Y-76049333D02*
X113437295Y-76001714D01*
X113437295Y-76001714D02*
X113627771Y-75954095D01*
X113627771Y-75954095D02*
X113865866Y-75954095D01*
X113865866Y-75954095D02*
X114056342Y-76001714D01*
X114056342Y-76001714D02*
X114151580Y-76049333D01*
X114151580Y-76049333D02*
X114199200Y-76096952D01*
X114199200Y-76096952D02*
X114246819Y-76192190D01*
X114246819Y-76192190D02*
X114246819Y-76287428D01*
X114246819Y-76287428D02*
X114199200Y-76382666D01*
X114199200Y-76382666D02*
X114151580Y-76430285D01*
X114151580Y-76430285D02*
X114056342Y-76477904D01*
X114056342Y-76477904D02*
X113865866Y-76525523D01*
X113865866Y-76525523D02*
X113627771Y-76525523D01*
X113627771Y-76525523D02*
X113437295Y-76477904D01*
X113437295Y-76477904D02*
X113342057Y-76430285D01*
X113342057Y-76430285D02*
X113294438Y-76382666D01*
X113294438Y-76382666D02*
X113246819Y-76287428D01*
X139504095Y-87878819D02*
X140075523Y-87878819D01*
X139789809Y-88878819D02*
X139789809Y-87878819D01*
X140408857Y-88878819D02*
X140408857Y-87878819D01*
X140408857Y-87878819D02*
X140789809Y-87878819D01*
X140789809Y-87878819D02*
X140885047Y-87926438D01*
X140885047Y-87926438D02*
X140932666Y-87974057D01*
X140932666Y-87974057D02*
X140980285Y-88069295D01*
X140980285Y-88069295D02*
X140980285Y-88212152D01*
X140980285Y-88212152D02*
X140932666Y-88307390D01*
X140932666Y-88307390D02*
X140885047Y-88355009D01*
X140885047Y-88355009D02*
X140789809Y-88402628D01*
X140789809Y-88402628D02*
X140408857Y-88402628D01*
X141361238Y-87974057D02*
X141408857Y-87926438D01*
X141408857Y-87926438D02*
X141504095Y-87878819D01*
X141504095Y-87878819D02*
X141742190Y-87878819D01*
X141742190Y-87878819D02*
X141837428Y-87926438D01*
X141837428Y-87926438D02*
X141885047Y-87974057D01*
X141885047Y-87974057D02*
X141932666Y-88069295D01*
X141932666Y-88069295D02*
X141932666Y-88164533D01*
X141932666Y-88164533D02*
X141885047Y-88307390D01*
X141885047Y-88307390D02*
X141313619Y-88878819D01*
X141313619Y-88878819D02*
X141932666Y-88878819D01*
X112722819Y-61126666D02*
X112246628Y-61459999D01*
X112722819Y-61698094D02*
X111722819Y-61698094D01*
X111722819Y-61698094D02*
X111722819Y-61317142D01*
X111722819Y-61317142D02*
X111770438Y-61221904D01*
X111770438Y-61221904D02*
X111818057Y-61174285D01*
X111818057Y-61174285D02*
X111913295Y-61126666D01*
X111913295Y-61126666D02*
X112056152Y-61126666D01*
X112056152Y-61126666D02*
X112151390Y-61174285D01*
X112151390Y-61174285D02*
X112199009Y-61221904D01*
X112199009Y-61221904D02*
X112246628Y-61317142D01*
X112246628Y-61317142D02*
X112246628Y-61698094D01*
X111818057Y-60745713D02*
X111770438Y-60698094D01*
X111770438Y-60698094D02*
X111722819Y-60602856D01*
X111722819Y-60602856D02*
X111722819Y-60364761D01*
X111722819Y-60364761D02*
X111770438Y-60269523D01*
X111770438Y-60269523D02*
X111818057Y-60221904D01*
X111818057Y-60221904D02*
X111913295Y-60174285D01*
X111913295Y-60174285D02*
X112008533Y-60174285D01*
X112008533Y-60174285D02*
X112151390Y-60221904D01*
X112151390Y-60221904D02*
X112722819Y-60793332D01*
X112722819Y-60793332D02*
X112722819Y-60174285D01*
X118818819Y-77382666D02*
X118342628Y-77715999D01*
X118818819Y-77954094D02*
X117818819Y-77954094D01*
X117818819Y-77954094D02*
X117818819Y-77573142D01*
X117818819Y-77573142D02*
X117866438Y-77477904D01*
X117866438Y-77477904D02*
X117914057Y-77430285D01*
X117914057Y-77430285D02*
X118009295Y-77382666D01*
X118009295Y-77382666D02*
X118152152Y-77382666D01*
X118152152Y-77382666D02*
X118247390Y-77430285D01*
X118247390Y-77430285D02*
X118295009Y-77477904D01*
X118295009Y-77477904D02*
X118342628Y-77573142D01*
X118342628Y-77573142D02*
X118342628Y-77954094D01*
X118247390Y-76811237D02*
X118199771Y-76906475D01*
X118199771Y-76906475D02*
X118152152Y-76954094D01*
X118152152Y-76954094D02*
X118056914Y-77001713D01*
X118056914Y-77001713D02*
X118009295Y-77001713D01*
X118009295Y-77001713D02*
X117914057Y-76954094D01*
X117914057Y-76954094D02*
X117866438Y-76906475D01*
X117866438Y-76906475D02*
X117818819Y-76811237D01*
X117818819Y-76811237D02*
X117818819Y-76620761D01*
X117818819Y-76620761D02*
X117866438Y-76525523D01*
X117866438Y-76525523D02*
X117914057Y-76477904D01*
X117914057Y-76477904D02*
X118009295Y-76430285D01*
X118009295Y-76430285D02*
X118056914Y-76430285D01*
X118056914Y-76430285D02*
X118152152Y-76477904D01*
X118152152Y-76477904D02*
X118199771Y-76525523D01*
X118199771Y-76525523D02*
X118247390Y-76620761D01*
X118247390Y-76620761D02*
X118247390Y-76811237D01*
X118247390Y-76811237D02*
X118295009Y-76906475D01*
X118295009Y-76906475D02*
X118342628Y-76954094D01*
X118342628Y-76954094D02*
X118437866Y-77001713D01*
X118437866Y-77001713D02*
X118628342Y-77001713D01*
X118628342Y-77001713D02*
X118723580Y-76954094D01*
X118723580Y-76954094D02*
X118771200Y-76906475D01*
X118771200Y-76906475D02*
X118818819Y-76811237D01*
X118818819Y-76811237D02*
X118818819Y-76620761D01*
X118818819Y-76620761D02*
X118771200Y-76525523D01*
X118771200Y-76525523D02*
X118723580Y-76477904D01*
X118723580Y-76477904D02*
X118628342Y-76430285D01*
X118628342Y-76430285D02*
X118437866Y-76430285D01*
X118437866Y-76430285D02*
X118342628Y-76477904D01*
X118342628Y-76477904D02*
X118295009Y-76525523D01*
X118295009Y-76525523D02*
X118247390Y-76620761D01*
X131405333Y-39827580D02*
X131357714Y-39875200D01*
X131357714Y-39875200D02*
X131214857Y-39922819D01*
X131214857Y-39922819D02*
X131119619Y-39922819D01*
X131119619Y-39922819D02*
X130976762Y-39875200D01*
X130976762Y-39875200D02*
X130881524Y-39779961D01*
X130881524Y-39779961D02*
X130833905Y-39684723D01*
X130833905Y-39684723D02*
X130786286Y-39494247D01*
X130786286Y-39494247D02*
X130786286Y-39351390D01*
X130786286Y-39351390D02*
X130833905Y-39160914D01*
X130833905Y-39160914D02*
X130881524Y-39065676D01*
X130881524Y-39065676D02*
X130976762Y-38970438D01*
X130976762Y-38970438D02*
X131119619Y-38922819D01*
X131119619Y-38922819D02*
X131214857Y-38922819D01*
X131214857Y-38922819D02*
X131357714Y-38970438D01*
X131357714Y-38970438D02*
X131405333Y-39018057D01*
X131786286Y-39018057D02*
X131833905Y-38970438D01*
X131833905Y-38970438D02*
X131929143Y-38922819D01*
X131929143Y-38922819D02*
X132167238Y-38922819D01*
X132167238Y-38922819D02*
X132262476Y-38970438D01*
X132262476Y-38970438D02*
X132310095Y-39018057D01*
X132310095Y-39018057D02*
X132357714Y-39113295D01*
X132357714Y-39113295D02*
X132357714Y-39208533D01*
X132357714Y-39208533D02*
X132310095Y-39351390D01*
X132310095Y-39351390D02*
X131738667Y-39922819D01*
X131738667Y-39922819D02*
X132357714Y-39922819D01*
X132177319Y-140033333D02*
X132891604Y-140033333D01*
X132891604Y-140033333D02*
X133034461Y-140080952D01*
X133034461Y-140080952D02*
X133129700Y-140176190D01*
X133129700Y-140176190D02*
X133177319Y-140319047D01*
X133177319Y-140319047D02*
X133177319Y-140414285D01*
X132510652Y-139128571D02*
X133177319Y-139128571D01*
X132129700Y-139366666D02*
X132843985Y-139604761D01*
X132843985Y-139604761D02*
X132843985Y-138985714D01*
X112545905Y-102816819D02*
X112545905Y-101816819D01*
X112545905Y-101816819D02*
X112784000Y-101816819D01*
X112784000Y-101816819D02*
X112926857Y-101864438D01*
X112926857Y-101864438D02*
X113022095Y-101959676D01*
X113022095Y-101959676D02*
X113069714Y-102054914D01*
X113069714Y-102054914D02*
X113117333Y-102245390D01*
X113117333Y-102245390D02*
X113117333Y-102388247D01*
X113117333Y-102388247D02*
X113069714Y-102578723D01*
X113069714Y-102578723D02*
X113022095Y-102673961D01*
X113022095Y-102673961D02*
X112926857Y-102769200D01*
X112926857Y-102769200D02*
X112784000Y-102816819D01*
X112784000Y-102816819D02*
X112545905Y-102816819D01*
X114069714Y-102816819D02*
X113498286Y-102816819D01*
X113784000Y-102816819D02*
X113784000Y-101816819D01*
X113784000Y-101816819D02*
X113688762Y-101959676D01*
X113688762Y-101959676D02*
X113593524Y-102054914D01*
X113593524Y-102054914D02*
X113498286Y-102102533D01*
X119449761Y-145174819D02*
X119116428Y-144698628D01*
X118878333Y-145174819D02*
X118878333Y-144174819D01*
X118878333Y-144174819D02*
X119259285Y-144174819D01*
X119259285Y-144174819D02*
X119354523Y-144222438D01*
X119354523Y-144222438D02*
X119402142Y-144270057D01*
X119402142Y-144270057D02*
X119449761Y-144365295D01*
X119449761Y-144365295D02*
X119449761Y-144508152D01*
X119449761Y-144508152D02*
X119402142Y-144603390D01*
X119402142Y-144603390D02*
X119354523Y-144651009D01*
X119354523Y-144651009D02*
X119259285Y-144698628D01*
X119259285Y-144698628D02*
X118878333Y-144698628D01*
X119735476Y-144174819D02*
X120068809Y-145174819D01*
X120068809Y-145174819D02*
X120402142Y-144174819D01*
X120687857Y-144270057D02*
X120735476Y-144222438D01*
X120735476Y-144222438D02*
X120830714Y-144174819D01*
X120830714Y-144174819D02*
X121068809Y-144174819D01*
X121068809Y-144174819D02*
X121164047Y-144222438D01*
X121164047Y-144222438D02*
X121211666Y-144270057D01*
X121211666Y-144270057D02*
X121259285Y-144365295D01*
X121259285Y-144365295D02*
X121259285Y-144460533D01*
X121259285Y-144460533D02*
X121211666Y-144603390D01*
X121211666Y-144603390D02*
X120640238Y-145174819D01*
X120640238Y-145174819D02*
X121259285Y-145174819D01*
X112722819Y-77382666D02*
X112246628Y-77715999D01*
X112722819Y-77954094D02*
X111722819Y-77954094D01*
X111722819Y-77954094D02*
X111722819Y-77573142D01*
X111722819Y-77573142D02*
X111770438Y-77477904D01*
X111770438Y-77477904D02*
X111818057Y-77430285D01*
X111818057Y-77430285D02*
X111913295Y-77382666D01*
X111913295Y-77382666D02*
X112056152Y-77382666D01*
X112056152Y-77382666D02*
X112151390Y-77430285D01*
X112151390Y-77430285D02*
X112199009Y-77477904D01*
X112199009Y-77477904D02*
X112246628Y-77573142D01*
X112246628Y-77573142D02*
X112246628Y-77954094D01*
X112722819Y-76906475D02*
X112722819Y-76715999D01*
X112722819Y-76715999D02*
X112675200Y-76620761D01*
X112675200Y-76620761D02*
X112627580Y-76573142D01*
X112627580Y-76573142D02*
X112484723Y-76477904D01*
X112484723Y-76477904D02*
X112294247Y-76430285D01*
X112294247Y-76430285D02*
X111913295Y-76430285D01*
X111913295Y-76430285D02*
X111818057Y-76477904D01*
X111818057Y-76477904D02*
X111770438Y-76525523D01*
X111770438Y-76525523D02*
X111722819Y-76620761D01*
X111722819Y-76620761D02*
X111722819Y-76811237D01*
X111722819Y-76811237D02*
X111770438Y-76906475D01*
X111770438Y-76906475D02*
X111818057Y-76954094D01*
X111818057Y-76954094D02*
X111913295Y-77001713D01*
X111913295Y-77001713D02*
X112151390Y-77001713D01*
X112151390Y-77001713D02*
X112246628Y-76954094D01*
X112246628Y-76954094D02*
X112294247Y-76906475D01*
X112294247Y-76906475D02*
X112341866Y-76811237D01*
X112341866Y-76811237D02*
X112341866Y-76620761D01*
X112341866Y-76620761D02*
X112294247Y-76525523D01*
X112294247Y-76525523D02*
X112246628Y-76477904D01*
X112246628Y-76477904D02*
X112151390Y-76430285D01*
X107801580Y-61380666D02*
X107849200Y-61428285D01*
X107849200Y-61428285D02*
X107896819Y-61571142D01*
X107896819Y-61571142D02*
X107896819Y-61666380D01*
X107896819Y-61666380D02*
X107849200Y-61809237D01*
X107849200Y-61809237D02*
X107753961Y-61904475D01*
X107753961Y-61904475D02*
X107658723Y-61952094D01*
X107658723Y-61952094D02*
X107468247Y-61999713D01*
X107468247Y-61999713D02*
X107325390Y-61999713D01*
X107325390Y-61999713D02*
X107134914Y-61952094D01*
X107134914Y-61952094D02*
X107039676Y-61904475D01*
X107039676Y-61904475D02*
X106944438Y-61809237D01*
X106944438Y-61809237D02*
X106896819Y-61666380D01*
X106896819Y-61666380D02*
X106896819Y-61571142D01*
X106896819Y-61571142D02*
X106944438Y-61428285D01*
X106944438Y-61428285D02*
X106992057Y-61380666D01*
X107230152Y-60523523D02*
X107896819Y-60523523D01*
X106849200Y-60761618D02*
X107563485Y-60999713D01*
X107563485Y-60999713D02*
X107563485Y-60380666D01*
X138938095Y-39570819D02*
X138938095Y-38570819D01*
X138938095Y-39047009D02*
X139509523Y-39047009D01*
X139509523Y-39570819D02*
X139509523Y-38570819D01*
X139938095Y-38666057D02*
X139985714Y-38618438D01*
X139985714Y-38618438D02*
X140080952Y-38570819D01*
X140080952Y-38570819D02*
X140319047Y-38570819D01*
X140319047Y-38570819D02*
X140414285Y-38618438D01*
X140414285Y-38618438D02*
X140461904Y-38666057D01*
X140461904Y-38666057D02*
X140509523Y-38761295D01*
X140509523Y-38761295D02*
X140509523Y-38856533D01*
X140509523Y-38856533D02*
X140461904Y-38999390D01*
X140461904Y-38999390D02*
X139890476Y-39570819D01*
X139890476Y-39570819D02*
X140509523Y-39570819D01*
D13*
%TO.C,J2*%
X133012500Y-76413000D02*
X133612500Y-76713000D01*
X133012500Y-77013000D02*
X133012500Y-76413000D01*
X133612500Y-76713000D02*
X133012500Y-77013000D01*
X133812500Y-62903000D02*
X133812500Y-80363000D01*
X133812500Y-80363000D02*
X146032500Y-80363000D01*
X142732500Y-62903000D02*
X144532500Y-62903000D01*
X142732500Y-80363000D02*
X142732500Y-62903000D01*
X144532500Y-62903000D02*
X144532500Y-80363000D01*
X144532500Y-65803000D02*
X144532500Y-67303000D01*
X144532500Y-67303000D02*
X146032500Y-67553000D01*
X144532500Y-70883000D02*
X144532500Y-72383000D01*
X144532500Y-72383000D02*
X146032500Y-72633000D01*
X144532500Y-75963000D02*
X144532500Y-77463000D01*
X144532500Y-77463000D02*
X146032500Y-77713000D01*
X144532500Y-80363000D02*
X142732500Y-80363000D01*
X146032500Y-62903000D02*
X133812500Y-62903000D01*
X146032500Y-65553000D02*
X144532500Y-65803000D01*
X146032500Y-67553000D02*
X146032500Y-65553000D01*
X146032500Y-70633000D02*
X144532500Y-70883000D01*
X146032500Y-72633000D02*
X146032500Y-70633000D01*
X146032500Y-75713000D02*
X144532500Y-75963000D01*
X146032500Y-77713000D02*
X146032500Y-75713000D01*
X146032500Y-80363000D02*
X146032500Y-62903000D01*
D12*
%TO.C,TP6*%
X138436000Y-153016000D02*
X138936000Y-152516000D01*
X138436000Y-153816000D02*
X138436000Y-153016000D01*
X138936000Y-152516000D02*
X142536000Y-152516000D01*
X138936000Y-154316000D02*
X138436000Y-153816000D01*
X142536000Y-152516000D02*
X143036000Y-153016000D01*
X142536000Y-154316000D02*
X138936000Y-154316000D01*
X143036000Y-153016000D02*
X143036000Y-153816000D01*
X143036000Y-153816000D02*
X142536000Y-154316000D01*
%TO.C,TP5*%
X138436000Y-158096000D02*
X138936000Y-157596000D01*
X138436000Y-158896000D02*
X138436000Y-158096000D01*
X138936000Y-157596000D02*
X142536000Y-157596000D01*
X138936000Y-159396000D02*
X138436000Y-158896000D01*
X142536000Y-157596000D02*
X143036000Y-158096000D01*
X142536000Y-159396000D02*
X138936000Y-159396000D01*
X143036000Y-158096000D02*
X143036000Y-158896000D01*
X143036000Y-158896000D02*
X142536000Y-159396000D01*
D13*
%TO.C,RV1*%
X114062000Y-64178000D02*
X114062000Y-73918000D01*
X117122000Y-64178000D02*
X114062000Y-64178000D01*
X117122000Y-73918000D02*
X114062000Y-73918000D01*
X125652000Y-64178000D02*
X120932000Y-64178000D01*
X125652000Y-64178000D02*
X125652000Y-65668000D01*
X125652000Y-67388000D02*
X125652000Y-68218000D01*
X125652000Y-69838000D02*
X125652000Y-70368000D01*
X125652000Y-72738000D02*
X125652000Y-73918000D01*
X125652000Y-73918000D02*
X120932000Y-73918000D01*
%TO.C,C5*%
X108993000Y-64843252D02*
X108993000Y-64320748D01*
X110463000Y-64843252D02*
X110463000Y-64320748D01*
D10*
%TO.C,SW1*%
X121242000Y-103172000D02*
X121242000Y-109172000D01*
X121242000Y-109172000D02*
X131742000Y-109172000D01*
X123742000Y-104672000D02*
X123742000Y-104922000D01*
X123742000Y-107672000D02*
X123742000Y-107422000D01*
X126992000Y-104672000D02*
X126992000Y-104922000D01*
X126992000Y-107422000D02*
X126992000Y-107672000D01*
X127992000Y-107672000D02*
X127992000Y-104672000D01*
X129242000Y-104672000D02*
X123742000Y-104672000D01*
X129242000Y-104922000D02*
X129242000Y-104672000D01*
X129242000Y-107672000D02*
X123742000Y-107672000D01*
X129242000Y-107672000D02*
X129242000Y-107422000D01*
X131742000Y-103172000D02*
X121242000Y-103172000D01*
X131742000Y-109172000D02*
X131742000Y-103172000D01*
%TO.C,SW3*%
X121242000Y-147368000D02*
X121242000Y-153368000D01*
X121242000Y-153368000D02*
X131742000Y-153368000D01*
X123742000Y-148868000D02*
X123742000Y-149118000D01*
X123742000Y-151868000D02*
X123742000Y-151618000D01*
X126992000Y-148868000D02*
X126992000Y-149118000D01*
X126992000Y-151618000D02*
X126992000Y-151868000D01*
X127992000Y-151868000D02*
X127992000Y-148868000D01*
X129242000Y-148868000D02*
X123742000Y-148868000D01*
X129242000Y-149118000D02*
X129242000Y-148868000D01*
X129242000Y-151868000D02*
X123742000Y-151868000D01*
X129242000Y-151868000D02*
X129242000Y-151618000D01*
X131742000Y-147368000D02*
X121242000Y-147368000D01*
X131742000Y-153368000D02*
X131742000Y-147368000D01*
D13*
%TO.C,C3*%
X117101252Y-96293000D02*
X116578748Y-96293000D01*
X117101252Y-97763000D02*
X116578748Y-97763000D01*
%TO.C,U1*%
X122210000Y-39818000D02*
X122210000Y-57718000D01*
X122210000Y-57718000D02*
X126710000Y-57718000D01*
X123460000Y-39818000D02*
X122210000Y-39818000D01*
X126710000Y-39818000D02*
X125460000Y-39818000D01*
X126710000Y-57718000D02*
X126710000Y-39818000D01*
X125460000Y-39818000D02*
G75*
G02*
X123460000Y-39818000I-1000000J0D01*
G01*
%TO.C,U2*%
X122210000Y-80458000D02*
X122210000Y-98358000D01*
X122210000Y-98358000D02*
X123460000Y-98358000D01*
X125460000Y-98358000D02*
X126710000Y-98358000D01*
X126710000Y-80458000D02*
X122210000Y-80458000D01*
X126710000Y-98358000D02*
X126710000Y-80458000D01*
X123460000Y-98358000D02*
G75*
G02*
X125460000Y-98358000I1000000J0D01*
G01*
D10*
%TO.C,SW2*%
X100414000Y-103172000D02*
X100414000Y-109172000D01*
X100414000Y-109172000D02*
X110914000Y-109172000D01*
X102914000Y-104672000D02*
X102914000Y-104922000D01*
X102914000Y-104672000D02*
X108414000Y-104672000D01*
X102914000Y-107422000D02*
X102914000Y-107672000D01*
X102914000Y-107672000D02*
X108414000Y-107672000D01*
X104164000Y-104672000D02*
X104164000Y-107672000D01*
X105164000Y-104922000D02*
X105164000Y-104672000D01*
X105164000Y-107672000D02*
X105164000Y-107422000D01*
X108414000Y-104672000D02*
X108414000Y-104922000D01*
X108414000Y-107672000D02*
X108414000Y-107422000D01*
X110914000Y-103172000D02*
X100414000Y-103172000D01*
X110914000Y-109172000D02*
X110914000Y-103172000D01*
D13*
%TO.C,J3*%
X131304000Y-46856000D02*
X146304000Y-46856000D01*
X131304000Y-61856000D02*
X131304000Y-46856000D01*
X146104000Y-54356000D02*
X145104000Y-53356000D01*
X146104000Y-54356000D02*
X145104000Y-55356000D01*
X146304000Y-46856000D02*
X146304000Y-61856000D01*
X146304000Y-61856000D02*
X131304000Y-61856000D01*
%TO.C,RV3*%
X113925000Y-158706000D02*
X113925000Y-168446000D01*
X116985000Y-158706000D02*
X113925000Y-158706000D01*
X116985000Y-168446000D02*
X113925000Y-168446000D01*
X125515000Y-158706000D02*
X120795000Y-158706000D01*
X125515000Y-158706000D02*
X125515000Y-160196000D01*
X125515000Y-161916000D02*
X125515000Y-162746000D01*
X125515000Y-164366000D02*
X125515000Y-164896000D01*
X125515000Y-167266000D02*
X125515000Y-168446000D01*
X125515000Y-168446000D02*
X120795000Y-168446000D01*
%TO.C,R7*%
X125757000Y-77443064D02*
X125757000Y-76988936D01*
X127227000Y-77443064D02*
X127227000Y-76988936D01*
%TO.C,R6*%
X117120936Y-42953000D02*
X117575064Y-42953000D01*
X117120936Y-44423000D02*
X117575064Y-44423000D01*
%TO.C,U3*%
X106318000Y-69270000D02*
X106318000Y-73030000D01*
X106318000Y-73030000D02*
X107578000Y-73030000D01*
X113138000Y-69270000D02*
X113138000Y-73030000D01*
X113138000Y-73030000D02*
X111878000Y-73030000D01*
X113368000Y-68230000D02*
X113038000Y-67990000D01*
X113368000Y-67750000D01*
X113368000Y-68230000D01*
G36*
X113368000Y-68230000D02*
G01*
X113038000Y-67990000D01*
X113368000Y-67750000D01*
X113368000Y-68230000D01*
G37*
D12*
%TO.C,TP4*%
X138436000Y-163176000D02*
X138936000Y-162676000D01*
X138436000Y-163976000D02*
X138436000Y-163176000D01*
X138936000Y-162676000D02*
X142536000Y-162676000D01*
X138936000Y-164476000D02*
X138436000Y-163976000D01*
X142536000Y-162676000D02*
X143036000Y-163176000D01*
X142536000Y-164476000D02*
X138936000Y-164476000D01*
X143036000Y-163176000D02*
X143036000Y-163976000D01*
X143036000Y-163976000D02*
X142536000Y-164476000D01*
D13*
%TO.C,C1*%
X117543252Y-40413000D02*
X117020748Y-40413000D01*
X117543252Y-41883000D02*
X117020748Y-41883000D01*
D12*
%TO.C,TP3*%
X138436000Y-84944000D02*
X138936000Y-84444000D01*
X138436000Y-85744000D02*
X138436000Y-84944000D01*
X138936000Y-84444000D02*
X142536000Y-84444000D01*
X138936000Y-86244000D02*
X138436000Y-85744000D01*
X142536000Y-84444000D02*
X143036000Y-84944000D01*
X142536000Y-86244000D02*
X138936000Y-86244000D01*
X143036000Y-84944000D02*
X143036000Y-85744000D01*
X143036000Y-85744000D02*
X142536000Y-86244000D01*
D13*
%TO.C,R13*%
X117067064Y-99849000D02*
X116612936Y-99849000D01*
X117067064Y-101319000D02*
X116612936Y-101319000D01*
%TO.C,R11*%
X123725000Y-77443064D02*
X123725000Y-76988936D01*
X125195000Y-77443064D02*
X125195000Y-76988936D01*
D12*
%TO.C,TP1*%
X138436000Y-95104000D02*
X138936000Y-94604000D01*
X138436000Y-95904000D02*
X138436000Y-95104000D01*
X138936000Y-94604000D02*
X142536000Y-94604000D01*
X138936000Y-96404000D02*
X138436000Y-95904000D01*
X142536000Y-94604000D02*
X143036000Y-95104000D01*
X142536000Y-96404000D02*
X138936000Y-96404000D01*
X143036000Y-95104000D02*
X143036000Y-95904000D01*
X143036000Y-95904000D02*
X142536000Y-96404000D01*
D13*
%TO.C,R5*%
X123725000Y-60732936D02*
X123725000Y-61187064D01*
X125195000Y-60732936D02*
X125195000Y-61187064D01*
%TO.C,R12*%
X131799064Y-96293000D02*
X131344936Y-96293000D01*
X131799064Y-97763000D02*
X131344936Y-97763000D01*
%TO.C,R1*%
X121693000Y-60732936D02*
X121693000Y-61187064D01*
X123163000Y-60732936D02*
X123163000Y-61187064D01*
%TO.C,R4*%
X125757000Y-60732936D02*
X125757000Y-61187064D01*
X127227000Y-60732936D02*
X127227000Y-61187064D01*
%TO.C,R3*%
X127789000Y-60732936D02*
X127789000Y-61187064D01*
X129259000Y-60732936D02*
X129259000Y-61187064D01*
%TO.C,J5*%
X131304000Y-114928000D02*
X146304000Y-114928000D01*
X131304000Y-129928000D02*
X131304000Y-114928000D01*
X146104000Y-122428000D02*
X145104000Y-121428000D01*
X146104000Y-122428000D02*
X145104000Y-123428000D01*
X146304000Y-114928000D02*
X146304000Y-129928000D01*
X146304000Y-129928000D02*
X131304000Y-129928000D01*
%TO.C,J1*%
X100246000Y-80602000D02*
X114746000Y-80602000D01*
X100246000Y-89802000D02*
X100246000Y-80602000D01*
X108846000Y-89802000D02*
X100246000Y-89802000D01*
X114746000Y-80602000D02*
X114746000Y-82602000D01*
X114746000Y-87802000D02*
X114746000Y-89802000D01*
X114746000Y-89802000D02*
X113446000Y-89802000D01*
X115046000Y-80302000D02*
X113746000Y-80302000D01*
X115046000Y-82002000D02*
X115046000Y-80302000D01*
%TO.C,R10*%
X121693000Y-77443064D02*
X121693000Y-76988936D01*
X123163000Y-77443064D02*
X123163000Y-76988936D01*
D12*
%TO.C,TP2*%
X138436000Y-90024000D02*
X138936000Y-89524000D01*
X138436000Y-90824000D02*
X138436000Y-90024000D01*
X138936000Y-89524000D02*
X142536000Y-89524000D01*
X138936000Y-91324000D02*
X138436000Y-90824000D01*
X142536000Y-89524000D02*
X143036000Y-90024000D01*
X142536000Y-91324000D02*
X138936000Y-91324000D01*
X143036000Y-90024000D02*
X143036000Y-90824000D01*
X143036000Y-90824000D02*
X142536000Y-91324000D01*
D13*
%TO.C,R2*%
X119661000Y-60732936D02*
X119661000Y-61187064D01*
X121131000Y-60732936D02*
X121131000Y-61187064D01*
%TO.C,R8*%
X127789000Y-77443064D02*
X127789000Y-76988936D01*
X129259000Y-77443064D02*
X129259000Y-76988936D01*
%TO.C,C2*%
X131310748Y-40413000D02*
X131833252Y-40413000D01*
X131310748Y-41883000D02*
X131833252Y-41883000D01*
%TO.C,J4*%
X133012500Y-144480000D02*
X133612500Y-144780000D01*
X133012500Y-145080000D02*
X133012500Y-144480000D01*
X133612500Y-144780000D02*
X133012500Y-145080000D01*
X133812500Y-130970000D02*
X133812500Y-148430000D01*
X133812500Y-148430000D02*
X146032500Y-148430000D01*
X142732500Y-130970000D02*
X144532500Y-130970000D01*
X142732500Y-148430000D02*
X142732500Y-130970000D01*
X144532500Y-130970000D02*
X144532500Y-148430000D01*
X144532500Y-133870000D02*
X144532500Y-135370000D01*
X144532500Y-135370000D02*
X146032500Y-135620000D01*
X144532500Y-138950000D02*
X144532500Y-140450000D01*
X144532500Y-140450000D02*
X146032500Y-140700000D01*
X144532500Y-144030000D02*
X144532500Y-145530000D01*
X144532500Y-145530000D02*
X146032500Y-145780000D01*
X144532500Y-148430000D02*
X142732500Y-148430000D01*
X146032500Y-130970000D02*
X133812500Y-130970000D01*
X146032500Y-133620000D02*
X144532500Y-133870000D01*
X146032500Y-135620000D02*
X146032500Y-133620000D01*
X146032500Y-138700000D02*
X144532500Y-138950000D01*
X146032500Y-140700000D02*
X146032500Y-138700000D01*
X146032500Y-143780000D02*
X144532500Y-144030000D01*
X146032500Y-145780000D02*
X146032500Y-143780000D01*
X146032500Y-148430000D02*
X146032500Y-130970000D01*
%TO.C,D1*%
X111599000Y-99624000D02*
X111599000Y-101544000D01*
X111599000Y-101544000D02*
X114284000Y-101544000D01*
X114284000Y-99624000D02*
X111599000Y-99624000D01*
%TO.C,RV2*%
X113925000Y-132290000D02*
X113925000Y-142030000D01*
X116985000Y-132290000D02*
X113925000Y-132290000D01*
X116985000Y-142030000D02*
X113925000Y-142030000D01*
X125515000Y-132290000D02*
X120795000Y-132290000D01*
X125515000Y-132290000D02*
X125515000Y-133780000D01*
X125515000Y-135500000D02*
X125515000Y-136330000D01*
X125515000Y-137950000D02*
X125515000Y-138480000D01*
X125515000Y-140850000D02*
X125515000Y-142030000D01*
X125515000Y-142030000D02*
X120795000Y-142030000D01*
%TO.C,R9*%
X119661000Y-77443064D02*
X119661000Y-76988936D01*
X121131000Y-77443064D02*
X121131000Y-76988936D01*
%TO.C,C4*%
X106707000Y-64843252D02*
X106707000Y-64320748D01*
X108177000Y-64843252D02*
X108177000Y-64320748D01*
%TD*%
M02*
