M48
; DRILL file {KiCad 9.0.5} date 2025-12-11T12:13:36+0100
; FORMAT={-:-/ absolute / metric / decimal}
; #@! TF.CreationDate,2025-12-11T12:13:36+01:00
; #@! TF.GenerationSoftware,Kicad,Pcbnew,9.0.5
; #@! TF.FileFunction,Plated,1,2,PTH
FMAT,2
METRIC
; #@! TA.AperFunction,Plated,PTH,ViaDrill
T1C0.400
; #@! TA.AperFunction,Plated,PTH,ComponentDrill
T2C0.800
; #@! TA.AperFunction,Plated,PTH,ComponentDrill
T3C0.890
; #@! TA.AperFunction,Plated,PTH,ComponentDrill
T4C1.000
; #@! TA.AperFunction,Plated,PTH,ComponentDrill
T5C1.100
; #@! TA.AperFunction,Plated,PTH,ComponentDrill
T6C1.400
; #@! TA.AperFunction,Plated,PTH,ComponentDrill
T7C2.010
%
G90
G05
T1
X107.442Y-62.738
X109.728Y-62.738
X110.998Y-100.584
X112.014Y-66.548
X112.014Y-69.342
X115.062Y-97.028
X115.563Y-66.44
X115.57Y-41.148
X115.57Y-64.624
X133.35Y-41.148
X133.35Y-97.028
T2
X120.65Y-41.148
X120.65Y-43.688
X120.65Y-46.228
X120.65Y-48.768
X120.65Y-51.308
X120.65Y-53.848
X120.65Y-56.388
X120.65Y-81.788
X120.65Y-84.328
X120.65Y-86.868
X120.65Y-89.408
X120.65Y-91.948
X120.65Y-94.488
X120.65Y-97.028
X128.27Y-41.148
X128.27Y-43.688
X128.27Y-46.228
X128.27Y-48.768
X128.27Y-51.308
X128.27Y-53.848
X128.27Y-56.388
X128.27Y-81.788
X128.27Y-84.328
X128.27Y-86.868
X128.27Y-89.408
X128.27Y-91.948
X128.27Y-94.488
X128.27Y-97.028
X139.466Y-85.344
X139.466Y-90.424
X139.466Y-95.504
X139.466Y-153.416
X139.466Y-158.496
X139.466Y-163.576
X142.006Y-85.344
X142.006Y-90.424
X142.006Y-95.504
X142.006Y-153.416
X142.006Y-158.496
X142.006Y-163.576
T3
X133.604Y-51.816
X133.604Y-54.356
X133.604Y-119.888
X133.604Y-122.428
T4
X102.664Y-106.172
X105.664Y-106.172
X108.664Y-106.172
X123.492Y-106.172
X123.492Y-150.368
X126.395Y-134.66
X126.395Y-137.16
X126.395Y-139.66
X126.395Y-161.076
X126.395Y-163.576
X126.395Y-166.076
X126.492Y-106.172
X126.492Y-150.368
X126.532Y-66.548
X126.532Y-69.048
X126.532Y-71.548
X128.895Y-134.66
X128.895Y-137.16
X128.895Y-139.66
X128.895Y-161.076
X128.895Y-163.576
X128.895Y-166.076
X129.032Y-66.548
X129.032Y-69.048
X129.032Y-71.548
X129.492Y-106.172
X129.492Y-150.368
T6
X135.922Y-66.553
X135.922Y-71.633
X135.922Y-76.713
X135.922Y-134.62
X135.922Y-139.7
X135.922Y-144.78
T7
X138.684Y-49.276
X138.684Y-59.436
X138.684Y-117.348
X138.684Y-127.508
T4
G00X107.746Y-84.102
M15
G01X107.746Y-86.302
M16
G05
G00X112.246Y-90.002
M15
G01X110.046Y-90.002
M16
G05
G00X114.046Y-83.902
M15
G01X114.046Y-86.502
M16
G05
T5
G00X119.245Y-132.41
M15
G01X118.545Y-132.41
M16
G05
G00X119.245Y-141.91
M15
G01X118.545Y-141.91
M16
G05
G00X119.245Y-158.826
M15
G01X118.545Y-158.826
M16
G05
G00X119.245Y-168.326
M15
G01X118.545Y-168.326
M16
G05
G00X119.382Y-64.298
M15
G01X118.682Y-64.298
M16
G05
G00X119.382Y-73.798
M15
G01X118.682Y-73.798
M16
G05
M30
