M48
; DRILL file {KiCad 9.0.6} date 2025-11-25T10:34:09+0100
; FORMAT={-:-/ absolute / metric / decimal}
; #@! TF.CreationDate,2025-11-25T10:34:09+01:00
; #@! TF.GenerationSoftware,Kicad,Pcbnew,9.0.6
; #@! TF.FileFunction,Plated,1,2,PTH
FMAT,2
METRIC
; #@! TA.AperFunction,Plated,PTH,ViaDrill
T1C0.300
; #@! TA.AperFunction,Plated,PTH,ViaDrill
T2C0.305
; #@! TA.AperFunction,Plated,PTH,ComponentDrill
T3C1.000
%
G90
G05
T1
X13.716Y33.02
X13.716Y13.97
X15.748Y33.02
X16.256Y37.592
X16.256Y13.97
X20.066Y13.97
X22.606Y13.97
X22.86Y32.992
X27.178Y35.306
X32.258Y28.702
X50.8Y13.97
X52.578Y13.97
X52.832Y16.002
X55.626Y22.352
X56.134Y20.066
X57.404Y15.24
X61.214Y20.066
X62.484Y12.446
T2
X9.906Y27.432
X11.759Y15.927
X11.938Y31.496
X14.478Y6.604
X16.256Y15.933
X18.313Y30.734
X18.796Y29.464
X20.066Y15.933
X20.167Y37.338
X20.167Y32.766
X21.854Y37.338
X24.569Y15.92
X24.638Y6.604
X24.892Y30.988
X25.908Y35.814
T3
X3.048Y8.128
X3.048Y4.318
X6.858Y8.128
X6.858Y4.318
X7.62Y30.48
X7.62Y27.94
X7.62Y20.32
X7.62Y17.78
X7.62Y15.24
X11.684Y4.318
X14.224Y4.318
X21.844Y4.318
X24.384Y4.318
X28.702Y30.48
X28.702Y27.94
X28.702Y20.32
X28.702Y17.78
X28.702Y15.24
X29.464Y8.128
X29.464Y4.318
X33.274Y8.128
X33.274Y4.318
X44.704Y8.636
X44.704Y4.318
X47.244Y4.318
X49.784Y4.318
X54.864Y8.636
X54.864Y4.318
X57.404Y4.318
X59.944Y4.318
X65.024Y8.636
X65.024Y4.318
X67.564Y4.318
X70.104Y12.446
X70.104Y8.636
X70.104Y4.318
M30
