%TF.GenerationSoftware,KiCad,Pcbnew,9.0.6*%
%TF.CreationDate,2025-11-25T10:34:57+01:00*%
%TF.ProjectId,mosfet_driver,6d6f7366-6574-45f6-9472-697665722e6b,1.1*%
%TF.SameCoordinates,PX6258c20PY76efc10*%
%TF.FileFunction,Legend,Top*%
%TF.FilePolarity,Positive*%
%FSLAX46Y46*%
G04 Gerber Fmt 4.6, Leading zero omitted, Abs format (unit mm)*
G04 Created by KiCad (PCBNEW 9.0.6) date 2025-11-25 10:34:57*
%MOMM*%
%LPD*%
G01*
G04 APERTURE LIST*
G04 Aperture macros list*
%AMRoundRect*
0 Rectangle with rounded corners*
0 $1 Rounding radius*
0 $2 $3 $4 $5 $6 $7 $8 $9 X,Y pos of 4 corners*
0 Add a 4 corners polygon primitive as box body*
4,1,4,$2,$3,$4,$5,$6,$7,$8,$9,$2,$3,0*
0 Add four circle primitives for the rounded corners*
1,1,$1+$1,$2,$3*
1,1,$1+$1,$4,$5*
1,1,$1+$1,$6,$7*
1,1,$1+$1,$8,$9*
0 Add four rect primitives between the rounded corners*
20,1,$1+$1,$2,$3,$4,$5,0*
20,1,$1+$1,$4,$5,$6,$7,0*
20,1,$1+$1,$6,$7,$8,$9,0*
20,1,$1+$1,$8,$9,$2,$3,0*%
G04 Aperture macros list end*
%ADD10C,0.100000*%
%ADD11C,0.200000*%
%ADD12C,0.150000*%
%ADD13C,0.120000*%
%ADD14RoundRect,0.250000X-0.450000X0.262500X-0.450000X-0.262500X0.450000X-0.262500X0.450000X0.262500X0*%
%ADD15C,2.000000*%
%ADD16RoundRect,0.250000X0.475000X-0.250000X0.475000X0.250000X-0.475000X0.250000X-0.475000X-0.250000X0*%
%ADD17RoundRect,0.250000X-0.262500X-0.450000X0.262500X-0.450000X0.262500X0.450000X-0.262500X0.450000X0*%
%ADD18RoundRect,0.250000X-0.475000X0.250000X-0.475000X-0.250000X0.475000X-0.250000X0.475000X0.250000X0*%
%ADD19RoundRect,0.243750X-0.243750X-0.456250X0.243750X-0.456250X0.243750X0.456250X-0.243750X0.456250X0*%
%ADD20RoundRect,0.250000X0.450000X-0.262500X0.450000X0.262500X-0.450000X0.262500X-0.450000X-0.262500X0*%
%ADD21RoundRect,0.250000X0.262500X0.450000X-0.262500X0.450000X-0.262500X-0.450000X0.262500X-0.450000X0*%
%ADD22RoundRect,0.250000X0.250000X0.475000X-0.250000X0.475000X-0.250000X-0.475000X0.250000X-0.475000X0*%
%ADD23RoundRect,0.150000X0.150000X-0.825000X0.150000X0.825000X-0.150000X0.825000X-0.150000X-0.825000X0*%
%ADD24RoundRect,0.250000X-1.000000X-0.650000X1.000000X-0.650000X1.000000X0.650000X-1.000000X0.650000X0*%
%ADD25RoundRect,0.250000X1.000000X0.650000X-1.000000X0.650000X-1.000000X-0.650000X1.000000X-0.650000X0*%
%ADD26RoundRect,0.250000X-0.250000X-0.475000X0.250000X-0.475000X0.250000X0.475000X-0.250000X0.475000X0*%
%ADD27RoundRect,0.150000X-0.150000X0.875000X-0.150000X-0.875000X0.150000X-0.875000X0.150000X0.875000X0*%
%ADD28C,1.000000*%
%ADD29R,1.700000X1.700000*%
%ADD30C,1.700000*%
%ADD31O,1.700000X1.700000*%
%ADD32O,1.600000X1.700000*%
G04 APERTURE END LIST*
D10*
X44196000Y27686000D02*
X42418000Y29464000D01*
X44196000Y25400000D02*
X44196000Y27686000D01*
X44196000Y27686000D02*
X47752000Y27686000D01*
D11*
X69457673Y24185781D02*
X69457673Y25185781D01*
X69457673Y25185781D02*
X69695768Y25185781D01*
X69695768Y25185781D02*
X69838625Y25138162D01*
X69838625Y25138162D02*
X69933863Y25042924D01*
X69933863Y25042924D02*
X69981482Y24947686D01*
X69981482Y24947686D02*
X70029101Y24757210D01*
X70029101Y24757210D02*
X70029101Y24614353D01*
X70029101Y24614353D02*
X69981482Y24423877D01*
X69981482Y24423877D02*
X69933863Y24328639D01*
X69933863Y24328639D02*
X69838625Y24233400D01*
X69838625Y24233400D02*
X69695768Y24185781D01*
X69695768Y24185781D02*
X69457673Y24185781D01*
X70457673Y24185781D02*
X70457673Y25185781D01*
X70886244Y24233400D02*
X71029101Y24185781D01*
X71029101Y24185781D02*
X71267196Y24185781D01*
X71267196Y24185781D02*
X71362434Y24233400D01*
X71362434Y24233400D02*
X71410053Y24281020D01*
X71410053Y24281020D02*
X71457672Y24376258D01*
X71457672Y24376258D02*
X71457672Y24471496D01*
X71457672Y24471496D02*
X71410053Y24566734D01*
X71410053Y24566734D02*
X71362434Y24614353D01*
X71362434Y24614353D02*
X71267196Y24661972D01*
X71267196Y24661972D02*
X71076720Y24709591D01*
X71076720Y24709591D02*
X70981482Y24757210D01*
X70981482Y24757210D02*
X70933863Y24804829D01*
X70933863Y24804829D02*
X70886244Y24900067D01*
X70886244Y24900067D02*
X70886244Y24995305D01*
X70886244Y24995305D02*
X70933863Y25090543D01*
X70933863Y25090543D02*
X70981482Y25138162D01*
X70981482Y25138162D02*
X71076720Y25185781D01*
X71076720Y25185781D02*
X71314815Y25185781D01*
X71314815Y25185781D02*
X71457672Y25138162D01*
X39917633Y31070832D02*
X39580916Y31407550D01*
X39580916Y31407550D02*
X40288023Y32114657D01*
X40153336Y30902474D02*
X40220679Y30767786D01*
X40220679Y30767786D02*
X40389038Y30599428D01*
X40389038Y30599428D02*
X40490053Y30565756D01*
X40490053Y30565756D02*
X40557397Y30565756D01*
X40557397Y30565756D02*
X40658412Y30599428D01*
X40658412Y30599428D02*
X40725755Y30666771D01*
X40725755Y30666771D02*
X40759427Y30767786D01*
X40759427Y30767786D02*
X40759427Y30835130D01*
X40759427Y30835130D02*
X40725755Y30936145D01*
X40725755Y30936145D02*
X40624740Y31104504D01*
X40624740Y31104504D02*
X40591068Y31205519D01*
X40591068Y31205519D02*
X40591068Y31272863D01*
X40591068Y31272863D02*
X40624740Y31373878D01*
X40624740Y31373878D02*
X40692084Y31441222D01*
X40692084Y31441222D02*
X40793099Y31474893D01*
X40793099Y31474893D02*
X40860442Y31474893D01*
X40860442Y31474893D02*
X40961458Y31441222D01*
X40961458Y31441222D02*
X41129816Y31272863D01*
X41129816Y31272863D02*
X41197160Y31138176D01*
X40826771Y30161695D02*
X41533878Y30868802D01*
X41163488Y29824978D02*
X41870595Y30532085D01*
X41870595Y30532085D02*
X41567549Y29420917D01*
X41567549Y29420917D02*
X42274656Y30128024D01*
X14676219Y539906D02*
X13676219Y539906D01*
X14152409Y539906D02*
X14152409Y1111334D01*
X14676219Y1111334D02*
X13676219Y1111334D01*
X14628600Y1539906D02*
X14676219Y1682763D01*
X14676219Y1682763D02*
X14676219Y1920858D01*
X14676219Y1920858D02*
X14628600Y2016096D01*
X14628600Y2016096D02*
X14580980Y2063715D01*
X14580980Y2063715D02*
X14485742Y2111334D01*
X14485742Y2111334D02*
X14390504Y2111334D01*
X14390504Y2111334D02*
X14295266Y2063715D01*
X14295266Y2063715D02*
X14247647Y2016096D01*
X14247647Y2016096D02*
X14200028Y1920858D01*
X14200028Y1920858D02*
X14152409Y1730382D01*
X14152409Y1730382D02*
X14104790Y1635144D01*
X14104790Y1635144D02*
X14057171Y1587525D01*
X14057171Y1587525D02*
X13961933Y1539906D01*
X13961933Y1539906D02*
X13866695Y1539906D01*
X13866695Y1539906D02*
X13771457Y1587525D01*
X13771457Y1587525D02*
X13723838Y1635144D01*
X13723838Y1635144D02*
X13676219Y1730382D01*
X13676219Y1730382D02*
X13676219Y1968477D01*
X13676219Y1968477D02*
X13723838Y2111334D01*
X14628600Y2492287D02*
X14676219Y2635144D01*
X14676219Y2635144D02*
X14676219Y2873239D01*
X14676219Y2873239D02*
X14628600Y2968477D01*
X14628600Y2968477D02*
X14580980Y3016096D01*
X14580980Y3016096D02*
X14485742Y3063715D01*
X14485742Y3063715D02*
X14390504Y3063715D01*
X14390504Y3063715D02*
X14295266Y3016096D01*
X14295266Y3016096D02*
X14247647Y2968477D01*
X14247647Y2968477D02*
X14200028Y2873239D01*
X14200028Y2873239D02*
X14152409Y2682763D01*
X14152409Y2682763D02*
X14104790Y2587525D01*
X14104790Y2587525D02*
X14057171Y2539906D01*
X14057171Y2539906D02*
X13961933Y2492287D01*
X13961933Y2492287D02*
X13866695Y2492287D01*
X13866695Y2492287D02*
X13771457Y2539906D01*
X13771457Y2539906D02*
X13723838Y2587525D01*
X13723838Y2587525D02*
X13676219Y2682763D01*
X13676219Y2682763D02*
X13676219Y2920858D01*
X13676219Y2920858D02*
X13723838Y3063715D01*
X69457673Y34726734D02*
X70219578Y34726734D01*
X69838625Y34345781D02*
X69838625Y35107686D01*
X71171958Y35345781D02*
X70695768Y35345781D01*
X70695768Y35345781D02*
X70648149Y34869591D01*
X70648149Y34869591D02*
X70695768Y34917210D01*
X70695768Y34917210D02*
X70791006Y34964829D01*
X70791006Y34964829D02*
X71029101Y34964829D01*
X71029101Y34964829D02*
X71124339Y34917210D01*
X71124339Y34917210D02*
X71171958Y34869591D01*
X71171958Y34869591D02*
X71219577Y34774353D01*
X71219577Y34774353D02*
X71219577Y34536258D01*
X71219577Y34536258D02*
X71171958Y34441020D01*
X71171958Y34441020D02*
X71124339Y34393400D01*
X71124339Y34393400D02*
X71029101Y34345781D01*
X71029101Y34345781D02*
X70791006Y34345781D01*
X70791006Y34345781D02*
X70695768Y34393400D01*
X70695768Y34393400D02*
X70648149Y34441020D01*
X71505292Y35345781D02*
X71838625Y34345781D01*
X71838625Y34345781D02*
X72171958Y35345781D01*
X69933863Y29265781D02*
X69457673Y29265781D01*
X69457673Y29265781D02*
X69457673Y30265781D01*
X70219578Y29313400D02*
X70362435Y29265781D01*
X70362435Y29265781D02*
X70600530Y29265781D01*
X70600530Y29265781D02*
X70695768Y29313400D01*
X70695768Y29313400D02*
X70743387Y29361020D01*
X70743387Y29361020D02*
X70791006Y29456258D01*
X70791006Y29456258D02*
X70791006Y29551496D01*
X70791006Y29551496D02*
X70743387Y29646734D01*
X70743387Y29646734D02*
X70695768Y29694353D01*
X70695768Y29694353D02*
X70600530Y29741972D01*
X70600530Y29741972D02*
X70410054Y29789591D01*
X70410054Y29789591D02*
X70314816Y29837210D01*
X70314816Y29837210D02*
X70267197Y29884829D01*
X70267197Y29884829D02*
X70219578Y29980067D01*
X70219578Y29980067D02*
X70219578Y30075305D01*
X70219578Y30075305D02*
X70267197Y30170543D01*
X70267197Y30170543D02*
X70314816Y30218162D01*
X70314816Y30218162D02*
X70410054Y30265781D01*
X70410054Y30265781D02*
X70648149Y30265781D01*
X70648149Y30265781D02*
X70791006Y30218162D01*
X54935266Y492287D02*
X54935266Y1254191D01*
X55316219Y873239D02*
X54554314Y873239D01*
X54316219Y2206572D02*
X54316219Y1730382D01*
X54316219Y1730382D02*
X54792409Y1682763D01*
X54792409Y1682763D02*
X54744790Y1730382D01*
X54744790Y1730382D02*
X54697171Y1825620D01*
X54697171Y1825620D02*
X54697171Y2063715D01*
X54697171Y2063715D02*
X54744790Y2158953D01*
X54744790Y2158953D02*
X54792409Y2206572D01*
X54792409Y2206572D02*
X54887647Y2254191D01*
X54887647Y2254191D02*
X55125742Y2254191D01*
X55125742Y2254191D02*
X55220980Y2206572D01*
X55220980Y2206572D02*
X55268600Y2158953D01*
X55268600Y2158953D02*
X55316219Y2063715D01*
X55316219Y2063715D02*
X55316219Y1825620D01*
X55316219Y1825620D02*
X55268600Y1730382D01*
X55268600Y1730382D02*
X55220980Y1682763D01*
X54316219Y2539906D02*
X55316219Y2873239D01*
X55316219Y2873239D02*
X54316219Y3206572D01*
X36219904Y34168781D02*
X36219904Y35168781D01*
X36219904Y35168781D02*
X36553237Y34454496D01*
X36553237Y34454496D02*
X36886570Y35168781D01*
X36886570Y35168781D02*
X36886570Y34168781D01*
X37553237Y35168781D02*
X37743713Y35168781D01*
X37743713Y35168781D02*
X37838951Y35121162D01*
X37838951Y35121162D02*
X37934189Y35025924D01*
X37934189Y35025924D02*
X37981808Y34835448D01*
X37981808Y34835448D02*
X37981808Y34502115D01*
X37981808Y34502115D02*
X37934189Y34311639D01*
X37934189Y34311639D02*
X37838951Y34216400D01*
X37838951Y34216400D02*
X37743713Y34168781D01*
X37743713Y34168781D02*
X37553237Y34168781D01*
X37553237Y34168781D02*
X37457999Y34216400D01*
X37457999Y34216400D02*
X37362761Y34311639D01*
X37362761Y34311639D02*
X37315142Y34502115D01*
X37315142Y34502115D02*
X37315142Y34835448D01*
X37315142Y34835448D02*
X37362761Y35025924D01*
X37362761Y35025924D02*
X37457999Y35121162D01*
X37457999Y35121162D02*
X37553237Y35168781D01*
X38362761Y34216400D02*
X38505618Y34168781D01*
X38505618Y34168781D02*
X38743713Y34168781D01*
X38743713Y34168781D02*
X38838951Y34216400D01*
X38838951Y34216400D02*
X38886570Y34264020D01*
X38886570Y34264020D02*
X38934189Y34359258D01*
X38934189Y34359258D02*
X38934189Y34454496D01*
X38934189Y34454496D02*
X38886570Y34549734D01*
X38886570Y34549734D02*
X38838951Y34597353D01*
X38838951Y34597353D02*
X38743713Y34644972D01*
X38743713Y34644972D02*
X38553237Y34692591D01*
X38553237Y34692591D02*
X38457999Y34740210D01*
X38457999Y34740210D02*
X38410380Y34787829D01*
X38410380Y34787829D02*
X38362761Y34883067D01*
X38362761Y34883067D02*
X38362761Y34978305D01*
X38362761Y34978305D02*
X38410380Y35073543D01*
X38410380Y35073543D02*
X38457999Y35121162D01*
X38457999Y35121162D02*
X38553237Y35168781D01*
X38553237Y35168781D02*
X38791332Y35168781D01*
X38791332Y35168781D02*
X38934189Y35121162D01*
X39696094Y34692591D02*
X39362761Y34692591D01*
X39362761Y34168781D02*
X39362761Y35168781D01*
X39362761Y35168781D02*
X39838951Y35168781D01*
X40219904Y34692591D02*
X40553237Y34692591D01*
X40696094Y34168781D02*
X40219904Y34168781D01*
X40219904Y34168781D02*
X40219904Y35168781D01*
X40219904Y35168781D02*
X40696094Y35168781D01*
X40981809Y35168781D02*
X41553237Y35168781D01*
X41267523Y34168781D02*
X41267523Y35168781D01*
X42648476Y34168781D02*
X42648476Y35168781D01*
X42648476Y35168781D02*
X42886571Y35168781D01*
X42886571Y35168781D02*
X43029428Y35121162D01*
X43029428Y35121162D02*
X43124666Y35025924D01*
X43124666Y35025924D02*
X43172285Y34930686D01*
X43172285Y34930686D02*
X43219904Y34740210D01*
X43219904Y34740210D02*
X43219904Y34597353D01*
X43219904Y34597353D02*
X43172285Y34406877D01*
X43172285Y34406877D02*
X43124666Y34311639D01*
X43124666Y34311639D02*
X43029428Y34216400D01*
X43029428Y34216400D02*
X42886571Y34168781D01*
X42886571Y34168781D02*
X42648476Y34168781D01*
X43648476Y34168781D02*
X43648476Y34835448D01*
X43648476Y34644972D02*
X43696095Y34740210D01*
X43696095Y34740210D02*
X43743714Y34787829D01*
X43743714Y34787829D02*
X43838952Y34835448D01*
X43838952Y34835448D02*
X43934190Y34835448D01*
X44267524Y34168781D02*
X44267524Y34835448D01*
X44267524Y35168781D02*
X44219905Y35121162D01*
X44219905Y35121162D02*
X44267524Y35073543D01*
X44267524Y35073543D02*
X44315143Y35121162D01*
X44315143Y35121162D02*
X44267524Y35168781D01*
X44267524Y35168781D02*
X44267524Y35073543D01*
X44648476Y34835448D02*
X44886571Y34168781D01*
X44886571Y34168781D02*
X45124666Y34835448D01*
X45886571Y34216400D02*
X45791333Y34168781D01*
X45791333Y34168781D02*
X45600857Y34168781D01*
X45600857Y34168781D02*
X45505619Y34216400D01*
X45505619Y34216400D02*
X45458000Y34311639D01*
X45458000Y34311639D02*
X45458000Y34692591D01*
X45458000Y34692591D02*
X45505619Y34787829D01*
X45505619Y34787829D02*
X45600857Y34835448D01*
X45600857Y34835448D02*
X45791333Y34835448D01*
X45791333Y34835448D02*
X45886571Y34787829D01*
X45886571Y34787829D02*
X45934190Y34692591D01*
X45934190Y34692591D02*
X45934190Y34597353D01*
X45934190Y34597353D02*
X45458000Y34502115D01*
X46362762Y34168781D02*
X46362762Y34835448D01*
X46362762Y34644972D02*
X46410381Y34740210D01*
X46410381Y34740210D02*
X46458000Y34787829D01*
X46458000Y34787829D02*
X46553238Y34835448D01*
X46553238Y34835448D02*
X46648476Y34835448D01*
X48029429Y33787829D02*
X47981810Y33835448D01*
X47981810Y33835448D02*
X47886572Y33978305D01*
X47886572Y33978305D02*
X47838953Y34073543D01*
X47838953Y34073543D02*
X47791334Y34216400D01*
X47791334Y34216400D02*
X47743715Y34454496D01*
X47743715Y34454496D02*
X47743715Y34644972D01*
X47743715Y34644972D02*
X47791334Y34883067D01*
X47791334Y34883067D02*
X47838953Y35025924D01*
X47838953Y35025924D02*
X47886572Y35121162D01*
X47886572Y35121162D02*
X47981810Y35264020D01*
X47981810Y35264020D02*
X48029429Y35311639D01*
X48362763Y34216400D02*
X48505620Y34168781D01*
X48505620Y34168781D02*
X48743715Y34168781D01*
X48743715Y34168781D02*
X48838953Y34216400D01*
X48838953Y34216400D02*
X48886572Y34264020D01*
X48886572Y34264020D02*
X48934191Y34359258D01*
X48934191Y34359258D02*
X48934191Y34454496D01*
X48934191Y34454496D02*
X48886572Y34549734D01*
X48886572Y34549734D02*
X48838953Y34597353D01*
X48838953Y34597353D02*
X48743715Y34644972D01*
X48743715Y34644972D02*
X48553239Y34692591D01*
X48553239Y34692591D02*
X48458001Y34740210D01*
X48458001Y34740210D02*
X48410382Y34787829D01*
X48410382Y34787829D02*
X48362763Y34883067D01*
X48362763Y34883067D02*
X48362763Y34978305D01*
X48362763Y34978305D02*
X48410382Y35073543D01*
X48410382Y35073543D02*
X48458001Y35121162D01*
X48458001Y35121162D02*
X48553239Y35168781D01*
X48553239Y35168781D02*
X48791334Y35168781D01*
X48791334Y35168781D02*
X48934191Y35121162D01*
X49362763Y34168781D02*
X49362763Y34835448D01*
X49362763Y35168781D02*
X49315144Y35121162D01*
X49315144Y35121162D02*
X49362763Y35073543D01*
X49362763Y35073543D02*
X49410382Y35121162D01*
X49410382Y35121162D02*
X49362763Y35168781D01*
X49362763Y35168781D02*
X49362763Y35073543D01*
X49886572Y34216400D02*
X49886572Y34168781D01*
X49886572Y34168781D02*
X49838953Y34073543D01*
X49838953Y34073543D02*
X49791334Y34025924D01*
X51029429Y34216400D02*
X51172286Y34168781D01*
X51172286Y34168781D02*
X51410381Y34168781D01*
X51410381Y34168781D02*
X51505619Y34216400D01*
X51505619Y34216400D02*
X51553238Y34264020D01*
X51553238Y34264020D02*
X51600857Y34359258D01*
X51600857Y34359258D02*
X51600857Y34454496D01*
X51600857Y34454496D02*
X51553238Y34549734D01*
X51553238Y34549734D02*
X51505619Y34597353D01*
X51505619Y34597353D02*
X51410381Y34644972D01*
X51410381Y34644972D02*
X51219905Y34692591D01*
X51219905Y34692591D02*
X51124667Y34740210D01*
X51124667Y34740210D02*
X51077048Y34787829D01*
X51077048Y34787829D02*
X51029429Y34883067D01*
X51029429Y34883067D02*
X51029429Y34978305D01*
X51029429Y34978305D02*
X51077048Y35073543D01*
X51077048Y35073543D02*
X51124667Y35121162D01*
X51124667Y35121162D02*
X51219905Y35168781D01*
X51219905Y35168781D02*
X51458000Y35168781D01*
X51458000Y35168781D02*
X51600857Y35121162D01*
X52029429Y34168781D02*
X52029429Y34835448D01*
X52029429Y35168781D02*
X51981810Y35121162D01*
X51981810Y35121162D02*
X52029429Y35073543D01*
X52029429Y35073543D02*
X52077048Y35121162D01*
X52077048Y35121162D02*
X52029429Y35168781D01*
X52029429Y35168781D02*
X52029429Y35073543D01*
X53077047Y34264020D02*
X53029428Y34216400D01*
X53029428Y34216400D02*
X52886571Y34168781D01*
X52886571Y34168781D02*
X52791333Y34168781D01*
X52791333Y34168781D02*
X52648476Y34216400D01*
X52648476Y34216400D02*
X52553238Y34311639D01*
X52553238Y34311639D02*
X52505619Y34406877D01*
X52505619Y34406877D02*
X52458000Y34597353D01*
X52458000Y34597353D02*
X52458000Y34740210D01*
X52458000Y34740210D02*
X52505619Y34930686D01*
X52505619Y34930686D02*
X52553238Y35025924D01*
X52553238Y35025924D02*
X52648476Y35121162D01*
X52648476Y35121162D02*
X52791333Y35168781D01*
X52791333Y35168781D02*
X52886571Y35168781D01*
X52886571Y35168781D02*
X53029428Y35121162D01*
X53029428Y35121162D02*
X53077047Y35073543D01*
X53410381Y33787829D02*
X53458000Y33835448D01*
X53458000Y33835448D02*
X53553238Y33978305D01*
X53553238Y33978305D02*
X53600857Y34073543D01*
X53600857Y34073543D02*
X53648476Y34216400D01*
X53648476Y34216400D02*
X53696095Y34454496D01*
X53696095Y34454496D02*
X53696095Y34644972D01*
X53696095Y34644972D02*
X53648476Y34883067D01*
X53648476Y34883067D02*
X53600857Y35025924D01*
X53600857Y35025924D02*
X53553238Y35121162D01*
X53553238Y35121162D02*
X53458000Y35264020D01*
X53458000Y35264020D02*
X53410381Y35311639D01*
X69603838Y1016096D02*
X69556219Y920858D01*
X69556219Y920858D02*
X69556219Y778001D01*
X69556219Y778001D02*
X69603838Y635144D01*
X69603838Y635144D02*
X69699076Y539906D01*
X69699076Y539906D02*
X69794314Y492287D01*
X69794314Y492287D02*
X69984790Y444668D01*
X69984790Y444668D02*
X70127647Y444668D01*
X70127647Y444668D02*
X70318123Y492287D01*
X70318123Y492287D02*
X70413361Y539906D01*
X70413361Y539906D02*
X70508600Y635144D01*
X70508600Y635144D02*
X70556219Y778001D01*
X70556219Y778001D02*
X70556219Y873239D01*
X70556219Y873239D02*
X70508600Y1016096D01*
X70508600Y1016096D02*
X70460980Y1063715D01*
X70460980Y1063715D02*
X70127647Y1063715D01*
X70127647Y1063715D02*
X70127647Y873239D01*
X70556219Y1492287D02*
X69556219Y1492287D01*
X69556219Y1492287D02*
X70556219Y2063715D01*
X70556219Y2063715D02*
X69556219Y2063715D01*
X70556219Y2539906D02*
X69556219Y2539906D01*
X69556219Y2539906D02*
X69556219Y2778001D01*
X69556219Y2778001D02*
X69603838Y2920858D01*
X69603838Y2920858D02*
X69699076Y3016096D01*
X69699076Y3016096D02*
X69794314Y3063715D01*
X69794314Y3063715D02*
X69984790Y3111334D01*
X69984790Y3111334D02*
X70127647Y3111334D01*
X70127647Y3111334D02*
X70318123Y3063715D01*
X70318123Y3063715D02*
X70413361Y3016096D01*
X70413361Y3016096D02*
X70508600Y2920858D01*
X70508600Y2920858D02*
X70556219Y2778001D01*
X70556219Y2778001D02*
X70556219Y2539906D01*
X49137673Y27201050D02*
X49137673Y28201050D01*
X49137673Y27724860D02*
X49709101Y27724860D01*
X49709101Y27201050D02*
X49709101Y28201050D01*
X50185292Y27201050D02*
X50185292Y28201050D01*
X50661482Y27201050D02*
X50661482Y28201050D01*
X50661482Y28201050D02*
X51232910Y27201050D01*
X51232910Y27201050D02*
X51232910Y28201050D01*
X48999578Y28478669D02*
X51371006Y28478669D01*
X44571219Y22915620D02*
X44571219Y22439430D01*
X44571219Y22439430D02*
X43571219Y22439430D01*
X44571219Y23248954D02*
X43571219Y23248954D01*
X44571219Y23725144D02*
X43571219Y23725144D01*
X43571219Y23725144D02*
X44571219Y24296572D01*
X44571219Y24296572D02*
X43571219Y24296572D01*
X22296219Y1111334D02*
X22296219Y635144D01*
X22296219Y635144D02*
X21296219Y635144D01*
X22248600Y1397049D02*
X22296219Y1539906D01*
X22296219Y1539906D02*
X22296219Y1778001D01*
X22296219Y1778001D02*
X22248600Y1873239D01*
X22248600Y1873239D02*
X22200980Y1920858D01*
X22200980Y1920858D02*
X22105742Y1968477D01*
X22105742Y1968477D02*
X22010504Y1968477D01*
X22010504Y1968477D02*
X21915266Y1920858D01*
X21915266Y1920858D02*
X21867647Y1873239D01*
X21867647Y1873239D02*
X21820028Y1778001D01*
X21820028Y1778001D02*
X21772409Y1587525D01*
X21772409Y1587525D02*
X21724790Y1492287D01*
X21724790Y1492287D02*
X21677171Y1444668D01*
X21677171Y1444668D02*
X21581933Y1397049D01*
X21581933Y1397049D02*
X21486695Y1397049D01*
X21486695Y1397049D02*
X21391457Y1444668D01*
X21391457Y1444668D02*
X21343838Y1492287D01*
X21343838Y1492287D02*
X21296219Y1587525D01*
X21296219Y1587525D02*
X21296219Y1825620D01*
X21296219Y1825620D02*
X21343838Y1968477D01*
X21343838Y2920858D02*
X21296219Y2825620D01*
X21296219Y2825620D02*
X21296219Y2682763D01*
X21296219Y2682763D02*
X21343838Y2539906D01*
X21343838Y2539906D02*
X21439076Y2444668D01*
X21439076Y2444668D02*
X21534314Y2397049D01*
X21534314Y2397049D02*
X21724790Y2349430D01*
X21724790Y2349430D02*
X21867647Y2349430D01*
X21867647Y2349430D02*
X22058123Y2397049D01*
X22058123Y2397049D02*
X22153361Y2444668D01*
X22153361Y2444668D02*
X22248600Y2539906D01*
X22248600Y2539906D02*
X22296219Y2682763D01*
X22296219Y2682763D02*
X22296219Y2778001D01*
X22296219Y2778001D02*
X22248600Y2920858D01*
X22248600Y2920858D02*
X22200980Y2968477D01*
X22200980Y2968477D02*
X21867647Y2968477D01*
X21867647Y2968477D02*
X21867647Y2778001D01*
X44775266Y492287D02*
X44775266Y1254191D01*
X45156219Y873239D02*
X44394314Y873239D01*
X44156219Y2206572D02*
X44156219Y1730382D01*
X44156219Y1730382D02*
X44632409Y1682763D01*
X44632409Y1682763D02*
X44584790Y1730382D01*
X44584790Y1730382D02*
X44537171Y1825620D01*
X44537171Y1825620D02*
X44537171Y2063715D01*
X44537171Y2063715D02*
X44584790Y2158953D01*
X44584790Y2158953D02*
X44632409Y2206572D01*
X44632409Y2206572D02*
X44727647Y2254191D01*
X44727647Y2254191D02*
X44965742Y2254191D01*
X44965742Y2254191D02*
X45060980Y2206572D01*
X45060980Y2206572D02*
X45108600Y2158953D01*
X45108600Y2158953D02*
X45156219Y2063715D01*
X45156219Y2063715D02*
X45156219Y1825620D01*
X45156219Y1825620D02*
X45108600Y1730382D01*
X45108600Y1730382D02*
X45060980Y1682763D01*
X44156219Y2539906D02*
X45156219Y2873239D01*
X45156219Y2873239D02*
X44156219Y3206572D01*
X47696219Y1325620D02*
X47696219Y849430D01*
X47696219Y849430D02*
X46696219Y849430D01*
X47696219Y1658954D02*
X46696219Y1658954D01*
X47696219Y2135144D02*
X46696219Y2135144D01*
X46696219Y2135144D02*
X47696219Y2706572D01*
X47696219Y2706572D02*
X46696219Y2706572D01*
X42267524Y32136781D02*
X42267524Y32803448D01*
X42267524Y32612972D02*
X42315143Y32708210D01*
X42315143Y32708210D02*
X42362762Y32755829D01*
X42362762Y32755829D02*
X42458000Y32803448D01*
X42458000Y32803448D02*
X42553238Y32803448D01*
X43267524Y32184400D02*
X43172286Y32136781D01*
X43172286Y32136781D02*
X42981810Y32136781D01*
X42981810Y32136781D02*
X42886572Y32184400D01*
X42886572Y32184400D02*
X42838953Y32279639D01*
X42838953Y32279639D02*
X42838953Y32660591D01*
X42838953Y32660591D02*
X42886572Y32755829D01*
X42886572Y32755829D02*
X42981810Y32803448D01*
X42981810Y32803448D02*
X43172286Y32803448D01*
X43172286Y32803448D02*
X43267524Y32755829D01*
X43267524Y32755829D02*
X43315143Y32660591D01*
X43315143Y32660591D02*
X43315143Y32565353D01*
X43315143Y32565353D02*
X42838953Y32470115D01*
X43648477Y32803448D02*
X43886572Y32136781D01*
X43886572Y32136781D02*
X44124667Y32803448D01*
X44505620Y32232020D02*
X44553239Y32184400D01*
X44553239Y32184400D02*
X44505620Y32136781D01*
X44505620Y32136781D02*
X44458001Y32184400D01*
X44458001Y32184400D02*
X44505620Y32232020D01*
X44505620Y32232020D02*
X44505620Y32136781D01*
X46267524Y32136781D02*
X45696096Y32136781D01*
X45981810Y32136781D02*
X45981810Y33136781D01*
X45981810Y33136781D02*
X45886572Y32993924D01*
X45886572Y32993924D02*
X45791334Y32898686D01*
X45791334Y32898686D02*
X45696096Y32851067D01*
X46696096Y32232020D02*
X46743715Y32184400D01*
X46743715Y32184400D02*
X46696096Y32136781D01*
X46696096Y32136781D02*
X46648477Y32184400D01*
X46648477Y32184400D02*
X46696096Y32232020D01*
X46696096Y32232020D02*
X46696096Y32136781D01*
X47696095Y32136781D02*
X47124667Y32136781D01*
X47410381Y32136781D02*
X47410381Y33136781D01*
X47410381Y33136781D02*
X47315143Y32993924D01*
X47315143Y32993924D02*
X47219905Y32898686D01*
X47219905Y32898686D02*
X47124667Y32851067D01*
X49283838Y1016096D02*
X49236219Y920858D01*
X49236219Y920858D02*
X49236219Y778001D01*
X49236219Y778001D02*
X49283838Y635144D01*
X49283838Y635144D02*
X49379076Y539906D01*
X49379076Y539906D02*
X49474314Y492287D01*
X49474314Y492287D02*
X49664790Y444668D01*
X49664790Y444668D02*
X49807647Y444668D01*
X49807647Y444668D02*
X49998123Y492287D01*
X49998123Y492287D02*
X50093361Y539906D01*
X50093361Y539906D02*
X50188600Y635144D01*
X50188600Y635144D02*
X50236219Y778001D01*
X50236219Y778001D02*
X50236219Y873239D01*
X50236219Y873239D02*
X50188600Y1016096D01*
X50188600Y1016096D02*
X50140980Y1063715D01*
X50140980Y1063715D02*
X49807647Y1063715D01*
X49807647Y1063715D02*
X49807647Y873239D01*
X50236219Y1492287D02*
X49236219Y1492287D01*
X49236219Y1492287D02*
X50236219Y2063715D01*
X50236219Y2063715D02*
X49236219Y2063715D01*
X50236219Y2539906D02*
X49236219Y2539906D01*
X49236219Y2539906D02*
X49236219Y2778001D01*
X49236219Y2778001D02*
X49283838Y2920858D01*
X49283838Y2920858D02*
X49379076Y3016096D01*
X49379076Y3016096D02*
X49474314Y3063715D01*
X49474314Y3063715D02*
X49664790Y3111334D01*
X49664790Y3111334D02*
X49807647Y3111334D01*
X49807647Y3111334D02*
X49998123Y3063715D01*
X49998123Y3063715D02*
X50093361Y3016096D01*
X50093361Y3016096D02*
X50188600Y2920858D01*
X50188600Y2920858D02*
X50236219Y2778001D01*
X50236219Y2778001D02*
X50236219Y2539906D01*
X68016219Y801811D02*
X67016219Y801811D01*
X67016219Y801811D02*
X67016219Y1039906D01*
X67016219Y1039906D02*
X67063838Y1182763D01*
X67063838Y1182763D02*
X67159076Y1278001D01*
X67159076Y1278001D02*
X67254314Y1325620D01*
X67254314Y1325620D02*
X67444790Y1373239D01*
X67444790Y1373239D02*
X67587647Y1373239D01*
X67587647Y1373239D02*
X67778123Y1325620D01*
X67778123Y1325620D02*
X67873361Y1278001D01*
X67873361Y1278001D02*
X67968600Y1182763D01*
X67968600Y1182763D02*
X68016219Y1039906D01*
X68016219Y1039906D02*
X68016219Y801811D01*
X68016219Y1801811D02*
X67016219Y1801811D01*
X67968600Y2230382D02*
X68016219Y2373239D01*
X68016219Y2373239D02*
X68016219Y2611334D01*
X68016219Y2611334D02*
X67968600Y2706572D01*
X67968600Y2706572D02*
X67920980Y2754191D01*
X67920980Y2754191D02*
X67825742Y2801810D01*
X67825742Y2801810D02*
X67730504Y2801810D01*
X67730504Y2801810D02*
X67635266Y2754191D01*
X67635266Y2754191D02*
X67587647Y2706572D01*
X67587647Y2706572D02*
X67540028Y2611334D01*
X67540028Y2611334D02*
X67492409Y2420858D01*
X67492409Y2420858D02*
X67444790Y2325620D01*
X67444790Y2325620D02*
X67397171Y2278001D01*
X67397171Y2278001D02*
X67301933Y2230382D01*
X67301933Y2230382D02*
X67206695Y2230382D01*
X67206695Y2230382D02*
X67111457Y2278001D01*
X67111457Y2278001D02*
X67063838Y2325620D01*
X67063838Y2325620D02*
X67016219Y2420858D01*
X67016219Y2420858D02*
X67016219Y2658953D01*
X67016219Y2658953D02*
X67063838Y2801810D01*
X59443838Y1016096D02*
X59396219Y920858D01*
X59396219Y920858D02*
X59396219Y778001D01*
X59396219Y778001D02*
X59443838Y635144D01*
X59443838Y635144D02*
X59539076Y539906D01*
X59539076Y539906D02*
X59634314Y492287D01*
X59634314Y492287D02*
X59824790Y444668D01*
X59824790Y444668D02*
X59967647Y444668D01*
X59967647Y444668D02*
X60158123Y492287D01*
X60158123Y492287D02*
X60253361Y539906D01*
X60253361Y539906D02*
X60348600Y635144D01*
X60348600Y635144D02*
X60396219Y778001D01*
X60396219Y778001D02*
X60396219Y873239D01*
X60396219Y873239D02*
X60348600Y1016096D01*
X60348600Y1016096D02*
X60300980Y1063715D01*
X60300980Y1063715D02*
X59967647Y1063715D01*
X59967647Y1063715D02*
X59967647Y873239D01*
X60396219Y1492287D02*
X59396219Y1492287D01*
X59396219Y1492287D02*
X60396219Y2063715D01*
X60396219Y2063715D02*
X59396219Y2063715D01*
X60396219Y2539906D02*
X59396219Y2539906D01*
X59396219Y2539906D02*
X59396219Y2778001D01*
X59396219Y2778001D02*
X59443838Y2920858D01*
X59443838Y2920858D02*
X59539076Y3016096D01*
X59539076Y3016096D02*
X59634314Y3063715D01*
X59634314Y3063715D02*
X59824790Y3111334D01*
X59824790Y3111334D02*
X59967647Y3111334D01*
X59967647Y3111334D02*
X60158123Y3063715D01*
X60158123Y3063715D02*
X60253361Y3016096D01*
X60253361Y3016096D02*
X60348600Y2920858D01*
X60348600Y2920858D02*
X60396219Y2778001D01*
X60396219Y2778001D02*
X60396219Y2539906D01*
X69457673Y26725781D02*
X69457673Y27725781D01*
X69457673Y27249591D02*
X70029101Y27249591D01*
X70029101Y26725781D02*
X70029101Y27725781D01*
X70457673Y26773400D02*
X70600530Y26725781D01*
X70600530Y26725781D02*
X70838625Y26725781D01*
X70838625Y26725781D02*
X70933863Y26773400D01*
X70933863Y26773400D02*
X70981482Y26821020D01*
X70981482Y26821020D02*
X71029101Y26916258D01*
X71029101Y26916258D02*
X71029101Y27011496D01*
X71029101Y27011496D02*
X70981482Y27106734D01*
X70981482Y27106734D02*
X70933863Y27154353D01*
X70933863Y27154353D02*
X70838625Y27201972D01*
X70838625Y27201972D02*
X70648149Y27249591D01*
X70648149Y27249591D02*
X70552911Y27297210D01*
X70552911Y27297210D02*
X70505292Y27344829D01*
X70505292Y27344829D02*
X70457673Y27440067D01*
X70457673Y27440067D02*
X70457673Y27535305D01*
X70457673Y27535305D02*
X70505292Y27630543D01*
X70505292Y27630543D02*
X70552911Y27678162D01*
X70552911Y27678162D02*
X70648149Y27725781D01*
X70648149Y27725781D02*
X70886244Y27725781D01*
X70886244Y27725781D02*
X71029101Y27678162D01*
X57856219Y730382D02*
X56856219Y730382D01*
X57332409Y730382D02*
X57332409Y1301810D01*
X57856219Y1301810D02*
X56856219Y1301810D01*
X57856219Y1778001D02*
X56856219Y1778001D01*
X57856219Y2254191D02*
X56856219Y2254191D01*
X56856219Y2254191D02*
X57856219Y2825619D01*
X57856219Y2825619D02*
X56856219Y2825619D01*
X65095266Y492287D02*
X65095266Y1254191D01*
X65476219Y873239D02*
X64714314Y873239D01*
X64476219Y2206572D02*
X64476219Y1730382D01*
X64476219Y1730382D02*
X64952409Y1682763D01*
X64952409Y1682763D02*
X64904790Y1730382D01*
X64904790Y1730382D02*
X64857171Y1825620D01*
X64857171Y1825620D02*
X64857171Y2063715D01*
X64857171Y2063715D02*
X64904790Y2158953D01*
X64904790Y2158953D02*
X64952409Y2206572D01*
X64952409Y2206572D02*
X65047647Y2254191D01*
X65047647Y2254191D02*
X65285742Y2254191D01*
X65285742Y2254191D02*
X65380980Y2206572D01*
X65380980Y2206572D02*
X65428600Y2158953D01*
X65428600Y2158953D02*
X65476219Y2063715D01*
X65476219Y2063715D02*
X65476219Y1825620D01*
X65476219Y1825620D02*
X65428600Y1730382D01*
X65428600Y1730382D02*
X65380980Y1682763D01*
X64476219Y2539906D02*
X65476219Y2873239D01*
X65476219Y2873239D02*
X64476219Y3206572D01*
X12136219Y516096D02*
X11136219Y516096D01*
X11612409Y516096D02*
X11612409Y1087524D01*
X12136219Y1087524D02*
X11136219Y1087524D01*
X12088600Y1516096D02*
X12136219Y1658953D01*
X12136219Y1658953D02*
X12136219Y1897048D01*
X12136219Y1897048D02*
X12088600Y1992286D01*
X12088600Y1992286D02*
X12040980Y2039905D01*
X12040980Y2039905D02*
X11945742Y2087524D01*
X11945742Y2087524D02*
X11850504Y2087524D01*
X11850504Y2087524D02*
X11755266Y2039905D01*
X11755266Y2039905D02*
X11707647Y1992286D01*
X11707647Y1992286D02*
X11660028Y1897048D01*
X11660028Y1897048D02*
X11612409Y1706572D01*
X11612409Y1706572D02*
X11564790Y1611334D01*
X11564790Y1611334D02*
X11517171Y1563715D01*
X11517171Y1563715D02*
X11421933Y1516096D01*
X11421933Y1516096D02*
X11326695Y1516096D01*
X11326695Y1516096D02*
X11231457Y1563715D01*
X11231457Y1563715D02*
X11183838Y1611334D01*
X11183838Y1611334D02*
X11136219Y1706572D01*
X11136219Y1706572D02*
X11136219Y1944667D01*
X11136219Y1944667D02*
X11183838Y2087524D01*
X11183838Y3039905D02*
X11136219Y2944667D01*
X11136219Y2944667D02*
X11136219Y2801810D01*
X11136219Y2801810D02*
X11183838Y2658953D01*
X11183838Y2658953D02*
X11279076Y2563715D01*
X11279076Y2563715D02*
X11374314Y2516096D01*
X11374314Y2516096D02*
X11564790Y2468477D01*
X11564790Y2468477D02*
X11707647Y2468477D01*
X11707647Y2468477D02*
X11898123Y2516096D01*
X11898123Y2516096D02*
X11993361Y2563715D01*
X11993361Y2563715D02*
X12088600Y2658953D01*
X12088600Y2658953D02*
X12136219Y2801810D01*
X12136219Y2801810D02*
X12136219Y2897048D01*
X12136219Y2897048D02*
X12088600Y3039905D01*
X12088600Y3039905D02*
X12040980Y3087524D01*
X12040980Y3087524D02*
X11707647Y3087524D01*
X11707647Y3087524D02*
X11707647Y2897048D01*
X24836219Y1135143D02*
X24836219Y658953D01*
X24836219Y658953D02*
X23836219Y658953D01*
X24788600Y1420858D02*
X24836219Y1563715D01*
X24836219Y1563715D02*
X24836219Y1801810D01*
X24836219Y1801810D02*
X24788600Y1897048D01*
X24788600Y1897048D02*
X24740980Y1944667D01*
X24740980Y1944667D02*
X24645742Y1992286D01*
X24645742Y1992286D02*
X24550504Y1992286D01*
X24550504Y1992286D02*
X24455266Y1944667D01*
X24455266Y1944667D02*
X24407647Y1897048D01*
X24407647Y1897048D02*
X24360028Y1801810D01*
X24360028Y1801810D02*
X24312409Y1611334D01*
X24312409Y1611334D02*
X24264790Y1516096D01*
X24264790Y1516096D02*
X24217171Y1468477D01*
X24217171Y1468477D02*
X24121933Y1420858D01*
X24121933Y1420858D02*
X24026695Y1420858D01*
X24026695Y1420858D02*
X23931457Y1468477D01*
X23931457Y1468477D02*
X23883838Y1516096D01*
X23883838Y1516096D02*
X23836219Y1611334D01*
X23836219Y1611334D02*
X23836219Y1849429D01*
X23836219Y1849429D02*
X23883838Y1992286D01*
X24788600Y2373239D02*
X24836219Y2516096D01*
X24836219Y2516096D02*
X24836219Y2754191D01*
X24836219Y2754191D02*
X24788600Y2849429D01*
X24788600Y2849429D02*
X24740980Y2897048D01*
X24740980Y2897048D02*
X24645742Y2944667D01*
X24645742Y2944667D02*
X24550504Y2944667D01*
X24550504Y2944667D02*
X24455266Y2897048D01*
X24455266Y2897048D02*
X24407647Y2849429D01*
X24407647Y2849429D02*
X24360028Y2754191D01*
X24360028Y2754191D02*
X24312409Y2563715D01*
X24312409Y2563715D02*
X24264790Y2468477D01*
X24264790Y2468477D02*
X24217171Y2420858D01*
X24217171Y2420858D02*
X24121933Y2373239D01*
X24121933Y2373239D02*
X24026695Y2373239D01*
X24026695Y2373239D02*
X23931457Y2420858D01*
X23931457Y2420858D02*
X23883838Y2468477D01*
X23883838Y2468477D02*
X23836219Y2563715D01*
X23836219Y2563715D02*
X23836219Y2801810D01*
X23836219Y2801810D02*
X23883838Y2944667D01*
D12*
X13154819Y33869334D02*
X12678628Y33536001D01*
X13154819Y33297906D02*
X12154819Y33297906D01*
X12154819Y33297906D02*
X12154819Y33678858D01*
X12154819Y33678858D02*
X12202438Y33774096D01*
X12202438Y33774096D02*
X12250057Y33821715D01*
X12250057Y33821715D02*
X12345295Y33869334D01*
X12345295Y33869334D02*
X12488152Y33869334D01*
X12488152Y33869334D02*
X12583390Y33821715D01*
X12583390Y33821715D02*
X12631009Y33774096D01*
X12631009Y33774096D02*
X12678628Y33678858D01*
X12678628Y33678858D02*
X12678628Y33297906D01*
X13154819Y34345525D02*
X13154819Y34536001D01*
X13154819Y34536001D02*
X13107200Y34631239D01*
X13107200Y34631239D02*
X13059580Y34678858D01*
X13059580Y34678858D02*
X12916723Y34774096D01*
X12916723Y34774096D02*
X12726247Y34821715D01*
X12726247Y34821715D02*
X12345295Y34821715D01*
X12345295Y34821715D02*
X12250057Y34774096D01*
X12250057Y34774096D02*
X12202438Y34726477D01*
X12202438Y34726477D02*
X12154819Y34631239D01*
X12154819Y34631239D02*
X12154819Y34440763D01*
X12154819Y34440763D02*
X12202438Y34345525D01*
X12202438Y34345525D02*
X12250057Y34297906D01*
X12250057Y34297906D02*
X12345295Y34250287D01*
X12345295Y34250287D02*
X12583390Y34250287D01*
X12583390Y34250287D02*
X12678628Y34297906D01*
X12678628Y34297906D02*
X12726247Y34345525D01*
X12726247Y34345525D02*
X12773866Y34440763D01*
X12773866Y34440763D02*
X12773866Y34631239D01*
X12773866Y34631239D02*
X12726247Y34726477D01*
X12726247Y34726477D02*
X12678628Y34774096D01*
X12678628Y34774096D02*
X12583390Y34821715D01*
X32012095Y2323181D02*
X32583523Y2323181D01*
X32297809Y1323181D02*
X32297809Y2323181D01*
X32916857Y1323181D02*
X32916857Y2323181D01*
X32916857Y2323181D02*
X33297809Y2323181D01*
X33297809Y2323181D02*
X33393047Y2275562D01*
X33393047Y2275562D02*
X33440666Y2227943D01*
X33440666Y2227943D02*
X33488285Y2132705D01*
X33488285Y2132705D02*
X33488285Y1989848D01*
X33488285Y1989848D02*
X33440666Y1894610D01*
X33440666Y1894610D02*
X33393047Y1846991D01*
X33393047Y1846991D02*
X33297809Y1799372D01*
X33297809Y1799372D02*
X32916857Y1799372D01*
X34059714Y1894610D02*
X33964476Y1942229D01*
X33964476Y1942229D02*
X33916857Y1989848D01*
X33916857Y1989848D02*
X33869238Y2085086D01*
X33869238Y2085086D02*
X33869238Y2132705D01*
X33869238Y2132705D02*
X33916857Y2227943D01*
X33916857Y2227943D02*
X33964476Y2275562D01*
X33964476Y2275562D02*
X34059714Y2323181D01*
X34059714Y2323181D02*
X34250190Y2323181D01*
X34250190Y2323181D02*
X34345428Y2275562D01*
X34345428Y2275562D02*
X34393047Y2227943D01*
X34393047Y2227943D02*
X34440666Y2132705D01*
X34440666Y2132705D02*
X34440666Y2085086D01*
X34440666Y2085086D02*
X34393047Y1989848D01*
X34393047Y1989848D02*
X34345428Y1942229D01*
X34345428Y1942229D02*
X34250190Y1894610D01*
X34250190Y1894610D02*
X34059714Y1894610D01*
X34059714Y1894610D02*
X33964476Y1846991D01*
X33964476Y1846991D02*
X33916857Y1799372D01*
X33916857Y1799372D02*
X33869238Y1704134D01*
X33869238Y1704134D02*
X33869238Y1513658D01*
X33869238Y1513658D02*
X33916857Y1418420D01*
X33916857Y1418420D02*
X33964476Y1370800D01*
X33964476Y1370800D02*
X34059714Y1323181D01*
X34059714Y1323181D02*
X34250190Y1323181D01*
X34250190Y1323181D02*
X34345428Y1370800D01*
X34345428Y1370800D02*
X34393047Y1418420D01*
X34393047Y1418420D02*
X34440666Y1513658D01*
X34440666Y1513658D02*
X34440666Y1704134D01*
X34440666Y1704134D02*
X34393047Y1799372D01*
X34393047Y1799372D02*
X34345428Y1846991D01*
X34345428Y1846991D02*
X34250190Y1894610D01*
X21695580Y32599334D02*
X21743200Y32551715D01*
X21743200Y32551715D02*
X21790819Y32408858D01*
X21790819Y32408858D02*
X21790819Y32313620D01*
X21790819Y32313620D02*
X21743200Y32170763D01*
X21743200Y32170763D02*
X21647961Y32075525D01*
X21647961Y32075525D02*
X21552723Y32027906D01*
X21552723Y32027906D02*
X21362247Y31980287D01*
X21362247Y31980287D02*
X21219390Y31980287D01*
X21219390Y31980287D02*
X21028914Y32027906D01*
X21028914Y32027906D02*
X20933676Y32075525D01*
X20933676Y32075525D02*
X20838438Y32170763D01*
X20838438Y32170763D02*
X20790819Y32313620D01*
X20790819Y32313620D02*
X20790819Y32408858D01*
X20790819Y32408858D02*
X20838438Y32551715D01*
X20838438Y32551715D02*
X20886057Y32599334D01*
X20790819Y33504096D02*
X20790819Y33027906D01*
X20790819Y33027906D02*
X21267009Y32980287D01*
X21267009Y32980287D02*
X21219390Y33027906D01*
X21219390Y33027906D02*
X21171771Y33123144D01*
X21171771Y33123144D02*
X21171771Y33361239D01*
X21171771Y33361239D02*
X21219390Y33456477D01*
X21219390Y33456477D02*
X21267009Y33504096D01*
X21267009Y33504096D02*
X21362247Y33551715D01*
X21362247Y33551715D02*
X21600342Y33551715D01*
X21600342Y33551715D02*
X21695580Y33504096D01*
X21695580Y33504096D02*
X21743200Y33456477D01*
X21743200Y33456477D02*
X21790819Y33361239D01*
X21790819Y33361239D02*
X21790819Y33123144D01*
X21790819Y33123144D02*
X21743200Y33027906D01*
X21743200Y33027906D02*
X21695580Y32980287D01*
X57269142Y26723181D02*
X56935809Y27199372D01*
X56697714Y26723181D02*
X56697714Y27723181D01*
X56697714Y27723181D02*
X57078666Y27723181D01*
X57078666Y27723181D02*
X57173904Y27675562D01*
X57173904Y27675562D02*
X57221523Y27627943D01*
X57221523Y27627943D02*
X57269142Y27532705D01*
X57269142Y27532705D02*
X57269142Y27389848D01*
X57269142Y27389848D02*
X57221523Y27294610D01*
X57221523Y27294610D02*
X57173904Y27246991D01*
X57173904Y27246991D02*
X57078666Y27199372D01*
X57078666Y27199372D02*
X56697714Y27199372D01*
X58221523Y26723181D02*
X57650095Y26723181D01*
X57935809Y26723181D02*
X57935809Y27723181D01*
X57935809Y27723181D02*
X57840571Y27580324D01*
X57840571Y27580324D02*
X57745333Y27485086D01*
X57745333Y27485086D02*
X57650095Y27437467D01*
X58554857Y27723181D02*
X59221523Y27723181D01*
X59221523Y27723181D02*
X58792952Y26723181D01*
X18742819Y38187334D02*
X18266628Y37854001D01*
X18742819Y37615906D02*
X17742819Y37615906D01*
X17742819Y37615906D02*
X17742819Y37996858D01*
X17742819Y37996858D02*
X17790438Y38092096D01*
X17790438Y38092096D02*
X17838057Y38139715D01*
X17838057Y38139715D02*
X17933295Y38187334D01*
X17933295Y38187334D02*
X18076152Y38187334D01*
X18076152Y38187334D02*
X18171390Y38139715D01*
X18171390Y38139715D02*
X18219009Y38092096D01*
X18219009Y38092096D02*
X18266628Y37996858D01*
X18266628Y37996858D02*
X18266628Y37615906D01*
X17742819Y39092096D02*
X17742819Y38615906D01*
X17742819Y38615906D02*
X18219009Y38568287D01*
X18219009Y38568287D02*
X18171390Y38615906D01*
X18171390Y38615906D02*
X18123771Y38711144D01*
X18123771Y38711144D02*
X18123771Y38949239D01*
X18123771Y38949239D02*
X18171390Y39044477D01*
X18171390Y39044477D02*
X18219009Y39092096D01*
X18219009Y39092096D02*
X18314247Y39139715D01*
X18314247Y39139715D02*
X18552342Y39139715D01*
X18552342Y39139715D02*
X18647580Y39092096D01*
X18647580Y39092096D02*
X18695200Y39044477D01*
X18695200Y39044477D02*
X18742819Y38949239D01*
X18742819Y38949239D02*
X18742819Y38711144D01*
X18742819Y38711144D02*
X18695200Y38615906D01*
X18695200Y38615906D02*
X18647580Y38568287D01*
X71890095Y12991181D02*
X72461523Y12991181D01*
X72175809Y11991181D02*
X72175809Y12991181D01*
X72794857Y11991181D02*
X72794857Y12991181D01*
X72794857Y12991181D02*
X73175809Y12991181D01*
X73175809Y12991181D02*
X73271047Y12943562D01*
X73271047Y12943562D02*
X73318666Y12895943D01*
X73318666Y12895943D02*
X73366285Y12800705D01*
X73366285Y12800705D02*
X73366285Y12657848D01*
X73366285Y12657848D02*
X73318666Y12562610D01*
X73318666Y12562610D02*
X73271047Y12514991D01*
X73271047Y12514991D02*
X73175809Y12467372D01*
X73175809Y12467372D02*
X72794857Y12467372D01*
X74271047Y12991181D02*
X73794857Y12991181D01*
X73794857Y12991181D02*
X73747238Y12514991D01*
X73747238Y12514991D02*
X73794857Y12562610D01*
X73794857Y12562610D02*
X73890095Y12610229D01*
X73890095Y12610229D02*
X74128190Y12610229D01*
X74128190Y12610229D02*
X74223428Y12562610D01*
X74223428Y12562610D02*
X74271047Y12514991D01*
X74271047Y12514991D02*
X74318666Y12419753D01*
X74318666Y12419753D02*
X74318666Y12181658D01*
X74318666Y12181658D02*
X74271047Y12086420D01*
X74271047Y12086420D02*
X74223428Y12038800D01*
X74223428Y12038800D02*
X74128190Y11991181D01*
X74128190Y11991181D02*
X73890095Y11991181D01*
X73890095Y11991181D02*
X73794857Y12038800D01*
X73794857Y12038800D02*
X73747238Y12086420D01*
X18139580Y15359143D02*
X18187200Y15311524D01*
X18187200Y15311524D02*
X18234819Y15168667D01*
X18234819Y15168667D02*
X18234819Y15073429D01*
X18234819Y15073429D02*
X18187200Y14930572D01*
X18187200Y14930572D02*
X18091961Y14835334D01*
X18091961Y14835334D02*
X17996723Y14787715D01*
X17996723Y14787715D02*
X17806247Y14740096D01*
X17806247Y14740096D02*
X17663390Y14740096D01*
X17663390Y14740096D02*
X17472914Y14787715D01*
X17472914Y14787715D02*
X17377676Y14835334D01*
X17377676Y14835334D02*
X17282438Y14930572D01*
X17282438Y14930572D02*
X17234819Y15073429D01*
X17234819Y15073429D02*
X17234819Y15168667D01*
X17234819Y15168667D02*
X17282438Y15311524D01*
X17282438Y15311524D02*
X17330057Y15359143D01*
X18234819Y16311524D02*
X18234819Y15740096D01*
X18234819Y16025810D02*
X17234819Y16025810D01*
X17234819Y16025810D02*
X17377676Y15930572D01*
X17377676Y15930572D02*
X17472914Y15835334D01*
X17472914Y15835334D02*
X17520533Y15740096D01*
X17330057Y16692477D02*
X17282438Y16740096D01*
X17282438Y16740096D02*
X17234819Y16835334D01*
X17234819Y16835334D02*
X17234819Y17073429D01*
X17234819Y17073429D02*
X17282438Y17168667D01*
X17282438Y17168667D02*
X17330057Y17216286D01*
X17330057Y17216286D02*
X17425295Y17263905D01*
X17425295Y17263905D02*
X17520533Y17263905D01*
X17520533Y17263905D02*
X17663390Y17216286D01*
X17663390Y17216286D02*
X18234819Y16644858D01*
X18234819Y16644858D02*
X18234819Y17263905D01*
X66825905Y26723181D02*
X66825905Y27723181D01*
X66825905Y27723181D02*
X67064000Y27723181D01*
X67064000Y27723181D02*
X67206857Y27675562D01*
X67206857Y27675562D02*
X67302095Y27580324D01*
X67302095Y27580324D02*
X67349714Y27485086D01*
X67349714Y27485086D02*
X67397333Y27294610D01*
X67397333Y27294610D02*
X67397333Y27151753D01*
X67397333Y27151753D02*
X67349714Y26961277D01*
X67349714Y26961277D02*
X67302095Y26866039D01*
X67302095Y26866039D02*
X67206857Y26770800D01*
X67206857Y26770800D02*
X67064000Y26723181D01*
X67064000Y26723181D02*
X66825905Y26723181D01*
X68254476Y27389848D02*
X68254476Y26723181D01*
X68016381Y27770800D02*
X67778286Y27056515D01*
X67778286Y27056515D02*
X68397333Y27056515D01*
X27029580Y27265334D02*
X27077200Y27217715D01*
X27077200Y27217715D02*
X27124819Y27074858D01*
X27124819Y27074858D02*
X27124819Y26979620D01*
X27124819Y26979620D02*
X27077200Y26836763D01*
X27077200Y26836763D02*
X26981961Y26741525D01*
X26981961Y26741525D02*
X26886723Y26693906D01*
X26886723Y26693906D02*
X26696247Y26646287D01*
X26696247Y26646287D02*
X26553390Y26646287D01*
X26553390Y26646287D02*
X26362914Y26693906D01*
X26362914Y26693906D02*
X26267676Y26741525D01*
X26267676Y26741525D02*
X26172438Y26836763D01*
X26172438Y26836763D02*
X26124819Y26979620D01*
X26124819Y26979620D02*
X26124819Y27074858D01*
X26124819Y27074858D02*
X26172438Y27217715D01*
X26172438Y27217715D02*
X26220057Y27265334D01*
X26458152Y28122477D02*
X27124819Y28122477D01*
X26077200Y27884382D02*
X26791485Y27646287D01*
X26791485Y27646287D02*
X26791485Y28265334D01*
X15091580Y33869334D02*
X15139200Y33821715D01*
X15139200Y33821715D02*
X15186819Y33678858D01*
X15186819Y33678858D02*
X15186819Y33583620D01*
X15186819Y33583620D02*
X15139200Y33440763D01*
X15139200Y33440763D02*
X15043961Y33345525D01*
X15043961Y33345525D02*
X14948723Y33297906D01*
X14948723Y33297906D02*
X14758247Y33250287D01*
X14758247Y33250287D02*
X14615390Y33250287D01*
X14615390Y33250287D02*
X14424914Y33297906D01*
X14424914Y33297906D02*
X14329676Y33345525D01*
X14329676Y33345525D02*
X14234438Y33440763D01*
X14234438Y33440763D02*
X14186819Y33583620D01*
X14186819Y33583620D02*
X14186819Y33678858D01*
X14186819Y33678858D02*
X14234438Y33821715D01*
X14234438Y33821715D02*
X14282057Y33869334D01*
X14186819Y34202668D02*
X14186819Y34821715D01*
X14186819Y34821715D02*
X14567771Y34488382D01*
X14567771Y34488382D02*
X14567771Y34631239D01*
X14567771Y34631239D02*
X14615390Y34726477D01*
X14615390Y34726477D02*
X14663009Y34774096D01*
X14663009Y34774096D02*
X14758247Y34821715D01*
X14758247Y34821715D02*
X14996342Y34821715D01*
X14996342Y34821715D02*
X15091580Y34774096D01*
X15091580Y34774096D02*
X15139200Y34726477D01*
X15139200Y34726477D02*
X15186819Y34631239D01*
X15186819Y34631239D02*
X15186819Y34345525D01*
X15186819Y34345525D02*
X15139200Y34250287D01*
X15139200Y34250287D02*
X15091580Y34202668D01*
X24743580Y17137143D02*
X24791200Y17089524D01*
X24791200Y17089524D02*
X24838819Y16946667D01*
X24838819Y16946667D02*
X24838819Y16851429D01*
X24838819Y16851429D02*
X24791200Y16708572D01*
X24791200Y16708572D02*
X24695961Y16613334D01*
X24695961Y16613334D02*
X24600723Y16565715D01*
X24600723Y16565715D02*
X24410247Y16518096D01*
X24410247Y16518096D02*
X24267390Y16518096D01*
X24267390Y16518096D02*
X24076914Y16565715D01*
X24076914Y16565715D02*
X23981676Y16613334D01*
X23981676Y16613334D02*
X23886438Y16708572D01*
X23886438Y16708572D02*
X23838819Y16851429D01*
X23838819Y16851429D02*
X23838819Y16946667D01*
X23838819Y16946667D02*
X23886438Y17089524D01*
X23886438Y17089524D02*
X23934057Y17137143D01*
X24838819Y18089524D02*
X24838819Y17518096D01*
X24838819Y17803810D02*
X23838819Y17803810D01*
X23838819Y17803810D02*
X23981676Y17708572D01*
X23981676Y17708572D02*
X24076914Y17613334D01*
X24076914Y17613334D02*
X24124533Y17518096D01*
X24838819Y19041905D02*
X24838819Y18470477D01*
X24838819Y18756191D02*
X23838819Y18756191D01*
X23838819Y18756191D02*
X23981676Y18660953D01*
X23981676Y18660953D02*
X24076914Y18565715D01*
X24076914Y18565715D02*
X24124533Y18470477D01*
X29837142Y12245181D02*
X29503809Y12721372D01*
X29265714Y12245181D02*
X29265714Y13245181D01*
X29265714Y13245181D02*
X29646666Y13245181D01*
X29646666Y13245181D02*
X29741904Y13197562D01*
X29741904Y13197562D02*
X29789523Y13149943D01*
X29789523Y13149943D02*
X29837142Y13054705D01*
X29837142Y13054705D02*
X29837142Y12911848D01*
X29837142Y12911848D02*
X29789523Y12816610D01*
X29789523Y12816610D02*
X29741904Y12768991D01*
X29741904Y12768991D02*
X29646666Y12721372D01*
X29646666Y12721372D02*
X29265714Y12721372D01*
X30789523Y12245181D02*
X30218095Y12245181D01*
X30503809Y12245181D02*
X30503809Y13245181D01*
X30503809Y13245181D02*
X30408571Y13102324D01*
X30408571Y13102324D02*
X30313333Y13007086D01*
X30313333Y13007086D02*
X30218095Y12959467D01*
X31408571Y13245181D02*
X31503809Y13245181D01*
X31503809Y13245181D02*
X31599047Y13197562D01*
X31599047Y13197562D02*
X31646666Y13149943D01*
X31646666Y13149943D02*
X31694285Y13054705D01*
X31694285Y13054705D02*
X31741904Y12864229D01*
X31741904Y12864229D02*
X31741904Y12626134D01*
X31741904Y12626134D02*
X31694285Y12435658D01*
X31694285Y12435658D02*
X31646666Y12340420D01*
X31646666Y12340420D02*
X31599047Y12292800D01*
X31599047Y12292800D02*
X31503809Y12245181D01*
X31503809Y12245181D02*
X31408571Y12245181D01*
X31408571Y12245181D02*
X31313333Y12292800D01*
X31313333Y12292800D02*
X31265714Y12340420D01*
X31265714Y12340420D02*
X31218095Y12435658D01*
X31218095Y12435658D02*
X31170476Y12626134D01*
X31170476Y12626134D02*
X31170476Y12864229D01*
X31170476Y12864229D02*
X31218095Y13054705D01*
X31218095Y13054705D02*
X31265714Y13149943D01*
X31265714Y13149943D02*
X31313333Y13197562D01*
X31313333Y13197562D02*
X31408571Y13245181D01*
X31601580Y26757334D02*
X31649200Y26709715D01*
X31649200Y26709715D02*
X31696819Y26566858D01*
X31696819Y26566858D02*
X31696819Y26471620D01*
X31696819Y26471620D02*
X31649200Y26328763D01*
X31649200Y26328763D02*
X31553961Y26233525D01*
X31553961Y26233525D02*
X31458723Y26185906D01*
X31458723Y26185906D02*
X31268247Y26138287D01*
X31268247Y26138287D02*
X31125390Y26138287D01*
X31125390Y26138287D02*
X30934914Y26185906D01*
X30934914Y26185906D02*
X30839676Y26233525D01*
X30839676Y26233525D02*
X30744438Y26328763D01*
X30744438Y26328763D02*
X30696819Y26471620D01*
X30696819Y26471620D02*
X30696819Y26566858D01*
X30696819Y26566858D02*
X30744438Y26709715D01*
X30744438Y26709715D02*
X30792057Y26757334D01*
X31696819Y27709715D02*
X31696819Y27138287D01*
X31696819Y27424001D02*
X30696819Y27424001D01*
X30696819Y27424001D02*
X30839676Y27328763D01*
X30839676Y27328763D02*
X30934914Y27233525D01*
X30934914Y27233525D02*
X30982533Y27138287D01*
X15186819Y37933334D02*
X14710628Y37600001D01*
X15186819Y37361906D02*
X14186819Y37361906D01*
X14186819Y37361906D02*
X14186819Y37742858D01*
X14186819Y37742858D02*
X14234438Y37838096D01*
X14234438Y37838096D02*
X14282057Y37885715D01*
X14282057Y37885715D02*
X14377295Y37933334D01*
X14377295Y37933334D02*
X14520152Y37933334D01*
X14520152Y37933334D02*
X14615390Y37885715D01*
X14615390Y37885715D02*
X14663009Y37838096D01*
X14663009Y37838096D02*
X14710628Y37742858D01*
X14710628Y37742858D02*
X14710628Y37361906D01*
X14615390Y38504763D02*
X14567771Y38409525D01*
X14567771Y38409525D02*
X14520152Y38361906D01*
X14520152Y38361906D02*
X14424914Y38314287D01*
X14424914Y38314287D02*
X14377295Y38314287D01*
X14377295Y38314287D02*
X14282057Y38361906D01*
X14282057Y38361906D02*
X14234438Y38409525D01*
X14234438Y38409525D02*
X14186819Y38504763D01*
X14186819Y38504763D02*
X14186819Y38695239D01*
X14186819Y38695239D02*
X14234438Y38790477D01*
X14234438Y38790477D02*
X14282057Y38838096D01*
X14282057Y38838096D02*
X14377295Y38885715D01*
X14377295Y38885715D02*
X14424914Y38885715D01*
X14424914Y38885715D02*
X14520152Y38838096D01*
X14520152Y38838096D02*
X14567771Y38790477D01*
X14567771Y38790477D02*
X14615390Y38695239D01*
X14615390Y38695239D02*
X14615390Y38504763D01*
X14615390Y38504763D02*
X14663009Y38409525D01*
X14663009Y38409525D02*
X14710628Y38361906D01*
X14710628Y38361906D02*
X14805866Y38314287D01*
X14805866Y38314287D02*
X14996342Y38314287D01*
X14996342Y38314287D02*
X15091580Y38361906D01*
X15091580Y38361906D02*
X15139200Y38409525D01*
X15139200Y38409525D02*
X15186819Y38504763D01*
X15186819Y38504763D02*
X15186819Y38695239D01*
X15186819Y38695239D02*
X15139200Y38790477D01*
X15139200Y38790477D02*
X15091580Y38838096D01*
X15091580Y38838096D02*
X14996342Y38885715D01*
X14996342Y38885715D02*
X14805866Y38885715D01*
X14805866Y38885715D02*
X14710628Y38838096D01*
X14710628Y38838096D02*
X14663009Y38790477D01*
X14663009Y38790477D02*
X14615390Y38695239D01*
X43442095Y11467181D02*
X44013523Y11467181D01*
X43727809Y10467181D02*
X43727809Y11467181D01*
X44346857Y10467181D02*
X44346857Y11467181D01*
X44346857Y11467181D02*
X44727809Y11467181D01*
X44727809Y11467181D02*
X44823047Y11419562D01*
X44823047Y11419562D02*
X44870666Y11371943D01*
X44870666Y11371943D02*
X44918285Y11276705D01*
X44918285Y11276705D02*
X44918285Y11133848D01*
X44918285Y11133848D02*
X44870666Y11038610D01*
X44870666Y11038610D02*
X44823047Y10990991D01*
X44823047Y10990991D02*
X44727809Y10943372D01*
X44727809Y10943372D02*
X44346857Y10943372D01*
X45299238Y11371943D02*
X45346857Y11419562D01*
X45346857Y11419562D02*
X45442095Y11467181D01*
X45442095Y11467181D02*
X45680190Y11467181D01*
X45680190Y11467181D02*
X45775428Y11419562D01*
X45775428Y11419562D02*
X45823047Y11371943D01*
X45823047Y11371943D02*
X45870666Y11276705D01*
X45870666Y11276705D02*
X45870666Y11181467D01*
X45870666Y11181467D02*
X45823047Y11038610D01*
X45823047Y11038610D02*
X45251619Y10467181D01*
X45251619Y10467181D02*
X45870666Y10467181D01*
X46048819Y23455334D02*
X45572628Y23122001D01*
X46048819Y22883906D02*
X45048819Y22883906D01*
X45048819Y22883906D02*
X45048819Y23264858D01*
X45048819Y23264858D02*
X45096438Y23360096D01*
X45096438Y23360096D02*
X45144057Y23407715D01*
X45144057Y23407715D02*
X45239295Y23455334D01*
X45239295Y23455334D02*
X45382152Y23455334D01*
X45382152Y23455334D02*
X45477390Y23407715D01*
X45477390Y23407715D02*
X45525009Y23360096D01*
X45525009Y23360096D02*
X45572628Y23264858D01*
X45572628Y23264858D02*
X45572628Y22883906D01*
X46048819Y24407715D02*
X46048819Y23836287D01*
X46048819Y24122001D02*
X45048819Y24122001D01*
X45048819Y24122001D02*
X45191676Y24026763D01*
X45191676Y24026763D02*
X45286914Y23931525D01*
X45286914Y23931525D02*
X45334533Y23836287D01*
X12297580Y17137143D02*
X12345200Y17089524D01*
X12345200Y17089524D02*
X12392819Y16946667D01*
X12392819Y16946667D02*
X12392819Y16851429D01*
X12392819Y16851429D02*
X12345200Y16708572D01*
X12345200Y16708572D02*
X12249961Y16613334D01*
X12249961Y16613334D02*
X12154723Y16565715D01*
X12154723Y16565715D02*
X11964247Y16518096D01*
X11964247Y16518096D02*
X11821390Y16518096D01*
X11821390Y16518096D02*
X11630914Y16565715D01*
X11630914Y16565715D02*
X11535676Y16613334D01*
X11535676Y16613334D02*
X11440438Y16708572D01*
X11440438Y16708572D02*
X11392819Y16851429D01*
X11392819Y16851429D02*
X11392819Y16946667D01*
X11392819Y16946667D02*
X11440438Y17089524D01*
X11440438Y17089524D02*
X11488057Y17137143D01*
X12392819Y18089524D02*
X12392819Y17518096D01*
X12392819Y17803810D02*
X11392819Y17803810D01*
X11392819Y17803810D02*
X11535676Y17708572D01*
X11535676Y17708572D02*
X11630914Y17613334D01*
X11630914Y17613334D02*
X11678533Y17518096D01*
X11392819Y18708572D02*
X11392819Y18803810D01*
X11392819Y18803810D02*
X11440438Y18899048D01*
X11440438Y18899048D02*
X11488057Y18946667D01*
X11488057Y18946667D02*
X11583295Y18994286D01*
X11583295Y18994286D02*
X11773771Y19041905D01*
X11773771Y19041905D02*
X12011866Y19041905D01*
X12011866Y19041905D02*
X12202342Y18994286D01*
X12202342Y18994286D02*
X12297580Y18946667D01*
X12297580Y18946667D02*
X12345200Y18899048D01*
X12345200Y18899048D02*
X12392819Y18803810D01*
X12392819Y18803810D02*
X12392819Y18708572D01*
X12392819Y18708572D02*
X12345200Y18613334D01*
X12345200Y18613334D02*
X12297580Y18565715D01*
X12297580Y18565715D02*
X12202342Y18518096D01*
X12202342Y18518096D02*
X12011866Y18470477D01*
X12011866Y18470477D02*
X11773771Y18470477D01*
X11773771Y18470477D02*
X11583295Y18518096D01*
X11583295Y18518096D02*
X11488057Y18565715D01*
X11488057Y18565715D02*
X11440438Y18613334D01*
X11440438Y18613334D02*
X11392819Y18708572D01*
X9009142Y6149181D02*
X8675809Y6625372D01*
X8437714Y6149181D02*
X8437714Y7149181D01*
X8437714Y7149181D02*
X8818666Y7149181D01*
X8818666Y7149181D02*
X8913904Y7101562D01*
X8913904Y7101562D02*
X8961523Y7053943D01*
X8961523Y7053943D02*
X9009142Y6958705D01*
X9009142Y6958705D02*
X9009142Y6815848D01*
X9009142Y6815848D02*
X8961523Y6720610D01*
X8961523Y6720610D02*
X8913904Y6672991D01*
X8913904Y6672991D02*
X8818666Y6625372D01*
X8818666Y6625372D02*
X8437714Y6625372D01*
X9961523Y6149181D02*
X9390095Y6149181D01*
X9675809Y6149181D02*
X9675809Y7149181D01*
X9675809Y7149181D02*
X9580571Y7006324D01*
X9580571Y7006324D02*
X9485333Y6911086D01*
X9485333Y6911086D02*
X9390095Y6863467D01*
X10866285Y7149181D02*
X10390095Y7149181D01*
X10390095Y7149181D02*
X10342476Y6672991D01*
X10342476Y6672991D02*
X10390095Y6720610D01*
X10390095Y6720610D02*
X10485333Y6768229D01*
X10485333Y6768229D02*
X10723428Y6768229D01*
X10723428Y6768229D02*
X10818666Y6720610D01*
X10818666Y6720610D02*
X10866285Y6672991D01*
X10866285Y6672991D02*
X10913904Y6577753D01*
X10913904Y6577753D02*
X10913904Y6339658D01*
X10913904Y6339658D02*
X10866285Y6244420D01*
X10866285Y6244420D02*
X10818666Y6196800D01*
X10818666Y6196800D02*
X10723428Y6149181D01*
X10723428Y6149181D02*
X10485333Y6149181D01*
X10485333Y6149181D02*
X10390095Y6196800D01*
X10390095Y6196800D02*
X10342476Y6244420D01*
X20407333Y34184420D02*
X20359714Y34136800D01*
X20359714Y34136800D02*
X20216857Y34089181D01*
X20216857Y34089181D02*
X20121619Y34089181D01*
X20121619Y34089181D02*
X19978762Y34136800D01*
X19978762Y34136800D02*
X19883524Y34232039D01*
X19883524Y34232039D02*
X19835905Y34327277D01*
X19835905Y34327277D02*
X19788286Y34517753D01*
X19788286Y34517753D02*
X19788286Y34660610D01*
X19788286Y34660610D02*
X19835905Y34851086D01*
X19835905Y34851086D02*
X19883524Y34946324D01*
X19883524Y34946324D02*
X19978762Y35041562D01*
X19978762Y35041562D02*
X20121619Y35089181D01*
X20121619Y35089181D02*
X20216857Y35089181D01*
X20216857Y35089181D02*
X20359714Y35041562D01*
X20359714Y35041562D02*
X20407333Y34993943D01*
X20740667Y35089181D02*
X21407333Y35089181D01*
X21407333Y35089181D02*
X20978762Y34089181D01*
X53048819Y14224096D02*
X53858342Y14224096D01*
X53858342Y14224096D02*
X53953580Y14271715D01*
X53953580Y14271715D02*
X54001200Y14319334D01*
X54001200Y14319334D02*
X54048819Y14414572D01*
X54048819Y14414572D02*
X54048819Y14605048D01*
X54048819Y14605048D02*
X54001200Y14700286D01*
X54001200Y14700286D02*
X53953580Y14747905D01*
X53953580Y14747905D02*
X53858342Y14795524D01*
X53858342Y14795524D02*
X53048819Y14795524D01*
X53382152Y15700286D02*
X54048819Y15700286D01*
X53001200Y15462191D02*
X53715485Y15224096D01*
X53715485Y15224096D02*
X53715485Y15843143D01*
X7993142Y12245181D02*
X7659809Y12721372D01*
X7421714Y12245181D02*
X7421714Y13245181D01*
X7421714Y13245181D02*
X7802666Y13245181D01*
X7802666Y13245181D02*
X7897904Y13197562D01*
X7897904Y13197562D02*
X7945523Y13149943D01*
X7945523Y13149943D02*
X7993142Y13054705D01*
X7993142Y13054705D02*
X7993142Y12911848D01*
X7993142Y12911848D02*
X7945523Y12816610D01*
X7945523Y12816610D02*
X7897904Y12768991D01*
X7897904Y12768991D02*
X7802666Y12721372D01*
X7802666Y12721372D02*
X7421714Y12721372D01*
X8945523Y12245181D02*
X8374095Y12245181D01*
X8659809Y12245181D02*
X8659809Y13245181D01*
X8659809Y13245181D02*
X8564571Y13102324D01*
X8564571Y13102324D02*
X8469333Y13007086D01*
X8469333Y13007086D02*
X8374095Y12959467D01*
X9278857Y13245181D02*
X9897904Y13245181D01*
X9897904Y13245181D02*
X9564571Y12864229D01*
X9564571Y12864229D02*
X9707428Y12864229D01*
X9707428Y12864229D02*
X9802666Y12816610D01*
X9802666Y12816610D02*
X9850285Y12768991D01*
X9850285Y12768991D02*
X9897904Y12673753D01*
X9897904Y12673753D02*
X9897904Y12435658D01*
X9897904Y12435658D02*
X9850285Y12340420D01*
X9850285Y12340420D02*
X9802666Y12292800D01*
X9802666Y12292800D02*
X9707428Y12245181D01*
X9707428Y12245181D02*
X9421714Y12245181D01*
X9421714Y12245181D02*
X9326476Y12292800D01*
X9326476Y12292800D02*
X9278857Y12340420D01*
X27632819Y36663334D02*
X27156628Y36330001D01*
X27632819Y36091906D02*
X26632819Y36091906D01*
X26632819Y36091906D02*
X26632819Y36472858D01*
X26632819Y36472858D02*
X26680438Y36568096D01*
X26680438Y36568096D02*
X26728057Y36615715D01*
X26728057Y36615715D02*
X26823295Y36663334D01*
X26823295Y36663334D02*
X26966152Y36663334D01*
X26966152Y36663334D02*
X27061390Y36615715D01*
X27061390Y36615715D02*
X27109009Y36568096D01*
X27109009Y36568096D02*
X27156628Y36472858D01*
X27156628Y36472858D02*
X27156628Y36091906D01*
X26632819Y37520477D02*
X26632819Y37330001D01*
X26632819Y37330001D02*
X26680438Y37234763D01*
X26680438Y37234763D02*
X26728057Y37187144D01*
X26728057Y37187144D02*
X26870914Y37091906D01*
X26870914Y37091906D02*
X27061390Y37044287D01*
X27061390Y37044287D02*
X27442342Y37044287D01*
X27442342Y37044287D02*
X27537580Y37091906D01*
X27537580Y37091906D02*
X27585200Y37139525D01*
X27585200Y37139525D02*
X27632819Y37234763D01*
X27632819Y37234763D02*
X27632819Y37425239D01*
X27632819Y37425239D02*
X27585200Y37520477D01*
X27585200Y37520477D02*
X27537580Y37568096D01*
X27537580Y37568096D02*
X27442342Y37615715D01*
X27442342Y37615715D02*
X27204247Y37615715D01*
X27204247Y37615715D02*
X27109009Y37568096D01*
X27109009Y37568096D02*
X27061390Y37520477D01*
X27061390Y37520477D02*
X27013771Y37425239D01*
X27013771Y37425239D02*
X27013771Y37234763D01*
X27013771Y37234763D02*
X27061390Y37139525D01*
X27061390Y37139525D02*
X27109009Y37091906D01*
X27109009Y37091906D02*
X27204247Y37044287D01*
X53602095Y11467181D02*
X54173523Y11467181D01*
X53887809Y10467181D02*
X53887809Y11467181D01*
X54506857Y10467181D02*
X54506857Y11467181D01*
X54506857Y11467181D02*
X54887809Y11467181D01*
X54887809Y11467181D02*
X54983047Y11419562D01*
X54983047Y11419562D02*
X55030666Y11371943D01*
X55030666Y11371943D02*
X55078285Y11276705D01*
X55078285Y11276705D02*
X55078285Y11133848D01*
X55078285Y11133848D02*
X55030666Y11038610D01*
X55030666Y11038610D02*
X54983047Y10990991D01*
X54983047Y10990991D02*
X54887809Y10943372D01*
X54887809Y10943372D02*
X54506857Y10943372D01*
X55411619Y11467181D02*
X56030666Y11467181D01*
X56030666Y11467181D02*
X55697333Y11086229D01*
X55697333Y11086229D02*
X55840190Y11086229D01*
X55840190Y11086229D02*
X55935428Y11038610D01*
X55935428Y11038610D02*
X55983047Y10990991D01*
X55983047Y10990991D02*
X56030666Y10895753D01*
X56030666Y10895753D02*
X56030666Y10657658D01*
X56030666Y10657658D02*
X55983047Y10562420D01*
X55983047Y10562420D02*
X55935428Y10514800D01*
X55935428Y10514800D02*
X55840190Y10467181D01*
X55840190Y10467181D02*
X55554476Y10467181D01*
X55554476Y10467181D02*
X55459238Y10514800D01*
X55459238Y10514800D02*
X55411619Y10562420D01*
X32012095Y11213181D02*
X32583523Y11213181D01*
X32297809Y10213181D02*
X32297809Y11213181D01*
X32916857Y10213181D02*
X32916857Y11213181D01*
X32916857Y11213181D02*
X33297809Y11213181D01*
X33297809Y11213181D02*
X33393047Y11165562D01*
X33393047Y11165562D02*
X33440666Y11117943D01*
X33440666Y11117943D02*
X33488285Y11022705D01*
X33488285Y11022705D02*
X33488285Y10879848D01*
X33488285Y10879848D02*
X33440666Y10784610D01*
X33440666Y10784610D02*
X33393047Y10736991D01*
X33393047Y10736991D02*
X33297809Y10689372D01*
X33297809Y10689372D02*
X32916857Y10689372D01*
X33964476Y10213181D02*
X34154952Y10213181D01*
X34154952Y10213181D02*
X34250190Y10260800D01*
X34250190Y10260800D02*
X34297809Y10308420D01*
X34297809Y10308420D02*
X34393047Y10451277D01*
X34393047Y10451277D02*
X34440666Y10641753D01*
X34440666Y10641753D02*
X34440666Y11022705D01*
X34440666Y11022705D02*
X34393047Y11117943D01*
X34393047Y11117943D02*
X34345428Y11165562D01*
X34345428Y11165562D02*
X34250190Y11213181D01*
X34250190Y11213181D02*
X34059714Y11213181D01*
X34059714Y11213181D02*
X33964476Y11165562D01*
X33964476Y11165562D02*
X33916857Y11117943D01*
X33916857Y11117943D02*
X33869238Y11022705D01*
X33869238Y11022705D02*
X33869238Y10784610D01*
X33869238Y10784610D02*
X33916857Y10689372D01*
X33916857Y10689372D02*
X33964476Y10641753D01*
X33964476Y10641753D02*
X34059714Y10594134D01*
X34059714Y10594134D02*
X34250190Y10594134D01*
X34250190Y10594134D02*
X34345428Y10641753D01*
X34345428Y10641753D02*
X34393047Y10689372D01*
X34393047Y10689372D02*
X34440666Y10784610D01*
X8405905Y8943181D02*
X8405905Y9943181D01*
X8405905Y9943181D02*
X8644000Y9943181D01*
X8644000Y9943181D02*
X8786857Y9895562D01*
X8786857Y9895562D02*
X8882095Y9800324D01*
X8882095Y9800324D02*
X8929714Y9705086D01*
X8929714Y9705086D02*
X8977333Y9514610D01*
X8977333Y9514610D02*
X8977333Y9371753D01*
X8977333Y9371753D02*
X8929714Y9181277D01*
X8929714Y9181277D02*
X8882095Y9086039D01*
X8882095Y9086039D02*
X8786857Y8990800D01*
X8786857Y8990800D02*
X8644000Y8943181D01*
X8644000Y8943181D02*
X8405905Y8943181D01*
X9358286Y9847943D02*
X9405905Y9895562D01*
X9405905Y9895562D02*
X9501143Y9943181D01*
X9501143Y9943181D02*
X9739238Y9943181D01*
X9739238Y9943181D02*
X9834476Y9895562D01*
X9834476Y9895562D02*
X9882095Y9847943D01*
X9882095Y9847943D02*
X9929714Y9752705D01*
X9929714Y9752705D02*
X9929714Y9657467D01*
X9929714Y9657467D02*
X9882095Y9514610D01*
X9882095Y9514610D02*
X9310667Y8943181D01*
X9310667Y8943181D02*
X9929714Y8943181D01*
X50125333Y25833181D02*
X49792000Y26309372D01*
X49553905Y25833181D02*
X49553905Y26833181D01*
X49553905Y26833181D02*
X49934857Y26833181D01*
X49934857Y26833181D02*
X50030095Y26785562D01*
X50030095Y26785562D02*
X50077714Y26737943D01*
X50077714Y26737943D02*
X50125333Y26642705D01*
X50125333Y26642705D02*
X50125333Y26499848D01*
X50125333Y26499848D02*
X50077714Y26404610D01*
X50077714Y26404610D02*
X50030095Y26356991D01*
X50030095Y26356991D02*
X49934857Y26309372D01*
X49934857Y26309372D02*
X49553905Y26309372D01*
X50506286Y26737943D02*
X50553905Y26785562D01*
X50553905Y26785562D02*
X50649143Y26833181D01*
X50649143Y26833181D02*
X50887238Y26833181D01*
X50887238Y26833181D02*
X50982476Y26785562D01*
X50982476Y26785562D02*
X51030095Y26737943D01*
X51030095Y26737943D02*
X51077714Y26642705D01*
X51077714Y26642705D02*
X51077714Y26547467D01*
X51077714Y26547467D02*
X51030095Y26404610D01*
X51030095Y26404610D02*
X50458667Y25833181D01*
X50458667Y25833181D02*
X51077714Y25833181D01*
X26439905Y8943181D02*
X26439905Y9943181D01*
X26439905Y9943181D02*
X26678000Y9943181D01*
X26678000Y9943181D02*
X26820857Y9895562D01*
X26820857Y9895562D02*
X26916095Y9800324D01*
X26916095Y9800324D02*
X26963714Y9705086D01*
X26963714Y9705086D02*
X27011333Y9514610D01*
X27011333Y9514610D02*
X27011333Y9371753D01*
X27011333Y9371753D02*
X26963714Y9181277D01*
X26963714Y9181277D02*
X26916095Y9086039D01*
X26916095Y9086039D02*
X26820857Y8990800D01*
X26820857Y8990800D02*
X26678000Y8943181D01*
X26678000Y8943181D02*
X26439905Y8943181D01*
X27963714Y8943181D02*
X27392286Y8943181D01*
X27678000Y8943181D02*
X27678000Y9943181D01*
X27678000Y9943181D02*
X27582762Y9800324D01*
X27582762Y9800324D02*
X27487524Y9705086D01*
X27487524Y9705086D02*
X27392286Y9657467D01*
X51159580Y17137143D02*
X51207200Y17089524D01*
X51207200Y17089524D02*
X51254819Y16946667D01*
X51254819Y16946667D02*
X51254819Y16851429D01*
X51254819Y16851429D02*
X51207200Y16708572D01*
X51207200Y16708572D02*
X51111961Y16613334D01*
X51111961Y16613334D02*
X51016723Y16565715D01*
X51016723Y16565715D02*
X50826247Y16518096D01*
X50826247Y16518096D02*
X50683390Y16518096D01*
X50683390Y16518096D02*
X50492914Y16565715D01*
X50492914Y16565715D02*
X50397676Y16613334D01*
X50397676Y16613334D02*
X50302438Y16708572D01*
X50302438Y16708572D02*
X50254819Y16851429D01*
X50254819Y16851429D02*
X50254819Y16946667D01*
X50254819Y16946667D02*
X50302438Y17089524D01*
X50302438Y17089524D02*
X50350057Y17137143D01*
X51254819Y18089524D02*
X51254819Y17518096D01*
X51254819Y17803810D02*
X50254819Y17803810D01*
X50254819Y17803810D02*
X50397676Y17708572D01*
X50397676Y17708572D02*
X50492914Y17613334D01*
X50492914Y17613334D02*
X50540533Y17518096D01*
X50254819Y18422858D02*
X50254819Y19041905D01*
X50254819Y19041905D02*
X50635771Y18708572D01*
X50635771Y18708572D02*
X50635771Y18851429D01*
X50635771Y18851429D02*
X50683390Y18946667D01*
X50683390Y18946667D02*
X50731009Y18994286D01*
X50731009Y18994286D02*
X50826247Y19041905D01*
X50826247Y19041905D02*
X51064342Y19041905D01*
X51064342Y19041905D02*
X51159580Y18994286D01*
X51159580Y18994286D02*
X51207200Y18946667D01*
X51207200Y18946667D02*
X51254819Y18851429D01*
X51254819Y18851429D02*
X51254819Y18565715D01*
X51254819Y18565715D02*
X51207200Y18470477D01*
X51207200Y18470477D02*
X51159580Y18422858D01*
X25346819Y38187334D02*
X24870628Y37854001D01*
X25346819Y37615906D02*
X24346819Y37615906D01*
X24346819Y37615906D02*
X24346819Y37996858D01*
X24346819Y37996858D02*
X24394438Y38092096D01*
X24394438Y38092096D02*
X24442057Y38139715D01*
X24442057Y38139715D02*
X24537295Y38187334D01*
X24537295Y38187334D02*
X24680152Y38187334D01*
X24680152Y38187334D02*
X24775390Y38139715D01*
X24775390Y38139715D02*
X24823009Y38092096D01*
X24823009Y38092096D02*
X24870628Y37996858D01*
X24870628Y37996858D02*
X24870628Y37615906D01*
X24346819Y38520668D02*
X24346819Y39187334D01*
X24346819Y39187334D02*
X25346819Y38758763D01*
X20153333Y35708420D02*
X20105714Y35660800D01*
X20105714Y35660800D02*
X19962857Y35613181D01*
X19962857Y35613181D02*
X19867619Y35613181D01*
X19867619Y35613181D02*
X19724762Y35660800D01*
X19724762Y35660800D02*
X19629524Y35756039D01*
X19629524Y35756039D02*
X19581905Y35851277D01*
X19581905Y35851277D02*
X19534286Y36041753D01*
X19534286Y36041753D02*
X19534286Y36184610D01*
X19534286Y36184610D02*
X19581905Y36375086D01*
X19581905Y36375086D02*
X19629524Y36470324D01*
X19629524Y36470324D02*
X19724762Y36565562D01*
X19724762Y36565562D02*
X19867619Y36613181D01*
X19867619Y36613181D02*
X19962857Y36613181D01*
X19962857Y36613181D02*
X20105714Y36565562D01*
X20105714Y36565562D02*
X20153333Y36517943D01*
X21010476Y36613181D02*
X20820000Y36613181D01*
X20820000Y36613181D02*
X20724762Y36565562D01*
X20724762Y36565562D02*
X20677143Y36517943D01*
X20677143Y36517943D02*
X20581905Y36375086D01*
X20581905Y36375086D02*
X20534286Y36184610D01*
X20534286Y36184610D02*
X20534286Y35803658D01*
X20534286Y35803658D02*
X20581905Y35708420D01*
X20581905Y35708420D02*
X20629524Y35660800D01*
X20629524Y35660800D02*
X20724762Y35613181D01*
X20724762Y35613181D02*
X20915238Y35613181D01*
X20915238Y35613181D02*
X21010476Y35660800D01*
X21010476Y35660800D02*
X21058095Y35708420D01*
X21058095Y35708420D02*
X21105714Y35803658D01*
X21105714Y35803658D02*
X21105714Y36041753D01*
X21105714Y36041753D02*
X21058095Y36136991D01*
X21058095Y36136991D02*
X21010476Y36184610D01*
X21010476Y36184610D02*
X20915238Y36232229D01*
X20915238Y36232229D02*
X20724762Y36232229D01*
X20724762Y36232229D02*
X20629524Y36184610D01*
X20629524Y36184610D02*
X20581905Y36136991D01*
X20581905Y36136991D02*
X20534286Y36041753D01*
X23838819Y25146096D02*
X24648342Y25146096D01*
X24648342Y25146096D02*
X24743580Y25193715D01*
X24743580Y25193715D02*
X24791200Y25241334D01*
X24791200Y25241334D02*
X24838819Y25336572D01*
X24838819Y25336572D02*
X24838819Y25527048D01*
X24838819Y25527048D02*
X24791200Y25622286D01*
X24791200Y25622286D02*
X24743580Y25669905D01*
X24743580Y25669905D02*
X24648342Y25717524D01*
X24648342Y25717524D02*
X23838819Y25717524D01*
X23838819Y26098477D02*
X23838819Y26717524D01*
X23838819Y26717524D02*
X24219771Y26384191D01*
X24219771Y26384191D02*
X24219771Y26527048D01*
X24219771Y26527048D02*
X24267390Y26622286D01*
X24267390Y26622286D02*
X24315009Y26669905D01*
X24315009Y26669905D02*
X24410247Y26717524D01*
X24410247Y26717524D02*
X24648342Y26717524D01*
X24648342Y26717524D02*
X24743580Y26669905D01*
X24743580Y26669905D02*
X24791200Y26622286D01*
X24791200Y26622286D02*
X24838819Y26527048D01*
X24838819Y26527048D02*
X24838819Y26241334D01*
X24838819Y26241334D02*
X24791200Y26146096D01*
X24791200Y26146096D02*
X24743580Y26098477D01*
X71928571Y3518991D02*
X71595238Y3518991D01*
X71595238Y2995181D02*
X71595238Y3995181D01*
X71595238Y3995181D02*
X72071428Y3995181D01*
X72452381Y2995181D02*
X72452381Y3995181D01*
X72928571Y2995181D02*
X72928571Y3995181D01*
X72928571Y3995181D02*
X73166666Y3995181D01*
X73166666Y3995181D02*
X73309523Y3947562D01*
X73309523Y3947562D02*
X73404761Y3852324D01*
X73404761Y3852324D02*
X73452380Y3757086D01*
X73452380Y3757086D02*
X73499999Y3566610D01*
X73499999Y3566610D02*
X73499999Y3423753D01*
X73499999Y3423753D02*
X73452380Y3233277D01*
X73452380Y3233277D02*
X73404761Y3138039D01*
X73404761Y3138039D02*
X73309523Y3042800D01*
X73309523Y3042800D02*
X73166666Y2995181D01*
X73166666Y2995181D02*
X72928571Y2995181D01*
X73880952Y3899943D02*
X73928571Y3947562D01*
X73928571Y3947562D02*
X74023809Y3995181D01*
X74023809Y3995181D02*
X74261904Y3995181D01*
X74261904Y3995181D02*
X74357142Y3947562D01*
X74357142Y3947562D02*
X74404761Y3899943D01*
X74404761Y3899943D02*
X74452380Y3804705D01*
X74452380Y3804705D02*
X74452380Y3709467D01*
X74452380Y3709467D02*
X74404761Y3566610D01*
X74404761Y3566610D02*
X73833333Y2995181D01*
X73833333Y2995181D02*
X74452380Y2995181D01*
X5119905Y2323181D02*
X5691333Y2323181D01*
X5405619Y1323181D02*
X5405619Y2323181D01*
X6024667Y1323181D02*
X6024667Y2323181D01*
X6024667Y2323181D02*
X6405619Y2323181D01*
X6405619Y2323181D02*
X6500857Y2275562D01*
X6500857Y2275562D02*
X6548476Y2227943D01*
X6548476Y2227943D02*
X6596095Y2132705D01*
X6596095Y2132705D02*
X6596095Y1989848D01*
X6596095Y1989848D02*
X6548476Y1894610D01*
X6548476Y1894610D02*
X6500857Y1846991D01*
X6500857Y1846991D02*
X6405619Y1799372D01*
X6405619Y1799372D02*
X6024667Y1799372D01*
X7548476Y1323181D02*
X6977048Y1323181D01*
X7262762Y1323181D02*
X7262762Y2323181D01*
X7262762Y2323181D02*
X7167524Y2180324D01*
X7167524Y2180324D02*
X7072286Y2085086D01*
X7072286Y2085086D02*
X6977048Y2037467D01*
X7929429Y2227943D02*
X7977048Y2275562D01*
X7977048Y2275562D02*
X8072286Y2323181D01*
X8072286Y2323181D02*
X8310381Y2323181D01*
X8310381Y2323181D02*
X8405619Y2275562D01*
X8405619Y2275562D02*
X8453238Y2227943D01*
X8453238Y2227943D02*
X8500857Y2132705D01*
X8500857Y2132705D02*
X8500857Y2037467D01*
X8500857Y2037467D02*
X8453238Y1894610D01*
X8453238Y1894610D02*
X7881810Y1323181D01*
X7881810Y1323181D02*
X8500857Y1323181D01*
X11009333Y26310420D02*
X10961714Y26262800D01*
X10961714Y26262800D02*
X10818857Y26215181D01*
X10818857Y26215181D02*
X10723619Y26215181D01*
X10723619Y26215181D02*
X10580762Y26262800D01*
X10580762Y26262800D02*
X10485524Y26358039D01*
X10485524Y26358039D02*
X10437905Y26453277D01*
X10437905Y26453277D02*
X10390286Y26643753D01*
X10390286Y26643753D02*
X10390286Y26786610D01*
X10390286Y26786610D02*
X10437905Y26977086D01*
X10437905Y26977086D02*
X10485524Y27072324D01*
X10485524Y27072324D02*
X10580762Y27167562D01*
X10580762Y27167562D02*
X10723619Y27215181D01*
X10723619Y27215181D02*
X10818857Y27215181D01*
X10818857Y27215181D02*
X10961714Y27167562D01*
X10961714Y27167562D02*
X11009333Y27119943D01*
X11580762Y26786610D02*
X11485524Y26834229D01*
X11485524Y26834229D02*
X11437905Y26881848D01*
X11437905Y26881848D02*
X11390286Y26977086D01*
X11390286Y26977086D02*
X11390286Y27024705D01*
X11390286Y27024705D02*
X11437905Y27119943D01*
X11437905Y27119943D02*
X11485524Y27167562D01*
X11485524Y27167562D02*
X11580762Y27215181D01*
X11580762Y27215181D02*
X11771238Y27215181D01*
X11771238Y27215181D02*
X11866476Y27167562D01*
X11866476Y27167562D02*
X11914095Y27119943D01*
X11914095Y27119943D02*
X11961714Y27024705D01*
X11961714Y27024705D02*
X11961714Y26977086D01*
X11961714Y26977086D02*
X11914095Y26881848D01*
X11914095Y26881848D02*
X11866476Y26834229D01*
X11866476Y26834229D02*
X11771238Y26786610D01*
X11771238Y26786610D02*
X11580762Y26786610D01*
X11580762Y26786610D02*
X11485524Y26738991D01*
X11485524Y26738991D02*
X11437905Y26691372D01*
X11437905Y26691372D02*
X11390286Y26596134D01*
X11390286Y26596134D02*
X11390286Y26405658D01*
X11390286Y26405658D02*
X11437905Y26310420D01*
X11437905Y26310420D02*
X11485524Y26262800D01*
X11485524Y26262800D02*
X11580762Y26215181D01*
X11580762Y26215181D02*
X11771238Y26215181D01*
X11771238Y26215181D02*
X11866476Y26262800D01*
X11866476Y26262800D02*
X11914095Y26310420D01*
X11914095Y26310420D02*
X11961714Y26405658D01*
X11961714Y26405658D02*
X11961714Y26596134D01*
X11961714Y26596134D02*
X11914095Y26691372D01*
X11914095Y26691372D02*
X11866476Y26738991D01*
X11866476Y26738991D02*
X11771238Y26786610D01*
X57269142Y29263181D02*
X56935809Y29739372D01*
X56697714Y29263181D02*
X56697714Y30263181D01*
X56697714Y30263181D02*
X57078666Y30263181D01*
X57078666Y30263181D02*
X57173904Y30215562D01*
X57173904Y30215562D02*
X57221523Y30167943D01*
X57221523Y30167943D02*
X57269142Y30072705D01*
X57269142Y30072705D02*
X57269142Y29929848D01*
X57269142Y29929848D02*
X57221523Y29834610D01*
X57221523Y29834610D02*
X57173904Y29786991D01*
X57173904Y29786991D02*
X57078666Y29739372D01*
X57078666Y29739372D02*
X56697714Y29739372D01*
X58221523Y29263181D02*
X57650095Y29263181D01*
X57935809Y29263181D02*
X57935809Y30263181D01*
X57935809Y30263181D02*
X57840571Y30120324D01*
X57840571Y30120324D02*
X57745333Y30025086D01*
X57745333Y30025086D02*
X57650095Y29977467D01*
X59078666Y30263181D02*
X58888190Y30263181D01*
X58888190Y30263181D02*
X58792952Y30215562D01*
X58792952Y30215562D02*
X58745333Y30167943D01*
X58745333Y30167943D02*
X58650095Y30025086D01*
X58650095Y30025086D02*
X58602476Y29834610D01*
X58602476Y29834610D02*
X58602476Y29453658D01*
X58602476Y29453658D02*
X58650095Y29358420D01*
X58650095Y29358420D02*
X58697714Y29310800D01*
X58697714Y29310800D02*
X58792952Y29263181D01*
X58792952Y29263181D02*
X58983428Y29263181D01*
X58983428Y29263181D02*
X59078666Y29310800D01*
X59078666Y29310800D02*
X59126285Y29358420D01*
X59126285Y29358420D02*
X59173904Y29453658D01*
X59173904Y29453658D02*
X59173904Y29691753D01*
X59173904Y29691753D02*
X59126285Y29786991D01*
X59126285Y29786991D02*
X59078666Y29834610D01*
X59078666Y29834610D02*
X58983428Y29882229D01*
X58983428Y29882229D02*
X58792952Y29882229D01*
X58792952Y29882229D02*
X58697714Y29834610D01*
X58697714Y29834610D02*
X58650095Y29786991D01*
X58650095Y29786991D02*
X58602476Y29691753D01*
X26789142Y12245181D02*
X26455809Y12721372D01*
X26217714Y12245181D02*
X26217714Y13245181D01*
X26217714Y13245181D02*
X26598666Y13245181D01*
X26598666Y13245181D02*
X26693904Y13197562D01*
X26693904Y13197562D02*
X26741523Y13149943D01*
X26741523Y13149943D02*
X26789142Y13054705D01*
X26789142Y13054705D02*
X26789142Y12911848D01*
X26789142Y12911848D02*
X26741523Y12816610D01*
X26741523Y12816610D02*
X26693904Y12768991D01*
X26693904Y12768991D02*
X26598666Y12721372D01*
X26598666Y12721372D02*
X26217714Y12721372D01*
X27741523Y12245181D02*
X27170095Y12245181D01*
X27455809Y12245181D02*
X27455809Y13245181D01*
X27455809Y13245181D02*
X27360571Y13102324D01*
X27360571Y13102324D02*
X27265333Y13007086D01*
X27265333Y13007086D02*
X27170095Y12959467D01*
X28693904Y12245181D02*
X28122476Y12245181D01*
X28408190Y12245181D02*
X28408190Y13245181D01*
X28408190Y13245181D02*
X28312952Y13102324D01*
X28312952Y13102324D02*
X28217714Y13007086D01*
X28217714Y13007086D02*
X28122476Y12959467D01*
X10247333Y31644420D02*
X10199714Y31596800D01*
X10199714Y31596800D02*
X10056857Y31549181D01*
X10056857Y31549181D02*
X9961619Y31549181D01*
X9961619Y31549181D02*
X9818762Y31596800D01*
X9818762Y31596800D02*
X9723524Y31692039D01*
X9723524Y31692039D02*
X9675905Y31787277D01*
X9675905Y31787277D02*
X9628286Y31977753D01*
X9628286Y31977753D02*
X9628286Y32120610D01*
X9628286Y32120610D02*
X9675905Y32311086D01*
X9675905Y32311086D02*
X9723524Y32406324D01*
X9723524Y32406324D02*
X9818762Y32501562D01*
X9818762Y32501562D02*
X9961619Y32549181D01*
X9961619Y32549181D02*
X10056857Y32549181D01*
X10056857Y32549181D02*
X10199714Y32501562D01*
X10199714Y32501562D02*
X10247333Y32453943D01*
X10628286Y32453943D02*
X10675905Y32501562D01*
X10675905Y32501562D02*
X10771143Y32549181D01*
X10771143Y32549181D02*
X11009238Y32549181D01*
X11009238Y32549181D02*
X11104476Y32501562D01*
X11104476Y32501562D02*
X11152095Y32453943D01*
X11152095Y32453943D02*
X11199714Y32358705D01*
X11199714Y32358705D02*
X11199714Y32263467D01*
X11199714Y32263467D02*
X11152095Y32120610D01*
X11152095Y32120610D02*
X10580667Y31549181D01*
X10580667Y31549181D02*
X11199714Y31549181D01*
X32599333Y32311181D02*
X32266000Y32787372D01*
X32027905Y32311181D02*
X32027905Y33311181D01*
X32027905Y33311181D02*
X32408857Y33311181D01*
X32408857Y33311181D02*
X32504095Y33263562D01*
X32504095Y33263562D02*
X32551714Y33215943D01*
X32551714Y33215943D02*
X32599333Y33120705D01*
X32599333Y33120705D02*
X32599333Y32977848D01*
X32599333Y32977848D02*
X32551714Y32882610D01*
X32551714Y32882610D02*
X32504095Y32834991D01*
X32504095Y32834991D02*
X32408857Y32787372D01*
X32408857Y32787372D02*
X32027905Y32787372D01*
X32932667Y33311181D02*
X33551714Y33311181D01*
X33551714Y33311181D02*
X33218381Y32930229D01*
X33218381Y32930229D02*
X33361238Y32930229D01*
X33361238Y32930229D02*
X33456476Y32882610D01*
X33456476Y32882610D02*
X33504095Y32834991D01*
X33504095Y32834991D02*
X33551714Y32739753D01*
X33551714Y32739753D02*
X33551714Y32501658D01*
X33551714Y32501658D02*
X33504095Y32406420D01*
X33504095Y32406420D02*
X33456476Y32358800D01*
X33456476Y32358800D02*
X33361238Y32311181D01*
X33361238Y32311181D02*
X33075524Y32311181D01*
X33075524Y32311181D02*
X32980286Y32358800D01*
X32980286Y32358800D02*
X32932667Y32406420D01*
X5119905Y11213181D02*
X5691333Y11213181D01*
X5405619Y10213181D02*
X5405619Y11213181D01*
X6024667Y10213181D02*
X6024667Y11213181D01*
X6024667Y11213181D02*
X6405619Y11213181D01*
X6405619Y11213181D02*
X6500857Y11165562D01*
X6500857Y11165562D02*
X6548476Y11117943D01*
X6548476Y11117943D02*
X6596095Y11022705D01*
X6596095Y11022705D02*
X6596095Y10879848D01*
X6596095Y10879848D02*
X6548476Y10784610D01*
X6548476Y10784610D02*
X6500857Y10736991D01*
X6500857Y10736991D02*
X6405619Y10689372D01*
X6405619Y10689372D02*
X6024667Y10689372D01*
X7548476Y10213181D02*
X6977048Y10213181D01*
X7262762Y10213181D02*
X7262762Y11213181D01*
X7262762Y11213181D02*
X7167524Y11070324D01*
X7167524Y11070324D02*
X7072286Y10975086D01*
X7072286Y10975086D02*
X6977048Y10927467D01*
X7881810Y11213181D02*
X8500857Y11213181D01*
X8500857Y11213181D02*
X8167524Y10832229D01*
X8167524Y10832229D02*
X8310381Y10832229D01*
X8310381Y10832229D02*
X8405619Y10784610D01*
X8405619Y10784610D02*
X8453238Y10736991D01*
X8453238Y10736991D02*
X8500857Y10641753D01*
X8500857Y10641753D02*
X8500857Y10403658D01*
X8500857Y10403658D02*
X8453238Y10308420D01*
X8453238Y10308420D02*
X8405619Y10260800D01*
X8405619Y10260800D02*
X8310381Y10213181D01*
X8310381Y10213181D02*
X8024667Y10213181D01*
X8024667Y10213181D02*
X7929429Y10260800D01*
X7929429Y10260800D02*
X7881810Y10308420D01*
X28202095Y11213181D02*
X28773523Y11213181D01*
X28487809Y10213181D02*
X28487809Y11213181D01*
X29106857Y10213181D02*
X29106857Y11213181D01*
X29106857Y11213181D02*
X29487809Y11213181D01*
X29487809Y11213181D02*
X29583047Y11165562D01*
X29583047Y11165562D02*
X29630666Y11117943D01*
X29630666Y11117943D02*
X29678285Y11022705D01*
X29678285Y11022705D02*
X29678285Y10879848D01*
X29678285Y10879848D02*
X29630666Y10784610D01*
X29630666Y10784610D02*
X29583047Y10736991D01*
X29583047Y10736991D02*
X29487809Y10689372D01*
X29487809Y10689372D02*
X29106857Y10689372D01*
X30535428Y11213181D02*
X30344952Y11213181D01*
X30344952Y11213181D02*
X30249714Y11165562D01*
X30249714Y11165562D02*
X30202095Y11117943D01*
X30202095Y11117943D02*
X30106857Y10975086D01*
X30106857Y10975086D02*
X30059238Y10784610D01*
X30059238Y10784610D02*
X30059238Y10403658D01*
X30059238Y10403658D02*
X30106857Y10308420D01*
X30106857Y10308420D02*
X30154476Y10260800D01*
X30154476Y10260800D02*
X30249714Y10213181D01*
X30249714Y10213181D02*
X30440190Y10213181D01*
X30440190Y10213181D02*
X30535428Y10260800D01*
X30535428Y10260800D02*
X30583047Y10308420D01*
X30583047Y10308420D02*
X30630666Y10403658D01*
X30630666Y10403658D02*
X30630666Y10641753D01*
X30630666Y10641753D02*
X30583047Y10736991D01*
X30583047Y10736991D02*
X30535428Y10784610D01*
X30535428Y10784610D02*
X30440190Y10832229D01*
X30440190Y10832229D02*
X30249714Y10832229D01*
X30249714Y10832229D02*
X30154476Y10784610D01*
X30154476Y10784610D02*
X30106857Y10736991D01*
X30106857Y10736991D02*
X30059238Y10641753D01*
X4945142Y12245181D02*
X4611809Y12721372D01*
X4373714Y12245181D02*
X4373714Y13245181D01*
X4373714Y13245181D02*
X4754666Y13245181D01*
X4754666Y13245181D02*
X4849904Y13197562D01*
X4849904Y13197562D02*
X4897523Y13149943D01*
X4897523Y13149943D02*
X4945142Y13054705D01*
X4945142Y13054705D02*
X4945142Y12911848D01*
X4945142Y12911848D02*
X4897523Y12816610D01*
X4897523Y12816610D02*
X4849904Y12768991D01*
X4849904Y12768991D02*
X4754666Y12721372D01*
X4754666Y12721372D02*
X4373714Y12721372D01*
X5897523Y12245181D02*
X5326095Y12245181D01*
X5611809Y12245181D02*
X5611809Y13245181D01*
X5611809Y13245181D02*
X5516571Y13102324D01*
X5516571Y13102324D02*
X5421333Y13007086D01*
X5421333Y13007086D02*
X5326095Y12959467D01*
X6278476Y13149943D02*
X6326095Y13197562D01*
X6326095Y13197562D02*
X6421333Y13245181D01*
X6421333Y13245181D02*
X6659428Y13245181D01*
X6659428Y13245181D02*
X6754666Y13197562D01*
X6754666Y13197562D02*
X6802285Y13149943D01*
X6802285Y13149943D02*
X6849904Y13054705D01*
X6849904Y13054705D02*
X6849904Y12959467D01*
X6849904Y12959467D02*
X6802285Y12816610D01*
X6802285Y12816610D02*
X6230857Y12245181D01*
X6230857Y12245181D02*
X6849904Y12245181D01*
X66825905Y29263181D02*
X66825905Y30263181D01*
X66825905Y30263181D02*
X67064000Y30263181D01*
X67064000Y30263181D02*
X67206857Y30215562D01*
X67206857Y30215562D02*
X67302095Y30120324D01*
X67302095Y30120324D02*
X67349714Y30025086D01*
X67349714Y30025086D02*
X67397333Y29834610D01*
X67397333Y29834610D02*
X67397333Y29691753D01*
X67397333Y29691753D02*
X67349714Y29501277D01*
X67349714Y29501277D02*
X67302095Y29406039D01*
X67302095Y29406039D02*
X67206857Y29310800D01*
X67206857Y29310800D02*
X67064000Y29263181D01*
X67064000Y29263181D02*
X66825905Y29263181D01*
X67730667Y30263181D02*
X68349714Y30263181D01*
X68349714Y30263181D02*
X68016381Y29882229D01*
X68016381Y29882229D02*
X68159238Y29882229D01*
X68159238Y29882229D02*
X68254476Y29834610D01*
X68254476Y29834610D02*
X68302095Y29786991D01*
X68302095Y29786991D02*
X68349714Y29691753D01*
X68349714Y29691753D02*
X68349714Y29453658D01*
X68349714Y29453658D02*
X68302095Y29358420D01*
X68302095Y29358420D02*
X68254476Y29310800D01*
X68254476Y29310800D02*
X68159238Y29263181D01*
X68159238Y29263181D02*
X67873524Y29263181D01*
X67873524Y29263181D02*
X67778286Y29310800D01*
X67778286Y29310800D02*
X67730667Y29358420D01*
X1309905Y2323181D02*
X1881333Y2323181D01*
X1595619Y1323181D02*
X1595619Y2323181D01*
X2214667Y1323181D02*
X2214667Y2323181D01*
X2214667Y2323181D02*
X2595619Y2323181D01*
X2595619Y2323181D02*
X2690857Y2275562D01*
X2690857Y2275562D02*
X2738476Y2227943D01*
X2738476Y2227943D02*
X2786095Y2132705D01*
X2786095Y2132705D02*
X2786095Y1989848D01*
X2786095Y1989848D02*
X2738476Y1894610D01*
X2738476Y1894610D02*
X2690857Y1846991D01*
X2690857Y1846991D02*
X2595619Y1799372D01*
X2595619Y1799372D02*
X2214667Y1799372D01*
X3738476Y1323181D02*
X3167048Y1323181D01*
X3452762Y1323181D02*
X3452762Y2323181D01*
X3452762Y2323181D02*
X3357524Y2180324D01*
X3357524Y2180324D02*
X3262286Y2085086D01*
X3262286Y2085086D02*
X3167048Y2037467D01*
X4690857Y1323181D02*
X4119429Y1323181D01*
X4405143Y1323181D02*
X4405143Y2323181D01*
X4405143Y2323181D02*
X4309905Y2180324D01*
X4309905Y2180324D02*
X4214667Y2085086D01*
X4214667Y2085086D02*
X4119429Y2037467D01*
X71890095Y9181181D02*
X72461523Y9181181D01*
X72175809Y8181181D02*
X72175809Y9181181D01*
X72794857Y8181181D02*
X72794857Y9181181D01*
X72794857Y9181181D02*
X73175809Y9181181D01*
X73175809Y9181181D02*
X73271047Y9133562D01*
X73271047Y9133562D02*
X73318666Y9085943D01*
X73318666Y9085943D02*
X73366285Y8990705D01*
X73366285Y8990705D02*
X73366285Y8847848D01*
X73366285Y8847848D02*
X73318666Y8752610D01*
X73318666Y8752610D02*
X73271047Y8704991D01*
X73271047Y8704991D02*
X73175809Y8657372D01*
X73175809Y8657372D02*
X72794857Y8657372D01*
X74318666Y8181181D02*
X73747238Y8181181D01*
X74032952Y8181181D02*
X74032952Y9181181D01*
X74032952Y9181181D02*
X73937714Y9038324D01*
X73937714Y9038324D02*
X73842476Y8943086D01*
X73842476Y8943086D02*
X73747238Y8895467D01*
X66825905Y24183181D02*
X66825905Y25183181D01*
X66825905Y25183181D02*
X67064000Y25183181D01*
X67064000Y25183181D02*
X67206857Y25135562D01*
X67206857Y25135562D02*
X67302095Y25040324D01*
X67302095Y25040324D02*
X67349714Y24945086D01*
X67349714Y24945086D02*
X67397333Y24754610D01*
X67397333Y24754610D02*
X67397333Y24611753D01*
X67397333Y24611753D02*
X67349714Y24421277D01*
X67349714Y24421277D02*
X67302095Y24326039D01*
X67302095Y24326039D02*
X67206857Y24230800D01*
X67206857Y24230800D02*
X67064000Y24183181D01*
X67064000Y24183181D02*
X66825905Y24183181D01*
X68254476Y25183181D02*
X68064000Y25183181D01*
X68064000Y25183181D02*
X67968762Y25135562D01*
X67968762Y25135562D02*
X67921143Y25087943D01*
X67921143Y25087943D02*
X67825905Y24945086D01*
X67825905Y24945086D02*
X67778286Y24754610D01*
X67778286Y24754610D02*
X67778286Y24373658D01*
X67778286Y24373658D02*
X67825905Y24278420D01*
X67825905Y24278420D02*
X67873524Y24230800D01*
X67873524Y24230800D02*
X67968762Y24183181D01*
X67968762Y24183181D02*
X68159238Y24183181D01*
X68159238Y24183181D02*
X68254476Y24230800D01*
X68254476Y24230800D02*
X68302095Y24278420D01*
X68302095Y24278420D02*
X68349714Y24373658D01*
X68349714Y24373658D02*
X68349714Y24611753D01*
X68349714Y24611753D02*
X68302095Y24706991D01*
X68302095Y24706991D02*
X68254476Y24754610D01*
X68254476Y24754610D02*
X68159238Y24802229D01*
X68159238Y24802229D02*
X67968762Y24802229D01*
X67968762Y24802229D02*
X67873524Y24754610D01*
X67873524Y24754610D02*
X67825905Y24706991D01*
X67825905Y24706991D02*
X67778286Y24611753D01*
X3928571Y38068991D02*
X3595238Y38068991D01*
X3595238Y37545181D02*
X3595238Y38545181D01*
X3595238Y38545181D02*
X4071428Y38545181D01*
X4452381Y37545181D02*
X4452381Y38545181D01*
X4928571Y37545181D02*
X4928571Y38545181D01*
X4928571Y38545181D02*
X5166666Y38545181D01*
X5166666Y38545181D02*
X5309523Y38497562D01*
X5309523Y38497562D02*
X5404761Y38402324D01*
X5404761Y38402324D02*
X5452380Y38307086D01*
X5452380Y38307086D02*
X5499999Y38116610D01*
X5499999Y38116610D02*
X5499999Y37973753D01*
X5499999Y37973753D02*
X5452380Y37783277D01*
X5452380Y37783277D02*
X5404761Y37688039D01*
X5404761Y37688039D02*
X5309523Y37592800D01*
X5309523Y37592800D02*
X5166666Y37545181D01*
X5166666Y37545181D02*
X4928571Y37545181D01*
X6452380Y37545181D02*
X5880952Y37545181D01*
X6166666Y37545181D02*
X6166666Y38545181D01*
X6166666Y38545181D02*
X6071428Y38402324D01*
X6071428Y38402324D02*
X5976190Y38307086D01*
X5976190Y38307086D02*
X5880952Y38259467D01*
X57269142Y24183181D02*
X56935809Y24659372D01*
X56697714Y24183181D02*
X56697714Y25183181D01*
X56697714Y25183181D02*
X57078666Y25183181D01*
X57078666Y25183181D02*
X57173904Y25135562D01*
X57173904Y25135562D02*
X57221523Y25087943D01*
X57221523Y25087943D02*
X57269142Y24992705D01*
X57269142Y24992705D02*
X57269142Y24849848D01*
X57269142Y24849848D02*
X57221523Y24754610D01*
X57221523Y24754610D02*
X57173904Y24706991D01*
X57173904Y24706991D02*
X57078666Y24659372D01*
X57078666Y24659372D02*
X56697714Y24659372D01*
X58221523Y24183181D02*
X57650095Y24183181D01*
X57935809Y24183181D02*
X57935809Y25183181D01*
X57935809Y25183181D02*
X57840571Y25040324D01*
X57840571Y25040324D02*
X57745333Y24945086D01*
X57745333Y24945086D02*
X57650095Y24897467D01*
X58697714Y24183181D02*
X58888190Y24183181D01*
X58888190Y24183181D02*
X58983428Y24230800D01*
X58983428Y24230800D02*
X59031047Y24278420D01*
X59031047Y24278420D02*
X59126285Y24421277D01*
X59126285Y24421277D02*
X59173904Y24611753D01*
X59173904Y24611753D02*
X59173904Y24992705D01*
X59173904Y24992705D02*
X59126285Y25087943D01*
X59126285Y25087943D02*
X59078666Y25135562D01*
X59078666Y25135562D02*
X58983428Y25183181D01*
X58983428Y25183181D02*
X58792952Y25183181D01*
X58792952Y25183181D02*
X58697714Y25135562D01*
X58697714Y25135562D02*
X58650095Y25087943D01*
X58650095Y25087943D02*
X58602476Y24992705D01*
X58602476Y24992705D02*
X58602476Y24754610D01*
X58602476Y24754610D02*
X58650095Y24659372D01*
X58650095Y24659372D02*
X58697714Y24611753D01*
X58697714Y24611753D02*
X58792952Y24564134D01*
X58792952Y24564134D02*
X58983428Y24564134D01*
X58983428Y24564134D02*
X59078666Y24611753D01*
X59078666Y24611753D02*
X59126285Y24659372D01*
X59126285Y24659372D02*
X59173904Y24754610D01*
X1309905Y11213181D02*
X1881333Y11213181D01*
X1595619Y10213181D02*
X1595619Y11213181D01*
X2214667Y10213181D02*
X2214667Y11213181D01*
X2214667Y11213181D02*
X2595619Y11213181D01*
X2595619Y11213181D02*
X2690857Y11165562D01*
X2690857Y11165562D02*
X2738476Y11117943D01*
X2738476Y11117943D02*
X2786095Y11022705D01*
X2786095Y11022705D02*
X2786095Y10879848D01*
X2786095Y10879848D02*
X2738476Y10784610D01*
X2738476Y10784610D02*
X2690857Y10736991D01*
X2690857Y10736991D02*
X2595619Y10689372D01*
X2595619Y10689372D02*
X2214667Y10689372D01*
X3738476Y10213181D02*
X3167048Y10213181D01*
X3452762Y10213181D02*
X3452762Y11213181D01*
X3452762Y11213181D02*
X3357524Y11070324D01*
X3357524Y11070324D02*
X3262286Y10975086D01*
X3262286Y10975086D02*
X3167048Y10927467D01*
X4357524Y11213181D02*
X4452762Y11213181D01*
X4452762Y11213181D02*
X4548000Y11165562D01*
X4548000Y11165562D02*
X4595619Y11117943D01*
X4595619Y11117943D02*
X4643238Y11022705D01*
X4643238Y11022705D02*
X4690857Y10832229D01*
X4690857Y10832229D02*
X4690857Y10594134D01*
X4690857Y10594134D02*
X4643238Y10403658D01*
X4643238Y10403658D02*
X4595619Y10308420D01*
X4595619Y10308420D02*
X4548000Y10260800D01*
X4548000Y10260800D02*
X4452762Y10213181D01*
X4452762Y10213181D02*
X4357524Y10213181D01*
X4357524Y10213181D02*
X4262286Y10260800D01*
X4262286Y10260800D02*
X4214667Y10308420D01*
X4214667Y10308420D02*
X4167048Y10403658D01*
X4167048Y10403658D02*
X4119429Y10594134D01*
X4119429Y10594134D02*
X4119429Y10832229D01*
X4119429Y10832229D02*
X4167048Y11022705D01*
X4167048Y11022705D02*
X4214667Y11117943D01*
X4214667Y11117943D02*
X4262286Y11165562D01*
X4262286Y11165562D02*
X4357524Y11213181D01*
X23314819Y38187334D02*
X22838628Y37854001D01*
X23314819Y37615906D02*
X22314819Y37615906D01*
X22314819Y37615906D02*
X22314819Y37996858D01*
X22314819Y37996858D02*
X22362438Y38092096D01*
X22362438Y38092096D02*
X22410057Y38139715D01*
X22410057Y38139715D02*
X22505295Y38187334D01*
X22505295Y38187334D02*
X22648152Y38187334D01*
X22648152Y38187334D02*
X22743390Y38139715D01*
X22743390Y38139715D02*
X22791009Y38092096D01*
X22791009Y38092096D02*
X22838628Y37996858D01*
X22838628Y37996858D02*
X22838628Y37615906D01*
X22648152Y39044477D02*
X23314819Y39044477D01*
X22267200Y38806382D02*
X22981485Y38568287D01*
X22981485Y38568287D02*
X22981485Y39187334D01*
X19169142Y6149181D02*
X18835809Y6625372D01*
X18597714Y6149181D02*
X18597714Y7149181D01*
X18597714Y7149181D02*
X18978666Y7149181D01*
X18978666Y7149181D02*
X19073904Y7101562D01*
X19073904Y7101562D02*
X19121523Y7053943D01*
X19121523Y7053943D02*
X19169142Y6958705D01*
X19169142Y6958705D02*
X19169142Y6815848D01*
X19169142Y6815848D02*
X19121523Y6720610D01*
X19121523Y6720610D02*
X19073904Y6672991D01*
X19073904Y6672991D02*
X18978666Y6625372D01*
X18978666Y6625372D02*
X18597714Y6625372D01*
X20121523Y6149181D02*
X19550095Y6149181D01*
X19835809Y6149181D02*
X19835809Y7149181D01*
X19835809Y7149181D02*
X19740571Y7006324D01*
X19740571Y7006324D02*
X19645333Y6911086D01*
X19645333Y6911086D02*
X19550095Y6863467D01*
X20978666Y6815848D02*
X20978666Y6149181D01*
X20740571Y7196800D02*
X20502476Y6482515D01*
X20502476Y6482515D02*
X21121523Y6482515D01*
X28202095Y2323181D02*
X28773523Y2323181D01*
X28487809Y1323181D02*
X28487809Y2323181D01*
X29106857Y1323181D02*
X29106857Y2323181D01*
X29106857Y2323181D02*
X29487809Y2323181D01*
X29487809Y2323181D02*
X29583047Y2275562D01*
X29583047Y2275562D02*
X29630666Y2227943D01*
X29630666Y2227943D02*
X29678285Y2132705D01*
X29678285Y2132705D02*
X29678285Y1989848D01*
X29678285Y1989848D02*
X29630666Y1894610D01*
X29630666Y1894610D02*
X29583047Y1846991D01*
X29583047Y1846991D02*
X29487809Y1799372D01*
X29487809Y1799372D02*
X29106857Y1799372D01*
X30011619Y2323181D02*
X30678285Y2323181D01*
X30678285Y2323181D02*
X30249714Y1323181D01*
X57269142Y34343181D02*
X56935809Y34819372D01*
X56697714Y34343181D02*
X56697714Y35343181D01*
X56697714Y35343181D02*
X57078666Y35343181D01*
X57078666Y35343181D02*
X57173904Y35295562D01*
X57173904Y35295562D02*
X57221523Y35247943D01*
X57221523Y35247943D02*
X57269142Y35152705D01*
X57269142Y35152705D02*
X57269142Y35009848D01*
X57269142Y35009848D02*
X57221523Y34914610D01*
X57221523Y34914610D02*
X57173904Y34866991D01*
X57173904Y34866991D02*
X57078666Y34819372D01*
X57078666Y34819372D02*
X56697714Y34819372D01*
X57650095Y35247943D02*
X57697714Y35295562D01*
X57697714Y35295562D02*
X57792952Y35343181D01*
X57792952Y35343181D02*
X58031047Y35343181D01*
X58031047Y35343181D02*
X58126285Y35295562D01*
X58126285Y35295562D02*
X58173904Y35247943D01*
X58173904Y35247943D02*
X58221523Y35152705D01*
X58221523Y35152705D02*
X58221523Y35057467D01*
X58221523Y35057467D02*
X58173904Y34914610D01*
X58173904Y34914610D02*
X57602476Y34343181D01*
X57602476Y34343181D02*
X58221523Y34343181D01*
X58840571Y35343181D02*
X58935809Y35343181D01*
X58935809Y35343181D02*
X59031047Y35295562D01*
X59031047Y35295562D02*
X59078666Y35247943D01*
X59078666Y35247943D02*
X59126285Y35152705D01*
X59126285Y35152705D02*
X59173904Y34962229D01*
X59173904Y34962229D02*
X59173904Y34724134D01*
X59173904Y34724134D02*
X59126285Y34533658D01*
X59126285Y34533658D02*
X59078666Y34438420D01*
X59078666Y34438420D02*
X59031047Y34390800D01*
X59031047Y34390800D02*
X58935809Y34343181D01*
X58935809Y34343181D02*
X58840571Y34343181D01*
X58840571Y34343181D02*
X58745333Y34390800D01*
X58745333Y34390800D02*
X58697714Y34438420D01*
X58697714Y34438420D02*
X58650095Y34533658D01*
X58650095Y34533658D02*
X58602476Y34724134D01*
X58602476Y34724134D02*
X58602476Y34962229D01*
X58602476Y34962229D02*
X58650095Y35152705D01*
X58650095Y35152705D02*
X58697714Y35247943D01*
X58697714Y35247943D02*
X58745333Y35295562D01*
X58745333Y35295562D02*
X58840571Y35343181D01*
X66825905Y34343181D02*
X66825905Y35343181D01*
X66825905Y35343181D02*
X67064000Y35343181D01*
X67064000Y35343181D02*
X67206857Y35295562D01*
X67206857Y35295562D02*
X67302095Y35200324D01*
X67302095Y35200324D02*
X67349714Y35105086D01*
X67349714Y35105086D02*
X67397333Y34914610D01*
X67397333Y34914610D02*
X67397333Y34771753D01*
X67397333Y34771753D02*
X67349714Y34581277D01*
X67349714Y34581277D02*
X67302095Y34486039D01*
X67302095Y34486039D02*
X67206857Y34390800D01*
X67206857Y34390800D02*
X67064000Y34343181D01*
X67064000Y34343181D02*
X66825905Y34343181D01*
X67730667Y35343181D02*
X68397333Y35343181D01*
X68397333Y35343181D02*
X67968762Y34343181D01*
X18901580Y13295334D02*
X18949200Y13247715D01*
X18949200Y13247715D02*
X18996819Y13104858D01*
X18996819Y13104858D02*
X18996819Y13009620D01*
X18996819Y13009620D02*
X18949200Y12866763D01*
X18949200Y12866763D02*
X18853961Y12771525D01*
X18853961Y12771525D02*
X18758723Y12723906D01*
X18758723Y12723906D02*
X18568247Y12676287D01*
X18568247Y12676287D02*
X18425390Y12676287D01*
X18425390Y12676287D02*
X18234914Y12723906D01*
X18234914Y12723906D02*
X18139676Y12771525D01*
X18139676Y12771525D02*
X18044438Y12866763D01*
X18044438Y12866763D02*
X17996819Y13009620D01*
X17996819Y13009620D02*
X17996819Y13104858D01*
X17996819Y13104858D02*
X18044438Y13247715D01*
X18044438Y13247715D02*
X18092057Y13295334D01*
X18996819Y13771525D02*
X18996819Y13962001D01*
X18996819Y13962001D02*
X18949200Y14057239D01*
X18949200Y14057239D02*
X18901580Y14104858D01*
X18901580Y14104858D02*
X18758723Y14200096D01*
X18758723Y14200096D02*
X18568247Y14247715D01*
X18568247Y14247715D02*
X18187295Y14247715D01*
X18187295Y14247715D02*
X18092057Y14200096D01*
X18092057Y14200096D02*
X18044438Y14152477D01*
X18044438Y14152477D02*
X17996819Y14057239D01*
X17996819Y14057239D02*
X17996819Y13866763D01*
X17996819Y13866763D02*
X18044438Y13771525D01*
X18044438Y13771525D02*
X18092057Y13723906D01*
X18092057Y13723906D02*
X18187295Y13676287D01*
X18187295Y13676287D02*
X18425390Y13676287D01*
X18425390Y13676287D02*
X18520628Y13723906D01*
X18520628Y13723906D02*
X18568247Y13771525D01*
X18568247Y13771525D02*
X18615866Y13866763D01*
X18615866Y13866763D02*
X18615866Y14057239D01*
X18615866Y14057239D02*
X18568247Y14152477D01*
X18568247Y14152477D02*
X18520628Y14200096D01*
X18520628Y14200096D02*
X18425390Y14247715D01*
X63762095Y11467181D02*
X64333523Y11467181D01*
X64047809Y10467181D02*
X64047809Y11467181D01*
X64666857Y10467181D02*
X64666857Y11467181D01*
X64666857Y11467181D02*
X65047809Y11467181D01*
X65047809Y11467181D02*
X65143047Y11419562D01*
X65143047Y11419562D02*
X65190666Y11371943D01*
X65190666Y11371943D02*
X65238285Y11276705D01*
X65238285Y11276705D02*
X65238285Y11133848D01*
X65238285Y11133848D02*
X65190666Y11038610D01*
X65190666Y11038610D02*
X65143047Y10990991D01*
X65143047Y10990991D02*
X65047809Y10943372D01*
X65047809Y10943372D02*
X64666857Y10943372D01*
X66095428Y11133848D02*
X66095428Y10467181D01*
X65857333Y11514800D02*
X65619238Y10800515D01*
X65619238Y10800515D02*
X66238285Y10800515D01*
D13*
%TO.C,R9*%
X12981000Y31469064D02*
X12981000Y31014936D01*
X14451000Y31469064D02*
X14451000Y31014936D01*
%TO.C,TP8*%
X34774000Y4318000D02*
G75*
G02*
X31774000Y4318000I-1500000J0D01*
G01*
X31774000Y4318000D02*
G75*
G02*
X34774000Y4318000I1500000J0D01*
G01*
%TO.C,C5*%
X22125000Y30980748D02*
X22125000Y31503252D01*
X23595000Y30980748D02*
X23595000Y31503252D01*
%TO.C,R17*%
X60986936Y27913000D02*
X61441064Y27913000D01*
X60986936Y26443000D02*
X61441064Y26443000D01*
%TO.C,R5*%
X17553000Y36041064D02*
X17553000Y35586936D01*
X19023000Y36041064D02*
X19023000Y35586936D01*
%TO.C,TP5*%
X71604000Y12446000D02*
G75*
G02*
X68604000Y12446000I-1500000J0D01*
G01*
X68604000Y12446000D02*
G75*
G02*
X71604000Y12446000I1500000J0D01*
G01*
%TO.C,C12*%
X15521000Y16009252D02*
X15521000Y15486748D01*
X16991000Y16009252D02*
X16991000Y15486748D01*
%TO.C,D4*%
X63085000Y28138000D02*
X63085000Y26218000D01*
X63085000Y26218000D02*
X65770000Y26218000D01*
X65770000Y28138000D02*
X63085000Y28138000D01*
%TO.C,C4*%
X24157000Y28948748D02*
X24157000Y29471252D01*
X25627000Y28948748D02*
X25627000Y29471252D01*
%TO.C,C3*%
X15013000Y30980748D02*
X15013000Y31503252D01*
X16483000Y30980748D02*
X16483000Y31503252D01*
%TO.C,C11*%
X21871000Y16009252D02*
X21871000Y15486748D01*
X23341000Y16009252D02*
X23341000Y15486748D01*
%TO.C,R10*%
X24156936Y12927000D02*
X24611064Y12927000D01*
X24156936Y11457000D02*
X24611064Y11457000D01*
%TO.C,C1*%
X30507000Y29268748D02*
X30507000Y29791252D01*
X31977000Y29268748D02*
X31977000Y29791252D01*
%TO.C,R8*%
X15521000Y36041064D02*
X15521000Y35586936D01*
X16991000Y36041064D02*
X16991000Y35586936D01*
%TO.C,TP2*%
X46204000Y8636000D02*
G75*
G02*
X43204000Y8636000I-1500000J0D01*
G01*
X43204000Y8636000D02*
G75*
G02*
X46204000Y8636000I1500000J0D01*
G01*
%TO.C,R1*%
X46509000Y23394936D02*
X46509000Y23849064D01*
X47979000Y23394936D02*
X47979000Y23849064D01*
%TO.C,C10*%
X12981000Y16009252D02*
X12981000Y15486748D01*
X14451000Y16009252D02*
X14451000Y15486748D01*
%TO.C,R15*%
X12823564Y7339000D02*
X12369436Y7339000D01*
X12823564Y5869000D02*
X12369436Y5869000D01*
%TO.C,C7*%
X20327252Y31469000D02*
X19804748Y31469000D01*
X20327252Y29999000D02*
X19804748Y29999000D01*
%TO.C,U4*%
X54239000Y18316000D02*
X54304000Y18316000D01*
X54239000Y14196000D02*
X54239000Y18316000D01*
X54304000Y14196000D02*
X54239000Y14196000D01*
X63044000Y18316000D02*
X63109000Y18316000D01*
X63109000Y18316000D02*
X63109000Y14196000D01*
X63109000Y14196000D02*
X63044000Y14196000D01*
X54304000Y13656000D02*
X53974000Y13416000D01*
X53974000Y13896000D01*
X54304000Y13656000D01*
G36*
X54304000Y13656000D02*
G01*
X53974000Y13416000D01*
X53974000Y13896000D01*
X54304000Y13656000D01*
G37*
%TO.C,R13*%
X15266936Y12927000D02*
X15721064Y12927000D01*
X15266936Y11457000D02*
X15721064Y11457000D01*
%TO.C,R6*%
X26443000Y33755064D02*
X26443000Y33300936D01*
X27913000Y33755064D02*
X27913000Y33300936D01*
%TO.C,TP3*%
X56364000Y8636000D02*
G75*
G02*
X53364000Y8636000I-1500000J0D01*
G01*
X53364000Y8636000D02*
G75*
G02*
X56364000Y8636000I1500000J0D01*
G01*
%TO.C,TP9*%
X34774000Y8128000D02*
G75*
G02*
X31774000Y8128000I-1500000J0D01*
G01*
X31774000Y8128000D02*
G75*
G02*
X34774000Y8128000I1500000J0D01*
G01*
%TO.C,D2*%
X10206000Y11048000D02*
X10206000Y7748000D01*
X10206000Y11048000D02*
X15716000Y11048000D01*
X10206000Y7748000D02*
X15716000Y7748000D01*
%TO.C,R2*%
X50064936Y25373000D02*
X50519064Y25373000D01*
X50064936Y23903000D02*
X50519064Y23903000D01*
%TO.C,D1*%
X26116000Y11048000D02*
X20606000Y11048000D01*
X26116000Y7748000D02*
X20606000Y7748000D01*
X26116000Y7748000D02*
X26116000Y11048000D01*
%TO.C,C13*%
X52097000Y18041252D02*
X52097000Y17518748D01*
X53567000Y18041252D02*
X53567000Y17518748D01*
%TO.C,R7*%
X24157000Y35279064D02*
X24157000Y34824936D01*
X25627000Y35279064D02*
X25627000Y34824936D01*
%TO.C,C6*%
X18214748Y33501000D02*
X18737252Y33501000D01*
X18214748Y32031000D02*
X18737252Y32031000D01*
%TO.C,U3*%
X12901000Y27306000D02*
X13156000Y27306000D01*
X12901000Y19586000D02*
X12901000Y27306000D01*
X13156000Y19586000D02*
X12901000Y19586000D01*
X23166000Y27306000D02*
X23421000Y27306000D01*
X23421000Y27306000D02*
X23421000Y19586000D01*
X23421000Y19586000D02*
X23166000Y19586000D01*
X23641000Y27756000D02*
X23171000Y28096000D01*
X23641000Y28436000D01*
X23641000Y27756000D01*
G36*
X23641000Y27756000D02*
G01*
X23171000Y28096000D01*
X23641000Y28436000D01*
X23641000Y27756000D01*
G37*
%TO.C,TP12*%
X8358000Y4318000D02*
G75*
G02*
X5358000Y4318000I-1500000J0D01*
G01*
X5358000Y4318000D02*
G75*
G02*
X8358000Y4318000I1500000J0D01*
G01*
%TO.C,C8*%
X11183252Y29183000D02*
X10660748Y29183000D01*
X11183252Y27713000D02*
X10660748Y27713000D01*
%TO.C,R16*%
X60986936Y30453000D02*
X61441064Y30453000D01*
X60986936Y28983000D02*
X61441064Y28983000D01*
%TO.C,R11*%
X21055064Y12927000D02*
X20600936Y12927000D01*
X21055064Y11457000D02*
X20600936Y11457000D01*
%TO.C,C2*%
X11183252Y31215000D02*
X10660748Y31215000D01*
X11183252Y29745000D02*
X10660748Y29745000D01*
%TO.C,R3*%
X30199064Y33501000D02*
X29744936Y33501000D01*
X30199064Y32031000D02*
X29744936Y32031000D01*
%TO.C,TP13*%
X8358000Y8128000D02*
G75*
G02*
X5358000Y8128000I-1500000J0D01*
G01*
X5358000Y8128000D02*
G75*
G02*
X8358000Y8128000I1500000J0D01*
G01*
%TO.C,TP6*%
X30964000Y8128000D02*
G75*
G02*
X27964000Y8128000I-1500000J0D01*
G01*
X27964000Y8128000D02*
G75*
G02*
X30964000Y8128000I1500000J0D01*
G01*
%TO.C,R12*%
X12165064Y12927000D02*
X11710936Y12927000D01*
X12165064Y11457000D02*
X11710936Y11457000D01*
%TO.C,D3*%
X63085000Y30678000D02*
X63085000Y28758000D01*
X63085000Y28758000D02*
X65770000Y28758000D01*
X65770000Y30678000D02*
X63085000Y30678000D01*
%TO.C,TP11*%
X4548000Y4318000D02*
G75*
G02*
X1548000Y4318000I-1500000J0D01*
G01*
X1548000Y4318000D02*
G75*
G02*
X4548000Y4318000I1500000J0D01*
G01*
%TO.C,TP1*%
X71604000Y8636000D02*
G75*
G02*
X68604000Y8636000I-1500000J0D01*
G01*
X68604000Y8636000D02*
G75*
G02*
X71604000Y8636000I1500000J0D01*
G01*
%TO.C,D6*%
X63085000Y25598000D02*
X63085000Y23678000D01*
X63085000Y23678000D02*
X65770000Y23678000D01*
X65770000Y25598000D02*
X63085000Y25598000D01*
%TO.C,R19*%
X60986936Y25373000D02*
X61441064Y25373000D01*
X60986936Y23903000D02*
X61441064Y23903000D01*
%TO.C,TP10*%
X4548000Y8128000D02*
G75*
G02*
X1548000Y8128000I-1500000J0D01*
G01*
X1548000Y8128000D02*
G75*
G02*
X4548000Y8128000I1500000J0D01*
G01*
%TO.C,R4*%
X22125000Y35279064D02*
X22125000Y34824936D01*
X23595000Y35279064D02*
X23595000Y34824936D01*
%TO.C,R14*%
X22983564Y7339000D02*
X22529436Y7339000D01*
X22983564Y5869000D02*
X22529436Y5869000D01*
%TO.C,TP7*%
X30964000Y4318000D02*
G75*
G02*
X27964000Y4318000I-1500000J0D01*
G01*
X27964000Y4318000D02*
G75*
G02*
X30964000Y4318000I1500000J0D01*
G01*
%TO.C,R20*%
X60986936Y35533000D02*
X61441064Y35533000D01*
X60986936Y34063000D02*
X61441064Y34063000D01*
%TO.C,D7*%
X63085000Y35758000D02*
X63085000Y33838000D01*
X63085000Y33838000D02*
X65770000Y33838000D01*
X65770000Y35758000D02*
X63085000Y35758000D01*
%TO.C,C9*%
X19331000Y16009252D02*
X19331000Y15486748D01*
X20801000Y16009252D02*
X20801000Y15486748D01*
%TO.C,TP4*%
X66524000Y8636000D02*
G75*
G02*
X63524000Y8636000I-1500000J0D01*
G01*
X63524000Y8636000D02*
G75*
G02*
X66524000Y8636000I1500000J0D01*
G01*
%TD*%
%LPC*%
D14*
%TO.C,R9*%
X13716000Y32154500D03*
X13716000Y30329500D03*
%TD*%
D15*
%TO.C,TP8*%
X33274000Y4318000D03*
%TD*%
D16*
%TO.C,C5*%
X22860000Y30292000D03*
X22860000Y32192000D03*
%TD*%
D17*
%TO.C,R17*%
X60301500Y27178000D03*
X62126500Y27178000D03*
%TD*%
D14*
%TO.C,R5*%
X18288000Y36726500D03*
X18288000Y34901500D03*
%TD*%
D15*
%TO.C,TP5*%
X70104000Y12446000D03*
%TD*%
D18*
%TO.C,C12*%
X16256000Y16698000D03*
X16256000Y14798000D03*
%TD*%
D19*
%TO.C,D4*%
X63832500Y27178000D03*
X65707500Y27178000D03*
%TD*%
D16*
%TO.C,C4*%
X24892000Y28260000D03*
X24892000Y30160000D03*
%TD*%
%TO.C,C3*%
X15748000Y30292000D03*
X15748000Y32192000D03*
%TD*%
D18*
%TO.C,C11*%
X22606000Y16698000D03*
X22606000Y14798000D03*
%TD*%
D17*
%TO.C,R10*%
X23471500Y12192000D03*
X25296500Y12192000D03*
%TD*%
D16*
%TO.C,C1*%
X31242000Y28580000D03*
X31242000Y30480000D03*
%TD*%
D14*
%TO.C,R8*%
X16256000Y36726500D03*
X16256000Y34901500D03*
%TD*%
D15*
%TO.C,TP2*%
X44704000Y8636000D03*
%TD*%
D20*
%TO.C,R1*%
X47244000Y22709500D03*
X47244000Y24534500D03*
%TD*%
D18*
%TO.C,C10*%
X13716000Y16698000D03*
X13716000Y14798000D03*
%TD*%
D21*
%TO.C,R15*%
X13509000Y6604000D03*
X11684000Y6604000D03*
%TD*%
D22*
%TO.C,C7*%
X21016000Y30734000D03*
X19116000Y30734000D03*
%TD*%
D23*
%TO.C,U4*%
X54864000Y13781000D03*
X56134000Y13781000D03*
X57404000Y13781000D03*
X58674000Y13781000D03*
X59944000Y13781000D03*
X61214000Y13781000D03*
X62484000Y13781000D03*
X62484000Y18731000D03*
X61214000Y18731000D03*
X59944000Y18731000D03*
X58674000Y18731000D03*
X57404000Y18731000D03*
X56134000Y18731000D03*
X54864000Y18731000D03*
%TD*%
D17*
%TO.C,R13*%
X14581500Y12192000D03*
X16406500Y12192000D03*
%TD*%
D14*
%TO.C,R6*%
X27178000Y34440500D03*
X27178000Y32615500D03*
%TD*%
D15*
%TO.C,TP3*%
X54864000Y8636000D03*
%TD*%
%TO.C,TP9*%
X33274000Y8128000D03*
%TD*%
D24*
%TO.C,D2*%
X11716000Y9398000D03*
X15716000Y9398000D03*
%TD*%
D17*
%TO.C,R2*%
X49379500Y24638000D03*
X51204500Y24638000D03*
%TD*%
D25*
%TO.C,D1*%
X24606000Y9398000D03*
X20606000Y9398000D03*
%TD*%
D18*
%TO.C,C13*%
X52832000Y18730000D03*
X52832000Y16830000D03*
%TD*%
D14*
%TO.C,R7*%
X24892000Y35964500D03*
X24892000Y34139500D03*
%TD*%
D26*
%TO.C,C6*%
X17526000Y32766000D03*
X19426000Y32766000D03*
%TD*%
D27*
%TO.C,U3*%
X22606000Y28096000D03*
X21336000Y28096000D03*
X20066000Y28096000D03*
X18796000Y28096000D03*
X17526000Y28096000D03*
X16256000Y28096000D03*
X14986000Y28096000D03*
X13716000Y28096000D03*
X13716000Y18796000D03*
X14986000Y18796000D03*
X16256000Y18796000D03*
X17526000Y18796000D03*
X18796000Y18796000D03*
X20066000Y18796000D03*
X21336000Y18796000D03*
X22606000Y18796000D03*
%TD*%
D28*
%TO.C,FID2*%
X73000000Y2000000D03*
%TD*%
D15*
%TO.C,TP12*%
X6858000Y4318000D03*
%TD*%
D22*
%TO.C,C8*%
X11872000Y28448000D03*
X9972000Y28448000D03*
%TD*%
D17*
%TO.C,R16*%
X60301500Y29718000D03*
X62126500Y29718000D03*
%TD*%
D21*
%TO.C,R11*%
X21740500Y12192000D03*
X19915500Y12192000D03*
%TD*%
D22*
%TO.C,C2*%
X11872000Y30480000D03*
X9972000Y30480000D03*
%TD*%
D21*
%TO.C,R3*%
X30884500Y32766000D03*
X29059500Y32766000D03*
%TD*%
D15*
%TO.C,TP13*%
X6858000Y8128000D03*
%TD*%
%TO.C,TP6*%
X29464000Y8128000D03*
%TD*%
D21*
%TO.C,R12*%
X12850500Y12192000D03*
X11025500Y12192000D03*
%TD*%
D19*
%TO.C,D3*%
X63832500Y29718000D03*
X65707500Y29718000D03*
%TD*%
D15*
%TO.C,TP11*%
X3048000Y4318000D03*
%TD*%
%TO.C,TP1*%
X70104000Y8636000D03*
%TD*%
D19*
%TO.C,D6*%
X63832500Y24638000D03*
X65707500Y24638000D03*
%TD*%
D28*
%TO.C,FID1*%
X2000000Y38000000D03*
%TD*%
D17*
%TO.C,R19*%
X60301500Y24638000D03*
X62126500Y24638000D03*
%TD*%
D15*
%TO.C,TP10*%
X3048000Y8128000D03*
%TD*%
D14*
%TO.C,R4*%
X22860000Y35964500D03*
X22860000Y34139500D03*
%TD*%
D21*
%TO.C,R14*%
X23669000Y6604000D03*
X21844000Y6604000D03*
%TD*%
D15*
%TO.C,TP7*%
X29464000Y4318000D03*
%TD*%
D17*
%TO.C,R20*%
X60301500Y34798000D03*
X62126500Y34798000D03*
%TD*%
D19*
%TO.C,D7*%
X63832500Y34798000D03*
X65707500Y34798000D03*
%TD*%
D18*
%TO.C,C9*%
X20066000Y16698000D03*
X20066000Y14798000D03*
%TD*%
D15*
%TO.C,TP4*%
X65024000Y8636000D03*
%TD*%
D29*
%TO.C,J3*%
X65024000Y4318000D03*
D30*
X67564000Y4318000D03*
X70104000Y4318000D03*
%TD*%
D29*
%TO.C,J2*%
X54864000Y4318000D03*
D30*
X57404000Y4318000D03*
X59944000Y4318000D03*
%TD*%
D29*
%TO.C,U2*%
X7620000Y30480000D03*
D31*
X7620000Y27940000D03*
X7620000Y20320000D03*
D32*
X7620000Y17780000D03*
D31*
X7620000Y15240000D03*
%TD*%
D29*
%TO.C,J4*%
X21844000Y4318000D03*
D30*
X24384000Y4318000D03*
%TD*%
D29*
%TO.C,J5*%
X11684000Y4318000D03*
D30*
X14224000Y4318000D03*
%TD*%
D29*
%TO.C,U1*%
X28702000Y30480000D03*
D31*
X28702000Y27940000D03*
X28702000Y20320000D03*
D32*
X28702000Y17780000D03*
D31*
X28702000Y15240000D03*
%TD*%
D29*
%TO.C,J1*%
X44704000Y4318000D03*
D30*
X47244000Y4318000D03*
X49784000Y4318000D03*
%TD*%
%LPD*%
M02*
