%TF.GenerationSoftware,KiCad,Pcbnew,9.0.6*%
%TF.CreationDate,2025-11-25T10:34:57+01:00*%
%TF.ProjectId,mosfet_driver,6d6f7366-6574-45f6-9472-697665722e6b,1.1*%
%TF.SameCoordinates,PX6258c20PY76efc10*%
%TF.FileFunction,Soldermask,Top*%
%TF.FilePolarity,Negative*%
%FSLAX46Y46*%
G04 Gerber Fmt 4.6, Leading zero omitted, Abs format (unit mm)*
G04 Created by KiCad (PCBNEW 9.0.6) date 2025-11-25 10:34:57*
%MOMM*%
%LPD*%
G01*
G04 APERTURE LIST*
G04 Aperture macros list*
%AMRoundRect*
0 Rectangle with rounded corners*
0 $1 Rounding radius*
0 $2 $3 $4 $5 $6 $7 $8 $9 X,Y pos of 4 corners*
0 Add a 4 corners polygon primitive as box body*
4,1,4,$2,$3,$4,$5,$6,$7,$8,$9,$2,$3,0*
0 Add four circle primitives for the rounded corners*
1,1,$1+$1,$2,$3*
1,1,$1+$1,$4,$5*
1,1,$1+$1,$6,$7*
1,1,$1+$1,$8,$9*
0 Add four rect primitives between the rounded corners*
20,1,$1+$1,$2,$3,$4,$5,0*
20,1,$1+$1,$4,$5,$6,$7,0*
20,1,$1+$1,$6,$7,$8,$9,0*
20,1,$1+$1,$8,$9,$2,$3,0*%
G04 Aperture macros list end*
%ADD10RoundRect,0.250000X-0.450000X0.262500X-0.450000X-0.262500X0.450000X-0.262500X0.450000X0.262500X0*%
%ADD11C,2.000000*%
%ADD12RoundRect,0.250000X0.475000X-0.250000X0.475000X0.250000X-0.475000X0.250000X-0.475000X-0.250000X0*%
%ADD13RoundRect,0.250000X-0.262500X-0.450000X0.262500X-0.450000X0.262500X0.450000X-0.262500X0.450000X0*%
%ADD14RoundRect,0.250000X-0.475000X0.250000X-0.475000X-0.250000X0.475000X-0.250000X0.475000X0.250000X0*%
%ADD15RoundRect,0.243750X-0.243750X-0.456250X0.243750X-0.456250X0.243750X0.456250X-0.243750X0.456250X0*%
%ADD16RoundRect,0.250000X0.450000X-0.262500X0.450000X0.262500X-0.450000X0.262500X-0.450000X-0.262500X0*%
%ADD17RoundRect,0.250000X0.262500X0.450000X-0.262500X0.450000X-0.262500X-0.450000X0.262500X-0.450000X0*%
%ADD18RoundRect,0.250000X0.250000X0.475000X-0.250000X0.475000X-0.250000X-0.475000X0.250000X-0.475000X0*%
%ADD19RoundRect,0.150000X0.150000X-0.825000X0.150000X0.825000X-0.150000X0.825000X-0.150000X-0.825000X0*%
%ADD20RoundRect,0.250000X-1.000000X-0.650000X1.000000X-0.650000X1.000000X0.650000X-1.000000X0.650000X0*%
%ADD21RoundRect,0.250000X1.000000X0.650000X-1.000000X0.650000X-1.000000X-0.650000X1.000000X-0.650000X0*%
%ADD22RoundRect,0.250000X-0.250000X-0.475000X0.250000X-0.475000X0.250000X0.475000X-0.250000X0.475000X0*%
%ADD23RoundRect,0.150000X-0.150000X0.875000X-0.150000X-0.875000X0.150000X-0.875000X0.150000X0.875000X0*%
%ADD24C,1.000000*%
%ADD25R,1.700000X1.700000*%
%ADD26C,1.700000*%
%ADD27O,1.700000X1.700000*%
%ADD28O,1.600000X1.700000*%
G04 APERTURE END LIST*
D10*
%TO.C,R9*%
X13716000Y32154500D03*
X13716000Y30329500D03*
%TD*%
D11*
%TO.C,TP8*%
X33274000Y4318000D03*
%TD*%
D12*
%TO.C,C5*%
X22860000Y30292000D03*
X22860000Y32192000D03*
%TD*%
D13*
%TO.C,R17*%
X60301500Y27178000D03*
X62126500Y27178000D03*
%TD*%
D10*
%TO.C,R5*%
X18288000Y36726500D03*
X18288000Y34901500D03*
%TD*%
D11*
%TO.C,TP5*%
X70104000Y12446000D03*
%TD*%
D14*
%TO.C,C12*%
X16256000Y16698000D03*
X16256000Y14798000D03*
%TD*%
D15*
%TO.C,D4*%
X63832500Y27178000D03*
X65707500Y27178000D03*
%TD*%
D12*
%TO.C,C4*%
X24892000Y28260000D03*
X24892000Y30160000D03*
%TD*%
%TO.C,C3*%
X15748000Y30292000D03*
X15748000Y32192000D03*
%TD*%
D14*
%TO.C,C11*%
X22606000Y16698000D03*
X22606000Y14798000D03*
%TD*%
D13*
%TO.C,R10*%
X23471500Y12192000D03*
X25296500Y12192000D03*
%TD*%
D12*
%TO.C,C1*%
X31242000Y28580000D03*
X31242000Y30480000D03*
%TD*%
D10*
%TO.C,R8*%
X16256000Y36726500D03*
X16256000Y34901500D03*
%TD*%
D11*
%TO.C,TP2*%
X44704000Y8636000D03*
%TD*%
D16*
%TO.C,R1*%
X47244000Y22709500D03*
X47244000Y24534500D03*
%TD*%
D14*
%TO.C,C10*%
X13716000Y16698000D03*
X13716000Y14798000D03*
%TD*%
D17*
%TO.C,R15*%
X13509000Y6604000D03*
X11684000Y6604000D03*
%TD*%
D18*
%TO.C,C7*%
X21016000Y30734000D03*
X19116000Y30734000D03*
%TD*%
D19*
%TO.C,U4*%
X54864000Y13781000D03*
X56134000Y13781000D03*
X57404000Y13781000D03*
X58674000Y13781000D03*
X59944000Y13781000D03*
X61214000Y13781000D03*
X62484000Y13781000D03*
X62484000Y18731000D03*
X61214000Y18731000D03*
X59944000Y18731000D03*
X58674000Y18731000D03*
X57404000Y18731000D03*
X56134000Y18731000D03*
X54864000Y18731000D03*
%TD*%
D13*
%TO.C,R13*%
X14581500Y12192000D03*
X16406500Y12192000D03*
%TD*%
D10*
%TO.C,R6*%
X27178000Y34440500D03*
X27178000Y32615500D03*
%TD*%
D11*
%TO.C,TP3*%
X54864000Y8636000D03*
%TD*%
%TO.C,TP9*%
X33274000Y8128000D03*
%TD*%
D20*
%TO.C,D2*%
X11716000Y9398000D03*
X15716000Y9398000D03*
%TD*%
D13*
%TO.C,R2*%
X49379500Y24638000D03*
X51204500Y24638000D03*
%TD*%
D21*
%TO.C,D1*%
X24606000Y9398000D03*
X20606000Y9398000D03*
%TD*%
D14*
%TO.C,C13*%
X52832000Y18730000D03*
X52832000Y16830000D03*
%TD*%
D10*
%TO.C,R7*%
X24892000Y35964500D03*
X24892000Y34139500D03*
%TD*%
D22*
%TO.C,C6*%
X17526000Y32766000D03*
X19426000Y32766000D03*
%TD*%
D23*
%TO.C,U3*%
X22606000Y28096000D03*
X21336000Y28096000D03*
X20066000Y28096000D03*
X18796000Y28096000D03*
X17526000Y28096000D03*
X16256000Y28096000D03*
X14986000Y28096000D03*
X13716000Y28096000D03*
X13716000Y18796000D03*
X14986000Y18796000D03*
X16256000Y18796000D03*
X17526000Y18796000D03*
X18796000Y18796000D03*
X20066000Y18796000D03*
X21336000Y18796000D03*
X22606000Y18796000D03*
%TD*%
D24*
%TO.C,FID2*%
X73000000Y2000000D03*
%TD*%
D11*
%TO.C,TP12*%
X6858000Y4318000D03*
%TD*%
D18*
%TO.C,C8*%
X11872000Y28448000D03*
X9972000Y28448000D03*
%TD*%
D13*
%TO.C,R16*%
X60301500Y29718000D03*
X62126500Y29718000D03*
%TD*%
D17*
%TO.C,R11*%
X21740500Y12192000D03*
X19915500Y12192000D03*
%TD*%
D18*
%TO.C,C2*%
X11872000Y30480000D03*
X9972000Y30480000D03*
%TD*%
D17*
%TO.C,R3*%
X30884500Y32766000D03*
X29059500Y32766000D03*
%TD*%
D11*
%TO.C,TP13*%
X6858000Y8128000D03*
%TD*%
%TO.C,TP6*%
X29464000Y8128000D03*
%TD*%
D17*
%TO.C,R12*%
X12850500Y12192000D03*
X11025500Y12192000D03*
%TD*%
D15*
%TO.C,D3*%
X63832500Y29718000D03*
X65707500Y29718000D03*
%TD*%
D11*
%TO.C,TP11*%
X3048000Y4318000D03*
%TD*%
%TO.C,TP1*%
X70104000Y8636000D03*
%TD*%
D15*
%TO.C,D6*%
X63832500Y24638000D03*
X65707500Y24638000D03*
%TD*%
D24*
%TO.C,FID1*%
X2000000Y38000000D03*
%TD*%
D13*
%TO.C,R19*%
X60301500Y24638000D03*
X62126500Y24638000D03*
%TD*%
D11*
%TO.C,TP10*%
X3048000Y8128000D03*
%TD*%
D10*
%TO.C,R4*%
X22860000Y35964500D03*
X22860000Y34139500D03*
%TD*%
D17*
%TO.C,R14*%
X23669000Y6604000D03*
X21844000Y6604000D03*
%TD*%
D11*
%TO.C,TP7*%
X29464000Y4318000D03*
%TD*%
D13*
%TO.C,R20*%
X60301500Y34798000D03*
X62126500Y34798000D03*
%TD*%
D15*
%TO.C,D7*%
X63832500Y34798000D03*
X65707500Y34798000D03*
%TD*%
D14*
%TO.C,C9*%
X20066000Y16698000D03*
X20066000Y14798000D03*
%TD*%
D11*
%TO.C,TP4*%
X65024000Y8636000D03*
%TD*%
D25*
%TO.C,J3*%
X65024000Y4318000D03*
D26*
X67564000Y4318000D03*
X70104000Y4318000D03*
%TD*%
D25*
%TO.C,J2*%
X54864000Y4318000D03*
D26*
X57404000Y4318000D03*
X59944000Y4318000D03*
%TD*%
D25*
%TO.C,U2*%
X7620000Y30480000D03*
D27*
X7620000Y27940000D03*
X7620000Y20320000D03*
D28*
X7620000Y17780000D03*
D27*
X7620000Y15240000D03*
%TD*%
D25*
%TO.C,J4*%
X21844000Y4318000D03*
D26*
X24384000Y4318000D03*
%TD*%
D25*
%TO.C,J5*%
X11684000Y4318000D03*
D26*
X14224000Y4318000D03*
%TD*%
D25*
%TO.C,U1*%
X28702000Y30480000D03*
D27*
X28702000Y27940000D03*
X28702000Y20320000D03*
D28*
X28702000Y17780000D03*
D27*
X28702000Y15240000D03*
%TD*%
D25*
%TO.C,J1*%
X44704000Y4318000D03*
D26*
X47244000Y4318000D03*
X49784000Y4318000D03*
%TD*%
M02*
